<svg version="1.1" viewBox="0.0 0.0 600.0 371.0" fill="none" stroke="none" stroke-linecap="square" stroke-miterlimit="10" width="600" height="371" xmlns:xlink="http://www.w3.org/1999/xlink" xmlns="http://www.w3.org/2000/svg"><path fill="#ffffff" d="M0 0L600.0 0L600.0 371.0L0 371.0L0 0Z" fill-rule="nonzero"/><path stroke="#333333" stroke-width="1.0" stroke-linecap="butt" d="M76.5 300.5L581.5 300.5" fill-rule="nonzero"/><path fill="#eeeeee" d="M45.5 331.5L76.5 301.5L581.5 301.5L550.5 331.5Z" fill-rule="nonzero"/><path stroke="#cccccc" stroke-width="1.0" stroke-linecap="butt" d="M76.5 240.5L581.5 240.5" fill-rule="nonzero"/><path stroke="#cccccc" stroke-width="1.0" stroke-linecap="butt" d="M76.5 181.5L581.5 181.5" fill-rule="nonzero"/><path stroke="#cccccc" stroke-width="1.0" stroke-linecap="butt" d="M76.5 121.5L581.5 121.5" fill-rule="nonzero"/><path stroke="#cccccc" stroke-width="1.0" stroke-linecap="butt" d="M76.5 62.5L581.5 62.5" fill-rule="nonzero"/><path stroke="#000000" stroke-width="1.0" stroke-linecap="butt" stroke-opacity="0.0" d="M76.5 280.5L581.5 280.5" fill-rule="nonzero"/><path stroke="#000000" stroke-width="1.0" stroke-linecap="butt" stroke-opacity="0.0" d="M76.5 260.5L581.5 260.5" fill-rule="nonzero"/><path stroke="#000000" stroke-width="1.0" stroke-linecap="butt" stroke-opacity="0.0" d="M76.5 221.5L581.5 221.5" fill-rule="nonzero"/><path stroke="#000000" stroke-width="1.0" stroke-linecap="butt" stroke-opacity="0.0" d="M76.5 201.5L581.5 201.5" fill-rule="nonzero"/><path stroke="#000000" stroke-width="1.0" stroke-linecap="butt" stroke-opacity="0.0" d="M76.5 161.5L581.5 161.5" fill-rule="nonzero"/><path stroke="#000000" stroke-width="1.0" stroke-linecap="butt" stroke-opacity="0.0" d="M76.5 141.5L581.5 141.5" fill-rule="nonzero"/><path stroke="#000000" stroke-width="1.0" stroke-linecap="butt" stroke-opacity="0.0" d="M76.5 102.5L581.5 102.5" fill-rule="nonzero"/><path stroke="#000000" stroke-width="1.0" stroke-linecap="butt" stroke-opacity="0.0" d="M76.5 82.5L581.5 82.5" fill-rule="nonzero"/><clipPath id="id_0"><path d="M45.55 62.416668L581.45 62.416668L581.45 331.45L45.55 331.45L45.55 62.416668Z" clip-rule="nonzero"/></clipPath><path fill="#2b569f" clip-path="url(#id_0)" d="M219.0 253.0L219.0 300.0L193.0 326.0L193.0 279.0Z" fill-rule="nonzero"/><path fill="#689df6" clip-path="url(#id_0)" d="M193.0 279.0L89.0 279.0L115.0 253.0L219.0 253.0Z" fill-rule="nonzero"/><path stroke="#000000" stroke-width="2.0" stroke-linecap="butt" stroke-opacity="0.0" clip-path="url(#id_0)" d="M193.0 326.0L89.0 326.0L89.0 279.0L193.0 279.0Z" fill-rule="nonzero"/><path fill="#4285f4" clip-path="url(#id_0)" d="M193.0 326.0L89.0 326.0L89.0 279.0L193.0 279.0Z" fill-rule="nonzero"/><path fill="#2b569f" clip-path="url(#id_0)" d="M379.0 158.0L379.0 300.0L353.0 326.0L353.0 184.0Z" fill-rule="nonzero"/><path fill="#689df6" clip-path="url(#id_0)" d="M353.0 184.0L249.0 184.0L275.0 158.0L379.0 158.0Z" fill-rule="nonzero"/><path stroke="#000000" stroke-width="2.0" stroke-linecap="butt" stroke-opacity="0.0" clip-path="url(#id_0)" d="M353.0 326.0L249.0 326.0L249.0 184.0L353.0 184.0Z" fill-rule="nonzero"/><path fill="#4285f4" clip-path="url(#id_0)" d="M353.0 326.0L249.0 326.0L249.0 184.0L353.0 184.0Z" fill-rule="nonzero"/><path fill="#2b569f" clip-path="url(#id_0)" d="M538.0 86.0L538.0 300.0L512.0 326.0L512.0 112.0Z" fill-rule="nonzero"/><path fill="#689df6" clip-path="url(#id_0)" d="M512.0 112.0L408.0 112.0L434.0 86.0L538.0 86.0Z" fill-rule="nonzero"/><path stroke="#000000" stroke-width="2.0" stroke-linecap="butt" stroke-opacity="0.0" clip-path="url(#id_0)" d="M512.0 326.0L408.0 326.0L408.0 112.0L512.0 112.0Z" fill-rule="nonzero"/><path fill="#4285f4" clip-path="url(#id_0)" d="M512.0 326.0L408.0 326.0L408.0 112.0L512.0 112.0Z" fill-rule="nonzero"/><path stroke="#4285f4" stroke-width="3.0" stroke-linejoin="round" stroke-linecap="round" d="M143.96875 304.27167L143.96875 305.1623L137.8125 305.1623L137.8125 304.52167L141.625 298.61542L142.51562 298.61542L141.5625 300.31854L139.04688 304.27167L143.96875 304.27167ZM142.78125 298.61542L142.78125 307.14667L141.70312 307.14667L141.70312 298.61542L142.78125 298.61542Z" fill-rule="nonzero"/><path fill="#ffffff" d="M143.96875 304.27167L143.96875 305.1623L137.8125 305.1623L137.8125 304.52167L141.625 298.61542L142.51562 298.61542L141.5625 300.31854L139.04688 304.27167L143.96875 304.27167ZM142.78125 298.61542L142.78125 307.14667L141.70312 307.14667L141.70312 298.61542L142.78125 298.61542Z" fill-rule="nonzero"/><path stroke="#4285f4" stroke-width="3.0" stroke-linejoin="round" stroke-linecap="round" d="M298.26562 250.96187L298.26562 259.54L297.1875 259.54L297.1875 252.32124L295.0 253.11812L295.0 252.13374L298.10938 250.96187L298.26562 250.96187ZM307.29688 258.64938L307.29688 259.54L301.71875 259.54L301.71875 258.75876L304.51562 255.64937Q305.03125 255.07124 305.3125 254.68062Q305.59375 254.27437 305.70312 253.96187Q305.82812 253.63374 305.82812 253.30562Q305.82812 252.88374 305.65625 252.54Q305.48438 252.19624 305.14062 251.99312Q304.8125 251.77437 304.32812 251.77437Q303.76562 251.77437 303.39062 252.00874Q303.01562 252.2275 302.82812 252.61812Q302.64062 253.00874 302.64062 253.50874L301.54688 253.50874Q301.54688 252.79 301.85938 252.19624Q302.1875 251.6025 302.79688 251.24312Q303.42188 250.88374 304.32812 250.88374Q305.14062 250.88374 305.71875 251.18062Q306.29688 251.46187 306.59375 251.9775Q306.90625 252.4775 306.90625 253.165Q306.90625 253.54 306.78125 253.93062Q306.65625 254.30562 306.4375 254.69624Q306.21875 255.07124 305.92188 255.44624Q305.64062 255.80562 305.3125 256.165L303.01562 258.64938L307.29688 258.64938Z" fill-rule="nonzero"/><path fill="#ffffff" d="M298.26562 250.96188L298.26562 259.54L297.1875 259.54L297.1875 252.32126L295.0 253.11813L295.0 252.13376L298.10938 250.96188L298.26562 250.96188ZM307.29688 258.64938L307.29688 259.54L301.71875 259.54L301.71875 258.75876L304.51562 255.64938Q305.03125 255.07126 305.3125 254.68063Q305.59375 254.27438 305.70312 253.96188Q305.82812 253.63376 305.82812 253.30563Q305.82812 252.88376 305.65625 252.54001Q305.48438 252.19626 305.14062 251.99313Q304.8125 251.77438 304.32812 251.77438Q303.76562 251.77438 303.39062 252.00876Q303.01562 252.22751 302.82812 252.61813Q302.64062 253.00876 302.64062 253.50876L301.54688 253.50876Q301.54688 252.79001 301.85938 252.19626Q302.1875 251.60251 302.79688 251.24313Q303.42188 250.88376 304.32812 250.88376Q305.14062 250.88376 305.71875 251.18063Q306.29688 251.46188 306.59375 251.97751Q306.90625 252.47751 306.90625 253.16501Q306.90625 253.54001 306.78125 253.93063Q306.65625 254.30563 306.4375 254.69626Q306.21875 255.07126 305.92188 255.44626Q305.64062 255.80563 305.3125 256.165L303.01562 258.64938L307.29688 258.64938Z" fill-rule="nonzero"/><path stroke="#4285f4" stroke-width="3.0" stroke-linejoin="round" stroke-linecap="round" d="M457.26562 215.25688L457.26562 223.835L456.1875 223.835L456.1875 216.61626L454.0 217.41313L454.0 216.42876L457.10938 215.25688L457.26562 215.25688ZM466.09375 221.5225Q466.09375 222.30376 465.73438 222.85063Q465.375 223.38188 464.75 223.67876Q464.14062 223.96 463.375 223.96Q462.60938 223.96 461.98438 223.67876Q461.375 223.38188 461.01562 222.85063Q460.65625 222.30376 460.65625 221.5225Q460.65625 221.0225 460.85938 220.60063Q461.0625 220.16313 461.42188 219.85063Q461.78125 219.53813 462.26562 219.36626Q462.76562 219.19438 463.35938 219.19438Q464.15625 219.19438 464.76562 219.49126Q465.375 219.78813 465.73438 220.31938Q466.09375 220.85063 466.09375 221.5225ZM465.0 221.50688Q465.0 221.0225 464.79688 220.66313Q464.59375 220.28813 464.21875 220.085Q463.84375 219.88188 463.35938 219.88188Q462.85938 219.88188 462.5 220.085Q462.14062 220.28813 461.9375 220.66313Q461.75 221.0225 461.75 221.50688Q461.75 221.99126 461.9375 222.35063Q462.14062 222.69438 462.5 222.88188Q462.875 223.05376 463.375 223.05376Q463.875 223.05376 464.23438 222.88188Q464.60938 222.69438 464.79688 222.35063Q465.0 221.99126 465.0 221.50688ZM465.89062 217.5225Q465.89062 218.1475 465.5625 218.6475Q465.23438 219.1475 464.65625 219.42876Q464.09375 219.71 463.375 219.71Q462.64062 219.71 462.0625 219.42876Q461.5 219.1475 461.17188 218.6475Q460.85938 218.1475 460.85938 217.5225Q460.85938 216.7725 461.17188 216.25688Q461.5 215.74126 462.0625 215.46Q462.64062 215.17876 463.375 215.17876Q464.10938 215.17876 464.67188 215.46Q465.23438 215.74126 465.5625 216.25688Q465.89062 216.7725 465.89062 217.5225ZM464.8125 217.53813Q464.8125 217.11626 464.625 216.78813Q464.4375 216.46 464.10938 216.2725Q463.79688 216.06938 463.375 216.06938Q462.9375 216.06938 462.60938 216.25688Q462.29688 216.42876 462.125 216.75688Q461.95312 217.085 461.95312 217.53813Q461.95312 217.97563 462.125 218.30376Q462.29688 218.63188 462.625 218.81938Q462.95312 219.00688 463.375 219.00688Q463.79688 219.00688 464.10938 218.81938Q464.4375 218.63188 464.625 218.30376Q464.8125 217.97563 464.8125 217.53813Z" fill-rule="nonzero"/><path fill="#ffffff" d="M457.26562 215.25688L457.26562 223.835L456.1875 223.835L456.1875 216.61626L454.0 217.41313L454.0 216.42876L457.10938 215.25688L457.26562 215.25688ZM466.09375 221.5225Q466.09375 222.30376 465.73438 222.85063Q465.375 223.38188 464.75 223.67876Q464.14062 223.96 463.375 223.96Q462.60938 223.96 461.98438 223.67876Q461.375 223.38188 461.01562 222.85063Q460.65625 222.30376 460.65625 221.5225Q460.65625 221.0225 460.85938 220.60063Q461.0625 220.16313 461.42188 219.85063Q461.78125 219.53813 462.26562 219.36626Q462.76562 219.19438 463.35938 219.19438Q464.15625 219.19438 464.76562 219.49126Q465.375 219.78813 465.73438 220.31938Q466.09375 220.85063 466.09375 221.5225ZM465.0 221.50688Q465.0 221.0225 464.79688 220.66313Q464.59375 220.28813 464.21875 220.085Q463.84375 219.88188 463.35938 219.88188Q462.85938 219.88188 462.5 220.085Q462.14062 220.28813 461.9375 220.66313Q461.75 221.0225 461.75 221.50688Q461.75 221.99126 461.9375 222.35063Q462.14062 222.69438 462.5 222.88188Q462.875 223.05376 463.375 223.05376Q463.875 223.05376 464.23438 222.88188Q464.60938 222.69438 464.79688 222.35063Q465.0 221.99126 465.0 221.50688ZM465.89062 217.5225Q465.89062 218.1475 465.5625 218.6475Q465.23438 219.1475 464.65625 219.42876Q464.09375 219.71 463.375 219.71Q462.64062 219.71 462.0625 219.42876Q461.5 219.1475 461.17188 218.6475Q460.85938 218.1475 460.85938 217.5225Q460.85938 216.7725 461.17188 216.25688Q461.5 215.74126 462.0625 215.46Q462.64062 215.17876 463.375 215.17876Q464.10938 215.17876 464.67188 215.46Q465.23438 215.74126 465.5625 216.25688Q465.89062 216.7725 465.89062 217.5225ZM464.8125 217.53813Q464.8125 217.11626 464.625 216.78813Q464.4375 216.46 464.10938 216.2725Q463.79688 216.06938 463.375 216.06938Q462.9375 216.06938 462.60938 216.25688Q462.29688 216.42876 462.125 216.75688Q461.95312 217.085 461.95312 217.53813Q461.95312 217.97563 462.125 218.30376Q462.29688 218.63188 462.625 218.81938Q462.95312 219.00688 463.375 219.00688Q463.79688 219.00688 464.10938 218.81938Q464.4375 218.63188 464.625 218.30376Q464.8125 217.97563 464.8125 217.53813Z" fill-rule="nonzero"/><path fill="#000000" d="M38.6125 299.9969L38.6125 301.3094Q38.6125 302.35626 38.425 303.075Q38.2375 303.79376 37.878124 304.23126Q37.534374 304.66876 37.034374 304.8719Q36.55 305.075 35.925 305.075Q35.440624 305.075 35.01875 304.95Q34.596874 304.825 34.26875 304.5594Q33.940624 304.27814 33.70625 303.84064Q33.471874 303.40314 33.346874 302.77814Q33.221874 302.1375 33.221874 301.3094L33.221874 299.9969Q33.221874 298.95 33.409374 298.2469Q33.6125 297.54376 33.95625 297.10626Q34.315624 296.66876 34.8 296.48126Q35.3 296.29376 35.909374 296.29376Q36.409374 296.29376 36.83125 296.41876Q37.253124 296.54376 37.58125 296.8094Q37.909374 297.0594 38.128124 297.4969Q38.3625 297.91876 38.4875 298.54376Q38.6125 299.16876 38.6125 299.9969ZM37.51875 301.48126L37.51875 299.825Q37.51875 299.2469 37.45625 298.8094Q37.39375 298.3719 37.253124 298.0594Q37.128124 297.7469 36.925 297.5594Q36.7375 297.3719 36.4875 297.27814Q36.2375 297.1844 35.909374 297.1844Q35.534374 297.1844 35.221874 297.325Q34.925 297.46564 34.721874 297.77814Q34.51875 298.09064 34.409374 298.60626Q34.315624 299.10626 34.315624 299.825L34.315624 301.48126Q34.315624 302.0594 34.378124 302.4969Q34.45625 302.9344 34.58125 303.2625Q34.721874 303.575 34.909374 303.77814Q35.1125 303.98126 35.3625 304.075Q35.6125 304.16876 35.925 304.16876Q36.33125 304.16876 36.628124 304.02814Q36.925 303.8719 37.128124 303.54376Q37.33125 303.21564 37.425 302.71564Q37.51875 302.2 37.51875 301.48126Z" fill-rule="nonzero"/><path fill="#000000" d="M34.628124 241.37917L33.76875 241.16042L34.190624 236.91042L38.565624 236.91042L38.565624 237.91042L35.1125 237.91042L34.846874 240.23854Q35.08125 240.09792 35.440624 239.98854Q35.815624 239.86354 36.284374 239.86354Q36.8625 239.86354 37.33125 240.06667Q37.8 240.26979 38.128124 240.64479Q38.471874 241.01979 38.64375 241.55104Q38.815624 242.06667 38.815624 242.72292Q38.815624 243.33229 38.64375 243.84792Q38.4875 244.36354 38.14375 244.75417Q37.815624 245.12917 37.3 245.34792Q36.8 245.56667 36.1125 245.56667Q35.596874 245.56667 35.14375 245.42604Q34.690624 245.26979 34.315624 244.97292Q33.95625 244.67604 33.7375 244.23854Q33.51875 243.80104 33.45625 243.19167L34.4875 243.19167Q34.55 243.67604 34.753124 244.00417Q34.971874 244.33229 35.315624 244.50417Q35.659374 244.66042 36.1125 244.66042Q36.503124 244.66042 36.8 244.53542Q37.096874 244.39479 37.3 244.14479Q37.51875 243.89479 37.628124 243.53542Q37.7375 243.17604 37.7375 242.73854Q37.7375 242.33229 37.6125 241.98854Q37.503124 241.64479 37.284374 241.39479Q37.065624 241.12917 36.753124 240.98854Q36.440624 240.83229 36.01875 240.83229Q35.4875 240.83229 35.20625 240.98854Q34.925 241.12917 34.628124 241.37917Z" fill-rule="nonzero"/><path fill="#000000" d="M29.815624 177.35521L29.815624 185.93333L28.7375 185.93333L28.7375 178.71458L26.55 179.51146L26.55 178.52708L29.659374 177.35521L29.815624 177.35521ZM38.6125 180.98021L38.6125 182.29271Q38.6125 183.33958 38.425 184.05833Q38.2375 184.77708 37.878124 185.21458Q37.534374 185.65208 37.034374 185.85521Q36.55 186.05833 35.925 186.05833Q35.440624 186.05833 35.01875 185.93333Q34.596874 185.80833 34.26875 185.54271Q33.940624 185.26146 33.70625 184.82396Q33.471874 184.38646 33.346874 183.76146Q33.221874 183.12083 33.221874 182.29271L33.221874 180.98021Q33.221874 179.93333 33.409374 179.23021Q33.6125 178.52708 33.95625 178.08958Q34.315624 177.65208 34.8 177.46458Q35.3 177.27708 35.909374 177.27708Q36.409374 177.27708 36.83125 177.40208Q37.253124 177.52708 37.58125 177.79271Q37.909374 178.04271 38.128124 178.48021Q38.3625 178.90208 38.4875 179.52708Q38.6125 180.15208 38.6125 180.98021ZM37.51875 182.46458L37.51875 180.80833Q37.51875 180.23021 37.45625 179.79271Q37.39375 179.35521 37.253124 179.04271Q37.128124 178.73021 36.925 178.54271Q36.7375 178.35521 36.4875 178.26146Q36.2375 178.16771 35.909374 178.16771Q35.534374 178.16771 35.221874 178.30833Q34.925 178.44896 34.721874 178.76146Q34.51875 179.07396 34.409374 179.58958Q34.315624 180.08958 34.315624 180.80833L34.315624 182.46458Q34.315624 183.04271 34.378124 183.48021Q34.45625 183.91771 34.58125 184.24583Q34.721874 184.55833 34.909374 184.76146Q35.1125 184.96458 35.3625 185.05833Q35.6125 185.15208 35.925 185.15208Q36.33125 185.15208 36.628124 185.01146Q36.925 184.85521 37.128124 184.52708Q37.33125 184.19896 37.425 183.69896Q37.51875 183.18333 37.51875 182.46458Z" fill-rule="nonzero"/><path fill="#000000" d="M29.815624 117.84688L29.815624 126.425L28.7375 126.425L28.7375 119.20625L26.55 120.00313L26.55 119.01875L29.659374 117.84688L29.815624 117.84688ZM34.628124 122.3625L33.76875 122.14375L34.190624 117.89375L38.565624 117.89375L38.565624 118.89375L35.1125 118.89375L34.846874 121.22188Q35.08125 121.08125 35.440624 120.97188Q35.815624 120.84688 36.284374 120.84688Q36.8625 120.84688 37.33125 121.05Q37.8 121.25313 38.128124 121.62813Q38.471874 122.00313 38.64375 122.53438Q38.815624 123.05 38.815624 123.70625Q38.815624 124.31563 38.64375 124.83125Q38.4875 125.34688 38.14375 125.7375Q37.815624 126.1125 37.3 126.33125Q36.8 126.55 36.1125 126.55Q35.596874 126.55 35.14375 126.40938Q34.690624 126.25313 34.315624 125.95625Q33.95625 125.65938 33.7375 125.22188Q33.51875 124.78438 33.45625 124.175L34.4875 124.175Q34.55 124.65938 34.753124 124.9875Q34.971874 125.31563 35.315624 125.4875Q35.659374 125.64375 36.1125 125.64375Q36.503124 125.64375 36.8 125.51875Q37.096874 125.37813 37.3 125.12813Q37.51875 124.87813 37.628124 124.51875Q37.7375 124.15938 37.7375 123.72188Q37.7375 123.31563 37.6125 122.97188Q37.503124 122.62813 37.284374 122.37813Q37.065624 122.1125 36.753124 121.97188Q36.440624 121.81563 36.01875 121.81563Q35.4875 121.81563 35.20625 121.97188Q34.925 122.1125 34.628124 122.3625Z" fill-rule="nonzero"/><path fill="#000000" d="M31.846874 66.02604L31.846874 66.916664L26.26875 66.916664L26.26875 66.135414L29.065624 63.02604Q29.58125 62.447914 29.8625 62.05729Q30.14375 61.65104 30.253124 61.33854Q30.378124 61.010414 30.378124 60.68229Q30.378124 60.260414 30.20625 59.916664Q30.034374 59.572914 29.690624 59.36979Q29.3625 59.15104 28.878124 59.15104Q28.315624 59.15104 27.940624 59.385414Q27.565624 59.604164 27.378124 59.99479Q27.190624 60.385414 27.190624 60.885414L26.096874 60.885414Q26.096874 60.166664 26.409374 59.572914Q26.7375 58.979164 27.346874 58.61979Q27.971874 58.260414 28.878124 58.260414Q29.690624 58.260414 30.26875 58.55729Q30.846874 58.83854 31.14375 59.354164Q31.45625 59.854164 31.45625 60.541664Q31.45625 60.916664 31.33125 61.30729Q31.20625 61.68229 30.9875 62.072914Q30.76875 62.447914 30.471874 62.822914Q30.190624 63.18229 29.8625 63.541664L27.565624 66.02604L31.846874 66.02604ZM38.6125 61.96354L38.6125 63.27604Q38.6125 64.322914 38.425 65.041664Q38.2375 65.760414 37.878124 66.197914Q37.534374 66.635414 37.034374 66.83854Q36.55 67.041664 35.925 67.041664Q35.440624 67.041664 35.01875 66.916664Q34.596874 66.791664 34.26875 66.52604Q33.940624 66.24479 33.70625 65.80729Q33.471874 65.36979 33.346874 64.74479Q33.221874 64.104164 33.221874 63.27604L33.221874 61.96354Q33.221874 60.916664 33.409374 60.21354Q33.6125 59.510414 33.95625 59.072914Q34.315624 58.635414 34.8 58.447914Q35.3 58.260414 35.909374 58.260414Q36.409374 58.260414 36.83125 58.385414Q37.253124 58.510414 37.58125 58.77604Q37.909374 59.02604 38.128124 59.46354Q38.3625 59.885414 38.4875 60.510414Q38.6125 61.135414 38.6125 61.96354ZM37.51875 63.447914L37.51875 61.791664Q37.51875 61.21354 37.45625 60.77604Q37.39375 60.33854 37.253124 60.02604Q37.128124 59.71354 36.925 59.52604Q36.7375 59.33854 36.4875 59.24479Q36.2375 59.15104 35.909374 59.15104Q35.534374 59.15104 35.221874 59.291664Q34.925 59.43229 34.721874 59.74479Q34.51875 60.05729 34.409374 60.572914Q34.315624 61.072914 34.315624 61.791664L34.315624 63.447914Q34.315624 64.02604 34.378124 64.46354Q34.45625 64.90104 34.58125 65.229164Q34.721874 65.541664 34.909374 65.74479Q35.1125 65.947914 35.3625 66.041664Q35.6125 66.135414 35.925 66.135414Q36.33125 66.135414 36.628124 65.99479Q36.925 65.83854 37.128124 65.510414Q37.33125 65.18229 37.425 64.68229Q37.51875 64.166664 37.51875 63.447914Z" fill-rule="nonzero"/><path fill="#000000" d="M121.436104 348.52814L121.436104 349.45L116.92048 349.45L116.92048 348.52814L121.436104 348.52814ZM117.154854 340.91876L117.154854 349.45L116.01423 349.45L116.01423 340.91876L117.154854 340.91876ZM120.842354 344.59064L120.842354 345.5125L116.92048 345.5125L116.92048 344.59064L120.842354 344.59064ZM121.38923 340.91876L121.38923 341.84064L116.92048 341.84064L116.92048 340.91876L121.38923 340.91876ZM126.592354 348.3719L126.592354 345.10626Q126.592354 344.73126 126.436104 344.45Q126.29548 344.16876 125.998604 344.02814Q125.70173 343.8719 125.26423 343.8719Q124.842354 343.8719 124.529854 344.0125Q124.23298 344.15314 124.061104 344.3875Q123.88923 344.60626 123.88923 344.8719L122.811104 344.8719Q122.811104 344.52814 122.98298 344.2Q123.154854 343.85626 123.48298 343.59064Q123.811104 343.3094 124.279854 343.15314Q124.748604 342.9969 125.32673 342.9969Q126.01423 342.9969 126.54548 343.23126Q127.07673 343.46564 127.373604 343.9344Q127.686104 344.40314 127.686104 345.10626L127.686104 348.0594Q127.686104 348.3875 127.73298 348.7469Q127.79548 349.09064 127.904854 349.35626L127.904854 349.45L126.76423 349.45Q126.686104 349.2625 126.63923 348.95Q126.592354 348.6375 126.592354 348.3719ZM126.779854 345.60626L126.79548 346.3719L125.70173 346.3719Q125.23298 346.3719 124.873604 346.45Q124.51423 346.5125 124.26423 346.66876Q124.01423 346.8094 123.88923 347.02814Q123.76423 347.2469 123.76423 347.54376Q123.76423 347.84064 123.88923 348.09064Q124.029854 348.325 124.29548 348.48126Q124.57673 348.6219 124.967354 348.6219Q125.467354 348.6219 125.842354 348.41876Q126.23298 348.2 126.45173 347.90314Q126.686104 347.59064 126.70173 347.29376L127.17048 347.825Q127.123604 348.0594 126.936104 348.3719Q126.76423 348.66876 126.45173 348.95Q126.154854 349.21564 125.73298 349.40314Q125.32673 349.575 124.811104 349.575Q124.17048 349.575 123.686104 349.325Q123.20173 349.0594 122.936104 348.6375Q122.67048 348.21564 122.67048 347.6844Q122.67048 347.16876 122.85798 346.79376Q123.061104 346.40314 123.436104 346.1375Q123.811104 345.8719 124.342354 345.7469Q124.873604 345.60626 125.529854 345.60626L126.779854 345.60626ZM130.9361 344.10626L130.9361 349.45L129.85797 349.45L129.85797 343.10626L130.90485 343.10626L130.9361 344.10626ZM132.92047 343.075L132.92047 344.075Q132.77985 344.0594 132.65485 344.04376Q132.54547 344.02814 132.38922 344.02814Q132.01422 344.02814 131.71735 344.15314Q131.4361 344.2625 131.23297 344.48126Q131.04547 344.6844 130.92047 344.98126Q130.8111 345.27814 130.77985 345.6219L130.46735 345.79376Q130.46735 345.21564 130.57672 344.71564Q130.70172 344.21564 130.9361 343.825Q131.1861 343.4344 131.54547 343.21564Q131.92047 342.9969 132.4361 342.9969Q132.5611 342.9969 132.70172 343.02814Q132.85797 343.04376 132.92047 343.075ZM135.02985 340.45L135.02985 349.45L133.95172 349.45L133.95172 340.45L135.02985 340.45ZM138.63922 348.79376L140.40485 343.10626L141.5611 343.10626L139.01422 350.4344Q138.9361 350.66876 138.77985 350.9344Q138.63922 351.21564 138.42047 351.45Q138.20172 351.7 137.88922 351.85626Q137.57672 352.0125 137.13922 352.0125Q137.01422 352.0125 136.8111 351.96564Q136.60797 351.9344 136.52985 351.91876L136.52985 351.04376Q136.57672 351.04376 136.67047 351.04376Q136.77985 351.0594 136.8111 351.0594Q137.1861 351.0594 137.4361 350.96564Q137.70172 350.8719 137.8736 350.6375Q138.0611 350.41876 138.1861 350.02814L138.63922 348.79376ZM137.34235 343.10626L138.98297 348.02814L139.26422 349.16876L138.4986 349.575L136.15485 343.10626L137.34235 343.10626ZM145.85797 340.45L146.9361 340.45L146.9361 348.21564L146.84235 349.45L145.85797 349.45L145.85797 340.45ZM151.21735 346.23126L151.21735 346.35626Q151.21735 347.04376 151.04547 347.6375Q150.88922 348.21564 150.57672 348.65314Q150.26422 349.09064 149.79547 349.34064Q149.34235 349.575 148.76422 349.575Q148.15485 349.575 147.70172 349.3719Q147.2486 349.15314 146.9361 348.7625Q146.6236 348.3719 146.4361 347.8094Q146.2486 347.2469 146.1861 346.5594L146.1861 346.0125Q146.2486 345.3094 146.4361 344.7625Q146.6236 344.2 146.9361 343.8094Q147.2486 343.40314 147.70172 343.2Q148.15485 342.9969 148.7486 342.9969Q149.34235 342.9969 149.79547 343.23126Q150.26422 343.45 150.57672 343.8875Q150.88922 344.3094 151.04547 344.90314Q151.21735 345.4969 151.21735 346.23126ZM150.13922 346.35626L150.13922 346.23126Q150.13922 345.7469 150.04547 345.34064Q149.95172 344.91876 149.76422 344.60626Q149.57672 344.27814 149.2486 344.09064Q148.9361 343.90314 148.48297 343.90314Q148.0611 343.90314 147.76422 344.04376Q147.46735 344.1844 147.2486 344.4344Q147.04547 344.66876 146.90485 344.96564Q146.77985 345.2625 146.71735 345.59064L146.71735 346.9969Q146.8111 347.40314 147.01422 347.79376Q147.23297 348.16876 147.59235 348.41876Q147.95172 348.65314 148.48297 348.65314Q148.92047 348.65314 149.23297 348.48126Q149.5611 348.29376 149.7486 347.98126Q149.95172 347.65314 150.04547 347.2469Q150.13922 346.825 150.13922 346.35626ZM154.02985 343.10626L154.02985 349.45L152.95172 349.45L152.95172 343.10626L154.02985 343.10626ZM152.85797 341.4344Q152.85797 341.16876 153.01422 340.98126Q153.1861 340.79376 153.4986 340.79376Q153.8111 340.79376 153.96735 340.98126Q154.13922 341.16876 154.13922 341.4344Q154.13922 341.6844 153.96735 341.8719Q153.8111 342.04376 153.4986 342.04376Q153.1861 342.04376 153.01422 341.8719Q152.85797 341.6844 152.85797 341.4344ZM156.9361 344.10626L156.9361 349.45L155.85797 349.45L155.85797 343.10626L156.90485 343.10626L156.9361 344.10626ZM158.92047 343.075L158.92047 344.075Q158.77985 344.0594 158.65485 344.04376Q158.54547 344.02814 158.38922 344.02814Q158.01422 344.02814 157.71735 344.15314Q157.4361 344.2625 157.23297 344.48126Q157.04547 344.6844 156.92047 344.98126Q156.8111 345.27814 156.77985 345.6219L156.46735 345.79376Q156.46735 345.21564 156.57672 344.71564Q156.70172 344.21564 156.9361 343.825Q157.1861 343.4344 157.54547 343.21564Q157.92047 342.9969 158.4361 342.9969Q158.5611 342.9969 158.70172 343.02814Q158.85797 343.04376 158.92047 343.075ZM163.85797 348.21564L163.85797 340.45L164.9361 340.45L164.9361 349.45L163.95172 349.45L163.85797 348.21564ZM159.59235 346.35626L159.59235 346.23126Q159.59235 345.4969 159.76422 344.90314Q159.95172 344.3094 160.27985 343.8875Q160.60797 343.45 161.0611 343.23126Q161.52985 342.9969 162.09235 342.9969Q162.6861 342.9969 163.13922 343.2Q163.59235 343.40314 163.90485 343.8094Q164.21735 344.2 164.38922 344.7625Q164.57672 345.3094 164.65485 346.0125L164.65485 346.5594Q164.59235 347.2469 164.40485 347.8094Q164.21735 348.3719 163.90485 348.7625Q163.59235 349.15314 163.13922 349.3719Q162.6861 349.575 162.07672 349.575Q161.52985 349.575 161.0611 349.34064Q160.60797 349.09064 160.27985 348.65314Q159.95172 348.21564 159.76422 347.6375Q159.59235 347.04376 159.59235 346.35626ZM160.67047 346.23126L160.67047 346.35626Q160.67047 346.825 160.76422 347.2469Q160.8736 347.65314 161.07672 347.98126Q161.27985 348.29376 161.59235 348.48126Q161.92047 348.65314 162.35797 348.65314Q162.88922 348.65314 163.23297 348.41876Q163.59235 348.1844 163.79547 347.8094Q164.01422 347.4344 164.1236 346.9969L164.1236 345.59064Q164.0611 345.2625 163.92047 344.96564Q163.79547 344.66876 163.57672 344.4344Q163.3736 344.1844 163.07672 344.04376Q162.77985 343.90314 162.35797 343.90314Q161.92047 343.90314 161.59235 344.09064Q161.27985 344.27814 161.07672 344.60626Q160.8736 344.91876 160.76422 345.34064Q160.67047 345.7469 160.67047 346.23126Z" fill-rule="nonzero"/><path fill="#000000" d="M234.14062 340.91876L234.14062 349.45L233.03125 349.45L233.03125 340.91876L234.14062 340.91876ZM236.89062 340.91876L236.89062 341.84064L230.29688 341.84064L230.29688 340.91876L236.89062 340.91876ZM238.90625 340.45L238.90625 349.45L237.82812 349.45L237.82812 340.45L238.90625 340.45ZM238.65625 346.04376L238.20312 346.02814Q238.20312 345.3719 238.39062 344.825Q238.57812 344.2625 238.92188 343.85626Q239.26562 343.45 239.73438 343.23126Q240.20312 342.9969 240.78125 342.9969Q241.25 342.9969 241.625 343.1219Q242.0 343.2469 242.26562 343.52814Q242.53125 343.79376 242.67188 344.23126Q242.8125 344.66876 242.8125 345.29376L242.8125 349.45L241.71875 349.45L241.71875 345.27814Q241.71875 344.77814 241.57812 344.48126Q241.4375 344.1844 241.15625 344.04376Q240.875 343.90314 240.45312 343.90314Q240.04688 343.90314 239.71875 344.075Q239.39062 344.2469 239.15625 344.54376Q238.92188 344.84064 238.78125 345.23126Q238.65625 345.60626 238.65625 346.04376ZM246.0 343.10626L246.0 349.45L244.92188 349.45L244.92188 343.10626L246.0 343.10626ZM244.82812 341.4344Q244.82812 341.16876 244.98438 340.98126Q245.15625 340.79376 245.46875 340.79376Q245.78125 340.79376 245.9375 340.98126Q246.10938 341.16876 246.10938 341.4344Q246.10938 341.6844 245.9375 341.8719Q245.78125 342.04376 245.46875 342.04376Q245.15625 342.04376 244.98438 341.8719Q244.82812 341.6844 244.82812 341.4344ZM248.90625 344.10626L248.90625 349.45L247.82812 349.45L247.82812 343.10626L248.875 343.10626L248.90625 344.10626ZM250.89062 343.075L250.89062 344.075Q250.75 344.0594 250.625 344.04376Q250.51562 344.02814 250.35938 344.02814Q249.98438 344.02814 249.6875 344.15314Q249.40625 344.2625 249.20312 344.48126Q249.01562 344.6844 248.89062 344.98126Q248.78125 345.27814 248.75 345.6219L248.4375 345.79376Q248.4375 345.21564 248.54688 344.71564Q248.67188 344.21564 248.90625 343.825Q249.15625 343.4344 249.51562 343.21564Q249.89062 342.9969 250.40625 342.9969Q250.53125 342.9969 250.67188 343.02814Q250.82812 343.04376 250.89062 343.075ZM255.82812 348.21564L255.82812 340.45L256.90625 340.45L256.90625 349.45L255.92188 349.45L255.82812 348.21564ZM251.5625 346.35626L251.5625 346.23126Q251.5625 345.4969 251.73438 344.90314Q251.92188 344.3094 252.25 343.8875Q252.57812 343.45 253.03125 343.23126Q253.5 342.9969 254.0625 342.9969Q254.65625 342.9969 255.10938 343.2Q255.5625 343.40314 255.875 343.8094Q256.1875 344.2 256.35938 344.7625Q256.54688 345.3094 256.625 346.0125L256.625 346.5594Q256.5625 347.2469 256.375 347.8094Q256.1875 348.3719 255.875 348.7625Q255.5625 349.15314 255.10938 349.3719Q254.65625 349.575 254.04688 349.575Q253.5 349.575 253.03125 349.34064Q252.57812 349.09064 252.25 348.65314Q251.92188 348.21564 251.73438 347.6375Q251.5625 347.04376 251.5625 346.35626ZM252.64062 346.23126L252.64062 346.35626Q252.64062 346.825 252.73438 347.2469Q252.84375 347.65314 253.04688 347.98126Q253.25 348.29376 253.5625 348.48126Q253.89062 348.65314 254.32812 348.65314Q254.85938 348.65314 255.20312 348.41876Q255.5625 348.1844 255.76562 347.8094Q255.98438 347.4344 256.09375 346.9969L256.09375 345.59064Q256.03125 345.2625 255.89062 344.96564Q255.76562 344.66876 255.54688 344.4344Q255.34375 344.1844 255.04688 344.04376Q254.75 343.90314 254.32812 343.90314Q253.89062 343.90314 253.5625 344.09064Q253.25 344.27814 253.04688 344.60626Q252.84375 344.91876 252.73438 345.34064Q252.64062 345.7469 252.64062 346.23126ZM262.90625 344.325L262.90625 351.8875L261.82812 351.8875L261.82812 343.10626L262.8125 343.10626L262.90625 344.325ZM267.1875 346.23126L267.1875 346.35626Q267.1875 347.04376 267.01562 347.6375Q266.85938 348.21564 266.54688 348.65314Q266.23438 349.09064 265.76562 349.34064Q265.3125 349.575 264.71875 349.575Q264.125 349.575 263.65625 349.3719Q263.1875 349.16876 262.85938 348.79376Q262.54688 348.40314 262.35938 347.8719Q262.17188 347.34064 262.09375 346.66876L262.09375 346.0125Q262.17188 345.3094 262.35938 344.7625Q262.54688 344.2 262.85938 343.8094Q263.1875 343.40314 263.64062 343.2Q264.10938 342.9969 264.70312 342.9969Q265.29688 342.9969 265.76562 343.23126Q266.23438 343.45 266.54688 343.8875Q266.85938 344.3094 267.01562 344.90314Q267.1875 345.4969 267.1875 346.23126ZM266.09375 346.35626L266.09375 346.23126Q266.09375 345.7469 265.98438 345.34064Q265.89062 344.91876 265.6875 344.60626Q265.48438 344.27814 265.15625 344.09064Q264.82812 343.90314 264.39062 343.90314Q263.98438 343.90314 263.67188 344.04376Q263.375 344.1844 263.15625 344.4344Q262.95312 344.66876 262.8125 344.96564Q262.6875 345.2625 262.625 345.59064L262.625 347.10626Q262.73438 347.5125 262.9375 347.8719Q263.15625 348.23126 263.5 348.45Q263.85938 348.66876 264.40625 348.66876Q264.84375 348.66876 265.15625 348.4969Q265.48438 348.3094 265.6875 347.9969Q265.89062 347.66876 265.98438 347.2469Q266.09375 346.825 266.09375 346.35626ZM272.5625 348.3719L272.5625 345.10626Q272.5625 344.73126 272.40625 344.45Q272.26562 344.16876 271.96875 344.02814Q271.67188 343.8719 271.23438 343.8719Q270.8125 343.8719 270.5 344.0125Q270.20312 344.15314 270.03125 344.3875Q269.85938 344.60626 269.85938 344.8719L268.78125 344.8719Q268.78125 344.52814 268.95312 344.2Q269.125 343.85626 269.45312 343.59064Q269.78125 343.3094 270.25 343.15314Q270.71875 342.9969 271.29688 342.9969Q271.98438 342.9969 272.51562 343.23126Q273.04688 343.46564 273.34375 343.9344Q273.65625 344.40314 273.65625 345.10626L273.65625 348.0594Q273.65625 348.3875 273.70312 348.7469Q273.76562 349.09064 273.875 349.35626L273.875 349.45L272.73438 349.45Q272.65625 349.2625 272.60938 348.95Q272.5625 348.6375 272.5625 348.3719ZM272.75 345.60626L272.76562 346.3719L271.67188 346.3719Q271.20312 346.3719 270.84375 346.45Q270.48438 346.5125 270.23438 346.66876Q269.98438 346.8094 269.85938 347.02814Q269.73438 347.2469 269.73438 347.54376Q269.73438 347.84064 269.85938 348.09064Q270.0 348.325 270.26562 348.48126Q270.54688 348.6219 270.9375 348.6219Q271.4375 348.6219 271.8125 348.41876Q272.20312 348.2 272.42188 347.90314Q272.65625 347.59064 272.67188 347.29376L273.14062 347.825Q273.09375 348.0594 272.90625 348.3719Q272.73438 348.66876 272.42188 348.95Q272.125 349.21564 271.70312 349.40314Q271.29688 349.575 270.78125 349.575Q270.14062 349.575 269.65625 349.325Q269.17188 349.0594 268.90625 348.6375Q268.64062 348.21564 268.64062 347.6844Q268.64062 347.16876 268.82812 346.79376Q269.03125 346.40314 269.40625 346.1375Q269.78125 345.8719 270.3125 345.7469Q270.84375 345.60626 271.5 345.60626L272.75 345.60626ZM276.90625 344.10626L276.90625 349.45L275.82812 349.45L275.82812 343.10626L276.875 343.10626L276.90625 344.10626ZM278.89062 343.075L278.89062 344.075Q278.75 344.0594 278.625 344.04376Q278.51562 344.02814 278.35938 344.02814Q277.98438 344.02814 277.6875 344.15314Q277.40625 344.2625 277.20312 344.48126Q277.01562 344.6844 276.89062 344.98126Q276.78125 345.27814 276.75 345.6219L276.4375 345.79376Q276.4375 345.21564 276.54688 344.71564Q276.67188 344.21564 276.90625 343.825Q277.15625 343.4344 277.51562 343.21564Q277.89062 342.9969 278.40625 342.9969Q278.53125 342.9969 278.67188 343.02814Q278.82812 343.04376 278.89062 343.075ZM282.48438 343.10626L282.48438 343.9344L279.04688 343.9344L279.04688 343.10626L282.48438 343.10626ZM280.21875 341.575L281.29688 341.575L281.29688 347.8719Q281.29688 348.2 281.39062 348.3719Q281.5 348.52814 281.65625 348.59064Q281.8125 348.6375 282.0 348.6375Q282.125 348.6375 282.26562 348.60626Q282.42188 348.575 282.5 348.5594L282.51562 349.45Q282.375 349.4969 282.17188 349.52814Q281.96875 349.575 281.67188 349.575Q281.28125 349.575 280.9375 349.41876Q280.60938 349.2469 280.40625 348.8875Q280.21875 348.5125 280.21875 347.8719L280.21875 341.575ZM285.60938 348.79376L287.375 343.10626L288.53125 343.10626L285.98438 350.4344Q285.90625 350.66876 285.75 350.9344Q285.60938 351.21564 285.39062 351.45Q285.17188 351.7 284.85938 351.85626Q284.54688 352.0125 284.10938 352.0125Q283.98438 352.0125 283.78125 351.96564Q283.57812 351.9344 283.5 351.91876L283.5 351.04376Q283.54688 351.04376 283.64062 351.04376Q283.75 351.0594 283.78125 351.0594Q284.15625 351.0594 284.40625 350.96564Q284.67188 350.8719 284.84375 350.6375Q285.03125 350.41876 285.15625 350.02814L285.60938 348.79376ZM284.3125 343.10626L285.95312 348.02814L286.23438 349.16876L285.46875 349.575L283.125 343.10626L284.3125 343.10626ZM293.59375 340.91876L290.04688 350.1844L289.10938 350.1844L292.67188 340.91876L293.59375 340.91876ZM298.03125 345.46564L295.875 345.46564L295.85938 344.54376L297.82812 344.54376Q298.3125 344.54376 298.67188 344.3875Q299.03125 344.21564 299.23438 343.91876Q299.4375 343.60626 299.4375 343.1844Q299.4375 342.71564 299.25 342.41876Q299.07812 342.1219 298.70312 341.98126Q298.34375 341.84064 297.78125 341.84064L296.125 341.84064L296.125 349.45L294.98438 349.45L294.98438 340.91876L297.78125 340.91876Q298.4375 340.91876 298.95312 341.0594Q299.46875 341.1844 299.82812 341.46564Q300.1875 341.73126 300.375 342.16876Q300.5625 342.59064 300.5625 343.1844Q300.5625 343.71564 300.29688 344.15314Q300.03125 344.575 299.54688 344.84064Q299.07812 345.10626 298.4375 345.1844L298.03125 345.46564ZM297.98438 349.45L295.42188 349.45L296.0625 348.52814L297.98438 348.52814Q298.51562 348.52814 298.89062 348.34064Q299.28125 348.15314 299.46875 347.8094Q299.67188 347.46564 299.67188 346.9969Q299.67188 346.52814 299.5 346.1844Q299.32812 345.84064 298.96875 345.65314Q298.60938 345.46564 298.03125 345.46564L296.42188 345.46564L296.4375 344.54376L298.64062 344.54376L298.875 344.8719Q299.48438 344.9344 299.90625 345.23126Q300.34375 345.52814 300.5625 345.98126Q300.79688 346.4344 300.79688 346.98126Q300.79688 347.77814 300.4375 348.34064Q300.09375 348.8875 299.45312 349.16876Q298.82812 349.45 297.98438 349.45ZM305.5625 348.3719L305.5625 345.10626Q305.5625 344.73126 305.40625 344.45Q305.26562 344.16876 304.96875 344.02814Q304.67188 343.8719 304.23438 343.8719Q303.8125 343.8719 303.5 344.0125Q303.20312 344.15314 303.03125 344.3875Q302.85938 344.60626 302.85938 344.8719L301.78125 344.8719Q301.78125 344.52814 301.95312 344.2Q302.125 343.85626 302.45312 343.59064Q302.78125 343.3094 303.25 343.15314Q303.71875 342.9969 304.29688 342.9969Q304.98438 342.9969 305.51562 343.23126Q306.04688 343.46564 306.34375 343.9344Q306.65625 344.40314 306.65625 345.10626L306.65625 348.0594Q306.65625 348.3875 306.70312 348.7469Q306.76562 349.09064 306.875 349.35626L306.875 349.45L305.73438 349.45Q305.65625 349.2625 305.60938 348.95Q305.5625 348.6375 305.5625 348.3719ZM305.75 345.60626L305.76562 346.3719L304.67188 346.3719Q304.20312 346.3719 303.84375 346.45Q303.48438 346.5125 303.23438 346.66876Q302.98438 346.8094 302.85938 347.02814Q302.73438 347.2469 302.73438 347.54376Q302.73438 347.84064 302.85938 348.09064Q303.0 348.325 303.26562 348.48126Q303.54688 348.6219 303.9375 348.6219Q304.4375 348.6219 304.8125 348.41876Q305.20312 348.2 305.42188 347.90314Q305.65625 347.59064 305.67188 347.29376L306.14062 347.825Q306.09375 348.0594 305.90625 348.3719Q305.73438 348.66876 305.42188 348.95Q305.125 349.21564 304.70312 349.40314Q304.29688 349.575 303.78125 349.575Q303.14062 349.575 302.65625 349.325Q302.17188 349.0594 301.90625 348.6375Q301.64062 348.21564 301.64062 347.6844Q301.64062 347.16876 301.82812 346.79376Q302.03125 346.40314 302.40625 346.1375Q302.78125 345.8719 303.3125 345.7469Q303.84375 345.60626 304.5 345.60626L305.75 345.60626ZM309.90625 344.46564L309.90625 349.45L308.82812 349.45L308.82812 343.10626L309.85938 343.10626L309.90625 344.46564ZM309.65625 346.04376L309.20312 346.02814Q309.20312 345.3719 309.39062 344.825Q309.57812 344.2625 309.92188 343.85626Q310.26562 343.45 310.73438 343.23126Q311.20312 342.9969 311.78125 342.9969Q312.25 342.9969 312.625 343.1219Q313.0 343.2469 313.26562 343.52814Q313.53125 343.79376 313.67188 344.23126Q313.8125 344.66876 313.8125 345.29376L313.8125 349.45L312.71875 349.45L312.71875 345.27814Q312.71875 344.77814 312.57812 344.48126Q312.4375 344.1844 312.15625 344.04376Q311.875 343.90314 311.45312 343.90314Q311.04688 343.90314 310.71875 344.075Q310.39062 344.2469 310.15625 344.54376Q309.92188 344.84064 309.78125 345.23126Q309.65625 345.60626 309.65625 346.04376ZM316.92188 340.45L316.92188 349.45L315.82812 349.45L315.82812 340.45L316.92188 340.45ZM320.79688 343.10626L318.03125 346.075L316.48438 347.66876L316.39062 346.5125L317.5 345.2L319.46875 343.10626L320.79688 343.10626ZM319.79688 349.45L317.53125 346.41876L318.09375 345.46564L321.07812 349.45L319.79688 349.45ZM328.82812 348.21564L328.82812 340.45L329.90625 340.45L329.90625 349.45L328.92188 349.45L328.82812 348.21564ZM324.5625 346.35626L324.5625 346.23126Q324.5625 345.4969 324.73438 344.90314Q324.92188 344.3094 325.25 343.8875Q325.57812 343.45 326.03125 343.23126Q326.5 342.9969 327.0625 342.9969Q327.65625 342.9969 328.10938 343.2Q328.5625 343.40314 328.875 343.8094Q329.1875 344.2 329.35938 344.7625Q329.54688 345.3094 329.625 346.0125L329.625 346.5594Q329.5625 347.2469 329.375 347.8094Q329.1875 348.3719 328.875 348.7625Q328.5625 349.15314 328.10938 349.3719Q327.65625 349.575 327.04688 349.575Q326.5 349.575 326.03125 349.34064Q325.57812 349.09064 325.25 348.65314Q324.92188 348.21564 324.73438 347.6375Q324.5625 347.04376 324.5625 346.35626ZM325.64062 346.23126L325.64062 346.35626Q325.64062 346.825 325.73438 347.2469Q325.84375 347.65314 326.04688 347.98126Q326.25 348.29376 326.5625 348.48126Q326.89062 348.65314 327.32812 348.65314Q327.85938 348.65314 328.20312 348.41876Q328.5625 348.1844 328.76562 347.8094Q328.98438 347.4344 329.09375 346.9969L329.09375 345.59064Q329.03125 345.2625 328.89062 344.96564Q328.76562 344.66876 328.54688 344.4344Q328.34375 344.1844 328.04688 344.04376Q327.75 343.90314 327.32812 343.90314Q326.89062 343.90314 326.5625 344.09064Q326.25 344.27814 326.04688 344.60626Q325.84375 344.91876 325.73438 345.34064Q325.64062 345.7469 325.64062 346.23126ZM333.0 343.10626L333.0 349.45L331.92188 349.45L331.92188 343.10626L333.0 343.10626ZM331.82812 341.4344Q331.82812 341.16876 331.98438 340.98126Q332.15625 340.79376 332.46875 340.79376Q332.78125 340.79376 332.9375 340.98126Q333.10938 341.16876 333.10938 341.4344Q333.10938 341.6844 332.9375 341.8719Q332.78125 342.04376 332.46875 342.04376Q332.15625 342.04376 331.98438 341.8719Q331.82812 341.6844 331.82812 341.4344ZM338.51562 347.7625Q338.51562 347.52814 338.40625 347.325Q338.3125 347.1219 338.0 346.96564Q337.6875 346.79376 337.0625 346.66876Q336.53125 346.5594 336.10938 346.41876Q335.6875 346.2625 335.39062 346.04376Q335.09375 345.825 334.9375 345.52814Q334.78125 345.23126 334.78125 344.84064Q334.78125 344.46564 334.9375 344.1375Q335.10938 343.79376 335.40625 343.54376Q335.71875 343.27814 336.15625 343.1375Q336.59375 342.9969 337.125 342.9969Q337.89062 342.9969 338.42188 343.2625Q338.96875 343.52814 339.25 343.98126Q339.53125 344.4344 339.53125 344.96564L338.45312 344.96564Q338.45312 344.71564 338.29688 344.46564Q338.14062 344.21564 337.84375 344.0594Q337.54688 343.8875 337.125 343.8875Q336.67188 343.8875 336.39062 344.02814Q336.10938 344.15314 335.98438 344.3719Q335.85938 344.575 335.85938 344.8094Q335.85938 344.9969 335.92188 345.1375Q335.98438 345.2625 336.14062 345.3875Q336.29688 345.4969 336.57812 345.60626Q336.875 345.7 337.32812 345.79376Q338.10938 345.96564 338.60938 346.21564Q339.10938 346.46564 339.35938 346.825Q339.60938 347.16876 339.60938 347.6844Q339.60938 348.10626 339.42188 348.45Q339.25 348.79376 338.92188 349.04376Q338.60938 349.29376 338.15625 349.4344Q337.70312 349.575 337.15625 349.575Q336.3125 349.575 335.73438 349.27814Q335.15625 348.96564 334.85938 348.4969Q334.5625 348.0125 334.5625 347.4969L335.64062 347.4969Q335.67188 347.9344 335.90625 348.2Q336.14062 348.46564 336.46875 348.575Q336.8125 348.66876 337.15625 348.66876Q337.59375 348.66876 337.89062 348.5594Q338.20312 348.4344 338.35938 348.23126Q338.51562 348.02814 338.51562 347.7625ZM343.35938 348.66876Q343.75 348.66876 344.07812 348.5125Q344.40625 348.35626 344.60938 348.09064Q344.82812 347.8094 344.85938 347.45L345.89062 347.45Q345.85938 348.0125 345.5 348.4969Q345.15625 348.98126 344.59375 349.27814Q344.03125 349.575 343.35938 349.575Q342.65625 349.575 342.125 349.325Q341.59375 349.0594 341.23438 348.6219Q340.89062 348.1844 340.71875 347.6219Q340.54688 347.04376 340.54688 346.40314L340.54688 346.15314Q340.54688 345.5125 340.71875 344.95Q340.89062 344.3719 341.23438 343.9344Q341.59375 343.4969 342.125 343.2469Q342.65625 342.9969 343.35938 342.9969Q344.10938 342.9969 344.65625 343.29376Q345.21875 343.59064 345.53125 344.1219Q345.85938 344.6375 345.89062 345.29376L344.85938 345.29376Q344.82812 344.90314 344.64062 344.59064Q344.45312 344.2625 344.125 344.075Q343.79688 343.8875 343.35938 343.8875Q342.85938 343.8875 342.51562 344.09064Q342.1875 344.27814 341.98438 344.60626Q341.79688 344.9344 341.70312 345.34064Q341.625 345.7469 341.625 346.15314L341.625 346.40314Q341.625 346.825 341.70312 347.23126Q341.79688 347.6219 341.98438 347.95Q342.1875 348.27814 342.51562 348.48126Q342.85938 348.66876 343.35938 348.66876ZM346.54688 346.35626L346.54688 346.21564Q346.54688 345.52814 346.73438 344.95Q346.9375 344.35626 347.3125 343.91876Q347.6875 343.48126 348.21875 343.2469Q348.75 342.9969 349.42188 342.9969Q350.07812 342.9969 350.60938 343.2469Q351.15625 343.48126 351.53125 343.91876Q351.90625 344.35626 352.10938 344.95Q352.3125 345.52814 352.3125 346.21564L352.3125 346.35626Q352.3125 347.02814 352.10938 347.6219Q351.90625 348.2 351.53125 348.6375Q351.15625 349.075 350.625 349.325Q350.09375 349.575 349.42188 349.575Q348.76562 349.575 348.21875 349.325Q347.6875 349.075 347.3125 348.6375Q346.9375 348.2 346.73438 347.6219Q346.54688 347.02814 346.54688 346.35626ZM347.625 346.21564L347.625 346.35626Q347.625 346.825 347.73438 347.2469Q347.84375 347.66876 348.0625 347.9969Q348.29688 348.3094 348.64062 348.4969Q348.98438 348.66876 349.42188 348.66876Q349.875 348.66876 350.20312 348.4969Q350.54688 348.3094 350.76562 347.9969Q351.0 347.66876 351.10938 347.2469Q351.21875 346.825 351.21875 346.35626L351.21875 346.21564Q351.21875 345.7469 351.10938 345.325Q351.0 344.90314 350.76562 344.59064Q350.54688 344.2625 350.20312 344.075Q349.875 343.8875 349.42188 343.8875Q348.96875 343.8875 348.625 344.075Q348.29688 344.2625 348.0625 344.59064Q347.84375 344.90314 347.73438 345.325Q347.625 345.7469 347.625 346.21564ZM357.70312 347.98126L357.70312 343.10626L358.79688 343.10626L358.79688 349.45L357.76562 349.45L357.70312 347.98126ZM357.90625 346.65314L358.35938 346.6375Q358.35938 347.2625 358.21875 347.8094Q358.09375 348.34064 357.79688 348.73126Q357.51562 349.1219 357.03125 349.35626Q356.5625 349.575 355.89062 349.575Q355.42188 349.575 355.03125 349.4344Q354.65625 349.29376 354.375 349.0125Q354.10938 348.73126 353.95312 348.27814Q353.79688 347.825 353.79688 347.2L353.79688 343.10626L354.89062 343.10626L354.89062 347.21564Q354.89062 347.6375 354.98438 347.91876Q355.07812 348.2 355.25 348.35626Q355.42188 348.5125 355.625 348.59064Q355.82812 348.65314 356.04688 348.65314Q356.75 348.65314 357.14062 348.3875Q357.54688 348.10626 357.71875 347.65314Q357.90625 347.2 357.90625 346.65314ZM361.90625 344.46564L361.90625 349.45L360.82812 349.45L360.82812 343.10626L361.85938 343.10626L361.90625 344.46564ZM361.65625 346.04376L361.20312 346.02814Q361.20312 345.3719 361.39062 344.825Q361.57812 344.2625 361.92188 343.85626Q362.26562 343.45 362.73438 343.23126Q363.20312 342.9969 363.78125 342.9969Q364.25 342.9969 364.625 343.1219Q365.0 343.2469 365.26562 343.52814Q365.53125 343.79376 365.67188 344.23126Q365.8125 344.66876 365.8125 345.29376L365.8125 349.45L364.71875 349.45L364.71875 345.27814Q364.71875 344.77814 364.57812 344.48126Q364.4375 344.1844 364.15625 344.04376Q363.875 343.90314 363.45312 343.90314Q363.04688 343.90314 362.71875 344.075Q362.39062 344.2469 362.15625 344.54376Q361.92188 344.84064 361.78125 345.23126Q361.65625 345.60626 361.65625 346.04376ZM370.48438 343.10626L370.48438 343.9344L367.04688 343.9344L367.04688 343.10626L370.48438 343.10626ZM368.21875 341.575L369.29688 341.575L369.29688 347.8719Q369.29688 348.2 369.39062 348.3719Q369.5 348.52814 369.65625 348.59064Q369.8125 348.6375 370.0 348.6375Q370.125 348.6375 370.26562 348.60626Q370.42188 348.575 370.5 348.5594L370.51562 349.45Q370.375 349.4969 370.17188 349.52814Q369.96875 349.575 369.67188 349.575Q369.28125 349.575 368.9375 349.41876Q368.60938 349.2469 368.40625 348.8875Q368.21875 348.5125 368.21875 347.8719L368.21875 341.575Z" fill-rule="nonzero"/><path fill="#000000" d="M435.01703 340.91876L435.01703 349.45L433.89203 349.45L429.59515 342.8719L429.59515 349.45L428.45453 349.45L428.45453 340.91876L429.59515 340.91876L433.90765 347.5125L433.90765 340.91876L435.01703 340.91876ZM437.01703 346.35626L437.01703 346.21564Q437.01703 345.52814 437.20453 344.95Q437.40765 344.35626 437.78265 343.91876Q438.15765 343.48126 438.6889 343.2469Q439.22015 342.9969 439.89203 342.9969Q440.54828 342.9969 441.07953 343.2469Q441.6264 343.48126 442.0014 343.91876Q442.3764 344.35626 442.57953 344.95Q442.78265 345.52814 442.78265 346.21564L442.78265 346.35626Q442.78265 347.02814 442.57953 347.6219Q442.3764 348.2 442.0014 348.6375Q441.6264 349.075 441.09515 349.325Q440.5639 349.575 439.89203 349.575Q439.23578 349.575 438.6889 349.325Q438.15765 349.075 437.78265 348.6375Q437.40765 348.2 437.20453 347.6219Q437.01703 347.02814 437.01703 346.35626ZM438.09515 346.21564L438.09515 346.35626Q438.09515 346.825 438.20453 347.2469Q438.3139 347.66876 438.53265 347.9969Q438.76703 348.3094 439.11078 348.4969Q439.45453 348.66876 439.89203 348.66876Q440.34515 348.66876 440.67328 348.4969Q441.01703 348.3094 441.23578 347.9969Q441.47015 347.66876 441.57953 347.2469Q441.6889 346.825 441.6889 346.35626L441.6889 346.21564Q441.6889 345.7469 441.57953 345.325Q441.47015 344.90314 441.23578 344.59064Q441.01703 344.2625 440.67328 344.075Q440.34515 343.8875 439.89203 343.8875Q439.4389 343.8875 439.09515 344.075Q438.76703 344.2625 438.53265 344.59064Q438.3139 344.90314 438.20453 345.325Q438.09515 345.7469 438.09515 346.21564ZM451.29828 348.21564L451.29828 340.45L452.3764 340.45L452.3764 349.45L451.39203 349.45L451.29828 348.21564ZM447.03265 346.35626L447.03265 346.23126Q447.03265 345.4969 447.20453 344.90314Q447.39203 344.3094 447.72015 343.8875Q448.04828 343.45 448.5014 343.23126Q448.97015 342.9969 449.53265 342.9969Q450.1264 342.9969 450.57953 343.2Q451.03265 343.40314 451.34515 343.8094Q451.65765 344.2 451.82953 344.7625Q452.01703 345.3094 452.09515 346.0125L452.09515 346.5594Q452.03265 347.2469 451.84515 347.8094Q451.65765 348.3719 451.34515 348.7625Q451.03265 349.15314 450.57953 349.3719Q450.1264 349.575 449.51703 349.575Q448.97015 349.575 448.5014 349.34064Q448.04828 349.09064 447.72015 348.65314Q447.39203 348.21564 447.20453 347.6375Q447.03265 347.04376 447.03265 346.35626ZM448.11078 346.23126L448.11078 346.35626Q448.11078 346.825 448.20453 347.2469Q448.3139 347.65314 448.51703 347.98126Q448.72015 348.29376 449.03265 348.48126Q449.36078 348.65314 449.79828 348.65314Q450.32953 348.65314 450.67328 348.41876Q451.03265 348.1844 451.23578 347.8094Q451.45453 347.4344 451.5639 346.9969L451.5639 345.59064Q451.5014 345.2625 451.36078 344.96564Q451.23578 344.66876 451.01703 344.4344Q450.8139 344.1844 450.51703 344.04376Q450.22015 343.90314 449.79828 343.90314Q449.36078 343.90314 449.03265 344.09064Q448.72015 344.27814 448.51703 344.60626Q448.3139 344.91876 448.20453 345.34064Q448.11078 345.7469 448.11078 346.23126ZM455.47015 343.10626L455.47015 349.45L454.39203 349.45L454.39203 343.10626L455.47015 343.10626ZM454.29828 341.4344Q454.29828 341.16876 454.45453 340.98126Q454.6264 340.79376 454.9389 340.79376Q455.2514 340.79376 455.40765 340.98126Q455.57953 341.16876 455.57953 341.4344Q455.57953 341.6844 455.40765 341.8719Q455.2514 342.04376 454.9389 342.04376Q454.6264 342.04376 454.45453 341.8719Q454.29828 341.6844 454.29828 341.4344ZM460.98578 347.7625Q460.98578 347.52814 460.8764 347.325Q460.78265 347.1219 460.47015 346.96564Q460.15765 346.79376 459.53265 346.66876Q459.0014 346.5594 458.57953 346.41876Q458.15765 346.2625 457.86078 346.04376Q457.5639 345.825 457.40765 345.52814Q457.2514 345.23126 457.2514 344.84064Q457.2514 344.46564 457.40765 344.1375Q457.57953 343.79376 457.8764 343.54376Q458.1889 343.27814 458.6264 343.1375Q459.0639 342.9969 459.59515 342.9969Q460.36078 342.9969 460.89203 343.2625Q461.4389 343.52814 461.72015 343.98126Q462.0014 344.4344 462.0014 344.96564L460.92328 344.96564Q460.92328 344.71564 460.76703 344.46564Q460.61078 344.21564 460.3139 344.0594Q460.01703 343.8875 459.59515 343.8875Q459.14203 343.8875 458.86078 344.02814Q458.57953 344.15314 458.45453 344.3719Q458.32953 344.575 458.32953 344.8094Q458.32953 344.9969 458.39203 345.1375Q458.45453 345.2625 458.61078 345.3875Q458.76703 345.4969 459.04828 345.60626Q459.34515 345.7 459.79828 345.79376Q460.57953 345.96564 461.07953 346.21564Q461.57953 346.46564 461.82953 346.825Q462.07953 347.16876 462.07953 347.6844Q462.07953 348.10626 461.89203 348.45Q461.72015 348.79376 461.39203 349.04376Q461.07953 349.29376 460.6264 349.4344Q460.17328 349.575 459.6264 349.575Q458.78265 349.575 458.20453 349.27814Q457.6264 348.96564 457.32953 348.4969Q457.03265 348.0125 457.03265 347.4969L458.11078 347.4969Q458.14203 347.9344 458.3764 348.2Q458.61078 348.46564 458.9389 348.575Q459.28265 348.66876 459.6264 348.66876Q460.0639 348.66876 460.36078 348.5594Q460.67328 348.4344 460.82953 348.23126Q460.98578 348.02814 460.98578 347.7625ZM465.82953 348.66876Q466.22015 348.66876 466.54828 348.5125Q466.8764 348.35626 467.07953 348.09064Q467.29828 347.8094 467.32953 347.45L468.36078 347.45Q468.32953 348.0125 467.97015 348.4969Q467.6264 348.98126 467.0639 349.27814Q466.5014 349.575 465.82953 349.575Q465.1264 349.575 464.59515 349.325Q464.0639 349.0594 463.70453 348.6219Q463.36078 348.1844 463.1889 347.6219Q463.01703 347.04376 463.01703 346.40314L463.01703 346.15314Q463.01703 345.5125 463.1889 344.95Q463.36078 344.3719 463.70453 343.9344Q464.0639 343.4969 464.59515 343.2469Q465.1264 342.9969 465.82953 342.9969Q466.57953 342.9969 467.1264 343.29376Q467.6889 343.59064 468.0014 344.1219Q468.32953 344.6375 468.36078 345.29376L467.32953 345.29376Q467.29828 344.90314 467.11078 344.59064Q466.92328 344.2625 466.59515 344.075Q466.26703 343.8875 465.82953 343.8875Q465.32953 343.8875 464.98578 344.09064Q464.65765 344.27814 464.45453 344.60626Q464.26703 344.9344 464.17328 345.34064Q464.09515 345.7469 464.09515 346.15314L464.09515 346.40314Q464.09515 346.825 464.17328 347.23126Q464.26703 347.6219 464.45453 347.95Q464.65765 348.27814 464.98578 348.48126Q465.32953 348.66876 465.82953 348.66876ZM469.01703 346.35626L469.01703 346.21564Q469.01703 345.52814 469.20453 344.95Q469.40765 344.35626 469.78265 343.91876Q470.15765 343.48126 470.6889 343.2469Q471.22015 342.9969 471.89203 342.9969Q472.54828 342.9969 473.07953 343.2469Q473.6264 343.48126 474.0014 343.91876Q474.3764 344.35626 474.57953 344.95Q474.78265 345.52814 474.78265 346.21564L474.78265 346.35626Q474.78265 347.02814 474.57953 347.6219Q474.3764 348.2 474.0014 348.6375Q473.6264 349.075 473.09515 349.325Q472.5639 349.575 471.89203 349.575Q471.23578 349.575 470.6889 349.325Q470.15765 349.075 469.78265 348.6375Q469.40765 348.2 469.20453 347.6219Q469.01703 347.02814 469.01703 346.35626ZM470.09515 346.21564L470.09515 346.35626Q470.09515 346.825 470.20453 347.2469Q470.3139 347.66876 470.53265 347.9969Q470.76703 348.3094 471.11078 348.4969Q471.45453 348.66876 471.89203 348.66876Q472.34515 348.66876 472.67328 348.4969Q473.01703 348.3094 473.23578 347.9969Q473.47015 347.66876 473.57953 347.2469Q473.6889 346.825 473.6889 346.35626L473.6889 346.21564Q473.6889 345.7469 473.57953 345.325Q473.47015 344.90314 473.23578 344.59064Q473.01703 344.2625 472.67328 344.075Q472.34515 343.8875 471.89203 343.8875Q471.4389 343.8875 471.09515 344.075Q470.76703 344.2625 470.53265 344.59064Q470.3139 344.90314 470.20453 345.325Q470.09515 345.7469 470.09515 346.21564ZM480.17328 347.98126L480.17328 343.10626L481.26703 343.10626L481.26703 349.45L480.23578 349.45L480.17328 347.98126ZM480.3764 346.65314L480.82953 346.6375Q480.82953 347.2625 480.6889 347.8094Q480.5639 348.34064 480.26703 348.73126Q479.98578 349.1219 479.5014 349.35626Q479.03265 349.575 478.36078 349.575Q477.89203 349.575 477.5014 349.4344Q477.1264 349.29376 476.84515 349.0125Q476.57953 348.73126 476.42328 348.27814Q476.26703 347.825 476.26703 347.2L476.26703 343.10626L477.36078 343.10626L477.36078 347.21564Q477.36078 347.6375 477.45453 347.91876Q477.54828 348.2 477.72015 348.35626Q477.89203 348.5125 478.09515 348.59064Q478.29828 348.65314 478.51703 348.65314Q479.22015 348.65314 479.61078 348.3875Q480.01703 348.10626 480.1889 347.65314Q480.3764 347.2 480.3764 346.65314ZM484.3764 344.46564L484.3764 349.45L483.29828 349.45L483.29828 343.10626L484.32953 343.10626L484.3764 344.46564ZM484.1264 346.04376L483.67328 346.02814Q483.67328 345.3719 483.86078 344.825Q484.04828 344.2625 484.39203 343.85626Q484.73578 343.45 485.20453 343.23126Q485.67328 342.9969 486.2514 342.9969Q486.72015 342.9969 487.09515 343.1219Q487.47015 343.2469 487.73578 343.52814Q488.0014 343.79376 488.14203 344.23126Q488.28265 344.66876 488.28265 345.29376L488.28265 349.45L487.1889 349.45L487.1889 345.27814Q487.1889 344.77814 487.04828 344.48126Q486.90765 344.1844 486.6264 344.04376Q486.34515 343.90314 485.92328 343.90314Q485.51703 343.90314 485.1889 344.075Q484.86078 344.2469 484.6264 344.54376Q484.39203 344.84064 484.2514 345.23126Q484.1264 345.60626 484.1264 346.04376ZM492.95453 343.10626L492.95453 343.9344L489.51703 343.9344L489.51703 343.10626L492.95453 343.10626ZM490.6889 341.575L491.76703 341.575L491.76703 347.8719Q491.76703 348.2 491.86078 348.3719Q491.97015 348.52814 492.1264 348.59064Q492.28265 348.6375 492.47015 348.6375Q492.59515 348.6375 492.73578 348.60626Q492.89203 348.575 492.97015 348.5594L492.98578 349.45Q492.84515 349.4969 492.64203 349.52814Q492.4389 349.575 492.14203 349.575Q491.7514 349.575 491.40765 349.41876Q491.07953 349.2469 490.8764 348.8875Q490.6889 348.5125 490.6889 347.8719L490.6889 341.575Z" fill-rule="nonzero"/><path fill="#434343" d="M195.1875 36.01875L195.1875 37.55L187.65625 37.55L187.65625 36.01875L195.1875 36.01875ZM188.03125 23.33125L188.03125 37.55L186.15625 37.55L186.15625 23.33125L188.03125 23.33125ZM194.1875 29.440624L194.1875 30.971874L187.65625 30.971874L187.65625 29.440624L194.1875 29.440624ZM195.09375 23.33125L195.09375 24.878124L187.65625 24.878124L187.65625 23.33125L195.09375 23.33125ZM203.10938 35.7375L203.10938 30.3Q203.10938 29.675 202.85938 29.221874Q202.60938 28.753124 202.10938 28.503124Q201.60938 28.2375 200.875 28.2375Q200.20312 28.2375 199.6875 28.471874Q199.17188 28.70625 198.875 29.096874Q198.59375 29.471874 198.59375 29.909374L196.79688 29.909374Q196.79688 29.346874 197.07812 28.8Q197.375 28.2375 197.92188 27.784374Q198.48438 27.33125 199.25 27.065624Q200.03125 26.784374 200.98438 26.784374Q202.14062 26.784374 203.01562 27.175Q203.90625 27.565624 204.40625 28.3625Q204.92188 29.14375 204.92188 30.315624L204.92188 35.2375Q204.92188 35.76875 205.0 36.3625Q205.09375 36.95625 205.28125 37.39375L205.28125 37.55L203.40625 37.55Q203.26562 37.2375 203.1875 36.721874Q203.10938 36.190624 203.10938 35.7375ZM203.42188 31.14375L203.4375 32.409374L201.60938 32.409374Q200.84375 32.409374 200.23438 32.534374Q199.625 32.659374 199.21875 32.909374Q198.8125 33.14375 198.59375 33.51875Q198.375 33.878124 198.375 34.3625Q198.375 34.8625 198.59375 35.284374Q198.82812 35.690624 199.28125 35.925Q199.73438 36.159374 200.40625 36.159374Q201.23438 36.159374 201.85938 35.815624Q202.5 35.45625 202.875 34.95625Q203.25 34.440624 203.28125 33.971874L204.0625 34.83125Q203.98438 35.2375 203.67188 35.7375Q203.375 36.2375 202.875 36.690624Q202.375 37.14375 201.6875 37.45625Q201.0 37.753124 200.14062 37.753124Q199.0625 37.753124 198.25 37.33125Q197.45312 36.909374 197.0 36.20625Q196.5625 35.4875 196.5625 34.6125Q196.5625 33.753124 196.89062 33.1125Q197.23438 32.45625 197.85938 32.034374Q198.48438 31.596874 199.35938 31.378124Q200.23438 31.14375 201.32812 31.14375L203.42188 31.14375ZM209.6875 28.64375L209.6875 37.55L207.875 37.55L207.875 26.9875L209.64062 26.9875L209.6875 28.64375ZM212.98438 26.925L212.96875 28.596874Q212.75 28.55 212.54688 28.534374Q212.34375 28.51875 212.09375 28.51875Q211.46875 28.51875 210.98438 28.721874Q210.51562 28.909374 210.17188 29.26875Q209.84375 29.6125 209.65625 30.096874Q209.46875 30.58125 209.40625 31.159374L208.90625 31.45625Q208.90625 30.503124 209.09375 29.659374Q209.28125 28.815624 209.67188 28.175Q210.07812 27.51875 210.70312 27.159374Q211.32812 26.784374 212.1875 26.784374Q212.375 26.784374 212.625 26.83125Q212.89062 26.878124 212.98438 26.925ZM216.84375 22.55L216.84375 37.55L215.03125 37.55L215.03125 22.55L216.84375 22.55ZM222.84375 36.45625L225.78125 26.9875L227.71875 26.9875L223.48438 39.175Q223.32812 39.565624 223.09375 40.01875Q222.85938 40.4875 222.48438 40.89375Q222.10938 41.3 221.57812 41.55Q221.0625 41.815624 220.34375 41.815624Q220.125 41.815624 219.79688 41.753124Q219.46875 41.70625 219.32812 41.659374L219.32812 40.190624Q219.40625 40.20625 219.5625 40.221874Q219.73438 40.2375 219.8125 40.2375Q220.42188 40.2375 220.84375 40.065624Q221.28125 39.909374 221.57812 39.534374Q221.875 39.159374 222.09375 38.503124L222.84375 36.45625ZM220.6875 26.9875L223.4375 35.190624L223.90625 37.096874L222.60938 37.753124L218.71875 26.9875L220.6875 26.9875ZM233.875 22.55L235.6875 22.55L235.6875 35.503124L235.53125 37.55L233.875 37.55L233.875 22.55ZM242.82812 32.175L242.82812 32.378124Q242.82812 33.534374 242.54688 34.51875Q242.28125 35.503124 241.75 36.221874Q241.21875 36.940624 240.45312 37.346874Q239.70312 37.753124 238.71875 37.753124Q237.70312 37.753124 236.9375 37.409374Q236.1875 37.05 235.67188 36.39375Q235.15625 35.7375 234.84375 34.815624Q234.54688 33.89375 234.42188 32.721874L234.42188 31.83125Q234.54688 30.659374 234.84375 29.7375Q235.15625 28.8 235.67188 28.14375Q236.1875 27.4875 236.9375 27.14375Q237.70312 26.784374 238.6875 26.784374Q239.6875 26.784374 240.45312 27.175Q241.23438 27.565624 241.75 28.284374Q242.28125 28.9875 242.54688 29.9875Q242.82812 30.971874 242.82812 32.175ZM241.0 32.378124L241.0 32.175Q241.0 31.39375 240.85938 30.690624Q240.71875 29.9875 240.39062 29.45625Q240.0625 28.925 239.53125 28.628124Q239.01562 28.315624 238.25 28.315624Q237.5625 28.315624 237.04688 28.55Q236.54688 28.784374 236.1875 29.175Q235.84375 29.565624 235.625 30.08125Q235.40625 30.58125 235.29688 31.1125L235.29688 33.471874Q235.45312 34.14375 235.8125 34.784374Q236.17188 35.409374 236.76562 35.815624Q237.375 36.20625 238.26562 36.20625Q239.0 36.20625 239.51562 35.909374Q240.04688 35.6125 240.35938 35.096874Q240.6875 34.565624 240.84375 33.878124Q241.0 33.175 241.0 32.378124ZM246.84375 26.9875L246.84375 37.55L245.03125 37.55L245.03125 26.9875L246.84375 26.9875ZM244.89062 24.175Q244.89062 23.7375 245.15625 23.440624Q245.42188 23.128124 245.95312 23.128124Q246.46875 23.128124 246.75 23.440624Q247.03125 23.7375 247.03125 24.175Q247.03125 24.596874 246.75 24.89375Q246.46875 25.190624 245.95312 25.190624Q245.42188 25.190624 245.15625 24.89375Q244.89062 24.596874 244.89062 24.175ZM251.6875 28.64375L251.6875 37.55L249.875 37.55L249.875 26.9875L251.64062 26.9875L251.6875 28.64375ZM254.98438 26.925L254.96875 28.596874Q254.75 28.55 254.54688 28.534374Q254.34375 28.51875 254.09375 28.51875Q253.46875 28.51875 252.98438 28.721874Q252.51562 28.909374 252.17188 29.26875Q251.84375 29.6125 251.65625 30.096874Q251.46875 30.58125 251.40625 31.159374L250.90625 31.45625Q250.90625 30.503124 251.09375 29.659374Q251.28125 28.815624 251.67188 28.175Q252.07812 27.51875 252.70312 27.159374Q253.32812 26.784374 254.1875 26.784374Q254.375 26.784374 254.625 26.83125Q254.89062 26.878124 254.98438 26.925ZM263.53125 35.503124L263.53125 22.55L265.35938 22.55L265.35938 37.55L263.6875 37.55L263.53125 35.503124ZM256.42188 32.378124L256.42188 32.175Q256.42188 30.971874 256.71875 29.9875Q257.03125 28.9875 257.57812 28.284374Q258.125 27.565624 258.89062 27.175Q259.65625 26.784374 260.60938 26.784374Q261.60938 26.784374 262.34375 27.14375Q263.09375 27.4875 263.60938 28.14375Q264.14062 28.8 264.4375 29.7375Q264.75 30.659374 264.85938 31.83125L264.85938 32.721874Q264.76562 33.89375 264.45312 34.815624Q264.14062 35.7375 263.60938 36.39375Q263.09375 37.05 262.34375 37.409374Q261.59375 37.753124 260.59375 37.753124Q259.65625 37.753124 258.89062 37.346874Q258.125 36.940624 257.57812 36.221874Q257.03125 35.503124 256.71875 34.51875Q256.42188 33.534374 256.42188 32.378124ZM258.25 32.175L258.25 32.378124Q258.25 33.175 258.40625 33.878124Q258.5625 34.565624 258.90625 35.096874Q259.25 35.6125 259.78125 35.909374Q260.3125 36.20625 261.03125 36.20625Q261.9375 36.20625 262.51562 35.83125Q263.09375 35.45625 263.4375 34.83125Q263.79688 34.20625 264.0 33.471874L264.0 31.1125Q263.875 30.58125 263.65625 30.08125Q263.4375 29.565624 263.09375 29.175Q262.75 28.784374 262.23438 28.55Q261.73438 28.315624 261.0625 28.315624Q260.3125 28.315624 259.78125 28.628124Q259.25 28.925 258.90625 29.45625Q258.5625 29.9875 258.40625 30.690624Q258.25 31.39375 258.25 32.175ZM279.71875 26.9875L281.35938 26.9875L281.35938 37.33125Q281.35938 38.721874 280.79688 39.70625Q280.23438 40.690624 279.21875 41.20625Q278.20312 41.721874 276.89062 41.721874Q276.34375 41.721874 275.60938 41.55Q274.875 41.378124 274.15625 40.971874Q273.45312 40.565624 272.96875 39.878124L273.92188 38.815624Q274.59375 39.6125 275.3125 39.925Q276.04688 40.2375 276.75 40.2375Q277.60938 40.2375 278.23438 39.909374Q278.85938 39.596874 279.20312 38.95625Q279.5625 38.33125 279.5625 37.409374L279.5625 29.3L279.71875 26.9875ZM272.45312 32.378124L272.45312 32.175Q272.45312 30.971874 272.73438 29.9875Q273.03125 28.9875 273.5625 28.284374Q274.10938 27.565624 274.875 27.175Q275.65625 26.784374 276.625 26.784374Q277.60938 26.784374 278.35938 27.14375Q279.10938 27.4875 279.625 28.14375Q280.15625 28.8 280.45312 29.7375Q280.76562 30.659374 280.875 31.83125L280.875 32.721874Q280.76562 33.89375 280.45312 34.815624Q280.15625 35.7375 279.625 36.39375Q279.10938 37.05 278.35938 37.409374Q277.60938 37.753124 276.59375 37.753124Q275.65625 37.753124 274.89062 37.346874Q274.125 36.940624 273.57812 36.221874Q273.03125 35.503124 272.73438 34.51875Q272.45312 33.534374 272.45312 32.378124ZM274.25 32.175L274.25 32.378124Q274.25 33.175 274.40625 33.878124Q274.57812 34.565624 274.90625 35.096874Q275.25 35.6125 275.78125 35.909374Q276.3125 36.20625 277.03125 36.20625Q277.9375 36.20625 278.51562 35.83125Q279.10938 35.45625 279.45312 34.83125Q279.79688 34.20625 280.0 33.471874L280.0 31.1125Q279.89062 30.58125 279.67188 30.08125Q279.45312 29.565624 279.09375 29.175Q278.75 28.784374 278.23438 28.55Q277.73438 28.315624 277.0625 28.315624Q276.3125 28.315624 275.78125 28.628124Q275.25 28.925 274.90625 29.45625Q274.57812 29.9875 274.40625 30.690624Q274.25 31.39375 274.25 32.175ZM283.40625 32.378124L283.40625 32.159374Q283.40625 31.01875 283.73438 30.034374Q284.0625 29.05 284.6875 28.33125Q285.3125 27.596874 286.20312 27.190624Q287.09375 26.784374 288.1875 26.784374Q289.3125 26.784374 290.20312 27.190624Q291.09375 27.596874 291.71875 28.33125Q292.35938 29.05 292.6875 30.034374Q293.01562 31.01875 293.01562 32.159374L293.01562 32.378124Q293.01562 33.51875 292.6875 34.503124Q292.35938 35.471874 291.71875 36.20625Q291.09375 36.940624 290.20312 37.346874Q289.32812 37.753124 288.21875 37.753124Q287.09375 37.753124 286.20312 37.346874Q285.32812 36.940624 284.6875 36.20625Q284.0625 35.471874 283.73438 34.503124Q283.40625 33.51875 283.40625 32.378124ZM285.20312 32.159374L285.20312 32.378124Q285.20312 33.175 285.39062 33.878124Q285.57812 34.565624 285.95312 35.1125Q286.32812 35.64375 286.89062 35.95625Q287.46875 36.253124 288.21875 36.253124Q288.95312 36.253124 289.51562 35.95625Q290.07812 35.64375 290.45312 35.1125Q290.82812 34.565624 291.01562 33.878124Q291.20312 33.175 291.20312 32.378124L291.20312 32.159374Q291.20312 31.378124 291.01562 30.690624Q290.82812 29.9875 290.4375 29.440624Q290.0625 28.89375 289.5 28.58125Q288.95312 28.26875 288.1875 28.26875Q287.45312 28.26875 286.89062 28.58125Q286.32812 28.89375 285.95312 29.440624Q285.57812 29.9875 285.39062 30.690624Q285.20312 31.378124 285.20312 32.159374ZM299.29688 26.9875L299.29688 28.3625L293.59375 28.3625L293.59375 26.9875L299.29688 26.9875ZM295.51562 24.409374L297.32812 24.409374L297.32812 34.925Q297.32812 35.471874 297.48438 35.753124Q297.65625 36.01875 297.92188 36.1125Q298.1875 36.190624 298.48438 36.190624Q298.71875 36.190624 298.96875 36.14375Q299.21875 36.096874 299.34375 36.08125L299.34375 37.55Q299.14062 37.6125 298.78125 37.675Q298.4375 37.753124 297.95312 37.753124Q297.29688 37.753124 296.73438 37.4875Q296.17188 37.221874 295.84375 36.596874Q295.51562 35.971874 295.51562 34.925L295.51562 24.409374ZM311.29688 26.9875L311.29688 28.3625L305.59375 28.3625L305.59375 26.9875L311.29688 26.9875ZM307.51562 24.409374L309.32812 24.409374L309.32812 34.925Q309.32812 35.471874 309.48438 35.753124Q309.65625 36.01875 309.92188 36.1125Q310.1875 36.190624 310.48438 36.190624Q310.71875 36.190624 310.96875 36.14375Q311.21875 36.096874 311.34375 36.08125L311.34375 37.55Q311.14062 37.6125 310.78125 37.675Q310.4375 37.753124 309.95312 37.753124Q309.29688 37.753124 308.73438 37.4875Q308.17188 37.221874 307.84375 36.596874Q307.51562 35.971874 307.51562 34.925L307.51562 24.409374ZM315.6875 22.55L315.6875 37.55L313.875 37.55L313.875 22.55L315.6875 22.55ZM315.25 31.8625L314.5 31.83125Q314.51562 30.753124 314.82812 29.83125Q315.14062 28.909374 315.70312 28.221874Q316.26562 27.534374 317.04688 27.159374Q317.84375 26.784374 318.79688 26.784374Q319.57812 26.784374 320.20312 27.003124Q320.82812 27.20625 321.26562 27.675Q321.71875 28.128124 321.95312 28.8625Q322.1875 29.58125 322.1875 30.628124L322.1875 37.55L320.375 37.55L320.375 30.6125Q320.375 29.76875 320.125 29.26875Q319.89062 28.76875 319.42188 28.55Q318.95312 28.315624 318.26562 28.315624Q317.59375 28.315624 317.03125 28.596874Q316.48438 28.878124 316.07812 29.378124Q315.6875 29.878124 315.46875 30.51875Q315.25 31.159374 315.25 31.8625ZM329.26562 37.753124Q328.15625 37.753124 327.26562 37.378124Q326.375 36.9875 325.73438 36.315624Q325.09375 35.628124 324.75 34.690624Q324.40625 33.753124 324.40625 32.64375L324.40625 32.221874Q324.40625 30.940624 324.78125 29.925Q325.17188 28.909374 325.82812 28.20625Q326.48438 27.503124 327.3125 27.14375Q328.14062 26.784374 329.03125 26.784374Q330.15625 26.784374 330.98438 27.175Q331.8125 27.565624 332.32812 28.26875Q332.85938 28.971874 333.10938 29.909374Q333.375 30.846874 333.375 31.95625L333.375 32.76875L325.48438 32.76875L325.48438 31.3L331.5625 31.3L331.5625 31.159374Q331.53125 30.45625 331.28125 29.8Q331.03125 29.128124 330.48438 28.70625Q329.95312 28.26875 329.03125 28.26875Q328.40625 28.26875 327.89062 28.534374Q327.375 28.784374 327.0 29.3Q326.64062 29.8 326.42188 30.534374Q326.21875 31.26875 326.21875 32.221874L326.21875 32.64375Q326.21875 33.39375 326.42188 34.05Q326.64062 34.70625 327.04688 35.20625Q327.45312 35.70625 328.03125 35.9875Q328.625 36.26875 329.35938 36.26875Q330.3125 36.26875 330.96875 35.878124Q331.64062 35.4875 332.14062 34.83125L333.23438 35.70625Q332.89062 36.221874 332.35938 36.690624Q331.84375 37.159374 331.07812 37.45625Q330.3125 37.753124 329.26562 37.753124ZM347.53125 35.503124L347.53125 22.55L349.35938 22.55L349.35938 37.55L347.6875 37.55L347.53125 35.503124ZM340.42188 32.378124L340.42188 32.175Q340.42188 30.971874 340.71875 29.9875Q341.03125 28.9875 341.57812 28.284374Q342.125 27.565624 342.89062 27.175Q343.65625 26.784374 344.60938 26.784374Q345.60938 26.784374 346.34375 27.14375Q347.09375 27.4875 347.60938 28.14375Q348.14062 28.8 348.4375 29.7375Q348.75 30.659374 348.85938 31.83125L348.85938 32.721874Q348.76562 33.89375 348.45312 34.815624Q348.14062 35.7375 347.60938 36.39375Q347.09375 37.05 346.34375 37.409374Q345.59375 37.753124 344.59375 37.753124Q343.65625 37.753124 342.89062 37.346874Q342.125 36.940624 341.57812 36.221874Q341.03125 35.503124 340.71875 34.51875Q340.42188 33.534374 340.42188 32.378124ZM342.25 32.175L342.25 32.378124Q342.25 33.175 342.40625 33.878124Q342.5625 34.565624 342.90625 35.096874Q343.25 35.6125 343.78125 35.909374Q344.3125 36.20625 345.03125 36.20625Q345.9375 36.20625 346.51562 35.83125Q347.09375 35.45625 347.4375 34.83125Q347.79688 34.20625 348.0 33.471874L348.0 31.1125Q347.875 30.58125 347.65625 30.08125Q347.4375 29.565624 347.09375 29.175Q346.75 28.784374 346.23438 28.55Q345.73438 28.315624 345.0625 28.315624Q344.3125 28.315624 343.78125 28.628124Q343.25 28.925 342.90625 29.45625Q342.5625 29.9875 342.40625 30.690624Q342.25 31.39375 342.25 32.175ZM353.84375 26.9875L353.84375 37.55L352.03125 37.55L352.03125 26.9875L353.84375 26.9875ZM351.89062 24.175Q351.89062 23.7375 352.15625 23.440624Q352.42188 23.128124 352.95312 23.128124Q353.46875 23.128124 353.75 23.440624Q354.03125 23.7375 354.03125 24.175Q354.03125 24.596874 353.75 24.89375Q353.46875 25.190624 352.95312 25.190624Q352.42188 25.190624 352.15625 24.89375Q351.89062 24.596874 351.89062 24.175ZM363.03125 34.753124Q363.03125 34.3625 362.85938 34.01875Q362.6875 33.675 362.15625 33.409374Q361.64062 33.128124 360.59375 32.925Q359.71875 32.7375 359.0 32.4875Q358.29688 32.221874 357.79688 31.8625Q357.3125 31.503124 357.04688 31.01875Q356.79688 30.534374 356.79688 29.878124Q356.79688 29.253124 357.0625 28.690624Q357.34375 28.128124 357.85938 27.70625Q358.375 27.26875 359.09375 27.034374Q359.8125 26.784374 360.70312 26.784374Q361.96875 26.784374 362.85938 27.2375Q363.76562 27.690624 364.25 28.440624Q364.73438 29.175 364.73438 30.08125L362.92188 30.08125Q362.92188 29.64375 362.65625 29.2375Q362.40625 28.815624 361.90625 28.55Q361.42188 28.26875 360.70312 28.26875Q359.95312 28.26875 359.48438 28.503124Q359.03125 28.7375 358.8125 29.096874Q358.60938 29.440624 358.60938 29.83125Q358.60938 30.1125 358.70312 30.346874Q358.8125 30.58125 359.07812 30.76875Q359.34375 30.95625 359.8125 31.128124Q360.29688 31.284374 361.03125 31.45625Q362.34375 31.753124 363.17188 32.159374Q364.01562 32.565624 364.42188 33.159374Q364.84375 33.753124 364.84375 34.6125Q364.84375 35.3 364.54688 35.878124Q364.26562 36.45625 363.71875 36.878124Q363.17188 37.284374 362.42188 37.51875Q361.6875 37.753124 360.75 37.753124Q359.35938 37.753124 358.39062 37.253124Q357.42188 36.753124 356.92188 35.95625Q356.42188 35.159374 356.42188 34.284374L358.25 34.284374Q358.28125 35.034374 358.67188 35.471874Q359.0625 35.89375 359.625 36.08125Q360.20312 36.253124 360.75 36.253124Q361.5 36.253124 362.0 36.065624Q362.5 35.8625 362.76562 35.534374Q363.03125 35.190624 363.03125 34.753124ZM371.10938 36.253124Q371.75 36.253124 372.29688 36.003124Q372.84375 35.7375 373.1875 35.26875Q373.54688 34.8 373.59375 34.20625L375.3125 34.20625Q375.26562 35.14375 374.6875 35.95625Q374.10938 36.753124 373.17188 37.253124Q372.23438 37.753124 371.10938 37.753124Q369.92188 37.753124 369.03125 37.33125Q368.14062 36.909374 367.5625 36.175Q366.98438 35.440624 366.6875 34.4875Q366.40625 33.534374 366.40625 32.471874L366.40625 32.065624Q366.40625 31.003124 366.6875 30.05Q366.98438 29.096874 367.5625 28.3625Q368.14062 27.628124 369.03125 27.20625Q369.92188 26.784374 371.10938 26.784374Q372.34375 26.784374 373.26562 27.3Q374.20312 27.8 374.73438 28.659374Q375.26562 29.51875 375.3125 30.6125L373.59375 30.6125Q373.54688 29.95625 373.21875 29.440624Q372.90625 28.909374 372.35938 28.596874Q371.82812 28.26875 371.10938 28.26875Q370.28125 28.26875 369.71875 28.596874Q369.15625 28.925 368.82812 29.4875Q368.5 30.034374 368.35938 30.70625Q368.21875 31.3625 368.21875 32.065624L368.21875 32.471874Q368.21875 33.159374 368.34375 33.846874Q368.48438 34.51875 368.8125 35.065624Q369.14062 35.6125 369.70312 35.940624Q370.26562 36.253124 371.10938 36.253124ZM376.40625 32.378124L376.40625 32.159374Q376.40625 31.01875 376.73438 30.034374Q377.0625 29.05 377.6875 28.33125Q378.3125 27.596874 379.20312 27.190624Q380.09375 26.784374 381.1875 26.784374Q382.3125 26.784374 383.20312 27.190624Q384.09375 27.596874 384.71875 28.33125Q385.35938 29.05 385.6875 30.034374Q386.01562 31.01875 386.01562 32.159374L386.01562 32.378124Q386.01562 33.51875 385.6875 34.503124Q385.35938 35.471874 384.71875 36.20625Q384.09375 36.940624 383.20312 37.346874Q382.32812 37.753124 381.21875 37.753124Q380.09375 37.753124 379.20312 37.346874Q378.32812 36.940624 377.6875 36.20625Q377.0625 35.471874 376.73438 34.503124Q376.40625 33.51875 376.40625 32.378124ZM378.20312 32.159374L378.20312 32.378124Q378.20312 33.175 378.39062 33.878124Q378.57812 34.565624 378.95312 35.1125Q379.32812 35.64375 379.89062 35.95625Q380.46875 36.253124 381.21875 36.253124Q381.95312 36.253124 382.51562 35.95625Q383.07812 35.64375 383.45312 35.1125Q383.82812 34.565624 384.01562 33.878124Q384.20312 33.175 384.20312 32.378124L384.20312 32.159374Q384.20312 31.378124 384.01562 30.690624Q383.82812 29.9875 383.4375 29.440624Q383.0625 28.89375 382.5 28.58125Q381.95312 28.26875 381.1875 28.26875Q380.45312 28.26875 379.89062 28.58125Q379.32812 28.89375 378.95312 29.440624Q378.57812 29.9875 378.39062 30.690624Q378.20312 31.378124 378.20312 32.159374ZM394.34375 35.1125L394.34375 26.9875L396.15625 26.9875L396.15625 37.55L394.4375 37.55L394.34375 35.1125ZM394.6875 32.878124L395.4375 32.8625Q395.4375 33.909374 395.21875 34.815624Q395.0 35.70625 394.5 36.3625Q394.01562 37.01875 393.21875 37.39375Q392.4375 37.753124 391.3125 37.753124Q390.53125 37.753124 389.89062 37.534374Q389.25 37.3 388.79688 36.83125Q388.34375 36.3625 388.09375 35.6125Q387.84375 34.846874 387.84375 33.8L387.84375 26.9875L389.64062 26.9875L389.64062 33.815624Q389.64062 34.534374 389.79688 35.003124Q389.96875 35.45625 390.25 35.7375Q390.53125 36.003124 390.875 36.1125Q391.21875 36.20625 391.59375 36.20625Q392.73438 36.20625 393.40625 35.76875Q394.09375 35.315624 394.39062 34.565624Q394.6875 33.815624 394.6875 32.878124ZM400.6875 29.2375L400.6875 37.55L398.875 37.55L398.875 26.9875L400.59375 26.9875L400.6875 29.2375ZM400.25 31.8625L399.5 31.83125Q399.51562 30.753124 399.82812 29.83125Q400.14062 28.909374 400.70312 28.221874Q401.26562 27.534374 402.04688 27.159374Q402.84375 26.784374 403.79688 26.784374Q404.57812 26.784374 405.20312 27.003124Q405.82812 27.20625 406.26562 27.675Q406.71875 28.128124 406.95312 28.8625Q407.1875 29.58125 407.1875 30.628124L407.1875 37.55L405.375 37.55L405.375 30.6125Q405.375 29.76875 405.125 29.26875Q404.89062 28.76875 404.42188 28.55Q403.95312 28.315624 403.26562 28.315624Q402.59375 28.315624 402.03125 28.596874Q401.48438 28.878124 401.07812 29.378124Q400.6875 29.878124 400.46875 30.51875Q400.25 31.159374 400.25 31.8625ZM414.29688 26.9875L414.29688 28.3625L408.59375 28.3625L408.59375 26.9875L414.29688 26.9875ZM410.51562 24.409374L412.32812 24.409374L412.32812 34.925Q412.32812 35.471874 412.48438 35.753124Q412.65625 36.01875 412.92188 36.1125Q413.1875 36.190624 413.48438 36.190624Q413.71875 36.190624 413.96875 36.14375Q414.21875 36.096874 414.34375 36.08125L414.34375 37.55Q414.14062 37.6125 413.78125 37.675Q413.4375 37.753124 412.95312 37.753124Q412.29688 37.753124 411.73438 37.4875Q411.17188 37.221874 410.84375 36.596874Q410.51562 35.971874 410.51562 34.925L410.51562 24.409374Z" fill-rule="nonzero"/></svg>