<svg version="1.1" viewBox="0.0 0.0 600.0 371.0" fill="none" stroke="none" stroke-linecap="square" stroke-miterlimit="10" width="600" height="371" xmlns:xlink="http://www.w3.org/1999/xlink" xmlns="http://www.w3.org/2000/svg"><path fill="#ffffff" d="M0 0L600.0 0L600.0 371.0L0 371.0L0 0Z" fill-rule="nonzero"/><path stroke="#333333" stroke-width="1.0" stroke-linecap="butt" d="M66.5 310.5L581.5 310.5" fill-rule="nonzero"/><path fill="#eeeeee" d="M45.5 331.5L66.5 311.5L581.5 311.5L560.5 331.5Z" fill-rule="nonzero"/><path stroke="#cccccc" stroke-width="1.0" stroke-linecap="butt" d="M66.5 248.5L581.5 248.5" fill-rule="nonzero"/><path stroke="#cccccc" stroke-width="1.0" stroke-linecap="butt" d="M66.5 186.5L581.5 186.5" fill-rule="nonzero"/><path stroke="#cccccc" stroke-width="1.0" stroke-linecap="butt" d="M66.5 124.5L581.5 124.5" fill-rule="nonzero"/><path stroke="#cccccc" stroke-width="1.0" stroke-linecap="butt" d="M66.5 62.5L581.5 62.5" fill-rule="nonzero"/><path stroke="#000000" stroke-width="1.0" stroke-linecap="butt" stroke-opacity="0.0" d="M66.5 289.5L581.5 289.5" fill-rule="nonzero"/><path stroke="#000000" stroke-width="1.0" stroke-linecap="butt" stroke-opacity="0.0" d="M66.5 269.5L581.5 269.5" fill-rule="nonzero"/><path stroke="#000000" stroke-width="1.0" stroke-linecap="butt" stroke-opacity="0.0" d="M66.5 227.5L581.5 227.5" fill-rule="nonzero"/><path stroke="#000000" stroke-width="1.0" stroke-linecap="butt" stroke-opacity="0.0" d="M66.5 207.5L581.5 207.5" fill-rule="nonzero"/><path stroke="#000000" stroke-width="1.0" stroke-linecap="butt" stroke-opacity="0.0" d="M66.5 165.5L581.5 165.5" fill-rule="nonzero"/><path stroke="#000000" stroke-width="1.0" stroke-linecap="butt" stroke-opacity="0.0" d="M66.5 145.5L581.5 145.5" fill-rule="nonzero"/><path stroke="#000000" stroke-width="1.0" stroke-linecap="butt" stroke-opacity="0.0" d="M66.5 103.5L581.5 103.5" fill-rule="nonzero"/><path stroke="#000000" stroke-width="1.0" stroke-linecap="butt" stroke-opacity="0.0" d="M66.5 83.5L581.5 83.5" fill-rule="nonzero"/><clipPath id="id_0"><path d="M45.55 62.416668L581.45 62.416668L581.45 331.45L45.55 331.45L45.55 62.416668Z" clip-rule="nonzero"/></clipPath><path fill="#2b569f" clip-path="url(#id_0)" d="M154.0 292.0L154.0 310.0L138.0 326.0L138.0 308.0Z" fill-rule="nonzero"/><path fill="#689df6" clip-path="url(#id_0)" d="M138.0 308.0L73.0 308.0L89.0 292.0L154.0 292.0Z" fill-rule="nonzero"/><path stroke="#000000" stroke-width="2.0" stroke-linecap="butt" stroke-opacity="0.0" clip-path="url(#id_0)" d="M138.0 326.0L73.0 326.0L73.0 308.0L138.0 308.0Z" fill-rule="nonzero"/><path fill="#4285f4" clip-path="url(#id_0)" d="M138.0 326.0L73.0 326.0L73.0 308.0L138.0 308.0Z" fill-rule="nonzero"/><path fill="#2b569f" clip-path="url(#id_0)" d="M254.0 255.0L254.0 310.0L238.0 326.0L238.0 271.0Z" fill-rule="nonzero"/><path fill="#689df6" clip-path="url(#id_0)" d="M238.0 271.0L173.0 271.0L189.0 255.0L254.0 255.0Z" fill-rule="nonzero"/><path stroke="#000000" stroke-width="2.0" stroke-linecap="butt" stroke-opacity="0.0" clip-path="url(#id_0)" d="M238.0 326.0L173.0 326.0L173.0 271.0L238.0 271.0Z" fill-rule="nonzero"/><path fill="#4285f4" clip-path="url(#id_0)" d="M238.0 326.0L173.0 326.0L173.0 271.0L238.0 271.0Z" fill-rule="nonzero"/><path fill="#2b569f" clip-path="url(#id_0)" d="M355.0 236.0L355.0 310.0L339.0 326.0L339.0 252.0Z" fill-rule="nonzero"/><path fill="#689df6" clip-path="url(#id_0)" d="M339.0 252.0L274.0 252.0L290.0 236.0L355.0 236.0Z" fill-rule="nonzero"/><path stroke="#000000" stroke-width="2.0" stroke-linecap="butt" stroke-opacity="0.0" clip-path="url(#id_0)" d="M339.0 326.0L274.0 326.0L274.0 252.0L339.0 252.0Z" fill-rule="nonzero"/><path fill="#4285f4" clip-path="url(#id_0)" d="M339.0 326.0L274.0 326.0L274.0 252.0L339.0 252.0Z" fill-rule="nonzero"/><path fill="#2b569f" clip-path="url(#id_0)" d="M455.0 168.0L455.0 310.0L439.0 326.0L439.0 184.0Z" fill-rule="nonzero"/><path fill="#689df6" clip-path="url(#id_0)" d="M439.0 184.0L374.0 184.0L390.0 168.0L455.0 168.0Z" fill-rule="nonzero"/><path stroke="#000000" stroke-width="2.0" stroke-linecap="butt" stroke-opacity="0.0" clip-path="url(#id_0)" d="M439.0 326.0L374.0 326.0L374.0 184.0L439.0 184.0Z" fill-rule="nonzero"/><path fill="#4285f4" clip-path="url(#id_0)" d="M439.0 326.0L374.0 326.0L374.0 184.0L439.0 184.0Z" fill-rule="nonzero"/><path fill="#2b569f" clip-path="url(#id_0)" d="M555.0 106.0L555.0 310.0L539.0 326.0L539.0 122.0Z" fill-rule="nonzero"/><path fill="#689df6" clip-path="url(#id_0)" d="M539.0 122.0L474.0 122.0L490.0 106.0L555.0 106.0Z" fill-rule="nonzero"/><path stroke="#000000" stroke-width="2.0" stroke-linecap="butt" stroke-opacity="0.0" clip-path="url(#id_0)" d="M539.0 326.0L474.0 326.0L474.0 122.0L539.0 122.0Z" fill-rule="nonzero"/><path fill="#4285f4" clip-path="url(#id_0)" d="M539.0 326.0L474.0 326.0L474.0 122.0L539.0 122.0Z" fill-rule="nonzero"/><path stroke="#4285f4" stroke-width="3.0" stroke-linejoin="round" stroke-linecap="round" d="M103.796875 316.85187L104.5625 316.85187Q105.140625 316.85187 105.5 316.66437Q105.875 316.46124 106.0625 316.13312Q106.25 315.805 106.25 315.38312Q106.25 314.89874 106.078125 314.57062Q105.921875 314.22687 105.59375 314.055Q105.265625 313.88312 104.765625 313.88312Q104.296875 313.88312 103.953125 314.07062Q103.609375 314.2425 103.40625 314.57062Q103.21875 314.89874 103.21875 315.35187L102.125 315.35187Q102.125 314.69562 102.453125 314.16437Q102.78125 313.63312 103.375 313.32062Q103.96875 312.9925 104.765625 312.9925Q105.53125 312.9925 106.109375 313.27374Q106.6875 313.53937 107.015625 314.08624Q107.34375 314.6175 107.34375 315.41437Q107.34375 315.7425 107.1875 316.10187Q107.03125 316.46124 106.71875 316.78937Q106.40625 317.10187 105.90625 317.305Q105.421875 317.50812 104.71875 317.50812L103.796875 317.50812L103.796875 316.85187ZM103.796875 317.7425L103.796875 317.08624L104.71875 317.08624Q105.53125 317.08624 106.0625 317.28937Q106.59375 317.47687 106.90625 317.805Q107.21875 318.1175 107.34375 318.50812Q107.46875 318.88312 107.46875 319.27374Q107.46875 319.8675 107.265625 320.33624Q107.0625 320.78937 106.6875 321.1175Q106.328125 321.43 105.828125 321.60187Q105.34375 321.77374 104.765625 321.77374Q104.203125 321.77374 103.71875 321.6175Q103.234375 321.44562 102.859375 321.14874Q102.484375 320.85187 102.265625 320.41437Q102.0625 319.96124 102.0625 319.39874L103.140625 319.39874Q103.140625 319.83624 103.328125 320.18Q103.53125 320.50812 103.890625 320.69562Q104.265625 320.8675 104.765625 320.8675Q105.265625 320.8675 105.625 320.69562Q105.984375 320.52374 106.171875 320.18Q106.375 319.82062 106.375 319.28937Q106.375 318.75812 106.15625 318.41437Q105.9375 318.07062 105.515625 317.91437Q105.109375 317.7425 104.5625 317.7425L103.796875 317.7425Z" fill-rule="nonzero"/><path fill="#ffffff" d="M103.796875 316.85187L104.5625 316.85187Q105.140625 316.85187 105.5 316.66437Q105.875 316.46124 106.0625 316.13312Q106.25 315.805 106.25 315.38312Q106.25 314.89874 106.078125 314.57062Q105.921875 314.22687 105.59375 314.055Q105.265625 313.88312 104.765625 313.88312Q104.296875 313.88312 103.953125 314.07062Q103.609375 314.2425 103.40625 314.57062Q103.21875 314.89874 103.21875 315.35187L102.125 315.35187Q102.125 314.69562 102.453125 314.16437Q102.78125 313.63312 103.375 313.32062Q103.96875 312.9925 104.765625 312.9925Q105.53125 312.9925 106.109375 313.27374Q106.6875 313.53937 107.015625 314.08624Q107.34375 314.6175 107.34375 315.41437Q107.34375 315.7425 107.1875 316.10187Q107.03125 316.46124 106.71875 316.78937Q106.40625 317.10187 105.90625 317.305Q105.421875 317.50812 104.71875 317.50812L103.796875 317.50812L103.796875 316.85187ZM103.796875 317.7425L103.796875 317.08624L104.71875 317.08624Q105.53125 317.08624 106.0625 317.28937Q106.59375 317.47687 106.90625 317.805Q107.21875 318.1175 107.34375 318.50812Q107.46875 318.88312 107.46875 319.27374Q107.46875 319.8675 107.265625 320.33624Q107.0625 320.78937 106.6875 321.1175Q106.328125 321.43 105.828125 321.60187Q105.34375 321.77374 104.765625 321.77374Q104.203125 321.77374 103.71875 321.6175Q103.234375 321.44562 102.859375 321.14874Q102.484375 320.85187 102.265625 320.41437Q102.0625 319.96124 102.0625 319.39874L103.140625 319.39874Q103.140625 319.83624 103.328125 320.18Q103.53125 320.50812 103.890625 320.69562Q104.265625 320.8675 104.765625 320.8675Q105.265625 320.8675 105.625 320.69562Q105.984375 320.52374 106.171875 320.18Q106.375 319.82062 106.375 319.28937Q106.375 318.75812 106.15625 318.41437Q105.9375 318.07062 105.515625 317.91437Q105.109375 317.7425 104.5625 317.7425L103.796875 317.7425Z" fill-rule="nonzero"/><path stroke="#4285f4" stroke-width="3.0" stroke-linejoin="round" stroke-linecap="round" d="M203.28125 302.14L203.40625 302.14Q204.34375 302.14 204.92188 301.8744Q205.51562 301.60876 205.82812 301.17126Q206.14062 300.71814 206.25 300.15564Q206.375 299.59314 206.375 299.015L206.375 297.7025Q206.375 297.1244 206.23438 296.67126Q206.10938 296.21814 205.875 295.92126Q205.65625 295.60876 205.35938 295.4525Q205.0625 295.29626 204.73438 295.29626Q204.35938 295.29626 204.0625 295.4525Q203.76562 295.59314 203.5625 295.85876Q203.35938 296.1244 203.25 296.4994Q203.15625 296.85876 203.15625 297.28064Q203.15625 297.67126 203.25 298.03064Q203.34375 298.3744 203.53125 298.67126Q203.73438 298.9525 204.01562 299.1244Q204.3125 299.29626 204.70312 299.29626Q205.0625 299.29626 205.375 299.15564Q205.70312 298.9994 205.95312 298.7494Q206.20312 298.4994 206.34375 298.1869Q206.5 297.8744 206.51562 297.53064L207.03125 297.53064Q207.03125 298.015 206.84375 298.48376Q206.65625 298.9525 206.3125 299.34314Q205.98438 299.73376 205.51562 299.96814Q205.0625 300.1869 204.53125 300.1869Q203.89062 300.1869 203.42188 299.9525Q202.96875 299.7025 202.67188 299.29626Q202.375 298.8744 202.23438 298.3744Q202.09375 297.85876 202.09375 297.34314Q202.09375 296.73376 202.25 296.2025Q202.42188 295.67126 202.75 295.265Q203.09375 294.85876 203.57812 294.6244Q204.07812 294.39 204.73438 294.39Q205.46875 294.39 205.98438 294.6869Q206.5 294.98376 206.82812 295.48376Q207.15625 295.96814 207.29688 296.59314Q207.45312 297.2025 207.45312 297.84314L207.45312 298.23376Q207.45312 298.90564 207.35938 299.59314Q207.28125 300.265 207.04688 300.89Q206.8125 301.515 206.35938 301.9994Q205.90625 302.48376 205.17188 302.78064Q204.45312 303.0619 203.40625 303.0619L203.28125 303.0619L203.28125 302.14Z" fill-rule="nonzero"/><path fill="#ffffff" d="M203.28125 302.14L203.40625 302.14Q204.34375 302.14 204.92188 301.8744Q205.51562 301.60876 205.82812 301.17126Q206.14062 300.71814 206.25 300.15564Q206.375 299.59314 206.375 299.015L206.375 297.7025Q206.375 297.1244 206.23438 296.67126Q206.10938 296.21814 205.875 295.92126Q205.65625 295.60876 205.35938 295.4525Q205.0625 295.29626 204.73438 295.29626Q204.35938 295.29626 204.0625 295.4525Q203.76562 295.59314 203.5625 295.85876Q203.35938 296.1244 203.25 296.4994Q203.15625 296.85876 203.15625 297.28064Q203.15625 297.67126 203.25 298.03064Q203.34375 298.3744 203.53125 298.67126Q203.73438 298.9525 204.01562 299.1244Q204.3125 299.29626 204.70312 299.29626Q205.0625 299.29626 205.375 299.15564Q205.70312 298.9994 205.95312 298.7494Q206.20312 298.4994 206.34375 298.1869Q206.5 297.8744 206.51562 297.53064L207.03125 297.53064Q207.03125 298.015 206.84375 298.48376Q206.65625 298.9525 206.3125 299.34314Q205.98438 299.73376 205.51562 299.96814Q205.0625 300.1869 204.53125 300.1869Q203.89062 300.1869 203.42188 299.9525Q202.96875 299.7025 202.67188 299.29626Q202.375 298.8744 202.23438 298.3744Q202.09375 297.85876 202.09375 297.34314Q202.09375 296.73376 202.25 296.2025Q202.42188 295.67126 202.75 295.265Q203.09375 294.85876 203.57812 294.6244Q204.07812 294.39 204.73438 294.39Q205.46875 294.39 205.98438 294.6869Q206.5 294.98376 206.82812 295.48376Q207.15625 295.96814 207.29688 296.59314Q207.45312 297.2025 207.45312 297.84314L207.45312 298.23376Q207.45312 298.90564 207.35938 299.59314Q207.28125 300.265 207.04688 300.89Q206.8125 301.515 206.35938 301.9994Q205.90625 302.48376 205.17188 302.78064Q204.45312 303.0619 203.40625 303.0619L203.28125 303.0619L203.28125 302.14Z" fill-rule="nonzero"/><path stroke="#4285f4" stroke-width="3.0" stroke-linejoin="round" stroke-linecap="round" d="M303.26562 285.16687L303.26562 293.745L302.1875 293.745L302.1875 286.52625L300.0 287.32312L300.0 286.33875L303.10938 285.16687L303.26562 285.16687ZM312.29688 292.85437L312.29688 293.745L306.71875 293.745L306.71875 292.96375L309.51562 289.85437Q310.03125 289.27625 310.3125 288.88562Q310.59375 288.47937 310.70312 288.16687Q310.82812 287.83875 310.82812 287.51062Q310.82812 287.08875 310.65625 286.745Q310.48438 286.40125 310.14062 286.19812Q309.8125 285.97937 309.32812 285.97937Q308.76562 285.97937 308.39062 286.21375Q308.01562 286.4325 307.82812 286.82312Q307.64062 287.21375 307.64062 287.71375L306.54688 287.71375Q306.54688 286.995 306.85938 286.40125Q307.1875 285.8075 307.79688 285.44812Q308.42188 285.08875 309.32812 285.08875Q310.14062 285.08875 310.71875 285.38562Q311.29688 285.66687 311.59375 286.1825Q311.90625 286.6825 311.90625 287.37Q311.90625 287.745 311.78125 288.13562Q311.65625 288.51062 311.4375 288.90125Q311.21875 289.27625 310.92188 289.65125Q310.64062 290.01062 310.3125 290.37L308.01562 292.85437L312.29688 292.85437Z" fill-rule="nonzero"/><path fill="#ffffff" d="M303.26562 285.16687L303.26562 293.745L302.1875 293.745L302.1875 286.52625L300.0 287.32312L300.0 286.33875L303.10938 285.16687L303.26562 285.16687ZM312.29688 292.85437L312.29688 293.745L306.71875 293.745L306.71875 292.96375L309.51562 289.85437Q310.03125 289.27625 310.3125 288.88562Q310.59375 288.47937 310.70312 288.16687Q310.82812 287.83875 310.82812 287.51062Q310.82812 287.08875 310.65625 286.745Q310.48438 286.40125 310.14062 286.19812Q309.8125 285.97937 309.32812 285.97937Q308.76562 285.97937 308.39062 286.21375Q308.01562 286.4325 307.82812 286.82312Q307.64062 287.21375 307.64062 287.71375L306.54688 287.71375Q306.54688 286.995 306.85938 286.40125Q307.1875 285.8075 307.79688 285.44812Q308.42188 285.08875 309.32812 285.08875Q310.14062 285.08875 310.71875 285.38562Q311.29688 285.66687 311.59375 286.1825Q311.90625 286.6825 311.90625 287.37Q311.90625 287.745 311.78125 288.13562Q311.65625 288.51062 311.4375 288.90125Q311.21875 289.27625 310.92188 289.65125Q310.64062 290.01062 310.3125 290.37L308.01562 292.85437L312.29688 292.85437Z" fill-rule="nonzero"/><path stroke="#4285f4" stroke-width="3.0" stroke-linejoin="round" stroke-linecap="round" d="M405.29688 258.7498L405.29688 259.6404L399.71875 259.6404L399.71875 258.85916L402.51562 255.74979Q403.03125 255.17166 403.3125 254.78104Q403.59375 254.37479 403.70312 254.06229Q403.82812 253.73416 403.82812 253.40604Q403.82812 252.98416 403.65625 252.64041Q403.48438 252.29666 403.14062 252.09354Q402.8125 251.87479 402.32812 251.87479Q401.76562 251.87479 401.39062 252.10916Q401.01562 252.32791 400.82812 252.71854Q400.64062 253.10916 400.64062 253.60916L399.54688 253.60916Q399.54688 252.89041 399.85938 252.29666Q400.1875 251.70291 400.79688 251.34354Q401.42188 250.98416 402.32812 250.98416Q403.14062 250.98416 403.71875 251.28104Q404.29688 251.56229 404.59375 252.07791Q404.90625 252.57791 404.90625 253.26541Q404.90625 253.64041 404.78125 254.03104Q404.65625 254.40604 404.4375 254.79666Q404.21875 255.17166 403.92188 255.54666Q403.64062 255.90604 403.3125 256.2654L401.01562 258.7498L405.29688 258.7498ZM408.29688 254.84354L409.0625 254.84354Q409.64062 254.84354 410.0 254.65604Q410.375 254.45291 410.5625 254.12479Q410.75 253.79666 410.75 253.37479Q410.75 252.89041 410.57812 252.56229Q410.42188 252.21854 410.09375 252.04666Q409.76562 251.87479 409.26562 251.87479Q408.79688 251.87479 408.45312 252.06229Q408.10938 252.23416 407.90625 252.56229Q407.71875 252.89041 407.71875 253.34354L406.625 253.34354Q406.625 252.68729 406.95312 252.15604Q407.28125 251.62479 407.875 251.31229Q408.46875 250.98416 409.26562 250.98416Q410.03125 250.98416 410.60938 251.26541Q411.1875 251.53104 411.51562 252.07791Q411.84375 252.60916 411.84375 253.40604Q411.84375 253.73416 411.6875 254.09354Q411.53125 254.45291 411.21875 254.78104Q410.90625 255.09354 410.40625 255.29666Q409.92188 255.49979 409.21875 255.49979L408.29688 255.49979L408.29688 254.84354ZM408.29688 255.73416L408.29688 255.07791L409.21875 255.07791Q410.03125 255.07791 410.5625 255.28104Q411.09375 255.46854 411.40625 255.79666Q411.71875 256.10916 411.84375 256.4998Q411.96875 256.8748 411.96875 257.2654Q411.96875 257.85916 411.76562 258.3279Q411.5625 258.78104 411.1875 259.10916Q410.82812 259.42166 410.32812 259.59354Q409.84375 259.7654 409.26562 259.7654Q408.70312 259.7654 408.21875 259.60916Q407.73438 259.4373 407.35938 259.1404Q406.98438 258.84354 406.76562 258.40604Q406.5625 257.9529 406.5625 257.3904L407.64062 257.3904Q407.64062 257.8279 407.82812 258.17166Q408.03125 258.4998 408.39062 258.6873Q408.76562 258.85916 409.26562 258.85916Q409.76562 258.85916 410.125 258.6873Q410.48438 258.5154 410.67188 258.17166Q410.875 257.8123 410.875 257.28104Q410.875 256.7498 410.65625 256.40604Q410.4375 256.0623 410.01562 255.90604Q409.60938 255.73416 409.0625 255.73416L408.29688 255.73416Z" fill-rule="nonzero"/><path fill="#ffffff" d="M405.29688 258.7498L405.29688 259.6404L399.71875 259.6404L399.71875 258.85916L402.51562 255.74979Q403.03125 255.17166 403.3125 254.78104Q403.59375 254.37479 403.70312 254.06229Q403.82812 253.73416 403.82812 253.40604Q403.82812 252.98416 403.65625 252.64041Q403.48438 252.29666 403.14062 252.09354Q402.8125 251.87479 402.32812 251.87479Q401.76562 251.87479 401.39062 252.10916Q401.01562 252.32791 400.82812 252.71854Q400.64062 253.10916 400.64062 253.60916L399.54688 253.60916Q399.54688 252.89041 399.85938 252.29666Q400.1875 251.70291 400.79688 251.34354Q401.42188 250.98416 402.32812 250.98416Q403.14062 250.98416 403.71875 251.28104Q404.29688 251.56229 404.59375 252.07791Q404.90625 252.57791 404.90625 253.26541Q404.90625 253.64041 404.78125 254.03104Q404.65625 254.40604 404.4375 254.79666Q404.21875 255.17166 403.92188 255.54666Q403.64062 255.90604 403.3125 256.2654L401.01562 258.7498L405.29688 258.7498ZM408.29688 254.84354L409.0625 254.84354Q409.64062 254.84354 410.0 254.65604Q410.375 254.45291 410.5625 254.12479Q410.75 253.79666 410.75 253.37479Q410.75 252.89041 410.57812 252.56229Q410.42188 252.21854 410.09375 252.04666Q409.76562 251.87479 409.26562 251.87479Q408.79688 251.87479 408.45312 252.06229Q408.10938 252.23416 407.90625 252.56229Q407.71875 252.89041 407.71875 253.34354L406.625 253.34354Q406.625 252.68729 406.95312 252.15604Q407.28125 251.62479 407.875 251.31229Q408.46875 250.98416 409.26562 250.98416Q410.03125 250.98416 410.60938 251.26541Q411.1875 251.53104 411.51562 252.07791Q411.84375 252.60916 411.84375 253.40604Q411.84375 253.73416 411.6875 254.09354Q411.53125 254.45291 411.21875 254.78104Q410.90625 255.09354 410.40625 255.29666Q409.92188 255.49979 409.21875 255.49979L408.29688 255.49979L408.29688 254.84354ZM408.29688 255.73416L408.29688 255.07791L409.21875 255.07791Q410.03125 255.07791 410.5625 255.28104Q411.09375 255.46854 411.40625 255.79666Q411.71875 256.10916 411.84375 256.4998Q411.96875 256.8748 411.96875 257.2654Q411.96875 257.85916 411.76562 258.3279Q411.5625 258.78104 411.1875 259.10916Q410.82812 259.42166 410.32812 259.59354Q409.84375 259.7654 409.26562 259.7654Q408.70312 259.7654 408.21875 259.60916Q407.73438 259.4373 407.35938 259.1404Q406.98438 258.84354 406.76562 258.40604Q406.5625 257.9529 406.5625 257.3904L407.64062 257.3904Q407.64062 257.8279 407.82812 258.17166Q408.03125 258.4998 408.39062 258.6873Q408.76562 258.85916 409.26562 258.85916Q409.76562 258.85916 410.125 258.6873Q410.48438 258.5154 410.67188 258.17166Q410.875 257.8123 410.875 257.28104Q410.875 256.7498 410.65625 256.40604Q410.4375 256.0623 410.01562 255.90604Q409.60938 255.73416 409.0625 255.73416L408.29688 255.73416Z" fill-rule="nonzero"/><path stroke="#4285f4" stroke-width="3.0" stroke-linejoin="round" stroke-linecap="round" d="M501.29688 223.83937L502.0625 223.83937Q502.64062 223.83937 503.0 223.65187Q503.375 223.44875 503.5625 223.12062Q503.75 222.7925 503.75 222.37062Q503.75 221.88625 503.57812 221.55812Q503.42188 221.21437 503.09375 221.0425Q502.76562 220.87062 502.26562 220.87062Q501.79688 220.87062 501.45312 221.05812Q501.10938 221.23 500.90625 221.55812Q500.71875 221.88625 500.71875 222.33937L499.625 222.33937Q499.625 221.68312 499.95312 221.15187Q500.28125 220.62062 500.875 220.30812Q501.46875 219.98 502.26562 219.98Q503.03125 219.98 503.60938 220.26125Q504.1875 220.52687 504.51562 221.07375Q504.84375 221.605 504.84375 222.40187Q504.84375 222.73 504.6875 223.08937Q504.53125 223.44875 504.21875 223.77687Q503.90625 224.08937 503.40625 224.2925Q502.92188 224.49562 502.21875 224.49562L501.29688 224.49562L501.29688 223.83937ZM501.29688 224.73L501.29688 224.07375L502.21875 224.07375Q503.03125 224.07375 503.5625 224.27687Q504.09375 224.46437 504.40625 224.7925Q504.71875 225.105 504.84375 225.49562Q504.96875 225.87062 504.96875 226.26125Q504.96875 226.855 504.76562 227.32375Q504.5625 227.77687 504.1875 228.105Q503.82812 228.4175 503.32812 228.58937Q502.84375 228.76125 502.26562 228.76125Q501.70312 228.76125 501.21875 228.605Q500.73438 228.43312 500.35938 228.13625Q499.98438 227.83937 499.76562 227.40187Q499.5625 226.94875 499.5625 226.38625L500.64062 226.38625Q500.64062 226.82375 500.82812 227.1675Q501.03125 227.49562 501.39062 227.68312Q501.76562 227.855 502.26562 227.855Q502.76562 227.855 503.125 227.68312Q503.48438 227.51125 503.67188 227.1675Q503.875 226.80812 503.875 226.27687Q503.875 225.74562 503.65625 225.40187Q503.4375 225.05812 503.01562 224.90187Q502.60938 224.73 502.0625 224.73L501.29688 224.73ZM508.29688 223.83937L509.0625 223.83937Q509.64062 223.83937 510.0 223.65187Q510.375 223.44875 510.5625 223.12062Q510.75 222.7925 510.75 222.37062Q510.75 221.88625 510.57812 221.55812Q510.42188 221.21437 510.09375 221.0425Q509.76562 220.87062 509.26562 220.87062Q508.79688 220.87062 508.45312 221.05812Q508.10938 221.23 507.90625 221.55812Q507.71875 221.88625 507.71875 222.33937L506.625 222.33937Q506.625 221.68312 506.95312 221.15187Q507.28125 220.62062 507.875 220.30812Q508.46875 219.98 509.26562 219.98Q510.03125 219.98 510.60938 220.26125Q511.1875 220.52687 511.51562 221.07375Q511.84375 221.605 511.84375 222.40187Q511.84375 222.73 511.6875 223.08937Q511.53125 223.44875 511.21875 223.77687Q510.90625 224.08937 510.40625 224.2925Q509.92188 224.49562 509.21875 224.49562L508.29688 224.49562L508.29688 223.83937ZM508.29688 224.73L508.29688 224.07375L509.21875 224.07375Q510.03125 224.07375 510.5625 224.27687Q511.09375 224.46437 511.40625 224.7925Q511.71875 225.105 511.84375 225.49562Q511.96875 225.87062 511.96875 226.26125Q511.96875 226.855 511.76562 227.32375Q511.5625 227.77687 511.1875 228.105Q510.82812 228.4175 510.32812 228.58937Q509.84375 228.76125 509.26562 228.76125Q508.70312 228.76125 508.21875 228.605Q507.73438 228.43312 507.35938 228.13625Q506.98438 227.83937 506.76562 227.40187Q506.5625 226.94875 506.5625 226.38625L507.64062 226.38625Q507.64062 226.82375 507.82812 227.1675Q508.03125 227.49562 508.39062 227.68312Q508.76562 227.855 509.26562 227.855Q509.76562 227.855 510.125 227.68312Q510.48438 227.51125 510.67188 227.1675Q510.875 226.80812 510.875 226.27687Q510.875 225.74562 510.65625 225.40187Q510.4375 225.05812 510.01562 224.90187Q509.60938 224.73 509.0625 224.73L508.29688 224.73Z" fill-rule="nonzero"/><path fill="#ffffff" d="M501.29688 223.83937L502.0625 223.83937Q502.64062 223.83937 503.0 223.65187Q503.375 223.44875 503.5625 223.12062Q503.75 222.7925 503.75 222.37062Q503.75 221.88625 503.57812 221.55812Q503.42188 221.21437 503.09375 221.0425Q502.76562 220.87062 502.26562 220.87062Q501.79688 220.87062 501.45312 221.05812Q501.10938 221.23 500.90625 221.55812Q500.71875 221.88625 500.71875 222.33937L499.625 222.33937Q499.625 221.68312 499.95312 221.15187Q500.28125 220.62062 500.875 220.30812Q501.46875 219.98 502.26562 219.98Q503.03125 219.98 503.60938 220.26125Q504.1875 220.52687 504.51562 221.07375Q504.84375 221.605 504.84375 222.40187Q504.84375 222.73 504.6875 223.08937Q504.53125 223.44875 504.21875 223.77687Q503.90625 224.08937 503.40625 224.2925Q502.92188 224.49562 502.21875 224.49562L501.29688 224.49562L501.29688 223.83937ZM501.29688 224.73L501.29688 224.07375L502.21875 224.07375Q503.03125 224.07375 503.5625 224.27687Q504.09375 224.46437 504.40625 224.7925Q504.71875 225.105 504.84375 225.49562Q504.96875 225.87062 504.96875 226.26125Q504.96875 226.855 504.76562 227.32375Q504.5625 227.77687 504.1875 228.105Q503.82812 228.4175 503.32812 228.58937Q502.84375 228.76125 502.26562 228.76125Q501.70312 228.76125 501.21875 228.605Q500.73438 228.43312 500.35938 228.13625Q499.98438 227.83937 499.76562 227.40187Q499.5625 226.94875 499.5625 226.38625L500.64062 226.38625Q500.64062 226.82375 500.82812 227.1675Q501.03125 227.49562 501.39062 227.68312Q501.76562 227.855 502.26562 227.855Q502.76562 227.855 503.125 227.68312Q503.48438 227.51125 503.67188 227.1675Q503.875 226.80812 503.875 226.27687Q503.875 225.74562 503.65625 225.40187Q503.4375 225.05812 503.01562 224.90187Q502.60938 224.73 502.0625 224.73L501.29688 224.73ZM508.29688 223.83937L509.0625 223.83937Q509.64062 223.83937 510.0 223.65187Q510.375 223.44875 510.5625 223.12062Q510.75 222.7925 510.75 222.37062Q510.75 221.88625 510.57812 221.55812Q510.42188 221.21437 510.09375 221.0425Q509.76562 220.87062 509.26562 220.87062Q508.79688 220.87062 508.45312 221.05812Q508.10938 221.23 507.90625 221.55812Q507.71875 221.88625 507.71875 222.33937L506.625 222.33937Q506.625 221.68312 506.95312 221.15187Q507.28125 220.62062 507.875 220.30812Q508.46875 219.98 509.26562 219.98Q510.03125 219.98 510.60938 220.26125Q511.1875 220.52687 511.51562 221.07375Q511.84375 221.605 511.84375 222.40187Q511.84375 222.73 511.6875 223.08937Q511.53125 223.44875 511.21875 223.77687Q510.90625 224.08937 510.40625 224.2925Q509.92188 224.49562 509.21875 224.49562L508.29688 224.49562L508.29688 223.83937ZM508.29688 224.73L508.29688 224.07375L509.21875 224.07375Q510.03125 224.07375 510.5625 224.27687Q511.09375 224.46437 511.40625 224.7925Q511.71875 225.105 511.84375 225.49562Q511.96875 225.87062 511.96875 226.26125Q511.96875 226.855 511.76562 227.32375Q511.5625 227.77687 511.1875 228.105Q510.82812 228.4175 510.32812 228.58937Q509.84375 228.76125 509.26562 228.76125Q508.70312 228.76125 508.21875 228.605Q507.73438 228.43312 507.35938 228.13625Q506.98438 227.83937 506.76562 227.40187Q506.5625 226.94875 506.5625 226.38625L507.64062 226.38625Q507.64062 226.82375 507.82812 227.1675Q508.03125 227.49562 508.39062 227.68312Q508.76562 227.855 509.26562 227.855Q509.76562 227.855 510.125 227.68312Q510.48438 227.51125 510.67188 227.1675Q510.875 226.80812 510.875 226.27687Q510.875 225.74562 510.65625 225.40187Q510.4375 225.05812 510.01562 224.90187Q509.60938 224.73 509.0625 224.73L508.29688 224.73Z" fill-rule="nonzero"/><path fill="#000000" d="M38.6125 309.9969L38.6125 311.3094Q38.6125 312.35626 38.425 313.075Q38.2375 313.79376 37.878124 314.23126Q37.534374 314.66876 37.034374 314.8719Q36.55 315.075 35.925 315.075Q35.440624 315.075 35.01875 314.95Q34.596874 314.825 34.26875 314.5594Q33.940624 314.27814 33.70625 313.84064Q33.471874 313.40314 33.346874 312.77814Q33.221874 312.1375 33.221874 311.3094L33.221874 309.9969Q33.221874 308.95 33.409374 308.2469Q33.6125 307.54376 33.95625 307.10626Q34.315624 306.66876 34.8 306.48126Q35.3 306.29376 35.909374 306.29376Q36.409374 306.29376 36.83125 306.41876Q37.253124 306.54376 37.58125 306.8094Q37.909374 307.0594 38.128124 307.4969Q38.3625 307.91876 38.4875 308.54376Q38.6125 309.16876 38.6125 309.9969ZM37.51875 311.48126L37.51875 309.825Q37.51875 309.2469 37.45625 308.8094Q37.39375 308.3719 37.253124 308.0594Q37.128124 307.7469 36.925 307.5594Q36.7375 307.3719 36.4875 307.27814Q36.2375 307.1844 35.909374 307.1844Q35.534374 307.1844 35.221874 307.325Q34.925 307.46564 34.721874 307.77814Q34.51875 308.09064 34.409374 308.60626Q34.315624 309.10626 34.315624 309.825L34.315624 311.48126Q34.315624 312.0594 34.378124 312.4969Q34.45625 312.9344 34.58125 313.2625Q34.721874 313.575 34.909374 313.77814Q35.1125 313.98126 35.3625 314.075Q35.6125 314.16876 35.925 314.16876Q36.33125 314.16876 36.628124 314.02814Q36.925 313.8719 37.128124 313.54376Q37.33125 313.21564 37.425 312.71564Q37.51875 312.2 37.51875 311.48126Z" fill-rule="nonzero"/><path fill="#000000" d="M29.815624 244.36354L29.815624 252.94167L28.7375 252.94167L28.7375 245.72292L26.55 246.51979L26.55 245.53542L29.659374 244.36354L29.815624 244.36354ZM38.6125 247.98854L38.6125 249.30104Q38.6125 250.34792 38.425 251.06667Q38.2375 251.78542 37.878124 252.22292Q37.534374 252.66042 37.034374 252.86354Q36.55 253.06667 35.925 253.06667Q35.440624 253.06667 35.01875 252.94167Q34.596874 252.81667 34.26875 252.55104Q33.940624 252.26979 33.70625 251.83229Q33.471874 251.39479 33.346874 250.76979Q33.221874 250.12917 33.221874 249.30104L33.221874 247.98854Q33.221874 246.94167 33.409374 246.23854Q33.6125 245.53542 33.95625 245.09792Q34.315624 244.66042 34.8 244.47292Q35.3 244.28542 35.909374 244.28542Q36.409374 244.28542 36.83125 244.41042Q37.253124 244.53542 37.58125 244.80104Q37.909374 245.05104 38.128124 245.48854Q38.3625 245.91042 38.4875 246.53542Q38.6125 247.16042 38.6125 247.98854ZM37.51875 249.47292L37.51875 247.81667Q37.51875 247.23854 37.45625 246.80104Q37.39375 246.36354 37.253124 246.05104Q37.128124 245.73854 36.925 245.55104Q36.7375 245.36354 36.4875 245.26979Q36.2375 245.17604 35.909374 245.17604Q35.534374 245.17604 35.221874 245.31667Q34.925 245.45729 34.721874 245.76979Q34.51875 246.08229 34.409374 246.59792Q34.315624 247.09792 34.315624 247.81667L34.315624 249.47292Q34.315624 250.05104 34.378124 250.48854Q34.45625 250.92604 34.58125 251.25417Q34.721874 251.56667 34.909374 251.76979Q35.1125 251.97292 35.3625 252.06667Q35.6125 252.16042 35.925 252.16042Q36.33125 252.16042 36.628124 252.01979Q36.925 251.86354 37.128124 251.53542Q37.33125 251.20729 37.425 250.70729Q37.51875 250.19167 37.51875 249.47292Z" fill-rule="nonzero"/><path fill="#000000" d="M31.846874 190.04271L31.846874 190.93333L26.26875 190.93333L26.26875 190.15208L29.065624 187.04271Q29.58125 186.46458 29.8625 186.07396Q30.14375 185.66771 30.253124 185.35521Q30.378124 185.02708 30.378124 184.69896Q30.378124 184.27708 30.20625 183.93333Q30.034374 183.58958 29.690624 183.38646Q29.3625 183.16771 28.878124 183.16771Q28.315624 183.16771 27.940624 183.40208Q27.565624 183.62083 27.378124 184.01146Q27.190624 184.40208 27.190624 184.90208L26.096874 184.90208Q26.096874 184.18333 26.409374 183.58958Q26.7375 182.99583 27.346874 182.63646Q27.971874 182.27708 28.878124 182.27708Q29.690624 182.27708 30.26875 182.57396Q30.846874 182.85521 31.14375 183.37083Q31.45625 183.87083 31.45625 184.55833Q31.45625 184.93333 31.33125 185.32396Q31.20625 185.69896 30.9875 186.08958Q30.76875 186.46458 30.471874 186.83958Q30.190624 187.19896 29.8625 187.55833L27.565624 190.04271L31.846874 190.04271ZM38.6125 185.98021L38.6125 187.29271Q38.6125 188.33958 38.425 189.05833Q38.2375 189.77708 37.878124 190.21458Q37.534374 190.65208 37.034374 190.85521Q36.55 191.05833 35.925 191.05833Q35.440624 191.05833 35.01875 190.93333Q34.596874 190.80833 34.26875 190.54271Q33.940624 190.26146 33.70625 189.82396Q33.471874 189.38646 33.346874 188.76146Q33.221874 188.12083 33.221874 187.29271L33.221874 185.98021Q33.221874 184.93333 33.409374 184.23021Q33.6125 183.52708 33.95625 183.08958Q34.315624 182.65208 34.8 182.46458Q35.3 182.27708 35.909374 182.27708Q36.409374 182.27708 36.83125 182.40208Q37.253124 182.52708 37.58125 182.79271Q37.909374 183.04271 38.128124 183.48021Q38.3625 183.90208 38.4875 184.52708Q38.6125 185.15208 38.6125 185.98021ZM37.51875 187.46458L37.51875 185.80833Q37.51875 185.23021 37.45625 184.79271Q37.39375 184.35521 37.253124 184.04271Q37.128124 183.73021 36.925 183.54271Q36.7375 183.35521 36.4875 183.26146Q36.2375 183.16771 35.909374 183.16771Q35.534374 183.16771 35.221874 183.30833Q34.925 183.44896 34.721874 183.76146Q34.51875 184.07396 34.409374 184.58958Q34.315624 185.08958 34.315624 185.80833L34.315624 187.46458Q34.315624 188.04271 34.378124 188.48021Q34.45625 188.91771 34.58125 189.24583Q34.721874 189.55833 34.909374 189.76146Q35.1125 189.96458 35.3625 190.05833Q35.6125 190.15208 35.925 190.15208Q36.33125 190.15208 36.628124 190.01146Q36.925 189.85521 37.128124 189.52708Q37.33125 189.19896 37.425 188.69896Q37.51875 188.18333 37.51875 187.46458Z" fill-rule="nonzero"/><path fill="#000000" d="M27.846874 124.12813L28.6125 124.12813Q29.190624 124.12813 29.55 123.94063Q29.925 123.7375 30.1125 123.40938Q30.3 123.08125 30.3 122.65938Q30.3 122.175 30.128124 121.84688Q29.971874 121.50313 29.64375 121.33125Q29.315624 121.15938 28.815624 121.15938Q28.346874 121.15938 28.003124 121.34688Q27.659374 121.51875 27.45625 121.84688Q27.26875 122.175 27.26875 122.62813L26.175 122.62813Q26.175 121.97188 26.503124 121.44063Q26.83125 120.90938 27.425 120.59688Q28.01875 120.26875 28.815624 120.26875Q29.58125 120.26875 30.159374 120.55Q30.7375 120.81563 31.065624 121.3625Q31.39375 121.89375 31.39375 122.69063Q31.39375 123.01875 31.2375 123.37813Q31.08125 123.7375 30.76875 124.06563Q30.45625 124.37813 29.95625 124.58125Q29.471874 124.78438 28.76875 124.78438L27.846874 124.78438L27.846874 124.12813ZM27.846874 125.01875L27.846874 124.3625L28.76875 124.3625Q29.58125 124.3625 30.1125 124.56563Q30.64375 124.75313 30.95625 125.08125Q31.26875 125.39375 31.39375 125.78438Q31.51875 126.15938 31.51875 126.55Q31.51875 127.14375 31.315624 127.6125Q31.1125 128.06563 30.7375 128.39375Q30.378124 128.70625 29.878124 128.87813Q29.39375 129.05 28.815624 129.05Q28.253124 129.05 27.76875 128.89375Q27.284374 128.72188 26.909374 128.425Q26.534374 128.12813 26.315624 127.69063Q26.1125 127.2375 26.1125 126.675L27.190624 126.675Q27.190624 127.1125 27.378124 127.45625Q27.58125 127.78438 27.940624 127.97188Q28.315624 128.14375 28.815624 128.14375Q29.315624 128.14375 29.675 127.97188Q30.034374 127.8 30.221874 127.45625Q30.425 127.09688 30.425 126.56563Q30.425 126.03438 30.20625 125.69063Q29.9875 125.34688 29.565624 125.19063Q29.159374 125.01875 28.6125 125.01875L27.846874 125.01875ZM38.6125 123.97188L38.6125 125.28438Q38.6125 126.33125 38.425 127.05Q38.2375 127.76875 37.878124 128.20625Q37.534374 128.64375 37.034374 128.84688Q36.55 129.05 35.925 129.05Q35.440624 129.05 35.01875 128.925Q34.596874 128.8 34.26875 128.53438Q33.940624 128.25313 33.70625 127.81563Q33.471874 127.37813 33.346874 126.75313Q33.221874 126.1125 33.221874 125.28438L33.221874 123.97188Q33.221874 122.925 33.409374 122.22188Q33.6125 121.51875 33.95625 121.08125Q34.315624 120.64375 34.8 120.45625Q35.3 120.26875 35.909374 120.26875Q36.409374 120.26875 36.83125 120.39375Q37.253124 120.51875 37.58125 120.78438Q37.909374 121.03438 38.128124 121.47188Q38.3625 121.89375 38.4875 122.51875Q38.6125 123.14375 38.6125 123.97188ZM37.51875 125.45625L37.51875 123.8Q37.51875 123.22188 37.45625 122.78438Q37.39375 122.34688 37.253124 122.03438Q37.128124 121.72188 36.925 121.53438Q36.7375 121.34688 36.4875 121.25313Q36.2375 121.15938 35.909374 121.15938Q35.534374 121.15938 35.221874 121.3Q34.925 121.44063 34.721874 121.75313Q34.51875 122.06563 34.409374 122.58125Q34.315624 123.08125 34.315624 123.8L34.315624 125.45625Q34.315624 126.03438 34.378124 126.47188Q34.45625 126.90938 34.58125 127.2375Q34.721874 127.55 34.909374 127.75313Q35.1125 127.95625 35.3625 128.05Q35.6125 128.14375 35.925 128.14375Q36.33125 128.14375 36.628124 128.00313Q36.925 127.84688 37.128124 127.51875Q37.33125 127.19063 37.425 126.69063Q37.51875 126.175 37.51875 125.45625Z" fill-rule="nonzero"/><path fill="#000000" d="M32.01875 64.041664L32.01875 64.93229L25.8625 64.93229L25.8625 64.291664L29.675 58.385414L30.565624 58.385414L29.6125 60.08854L27.096874 64.041664L32.01875 64.041664ZM30.83125 58.385414L30.83125 66.916664L29.753124 66.916664L29.753124 58.385414L30.83125 58.385414ZM38.6125 61.96354L38.6125 63.27604Q38.6125 64.322914 38.425 65.041664Q38.2375 65.760414 37.878124 66.197914Q37.534374 66.635414 37.034374 66.83854Q36.55 67.041664 35.925 67.041664Q35.440624 67.041664 35.01875 66.916664Q34.596874 66.791664 34.26875 66.52604Q33.940624 66.24479 33.70625 65.80729Q33.471874 65.36979 33.346874 64.74479Q33.221874 64.104164 33.221874 63.27604L33.221874 61.96354Q33.221874 60.916664 33.409374 60.21354Q33.6125 59.510414 33.95625 59.072914Q34.315624 58.635414 34.8 58.447914Q35.3 58.260414 35.909374 58.260414Q36.409374 58.260414 36.83125 58.385414Q37.253124 58.510414 37.58125 58.77604Q37.909374 59.02604 38.128124 59.46354Q38.3625 59.885414 38.4875 60.510414Q38.6125 61.135414 38.6125 61.96354ZM37.51875 63.447914L37.51875 61.791664Q37.51875 61.21354 37.45625 60.77604Q37.39375 60.33854 37.253124 60.02604Q37.128124 59.71354 36.925 59.52604Q36.7375 59.33854 36.4875 59.24479Q36.2375 59.15104 35.909374 59.15104Q35.534374 59.15104 35.221874 59.291664Q34.925 59.43229 34.721874 59.74479Q34.51875 60.05729 34.409374 60.572914Q34.315624 61.072914 34.315624 61.791664L34.315624 63.447914Q34.315624 64.02604 34.378124 64.46354Q34.45625 64.90104 34.58125 65.229164Q34.721874 65.541664 34.909374 65.74479Q35.1125 65.947914 35.3625 66.041664Q35.6125 66.135414 35.925 66.135414Q36.33125 66.135414 36.628124 65.99479Q36.925 65.83854 37.128124 65.510414Q37.33125 65.18229 37.425 64.68229Q37.51875 64.166664 37.51875 63.447914Z" fill-rule="nonzero"/><path fill="#000000" d="M81.86668 340.91876L81.86668 349.45L80.74168 349.45L80.74168 340.91876L81.86668 340.91876ZM84.5698 344.46564L84.5698 349.45L83.49168 349.45L83.49168 343.10626L84.52293 343.10626L84.5698 344.46564ZM84.3198 346.04376L83.86668 346.02814Q83.86668 345.3719 84.05418 344.825Q84.24168 344.2625 84.58543 343.85626Q84.92918 343.45 85.39793 343.23126Q85.86668 342.9969 86.4448 342.9969Q86.91355 342.9969 87.28855 343.1219Q87.66355 343.2469 87.92918 343.52814Q88.1948 343.79376 88.33543 344.23126Q88.47605 344.66876 88.47605 345.29376L88.47605 349.45L87.3823 349.45L87.3823 345.27814Q87.3823 344.77814 87.24168 344.48126Q87.10105 344.1844 86.8198 344.04376Q86.53855 343.90314 86.11668 343.90314Q85.71043 343.90314 85.3823 344.075Q85.05418 344.2469 84.8198 344.54376Q84.58543 344.84064 84.4448 345.23126Q84.3198 345.60626 84.3198 346.04376ZM92.41355 348.46564L94.14793 343.10626L95.2573 343.10626L92.97605 349.45L92.2573 349.45L92.41355 348.46564ZM90.97605 343.10626L92.7573 348.4969L92.8823 349.45L92.14793 349.45L89.85105 343.10626L90.97605 343.10626ZM97.66355 343.10626L97.66355 349.45L96.58543 349.45L96.58543 343.10626L97.66355 343.10626ZM96.49168 341.4344Q96.49168 341.16876 96.64793 340.98126Q96.8198 340.79376 97.1323 340.79376Q97.4448 340.79376 97.60105 340.98126Q97.77293 341.16876 97.77293 341.4344Q97.77293 341.6844 97.60105 341.8719Q97.4448 342.04376 97.1323 342.04376Q96.8198 342.04376 96.64793 341.8719Q96.49168 341.6844 96.49168 341.4344ZM102.14793 343.10626L102.14793 343.9344L98.71043 343.9344L98.71043 343.10626L102.14793 343.10626ZM99.8823 341.575L100.96043 341.575L100.96043 347.8719Q100.96043 348.2 101.05418 348.3719Q101.16355 348.52814 101.3198 348.59064Q101.47605 348.6375 101.66355 348.6375Q101.78855 348.6375 101.92918 348.60626Q102.08543 348.575 102.16355 348.5594L102.17918 349.45Q102.03855 349.4969 101.83543 349.52814Q101.6323 349.575 101.33543 349.575Q100.9448 349.575 100.60105 349.41876Q100.27293 349.2469 100.0698 348.8875Q99.8823 348.5125 99.8823 347.8719L99.8823 341.575ZM107.22605 348.3719L107.22605 345.10626Q107.22605 344.73126 107.0698 344.45Q106.92918 344.16876 106.6323 344.02814Q106.33543 343.8719 105.89793 343.8719Q105.47605 343.8719 105.16355 344.0125Q104.86668 344.15314 104.6948 344.3875Q104.52293 344.60626 104.52293 344.8719L103.4448 344.8719Q103.4448 344.52814 103.61668 344.2Q103.78855 343.85626 104.11668 343.59064Q104.4448 343.3094 104.91355 343.15314Q105.3823 342.9969 105.96043 342.9969Q106.64793 342.9969 107.17918 343.23126Q107.71043 343.46564 108.0073 343.9344Q108.3198 344.40314 108.3198 345.10626L108.3198 348.0594Q108.3198 348.3875 108.36668 348.7469Q108.42918 349.09064 108.53855 349.35626L108.53855 349.45L107.39793 349.45Q107.3198 349.2625 107.27293 348.95Q107.22605 348.6375 107.22605 348.3719ZM107.41355 345.60626L107.42918 346.3719L106.33543 346.3719Q105.86668 346.3719 105.5073 346.45Q105.14793 346.5125 104.89793 346.66876Q104.64793 346.8094 104.52293 347.02814Q104.39793 347.2469 104.39793 347.54376Q104.39793 347.84064 104.52293 348.09064Q104.66355 348.325 104.92918 348.48126Q105.21043 348.6219 105.60105 348.6219Q106.10105 348.6219 106.47605 348.41876Q106.86668 348.2 107.08543 347.90314Q107.3198 347.59064 107.33543 347.29376L107.80418 347.825Q107.7573 348.0594 107.5698 348.3719Q107.39793 348.66876 107.08543 348.95Q106.78855 349.21564 106.36668 349.40314Q105.96043 349.575 105.4448 349.575Q104.80418 349.575 104.3198 349.325Q103.83543 349.0594 103.5698 348.6375Q103.30418 348.21564 103.30418 347.6844Q103.30418 347.16876 103.49168 346.79376Q103.6948 346.40314 104.0698 346.1375Q104.4448 345.8719 104.97605 345.7469Q105.5073 345.60626 106.16355 345.60626L107.41355 345.60626ZM113.14793 343.10626L113.14793 343.9344L109.71043 343.9344L109.71043 343.10626L113.14793 343.10626ZM110.8823 341.575L111.96043 341.575L111.96043 347.8719Q111.96043 348.2 112.05418 348.3719Q112.16355 348.52814 112.3198 348.59064Q112.47605 348.6375 112.66355 348.6375Q112.78855 348.6375 112.92918 348.60626Q113.08543 348.575 113.16355 348.5594L113.17918 349.45Q113.03855 349.4969 112.83543 349.52814Q112.6323 349.575 112.33543 349.575Q111.9448 349.575 111.60105 349.41876Q111.27293 349.2469 111.0698 348.8875Q110.8823 348.5125 110.8823 347.8719L110.8823 341.575ZM115.66355 343.10626L115.66355 349.45L114.58543 349.45L114.58543 343.10626L115.66355 343.10626ZM114.49168 341.4344Q114.49168 341.16876 114.64793 340.98126Q114.8198 340.79376 115.1323 340.79376Q115.4448 340.79376 115.60105 340.98126Q115.77293 341.16876 115.77293 341.4344Q115.77293 341.6844 115.60105 341.8719Q115.4448 342.04376 115.1323 342.04376Q114.8198 342.04376 114.64793 341.8719Q114.49168 341.6844 114.49168 341.4344ZM117.21043 346.35626L117.21043 346.21564Q117.21043 345.52814 117.39793 344.95Q117.60105 344.35626 117.97605 343.91876Q118.35105 343.48126 118.8823 343.2469Q119.41355 342.9969 120.08543 342.9969Q120.74168 342.9969 121.27293 343.2469Q121.8198 343.48126 122.1948 343.91876Q122.5698 344.35626 122.77293 344.95Q122.97605 345.52814 122.97605 346.21564L122.97605 346.35626Q122.97605 347.02814 122.77293 347.6219Q122.5698 348.2 122.1948 348.6375Q121.8198 349.075 121.28855 349.325Q120.7573 349.575 120.08543 349.575Q119.42918 349.575 118.8823 349.325Q118.35105 349.075 117.97605 348.6375Q117.60105 348.2 117.39793 347.6219Q117.21043 347.02814 117.21043 346.35626ZM118.28855 346.21564L118.28855 346.35626Q118.28855 346.825 118.39793 347.2469Q118.5073 347.66876 118.72605 347.9969Q118.96043 348.3094 119.30418 348.4969Q119.64793 348.66876 120.08543 348.66876Q120.53855 348.66876 120.86668 348.4969Q121.21043 348.3094 121.42918 347.9969Q121.66355 347.66876 121.77293 347.2469Q121.8823 346.825 121.8823 346.35626L121.8823 346.21564Q121.8823 345.7469 121.77293 345.325Q121.66355 344.90314 121.42918 344.59064Q121.21043 344.2625 120.86668 344.075Q120.53855 343.8875 120.08543 343.8875Q119.6323 343.8875 119.28855 344.075Q118.96043 344.2625 118.72605 344.59064Q118.5073 344.90314 118.39793 345.325Q118.28855 345.7469 118.28855 346.21564ZM125.5698 344.46564L125.5698 349.45L124.49168 349.45L124.49168 343.10626L125.52293 343.10626L125.5698 344.46564ZM125.3198 346.04376L124.86668 346.02814Q124.86668 345.3719 125.05418 344.825Q125.24168 344.2625 125.58543 343.85626Q125.92918 343.45 126.39793 343.23126Q126.86668 342.9969 127.4448 342.9969Q127.91355 342.9969 128.28854 343.1219Q128.66354 343.2469 128.92917 343.52814Q129.1948 343.79376 129.33542 344.23126Q129.47604 344.66876 129.47604 345.29376L129.47604 349.45L128.3823 349.45L128.3823 345.27814Q128.3823 344.77814 128.24167 344.48126Q128.10104 344.1844 127.8198 344.04376Q127.53855 343.90314 127.11668 343.90314Q126.71043 343.90314 126.3823 344.075Q126.05418 344.2469 125.8198 344.54376Q125.58543 344.84064 125.4448 345.23126Q125.3198 345.60626 125.3198 346.04376Z" fill-rule="nonzero"/><path fill="#000000" d="M181.86302 347.29376Q181.86302 346.9969 181.76927 346.7625Q181.69115 346.52814 181.45677 346.34064Q181.23802 346.15314 180.83177 345.98126Q180.44115 345.8094 179.8474 345.6375Q179.20677 345.45 178.69115 345.23126Q178.19115 344.9969 177.81615 344.7Q177.45677 344.3875 177.26927 344.0125Q177.08177 343.6219 177.08177 343.1219Q177.08177 342.6219 177.2849 342.2Q177.48802 341.77814 177.86302 341.46564Q178.25365 341.15314 178.7849 340.98126Q179.31615 340.79376 179.9724 340.79376Q180.94115 340.79376 181.61302 341.16876Q182.2849 341.52814 182.62865 342.1219Q182.98802 342.71564 182.98802 343.3719L181.86302 343.3719Q181.86302 342.90314 181.64427 342.52814Q181.44115 342.15314 181.01927 341.95Q180.61302 341.73126 179.9724 341.73126Q179.37865 341.73126 178.9724 341.91876Q178.58177 342.09064 178.39427 342.40314Q178.20677 342.71564 178.20677 343.10626Q178.20677 343.3719 178.31615 343.60626Q178.44115 343.825 178.67552 344.0125Q178.92552 344.2 179.30052 344.35626Q179.67552 344.5125 180.20677 344.65314Q180.92552 344.85626 181.45677 345.1219Q181.98802 345.3719 182.33177 345.6844Q182.67552 345.9969 182.83177 346.3875Q183.00365 346.77814 183.00365 347.27814Q183.00365 347.8094 182.7849 348.23126Q182.58177 348.65314 182.19115 348.95Q181.80052 349.2469 181.25365 349.41876Q180.70677 349.575 180.0349 349.575Q179.44115 349.575 178.86302 349.40314Q178.30052 349.23126 177.83177 348.90314Q177.36302 348.575 177.08177 348.10626Q176.80052 347.6219 176.80052 346.98126L177.92552 346.98126Q177.92552 347.41876 178.0974 347.73126Q178.26927 348.04376 178.56615 348.2469Q178.86302 348.45 179.23802 348.5594Q179.61302 348.65314 180.0349 348.65314Q180.62865 348.65314 181.0349 348.4969Q181.44115 348.325 181.64427 348.02814Q181.86302 347.71564 181.86302 347.29376ZM185.23802 344.325L185.23802 351.8875L184.1599 351.8875L184.1599 343.10626L185.14427 343.10626L185.23802 344.325ZM189.51927 346.23126L189.51927 346.35626Q189.51927 347.04376 189.3474 347.6375Q189.19115 348.21564 188.87865 348.65314Q188.56615 349.09064 188.0974 349.34064Q187.64427 349.575 187.05052 349.575Q186.45677 349.575 185.98802 349.3719Q185.51927 349.16876 185.19115 348.79376Q184.87865 348.40314 184.69115 347.8719Q184.50365 347.34064 184.42552 346.66876L184.42552 346.0125Q184.50365 345.3094 184.69115 344.7625Q184.87865 344.2 185.19115 343.8094Q185.51927 343.40314 185.9724 343.2Q186.44115 342.9969 187.0349 342.9969Q187.62865 342.9969 188.0974 343.23126Q188.56615 343.45 188.87865 343.8875Q189.19115 344.3094 189.3474 344.90314Q189.51927 345.4969 189.51927 346.23126ZM188.42552 346.35626L188.42552 346.23126Q188.42552 345.7469 188.31615 345.34064Q188.2224 344.91876 188.01927 344.60626Q187.81615 344.27814 187.48802 344.09064Q187.1599 343.90314 186.7224 343.90314Q186.31615 343.90314 186.00365 344.04376Q185.70677 344.1844 185.48802 344.4344Q185.2849 344.66876 185.14427 344.96564Q185.01927 345.2625 184.95677 345.59064L184.95677 347.10626Q185.06615 347.5125 185.26927 347.8719Q185.48802 348.23126 185.83177 348.45Q186.19115 348.66876 186.73802 348.66876Q187.17552 348.66876 187.48802 348.4969Q187.81615 348.3094 188.01927 347.9969Q188.2224 347.66876 188.31615 347.2469Q188.42552 346.825 188.42552 346.35626ZM190.87865 346.35626L190.87865 346.21564Q190.87865 345.52814 191.06615 344.95Q191.26927 344.35626 191.64427 343.91876Q192.01927 343.48126 192.55052 343.2469Q193.08177 342.9969 193.75365 342.9969Q194.4099 342.9969 194.94115 343.2469Q195.48802 343.48126 195.86302 343.91876Q196.23802 344.35626 196.44115 344.95Q196.64427 345.52814 196.64427 346.21564L196.64427 346.35626Q196.64427 347.02814 196.44115 347.6219Q196.23802 348.2 195.86302 348.6375Q195.48802 349.075 194.95677 349.325Q194.42552 349.575 193.75365 349.575Q193.0974 349.575 192.55052 349.325Q192.01927 349.075 191.64427 348.6375Q191.26927 348.2 191.06615 347.6219Q190.87865 347.02814 190.87865 346.35626ZM191.95677 346.21564L191.95677 346.35626Q191.95677 346.825 192.06615 347.2469Q192.17552 347.66876 192.39427 347.9969Q192.62865 348.3094 192.9724 348.4969Q193.31615 348.66876 193.75365 348.66876Q194.20677 348.66876 194.5349 348.4969Q194.87865 348.3094 195.0974 347.9969Q195.33177 347.66876 195.44115 347.2469Q195.55052 346.825 195.55052 346.35626L195.55052 346.21564Q195.55052 345.7469 195.44115 345.325Q195.33177 344.90314 195.0974 344.59064Q194.87865 344.2625 194.5349 344.075Q194.20677 343.8875 193.75365 343.8875Q193.30052 343.8875 192.95677 344.075Q192.62865 344.2625 192.39427 344.59064Q192.17552 344.90314 192.06615 345.325Q191.95677 345.7469 191.95677 346.21564ZM199.23802 344.46564L199.23802 349.45L198.1599 349.45L198.1599 343.10626L199.19115 343.10626L199.23802 344.46564ZM198.98802 346.04376L198.5349 346.02814Q198.5349 345.3719 198.7224 344.825Q198.9099 344.2625 199.25365 343.85626Q199.5974 343.45 200.06615 343.23126Q200.5349 342.9969 201.11302 342.9969Q201.58177 342.9969 201.95677 343.1219Q202.33177 343.2469 202.5974 343.52814Q202.86302 343.79376 203.00365 344.23126Q203.14427 344.66876 203.14427 345.29376L203.14427 349.45L202.05052 349.45L202.05052 345.27814Q202.05052 344.77814 201.9099 344.48126Q201.76927 344.1844 201.48802 344.04376Q201.20677 343.90314 200.7849 343.90314Q200.37865 343.90314 200.05052 344.075Q199.7224 344.2469 199.48802 344.54376Q199.25365 344.84064 199.11302 345.23126Q198.98802 345.60626 198.98802 346.04376ZM208.8474 347.7625Q208.8474 347.52814 208.73802 347.325Q208.64427 347.1219 208.33177 346.96564Q208.01927 346.79376 207.39427 346.66876Q206.86302 346.5594 206.44115 346.41876Q206.01927 346.2625 205.7224 346.04376Q205.42552 345.825 205.26927 345.52814Q205.11302 345.23126 205.11302 344.84064Q205.11302 344.46564 205.26927 344.1375Q205.44115 343.79376 205.73802 343.54376Q206.05052 343.27814 206.48802 343.1375Q206.92552 342.9969 207.45677 342.9969Q208.2224 342.9969 208.75365 343.2625Q209.30052 343.52814 209.58177 343.98126Q209.86302 344.4344 209.86302 344.96564L208.7849 344.96564Q208.7849 344.71564 208.62865 344.46564Q208.4724 344.21564 208.17552 344.0594Q207.87865 343.8875 207.45677 343.8875Q207.00365 343.8875 206.7224 344.02814Q206.44115 344.15314 206.31615 344.3719Q206.19115 344.575 206.19115 344.8094Q206.19115 344.9969 206.25365 345.1375Q206.31615 345.2625 206.4724 345.3875Q206.62865 345.4969 206.9099 345.60626Q207.20677 345.7 207.6599 345.79376Q208.44115 345.96564 208.94115 346.21564Q209.44115 346.46564 209.69115 346.825Q209.94115 347.16876 209.94115 347.6844Q209.94115 348.10626 209.75365 348.45Q209.58177 348.79376 209.25365 349.04376Q208.94115 349.29376 208.48802 349.4344Q208.0349 349.575 207.48802 349.575Q206.64427 349.575 206.06615 349.27814Q205.48802 348.96564 205.19115 348.4969Q204.89427 348.0125 204.89427 347.4969L205.9724 347.4969Q206.00365 347.9344 206.23802 348.2Q206.4724 348.46564 206.80052 348.575Q207.14427 348.66876 207.48802 348.66876Q207.92552 348.66876 208.2224 348.5594Q208.5349 348.4344 208.69115 348.23126Q208.8474 348.02814 208.8474 347.7625ZM210.87865 346.35626L210.87865 346.21564Q210.87865 345.52814 211.06615 344.95Q211.26927 344.35626 211.64427 343.91876Q212.01927 343.48126 212.55052 343.2469Q213.08177 342.9969 213.75365 342.9969Q214.4099 342.9969 214.94115 343.2469Q215.48802 343.48126 215.86302 343.91876Q216.23802 344.35626 216.44115 344.95Q216.64427 345.52814 216.64427 346.21564L216.64427 346.35626Q216.64427 347.02814 216.44115 347.6219Q216.23802 348.2 215.86302 348.6375Q215.48802 349.075 214.95677 349.325Q214.42552 349.575 213.75365 349.575Q213.0974 349.575 212.55052 349.325Q212.01927 349.075 211.64427 348.6375Q211.26927 348.2 211.06615 347.6219Q210.87865 347.02814 210.87865 346.35626ZM211.95677 346.21564L211.95677 346.35626Q211.95677 346.825 212.06615 347.2469Q212.17552 347.66876 212.39427 347.9969Q212.62865 348.3094 212.9724 348.4969Q213.31615 348.66876 213.75365 348.66876Q214.20677 348.66876 214.5349 348.4969Q214.87865 348.3094 215.0974 347.9969Q215.33177 347.66876 215.44115 347.2469Q215.55052 346.825 215.55052 346.35626L215.55052 346.21564Q215.55052 345.7469 215.44115 345.325Q215.33177 344.90314 215.0974 344.59064Q214.87865 344.2625 214.5349 344.075Q214.20677 343.8875 213.75365 343.8875Q213.30052 343.8875 212.95677 344.075Q212.62865 344.2625 212.39427 344.59064Q212.17552 344.90314 212.06615 345.325Q211.95677 345.7469 211.95677 346.21564ZM219.23802 344.10626L219.23802 349.45L218.1599 349.45L218.1599 343.10626L219.20677 343.10626L219.23802 344.10626ZM221.2224 343.075L221.2224 344.075Q221.08177 344.0594 220.95677 344.04376Q220.8474 344.02814 220.69115 344.02814Q220.31615 344.02814 220.01927 344.15314Q219.73802 344.2625 219.5349 344.48126Q219.3474 344.6844 219.2224 344.98126Q219.11302 345.27814 219.08177 345.6219L218.76927 345.79376Q218.76927 345.21564 218.87865 344.71564Q219.00365 344.21564 219.23802 343.825Q219.48802 343.4344 219.8474 343.21564Q220.2224 342.9969 220.73802 342.9969Q220.86302 342.9969 221.00365 343.02814Q221.1599 343.04376 221.2224 343.075ZM224.7849 349.575Q224.12865 349.575 223.58177 349.35626Q223.05052 349.1219 222.6599 348.71564Q222.2849 348.29376 222.08177 347.73126Q221.87865 347.16876 221.87865 346.4969L221.87865 346.2625Q221.87865 345.48126 222.0974 344.8719Q222.33177 344.2625 222.7224 343.84064Q223.11302 343.41876 223.61302 343.21564Q224.11302 342.9969 224.64427 342.9969Q225.33177 342.9969 225.81615 343.23126Q226.31615 343.46564 226.62865 343.8875Q226.95677 344.29376 227.0974 344.8719Q227.25365 345.4344 227.25365 346.09064L227.25365 346.59064L222.51927 346.59064L222.51927 345.7L226.17552 345.7L226.17552 345.6219Q226.14427 345.2 225.98802 344.8094Q225.8474 344.40314 225.51927 344.15314Q225.20677 343.8875 224.64427 343.8875Q224.2849 343.8875 223.9724 344.04376Q223.6599 344.2 223.42552 344.5125Q223.20677 344.8094 223.08177 345.2469Q222.9724 345.6844 222.9724 346.2625L222.9724 346.4969Q222.9724 346.95 223.0974 347.35626Q223.2224 347.7469 223.45677 348.04376Q223.70677 348.34064 224.05052 348.5125Q224.4099 348.6844 224.8474 348.6844Q225.42552 348.6844 225.81615 348.45Q226.2224 348.21564 226.51927 347.825L227.17552 348.34064Q226.9724 348.65314 226.64427 348.9344Q226.33177 349.21564 225.86302 349.40314Q225.4099 349.575 224.7849 349.575ZM232.1599 348.21564L232.1599 340.45L233.23802 340.45L233.23802 349.45L232.25365 349.45L232.1599 348.21564ZM227.89427 346.35626L227.89427 346.23126Q227.89427 345.4969 228.06615 344.90314Q228.25365 344.3094 228.58177 343.8875Q228.9099 343.45 229.36302 343.23126Q229.83177 342.9969 230.39427 342.9969Q230.98802 342.9969 231.44115 343.2Q231.89427 343.40314 232.20677 343.8094Q232.51927 344.2 232.69115 344.7625Q232.87865 345.3094 232.95677 346.0125L232.95677 346.5594Q232.89427 347.2469 232.70677 347.8094Q232.51927 348.3719 232.20677 348.7625Q231.89427 349.15314 231.44115 349.3719Q230.98802 349.575 230.37865 349.575Q229.83177 349.575 229.36302 349.34064Q228.9099 349.09064 228.58177 348.65314Q228.25365 348.21564 228.06615 347.6375Q227.89427 347.04376 227.89427 346.35626ZM228.9724 346.23126L228.9724 346.35626Q228.9724 346.825 229.06615 347.2469Q229.17552 347.65314 229.37865 347.98126Q229.58177 348.29376 229.89427 348.48126Q230.2224 348.65314 230.6599 348.65314Q231.19115 348.65314 231.5349 348.41876Q231.89427 348.1844 232.0974 347.8094Q232.31615 347.4344 232.42552 346.9969L232.42552 345.59064Q232.36302 345.2625 232.2224 344.96564Q232.0974 344.66876 231.87865 344.4344Q231.67552 344.1844 231.37865 344.04376Q231.08177 343.90314 230.6599 343.90314Q230.2224 343.90314 229.89427 344.09064Q229.58177 344.27814 229.37865 344.60626Q229.17552 344.91876 229.06615 345.34064Q228.9724 345.7469 228.9724 346.23126Z" fill-rule="nonzero"/><path fill="#000000" d="M296.125 340.91876L296.125 349.45L294.98438 349.45L294.98438 340.91876L296.125 340.91876ZM299.70312 344.7625L299.70312 345.6844L295.875 345.6844L295.875 344.7625L299.70312 344.7625ZM300.28125 340.91876L300.28125 341.84064L295.875 341.84064L295.875 340.91876L300.28125 340.91876ZM302.90625 344.10626L302.90625 349.45L301.82812 349.45L301.82812 343.10626L302.875 343.10626L302.90625 344.10626ZM304.89062 343.075L304.89062 344.075Q304.75 344.0594 304.625 344.04376Q304.51562 344.02814 304.35938 344.02814Q303.98438 344.02814 303.6875 344.15314Q303.40625 344.2625 303.20312 344.48126Q303.01562 344.6844 302.89062 344.98126Q302.78125 345.27814 302.75 345.6219L302.4375 345.79376Q302.4375 345.21564 302.54688 344.71564Q302.67188 344.21564 302.90625 343.825Q303.15625 343.4344 303.51562 343.21564Q303.89062 342.9969 304.40625 342.9969Q304.53125 342.9969 304.67188 343.02814Q304.82812 343.04376 304.89062 343.075ZM308.45312 349.575Q307.79688 349.575 307.25 349.35626Q306.71875 349.1219 306.32812 348.71564Q305.95312 348.29376 305.75 347.73126Q305.54688 347.16876 305.54688 346.4969L305.54688 346.2625Q305.54688 345.48126 305.76562 344.8719Q306.0 344.2625 306.39062 343.84064Q306.78125 343.41876 307.28125 343.21564Q307.78125 342.9969 308.3125 342.9969Q309.0 342.9969 309.48438 343.23126Q309.98438 343.46564 310.29688 343.8875Q310.625 344.29376 310.76562 344.8719Q310.92188 345.4344 310.92188 346.09064L310.92188 346.59064L306.1875 346.59064L306.1875 345.7L309.84375 345.7L309.84375 345.6219Q309.8125 345.2 309.65625 344.8094Q309.51562 344.40314 309.1875 344.15314Q308.875 343.8875 308.3125 343.8875Q307.95312 343.8875 307.64062 344.04376Q307.32812 344.2 307.09375 344.5125Q306.875 344.8094 306.75 345.2469Q306.64062 345.6844 306.64062 346.2625L306.64062 346.4969Q306.64062 346.95 306.76562 347.35626Q306.89062 347.7469 307.125 348.04376Q307.375 348.34064 307.71875 348.5125Q308.07812 348.6844 308.51562 348.6844Q309.09375 348.6844 309.48438 348.45Q309.89062 348.21564 310.1875 347.825L310.84375 348.34064Q310.64062 348.65314 310.3125 348.9344Q310.0 349.21564 309.53125 349.40314Q309.07812 349.575 308.45312 349.575ZM314.45312 349.575Q313.79688 349.575 313.25 349.35626Q312.71875 349.1219 312.32812 348.71564Q311.95312 348.29376 311.75 347.73126Q311.54688 347.16876 311.54688 346.4969L311.54688 346.2625Q311.54688 345.48126 311.76562 344.8719Q312.0 344.2625 312.39062 343.84064Q312.78125 343.41876 313.28125 343.21564Q313.78125 342.9969 314.3125 342.9969Q315.0 342.9969 315.48438 343.23126Q315.98438 343.46564 316.29688 343.8875Q316.625 344.29376 316.76562 344.8719Q316.92188 345.4344 316.92188 346.09064L316.92188 346.59064L312.1875 346.59064L312.1875 345.7L315.84375 345.7L315.84375 345.6219Q315.8125 345.2 315.65625 344.8094Q315.51562 344.40314 315.1875 344.15314Q314.875 343.8875 314.3125 343.8875Q313.95312 343.8875 313.64062 344.04376Q313.32812 344.2 313.09375 344.5125Q312.875 344.8094 312.75 345.2469Q312.64062 345.6844 312.64062 346.2625L312.64062 346.4969Q312.64062 346.95 312.76562 347.35626Q312.89062 347.7469 313.125 348.04376Q313.375 348.34064 313.71875 348.5125Q314.07812 348.6844 314.51562 348.6844Q315.09375 348.6844 315.48438 348.45Q315.89062 348.21564 316.1875 347.825L316.84375 348.34064Q316.64062 348.65314 316.3125 348.9344Q316.0 349.21564 315.53125 349.40314Q315.07812 349.575 314.45312 349.575Z" fill-rule="nonzero"/><path fill="#000000" d="M391.6526 340.91876L394.4807 340.91876Q395.44946 340.91876 396.1057 341.21564Q396.7776 341.4969 397.12134 342.075Q397.4651 342.65314 397.4651 343.48126Q397.4651 344.0594 397.2307 344.54376Q396.99634 345.02814 396.5432 345.3719Q396.1057 345.7 395.49634 345.8719L395.18384 345.9969L392.5276 345.9969L392.51196 345.075L394.51196 345.075Q395.12134 345.075 395.5276 344.85626Q395.93384 344.6375 396.13696 344.27814Q396.3401 343.91876 396.3401 343.48126Q396.3401 342.98126 396.1526 342.6219Q395.9651 342.2469 395.5432 342.04376Q395.13696 341.84064 394.4807 341.84064L392.7932 341.84064L392.7932 349.45L391.6526 349.45L391.6526 340.91876ZM396.6526 349.45L394.57446 345.575L395.74634 345.575L397.8557 349.3719L397.8557 349.45L396.6526 349.45ZM403.19946 347.29376Q403.19946 346.9969 403.1057 346.7625Q403.0276 346.52814 402.7932 346.34064Q402.57446 346.15314 402.1682 345.98126Q401.7776 345.8094 401.18384 345.6375Q400.5432 345.45 400.0276 345.23126Q399.5276 344.9969 399.1526 344.7Q398.7932 344.3875 398.6057 344.0125Q398.4182 343.6219 398.4182 343.1219Q398.4182 342.6219 398.62134 342.2Q398.82446 341.77814 399.19946 341.46564Q399.5901 341.15314 400.12134 340.98126Q400.6526 340.79376 401.30884 340.79376Q402.2776 340.79376 402.94946 341.16876Q403.62134 341.52814 403.9651 342.1219Q404.32446 342.71564 404.32446 343.3719L403.19946 343.3719Q403.19946 342.90314 402.9807 342.52814Q402.7776 342.15314 402.3557 341.95Q401.94946 341.73126 401.30884 341.73126Q400.7151 341.73126 400.30884 341.91876Q399.9182 342.09064 399.7307 342.40314Q399.5432 342.71564 399.5432 343.10626Q399.5432 343.3719 399.6526 343.60626Q399.7776 343.825 400.01196 344.0125Q400.26196 344.2 400.63696 344.35626Q401.01196 344.5125 401.5432 344.65314Q402.26196 344.85626 402.7932 345.1219Q403.32446 345.3719 403.6682 345.6844Q404.01196 345.9969 404.1682 346.3875Q404.3401 346.77814 404.3401 347.27814Q404.3401 347.8094 404.12134 348.23126Q403.9182 348.65314 403.5276 348.95Q403.13696 349.2469 402.5901 349.41876Q402.0432 349.575 401.37134 349.575Q400.7776 349.575 400.19946 349.40314Q399.63696 349.23126 399.1682 348.90314Q398.69946 348.575 398.4182 348.10626Q398.13696 347.6219 398.13696 346.98126L399.26196 346.98126Q399.26196 347.41876 399.43384 347.73126Q399.6057 348.04376 399.9026 348.2469Q400.19946 348.45 400.57446 348.5594Q400.94946 348.65314 401.37134 348.65314Q401.9651 348.65314 402.37134 348.4969Q402.7776 348.325 402.9807 348.02814Q403.19946 347.71564 403.19946 347.29376ZM408.4182 348.15314L410.93384 340.91876L412.1526 340.91876L408.99634 349.45L408.12134 349.45L408.4182 348.15314ZM406.05884 340.91876L408.55884 348.15314L408.87134 349.45L407.99634 349.45L404.8401 340.91876L406.05884 340.91876ZM416.80884 346.10626L414.5276 346.10626L414.5276 345.1844L416.80884 345.1844Q417.4651 345.1844 417.87134 344.98126Q418.2932 344.7625 418.4807 344.3875Q418.6682 344.0125 418.6682 343.52814Q418.6682 343.09064 418.4807 342.71564Q418.2932 342.325 417.87134 342.09064Q417.4651 341.84064 416.80884 341.84064L414.7932 341.84064L414.7932 349.45L413.6526 349.45L413.6526 340.91876L416.80884 340.91876Q417.7776 340.91876 418.43384 341.2625Q419.1057 341.59064 419.44946 342.1844Q419.7932 342.7625 419.7932 343.5125Q419.7932 344.34064 419.44946 344.91876Q419.1057 345.4969 418.43384 345.8094Q417.7776 346.10626 416.80884 346.10626Z" fill-rule="nonzero"/><path fill="#000000" d="M497.47708 346.10626L495.19583 346.10626L495.19583 345.1844L497.47708 345.1844Q498.13333 345.1844 498.53958 344.98126Q498.96146 344.7625 499.14896 344.3875Q499.33646 344.0125 499.33646 343.52814Q499.33646 343.09064 499.14896 342.71564Q498.96146 342.325 498.53958 342.09064Q498.13333 341.84064 497.47708 341.84064L495.46146 341.84064L495.46146 349.45L494.32083 349.45L494.32083 340.91876L497.47708 340.91876Q498.44583 340.91876 499.10208 341.2625Q499.77396 341.59064 500.1177 342.1844Q500.46146 342.7625 500.46146 343.5125Q500.46146 344.34064 500.1177 344.91876Q499.77396 345.4969 499.10208 345.8094Q498.44583 346.10626 497.47708 346.10626ZM505.89896 348.3719L505.89896 345.10626Q505.89896 344.73126 505.7427 344.45Q505.60208 344.16876 505.3052 344.02814Q505.00833 343.8719 504.57083 343.8719Q504.14896 343.8719 503.83646 344.0125Q503.53958 344.15314 503.3677 344.3875Q503.19583 344.60626 503.19583 344.8719L502.1177 344.8719Q502.1177 344.52814 502.28958 344.2Q502.46146 343.85626 502.78958 343.59064Q503.1177 343.3094 503.58646 343.15314Q504.0552 342.9969 504.63333 342.9969Q505.32083 342.9969 505.85208 343.23126Q506.38333 343.46564 506.6802 343.9344Q506.9927 344.40314 506.9927 345.10626L506.9927 348.0594Q506.9927 348.3875 507.03958 348.7469Q507.10208 349.09064 507.21146 349.35626L507.21146 349.45L506.07083 349.45Q505.9927 349.2625 505.94583 348.95Q505.89896 348.6375 505.89896 348.3719ZM506.08646 345.60626L506.10208 346.3719L505.00833 346.3719Q504.53958 346.3719 504.1802 346.45Q503.82083 346.5125 503.57083 346.66876Q503.32083 346.8094 503.19583 347.02814Q503.07083 347.2469 503.07083 347.54376Q503.07083 347.84064 503.19583 348.09064Q503.33646 348.325 503.60208 348.48126Q503.88333 348.6219 504.27396 348.6219Q504.77396 348.6219 505.14896 348.41876Q505.53958 348.2 505.75833 347.90314Q505.9927 347.59064 506.00833 347.29376L506.47708 347.825Q506.4302 348.0594 506.2427 348.3719Q506.07083 348.66876 505.75833 348.95Q505.46146 349.21564 505.03958 349.40314Q504.63333 349.575 504.1177 349.575Q503.47708 349.575 502.9927 349.325Q502.50833 349.0594 502.2427 348.6375Q501.97708 348.21564 501.97708 347.6844Q501.97708 347.16876 502.16458 346.79376Q502.3677 346.40314 502.7427 346.1375Q503.1177 345.8719 503.64896 345.7469Q504.1802 345.60626 504.83646 345.60626L506.08646 345.60626ZM510.33646 343.10626L510.33646 349.45L509.25833 349.45L509.25833 343.10626L510.33646 343.10626ZM509.16458 341.4344Q509.16458 341.16876 509.32083 340.98126Q509.4927 340.79376 509.8052 340.79376Q510.1177 340.79376 510.27396 340.98126Q510.44583 341.16876 510.44583 341.4344Q510.44583 341.6844 510.27396 341.8719Q510.1177 342.04376 509.8052 342.04376Q509.4927 342.04376 509.32083 341.8719Q509.16458 341.6844 509.16458 341.4344ZM516.16455 348.21564L516.16455 340.45L517.2427 340.45L517.2427 349.45L516.2583 349.45L516.16455 348.21564ZM511.89896 346.35626L511.89896 346.23126Q511.89896 345.4969 512.0708 344.90314Q512.2583 344.3094 512.5864 343.8875Q512.91455 343.45 513.3677 343.23126Q513.8364 342.9969 514.3989 342.9969Q514.9927 342.9969 515.4458 343.2Q515.8989 343.40314 516.2114 343.8094Q516.5239 344.2 516.6958 344.7625Q516.8833 345.3094 516.9614 346.0125L516.9614 346.5594Q516.8989 347.2469 516.7114 347.8094Q516.5239 348.3719 516.2114 348.7625Q515.8989 349.15314 515.4458 349.3719Q514.9927 349.575 514.3833 349.575Q513.8364 349.575 513.3677 349.34064Q512.91455 349.09064 512.5864 348.65314Q512.2583 348.21564 512.0708 347.6375Q511.89896 347.04376 511.89896 346.35626ZM512.97705 346.23126L512.97705 346.35626Q512.97705 346.825 513.0708 347.2469Q513.1802 347.65314 513.3833 347.98126Q513.5864 348.29376 513.8989 348.48126Q514.22705 348.65314 514.66455 348.65314Q515.1958 348.65314 515.53955 348.41876Q515.8989 348.1844 516.10205 347.8094Q516.3208 347.4344 516.4302 346.9969L516.4302 345.59064Q516.3677 345.2625 516.22705 344.96564Q516.10205 344.66876 515.8833 344.4344Q515.6802 344.1844 515.3833 344.04376Q515.0864 343.90314 514.66455 343.90314Q514.22705 343.90314 513.8989 344.09064Q513.5864 344.27814 513.3833 344.60626Q513.1802 344.91876 513.0708 345.34064Q512.97705 345.7469 512.97705 346.23126Z" fill-rule="nonzero"/><path fill="#434343" d="M254.1875 36.01875L254.1875 37.55L246.65625 37.55L246.65625 36.01875L254.1875 36.01875ZM247.03125 23.33125L247.03125 37.55L245.15625 37.55L245.15625 23.33125L247.03125 23.33125ZM253.1875 29.440624L253.1875 30.971874L246.65625 30.971874L246.65625 29.440624L253.1875 29.440624ZM254.09375 23.33125L254.09375 24.878124L246.65625 24.878124L246.65625 23.33125L254.09375 23.33125ZM257.6875 29.2375L257.6875 37.55L255.875 37.55L255.875 26.9875L257.59375 26.9875L257.6875 29.2375ZM257.25 31.8625L256.5 31.83125Q256.51562 30.753124 256.82812 29.83125Q257.14062 28.909374 257.70312 28.221874Q258.26562 27.534374 259.04688 27.159374Q259.84375 26.784374 260.79688 26.784374Q261.57812 26.784374 262.20312 27.003124Q262.82812 27.20625 263.26562 27.675Q263.71875 28.128124 263.95312 28.8625Q264.1875 29.58125 264.1875 30.628124L264.1875 37.55L262.375 37.55L262.375 30.6125Q262.375 29.76875 262.125 29.26875Q261.89062 28.76875 261.42188 28.55Q260.95312 28.315624 260.26562 28.315624Q259.59375 28.315624 259.03125 28.596874Q258.48438 28.878124 258.07812 29.378124Q257.6875 29.878124 257.46875 30.51875Q257.25 31.159374 257.25 31.8625ZM271.29688 26.9875L271.29688 28.3625L265.59375 28.3625L265.59375 26.9875L271.29688 26.9875ZM267.51562 24.409374L269.32812 24.409374L269.32812 34.925Q269.32812 35.471874 269.48438 35.753124Q269.65625 36.01875 269.92188 36.1125Q270.1875 36.190624 270.48438 36.190624Q270.71875 36.190624 270.96875 36.14375Q271.21875 36.096874 271.34375 36.08125L271.34375 37.55Q271.14062 37.6125 270.78125 37.675Q270.4375 37.753124 269.95312 37.753124Q269.29688 37.753124 268.73438 37.4875Q268.17188 37.221874 267.84375 36.596874Q267.51562 35.971874 267.51562 34.925L267.51562 24.409374ZM275.6875 28.64375L275.6875 37.55L273.875 37.55L273.875 26.9875L275.64062 26.9875L275.6875 28.64375ZM278.98438 26.925L278.96875 28.596874Q278.75 28.55 278.54688 28.534374Q278.34375 28.51875 278.09375 28.51875Q277.46875 28.51875 276.98438 28.721874Q276.51562 28.909374 276.17188 29.26875Q275.84375 29.6125 275.65625 30.096874Q275.46875 30.58125 275.40625 31.159374L274.90625 31.45625Q274.90625 30.503124 275.09375 29.659374Q275.28125 28.815624 275.67188 28.175Q276.07812 27.51875 276.70312 27.159374Q277.32812 26.784374 278.1875 26.784374Q278.375 26.784374 278.625 26.83125Q278.89062 26.878124 278.98438 26.925ZM283.84375 36.45625L286.78125 26.9875L288.71875 26.9875L284.48438 39.175Q284.32812 39.565624 284.09375 40.01875Q283.85938 40.4875 283.48438 40.89375Q283.10938 41.3 282.57812 41.55Q282.0625 41.815624 281.34375 41.815624Q281.125 41.815624 280.79688 41.753124Q280.46875 41.70625 280.32812 41.659374L280.32812 40.190624Q280.40625 40.20625 280.5625 40.221874Q280.73438 40.2375 280.8125 40.2375Q281.42188 40.2375 281.84375 40.065624Q282.28125 39.909374 282.57812 39.534374Q282.875 39.159374 283.09375 38.503124L283.84375 36.45625ZM281.6875 26.9875L284.4375 35.190624L284.90625 37.096874L283.60938 37.753124L279.71875 26.9875L281.6875 26.9875ZM301.03125 34.753124Q301.03125 34.3625 300.85938 34.01875Q300.6875 33.675 300.15625 33.409374Q299.64062 33.128124 298.59375 32.925Q297.71875 32.7375 297.0 32.4875Q296.29688 32.221874 295.79688 31.8625Q295.3125 31.503124 295.04688 31.01875Q294.79688 30.534374 294.79688 29.878124Q294.79688 29.253124 295.0625 28.690624Q295.34375 28.128124 295.85938 27.70625Q296.375 27.26875 297.09375 27.034374Q297.8125 26.784374 298.70312 26.784374Q299.96875 26.784374 300.85938 27.2375Q301.76562 27.690624 302.25 28.440624Q302.73438 29.175 302.73438 30.08125L300.92188 30.08125Q300.92188 29.64375 300.65625 29.2375Q300.40625 28.815624 299.90625 28.55Q299.42188 28.26875 298.70312 28.26875Q297.95312 28.26875 297.48438 28.503124Q297.03125 28.7375 296.8125 29.096874Q296.60938 29.440624 296.60938 29.83125Q296.60938 30.1125 296.70312 30.346874Q296.8125 30.58125 297.07812 30.76875Q297.34375 30.95625 297.8125 31.128124Q298.29688 31.284374 299.03125 31.45625Q300.34375 31.753124 301.17188 32.159374Q302.01562 32.565624 302.42188 33.159374Q302.84375 33.753124 302.84375 34.6125Q302.84375 35.3 302.54688 35.878124Q302.26562 36.45625 301.71875 36.878124Q301.17188 37.284374 300.42188 37.51875Q299.6875 37.753124 298.75 37.753124Q297.35938 37.753124 296.39062 37.253124Q295.42188 36.753124 294.92188 35.95625Q294.42188 35.159374 294.42188 34.284374L296.25 34.284374Q296.28125 35.034374 296.67188 35.471874Q297.0625 35.89375 297.625 36.08125Q298.20312 36.253124 298.75 36.253124Q299.5 36.253124 300.0 36.065624Q300.5 35.8625 300.76562 35.534374Q301.03125 35.190624 301.03125 34.753124ZM309.10938 36.253124Q309.75 36.253124 310.29688 36.003124Q310.84375 35.7375 311.1875 35.26875Q311.54688 34.8 311.59375 34.20625L313.3125 34.20625Q313.26562 35.14375 312.6875 35.95625Q312.10938 36.753124 311.17188 37.253124Q310.23438 37.753124 309.10938 37.753124Q307.92188 37.753124 307.03125 37.33125Q306.14062 36.909374 305.5625 36.175Q304.98438 35.440624 304.6875 34.4875Q304.40625 33.534374 304.40625 32.471874L304.40625 32.065624Q304.40625 31.003124 304.6875 30.05Q304.98438 29.096874 305.5625 28.3625Q306.14062 27.628124 307.03125 27.20625Q307.92188 26.784374 309.10938 26.784374Q310.34375 26.784374 311.26562 27.3Q312.20312 27.8 312.73438 28.659374Q313.26562 29.51875 313.3125 30.6125L311.59375 30.6125Q311.54688 29.95625 311.21875 29.440624Q310.90625 28.909374 310.35938 28.596874Q309.82812 28.26875 309.10938 28.26875Q308.28125 28.26875 307.71875 28.596874Q307.15625 28.925 306.82812 29.4875Q306.5 30.034374 306.35938 30.70625Q306.21875 31.3625 306.21875 32.065624L306.21875 32.471874Q306.21875 33.159374 306.34375 33.846874Q306.48438 34.51875 306.8125 35.065624Q307.14062 35.6125 307.70312 35.940624Q308.26562 36.253124 309.10938 36.253124ZM319.26562 37.753124Q318.15625 37.753124 317.26562 37.378124Q316.375 36.9875 315.73438 36.315624Q315.09375 35.628124 314.75 34.690624Q314.40625 33.753124 314.40625 32.64375L314.40625 32.221874Q314.40625 30.940624 314.78125 29.925Q315.17188 28.909374 315.82812 28.20625Q316.48438 27.503124 317.3125 27.14375Q318.14062 26.784374 319.03125 26.784374Q320.15625 26.784374 320.98438 27.175Q321.8125 27.565624 322.32812 28.26875Q322.85938 28.971874 323.10938 29.909374Q323.375 30.846874 323.375 31.95625L323.375 32.76875L315.48438 32.76875L315.48438 31.3L321.5625 31.3L321.5625 31.159374Q321.53125 30.45625 321.28125 29.8Q321.03125 29.128124 320.48438 28.70625Q319.95312 28.26875 319.03125 28.26875Q318.40625 28.26875 317.89062 28.534374Q317.375 28.784374 317.0 29.3Q316.64062 29.8 316.42188 30.534374Q316.21875 31.26875 316.21875 32.221874L316.21875 32.64375Q316.21875 33.39375 316.42188 34.05Q316.64062 34.70625 317.04688 35.20625Q317.45312 35.70625 318.03125 35.9875Q318.625 36.26875 319.35938 36.26875Q320.3125 36.26875 320.96875 35.878124Q321.64062 35.4875 322.14062 34.83125L323.23438 35.70625Q322.89062 36.221874 322.35938 36.690624Q321.84375 37.159374 321.07812 37.45625Q320.3125 37.753124 319.26562 37.753124ZM327.6875 29.2375L327.6875 37.55L325.875 37.55L325.875 26.9875L327.59375 26.9875L327.6875 29.2375ZM327.25 31.8625L326.5 31.83125Q326.51562 30.753124 326.82812 29.83125Q327.14062 28.909374 327.70312 28.221874Q328.26562 27.534374 329.04688 27.159374Q329.84375 26.784374 330.79688 26.784374Q331.57812 26.784374 332.20312 27.003124Q332.82812 27.20625 333.26562 27.675Q333.71875 28.128124 333.95312 28.8625Q334.1875 29.58125 334.1875 30.628124L334.1875 37.55L332.375 37.55L332.375 30.6125Q332.375 29.76875 332.125 29.26875Q331.89062 28.76875 331.42188 28.55Q330.95312 28.315624 330.26562 28.315624Q329.59375 28.315624 329.03125 28.596874Q328.48438 28.878124 328.07812 29.378124Q327.6875 29.878124 327.46875 30.51875Q327.25 31.159374 327.25 31.8625ZM341.26562 37.753124Q340.15625 37.753124 339.26562 37.378124Q338.375 36.9875 337.73438 36.315624Q337.09375 35.628124 336.75 34.690624Q336.40625 33.753124 336.40625 32.64375L336.40625 32.221874Q336.40625 30.940624 336.78125 29.925Q337.17188 28.909374 337.82812 28.20625Q338.48438 27.503124 339.3125 27.14375Q340.14062 26.784374 341.03125 26.784374Q342.15625 26.784374 342.98438 27.175Q343.8125 27.565624 344.32812 28.26875Q344.85938 28.971874 345.10938 29.909374Q345.375 30.846874 345.375 31.95625L345.375 32.76875L337.48438 32.76875L337.48438 31.3L343.5625 31.3L343.5625 31.159374Q343.53125 30.45625 343.28125 29.8Q343.03125 29.128124 342.48438 28.70625Q341.95312 28.26875 341.03125 28.26875Q340.40625 28.26875 339.89062 28.534374Q339.375 28.784374 339.0 29.3Q338.64062 29.8 338.42188 30.534374Q338.21875 31.26875 338.21875 32.221874L338.21875 32.64375Q338.21875 33.39375 338.42188 34.05Q338.64062 34.70625 339.04688 35.20625Q339.45312 35.70625 340.03125 35.9875Q340.625 36.26875 341.35938 36.26875Q342.3125 36.26875 342.96875 35.878124Q343.64062 35.4875 344.14062 34.83125L345.23438 35.70625Q344.89062 36.221874 344.35938 36.690624Q343.84375 37.159374 343.07812 37.45625Q342.3125 37.753124 341.26562 37.753124ZM354.03125 34.753124Q354.03125 34.3625 353.85938 34.01875Q353.6875 33.675 353.15625 33.409374Q352.64062 33.128124 351.59375 32.925Q350.71875 32.7375 350.0 32.4875Q349.29688 32.221874 348.79688 31.8625Q348.3125 31.503124 348.04688 31.01875Q347.79688 30.534374 347.79688 29.878124Q347.79688 29.253124 348.0625 28.690624Q348.34375 28.128124 348.85938 27.70625Q349.375 27.26875 350.09375 27.034374Q350.8125 26.784374 351.70312 26.784374Q352.96875 26.784374 353.85938 27.2375Q354.76562 27.690624 355.25 28.440624Q355.73438 29.175 355.73438 30.08125L353.92188 30.08125Q353.92188 29.64375 353.65625 29.2375Q353.40625 28.815624 352.90625 28.55Q352.42188 28.26875 351.70312 28.26875Q350.95312 28.26875 350.48438 28.503124Q350.03125 28.7375 349.8125 29.096874Q349.60938 29.440624 349.60938 29.83125Q349.60938 30.1125 349.70312 30.346874Q349.8125 30.58125 350.07812 30.76875Q350.34375 30.95625 350.8125 31.128124Q351.29688 31.284374 352.03125 31.45625Q353.34375 31.753124 354.17188 32.159374Q355.01562 32.565624 355.42188 33.159374Q355.84375 33.753124 355.84375 34.6125Q355.84375 35.3 355.54688 35.878124Q355.26562 36.45625 354.71875 36.878124Q354.17188 37.284374 353.42188 37.51875Q352.6875 37.753124 351.75 37.753124Q350.35938 37.753124 349.39062 37.253124Q348.42188 36.753124 347.92188 35.95625Q347.42188 35.159374 347.42188 34.284374L349.25 34.284374Q349.28125 35.034374 349.67188 35.471874Q350.0625 35.89375 350.625 36.08125Q351.20312 36.253124 351.75 36.253124Q352.5 36.253124 353.0 36.065624Q353.5 35.8625 353.76562 35.534374Q354.03125 35.190624 354.03125 34.753124Z" fill-rule="nonzero"/></svg>