<svg version="1.1" viewBox="0.0 0.0 600.0 371.0" fill="none" stroke="none" stroke-linecap="square" stroke-miterlimit="10" width="600" height="371" xmlns:xlink="http://www.w3.org/1999/xlink" xmlns="http://www.w3.org/2000/svg"><path fill="#ffffff" d="M0 0L600.0 0L600.0 371.0L0 371.0L0 0Z" fill-rule="nonzero"/><path stroke="#333333" stroke-width="1.0" stroke-linecap="butt" d="M66.5 310.5L581.5 310.5" fill-rule="nonzero"/><path fill="#eeeeee" d="M45.5 331.5L66.5 311.5L581.5 311.5L560.5 331.5Z" fill-rule="nonzero"/><path stroke="#cccccc" stroke-width="1.0" stroke-linecap="butt" d="M66.5 248.5L581.5 248.5" fill-rule="nonzero"/><path stroke="#cccccc" stroke-width="1.0" stroke-linecap="butt" d="M66.5 186.5L581.5 186.5" fill-rule="nonzero"/><path stroke="#cccccc" stroke-width="1.0" stroke-linecap="butt" d="M66.5 124.5L581.5 124.5" fill-rule="nonzero"/><path stroke="#cccccc" stroke-width="1.0" stroke-linecap="butt" d="M66.5 62.5L581.5 62.5" fill-rule="nonzero"/><path stroke="#000000" stroke-width="1.0" stroke-linecap="butt" stroke-opacity="0.0" d="M66.5 289.5L581.5 289.5" fill-rule="nonzero"/><path stroke="#000000" stroke-width="1.0" stroke-linecap="butt" stroke-opacity="0.0" d="M66.5 269.5L581.5 269.5" fill-rule="nonzero"/><path stroke="#000000" stroke-width="1.0" stroke-linecap="butt" stroke-opacity="0.0" d="M66.5 227.5L581.5 227.5" fill-rule="nonzero"/><path stroke="#000000" stroke-width="1.0" stroke-linecap="butt" stroke-opacity="0.0" d="M66.5 207.5L581.5 207.5" fill-rule="nonzero"/><path stroke="#000000" stroke-width="1.0" stroke-linecap="butt" stroke-opacity="0.0" d="M66.5 165.5L581.5 165.5" fill-rule="nonzero"/><path stroke="#000000" stroke-width="1.0" stroke-linecap="butt" stroke-opacity="0.0" d="M66.5 145.5L581.5 145.5" fill-rule="nonzero"/><path stroke="#000000" stroke-width="1.0" stroke-linecap="butt" stroke-opacity="0.0" d="M66.5 103.5L581.5 103.5" fill-rule="nonzero"/><path stroke="#000000" stroke-width="1.0" stroke-linecap="butt" stroke-opacity="0.0" d="M66.5 83.5L581.5 83.5" fill-rule="nonzero"/><clipPath id="id_0"><path d="M45.55 62.416668L581.45 62.416668L581.45 331.45L45.55 331.45L45.55 62.416668Z" clip-rule="nonzero"/></clipPath><path fill="#2b569f" clip-path="url(#id_0)" d="M154.0 121.0L154.0 310.0L138.0 326.0L138.0 137.0Z" fill-rule="nonzero"/><path fill="#689df6" clip-path="url(#id_0)" d="M138.0 137.0L73.0 137.0L89.0 121.0L154.0 121.0Z" fill-rule="nonzero"/><path stroke="#000000" stroke-width="2.0" stroke-linecap="butt" stroke-opacity="0.0" clip-path="url(#id_0)" d="M138.0 326.0L73.0 326.0L73.0 137.0L138.0 137.0Z" fill-rule="nonzero"/><path fill="#4285f4" clip-path="url(#id_0)" d="M138.0 326.0L73.0 326.0L73.0 137.0L138.0 137.0Z" fill-rule="nonzero"/><path fill="#2b569f" clip-path="url(#id_0)" d="M254.0 270.0L254.0 310.0L238.0 326.0L238.0 286.0Z" fill-rule="nonzero"/><path fill="#689df6" clip-path="url(#id_0)" d="M238.0 286.0L173.0 286.0L189.0 270.0L254.0 270.0Z" fill-rule="nonzero"/><path stroke="#000000" stroke-width="2.0" stroke-linecap="butt" stroke-opacity="0.0" clip-path="url(#id_0)" d="M238.0 326.0L173.0 326.0L173.0 286.0L238.0 286.0Z" fill-rule="nonzero"/><path fill="#4285f4" clip-path="url(#id_0)" d="M238.0 326.0L173.0 326.0L173.0 286.0L238.0 286.0Z" fill-rule="nonzero"/><path fill="#2b569f" clip-path="url(#id_0)" d="M355.0 298.0L355.0 310.0L339.0 326.0L339.0 314.0Z" fill-rule="nonzero"/><path fill="#689df6" clip-path="url(#id_0)" d="M339.0 314.0L274.0 314.0L290.0 298.0L355.0 298.0Z" fill-rule="nonzero"/><path stroke="#000000" stroke-width="2.0" stroke-linecap="butt" stroke-opacity="0.0" clip-path="url(#id_0)" d="M339.0 326.0L274.0 326.0L274.0 314.0L339.0 314.0Z" fill-rule="nonzero"/><path fill="#4285f4" clip-path="url(#id_0)" d="M339.0 326.0L274.0 326.0L274.0 314.0L339.0 314.0Z" fill-rule="nonzero"/><path fill="#2b569f" clip-path="url(#id_0)" d="M455.0 307.0L455.0 310.0L439.0 326.0L439.0 323.0Z" fill-rule="nonzero"/><path fill="#689df6" clip-path="url(#id_0)" d="M439.0 323.0L374.0 323.0L390.0 307.0L455.0 307.0Z" fill-rule="nonzero"/><path stroke="#000000" stroke-width="2.0" stroke-linecap="butt" stroke-opacity="0.0" clip-path="url(#id_0)" d="M439.0 326.0L374.0 326.0L374.0 323.0L439.0 323.0Z" fill-rule="nonzero"/><path fill="#4285f4" clip-path="url(#id_0)" d="M439.0 326.0L374.0 326.0L374.0 323.0L439.0 323.0Z" fill-rule="nonzero"/><path fill="#2b569f" clip-path="url(#id_0)" d="M555.0 307.0L555.0 310.0L539.0 326.0L539.0 323.0Z" fill-rule="nonzero"/><path fill="#689df6" clip-path="url(#id_0)" d="M539.0 323.0L474.0 323.0L490.0 307.0L555.0 307.0Z" fill-rule="nonzero"/><path stroke="#000000" stroke-width="2.0" stroke-linecap="butt" stroke-opacity="0.0" clip-path="url(#id_0)" d="M539.0 326.0L474.0 326.0L474.0 323.0L539.0 323.0Z" fill-rule="nonzero"/><path fill="#4285f4" clip-path="url(#id_0)" d="M539.0 326.0L474.0 326.0L474.0 323.0L539.0 323.0Z" fill-rule="nonzero"/><path stroke="#4285f4" stroke-width="3.0" stroke-linejoin="round" stroke-linecap="round" d="M102.875 227.84042L102.96875 227.84042L102.96875 228.7623L102.875 228.7623Q102.015625 228.7623 101.421875 229.04355Q100.84375 229.3248 100.5 229.79355Q100.171875 230.24667 100.015625 230.84042Q99.875 231.41855 99.875 232.0123L99.875 233.2623Q99.875 233.8248 100.0 234.2623Q100.140625 234.6998 100.375 235.0123Q100.609375 235.30917 100.90625 235.46542Q101.203125 235.60605 101.515625 235.60605Q101.890625 235.60605 102.1875 235.46542Q102.484375 235.3248 102.6875 235.05917Q102.890625 234.79355 102.984375 234.4498Q103.09375 234.09042 103.09375 233.65292Q103.09375 233.27792 103.0 232.91855Q102.90625 232.55917 102.71875 232.29355Q102.53125 232.0123 102.234375 231.85605Q101.9375 231.68417 101.546875 231.68417Q101.09375 231.68417 100.703125 231.90292Q100.3125 232.12167 100.0625 232.48105Q99.8125 232.84042 99.78125 233.24667L99.203125 233.24667Q99.296875 232.59042 99.515625 232.12167Q99.734375 231.65292 100.078125 231.35605Q100.421875 231.05917 100.828125 230.93417Q101.25 230.79355 101.71875 230.79355Q102.359375 230.79355 102.8125 231.04355Q103.28125 231.27792 103.578125 231.68417Q103.890625 232.0748 104.03125 232.5748Q104.171875 233.0748 104.171875 233.60605Q104.171875 234.1998 104.0 234.73105Q103.828125 235.2623 103.484375 235.66855Q103.15625 236.05917 102.65625 236.29355Q102.171875 236.5123 101.515625 236.5123Q100.828125 236.5123 100.3125 236.23105Q99.796875 235.93417 99.453125 235.46542Q99.125 234.98105 98.953125 234.40292Q98.78125 233.8248 98.78125 233.23105L98.78125 232.71542Q98.78125 231.80917 98.953125 230.9498Q99.140625 230.0748 99.59375 229.37167Q100.046875 228.66855 100.84375 228.2623Q101.640625 227.84042 102.875 227.84042ZM109.265625 227.80917L109.265625 236.3873L108.1875 236.3873L108.1875 229.16855L106.0 229.96542L106.0 228.98105L109.109375 227.80917L109.265625 227.80917Z" fill-rule="nonzero"/><path fill="#ffffff" d="M102.875 227.84042L102.96875 227.84042L102.96875 228.7623L102.875 228.7623Q102.015625 228.7623 101.421875 229.04355Q100.84375 229.3248 100.5 229.79355Q100.171875 230.24667 100.015625 230.84042Q99.875 231.41855 99.875 232.0123L99.875 233.2623Q99.875 233.8248 100.0 234.2623Q100.140625 234.6998 100.375 235.0123Q100.609375 235.30917 100.90625 235.46542Q101.203125 235.60605 101.515625 235.60605Q101.890625 235.60605 102.1875 235.46542Q102.484375 235.3248 102.6875 235.05917Q102.890625 234.79355 102.984375 234.4498Q103.09375 234.09042 103.09375 233.65292Q103.09375 233.27792 103.0 232.91855Q102.90625 232.55917 102.71875 232.29355Q102.53125 232.0123 102.234375 231.85605Q101.9375 231.68417 101.546875 231.68417Q101.09375 231.68417 100.703125 231.90292Q100.3125 232.12167 100.0625 232.48105Q99.8125 232.84042 99.78125 233.24667L99.203125 233.24667Q99.296875 232.59042 99.515625 232.12167Q99.734375 231.65292 100.078125 231.35605Q100.421875 231.05917 100.828125 230.93417Q101.25 230.79355 101.71875 230.79355Q102.359375 230.79355 102.8125 231.04355Q103.28125 231.27792 103.578125 231.68417Q103.890625 232.0748 104.03125 232.5748Q104.171875 233.0748 104.171875 233.60605Q104.171875 234.1998 104.0 234.73105Q103.828125 235.2623 103.484375 235.66855Q103.15625 236.05917 102.65625 236.29355Q102.171875 236.5123 101.515625 236.5123Q100.828125 236.5123 100.3125 236.23105Q99.796875 235.93417 99.453125 235.46542Q99.125 234.98105 98.953125 234.40292Q98.78125 233.8248 98.78125 233.23105L98.78125 232.71542Q98.78125 231.80917 98.953125 230.9498Q99.140625 230.0748 99.59375 229.37167Q100.046875 228.66855 100.84375 228.2623Q101.640625 227.84042 102.875 227.84042ZM109.265625 227.80917L109.265625 236.3873L108.1875 236.3873L108.1875 229.16855L106.0 229.96542L106.0 228.98105L109.109375 227.80917L109.265625 227.80917Z" fill-rule="nonzero"/><path stroke="#4285f4" stroke-width="3.0" stroke-linejoin="round" stroke-linecap="round" d="M202.26562 302.21918L202.26562 310.7973L201.1875 310.7973L201.1875 303.57855L199.0 304.37543L199.0 303.39105L202.10938 302.21918L202.26562 302.21918ZM207.29688 306.00043L208.0625 306.00043Q208.64062 306.00043 209.0 305.81293Q209.375 305.6098 209.5625 305.28168Q209.75 304.95355 209.75 304.53168Q209.75 304.0473 209.57812 303.71918Q209.42188 303.37543 209.09375 303.20355Q208.76562 303.03168 208.26562 303.03168Q207.79688 303.03168 207.45312 303.21918Q207.10938 303.39105 206.90625 303.71918Q206.71875 304.0473 206.71875 304.50043L205.625 304.50043Q205.625 303.84418 205.95312 303.31293Q206.28125 302.78168 206.875 302.46918Q207.46875 302.14105 208.26562 302.14105Q209.03125 302.14105 209.60938 302.4223Q210.1875 302.68793 210.51562 303.2348Q210.84375 303.76605 210.84375 304.56293Q210.84375 304.89105 210.6875 305.25043Q210.53125 305.6098 210.21875 305.93793Q209.90625 306.25043 209.40625 306.45355Q208.92188 306.65668 208.21875 306.65668L207.29688 306.65668L207.29688 306.00043ZM207.29688 306.89105L207.29688 306.2348L208.21875 306.2348Q209.03125 306.2348 209.5625 306.43793Q210.09375 306.62543 210.40625 306.95355Q210.71875 307.26605 210.84375 307.65668Q210.96875 308.03168 210.96875 308.4223Q210.96875 309.01605 210.76562 309.4848Q210.5625 309.93793 210.1875 310.26605Q209.82812 310.57855 209.32812 310.75043Q208.84375 310.9223 208.26562 310.9223Q207.70312 310.9223 207.21875 310.76605Q206.73438 310.59418 206.35938 310.2973Q205.98438 310.00043 205.76562 309.56293Q205.5625 309.1098 205.5625 308.5473L206.64062 308.5473Q206.64062 308.9848 206.82812 309.32855Q207.03125 309.65668 207.39062 309.84418Q207.76562 310.01605 208.26562 310.01605Q208.76562 310.01605 209.125 309.84418Q209.48438 309.6723 209.67188 309.32855Q209.875 308.96918 209.875 308.43793Q209.875 307.90668 209.65625 307.56293Q209.4375 307.21918 209.01562 307.06293Q208.60938 306.89105 208.0625 306.89105L207.29688 306.89105Z" fill-rule="nonzero"/><path fill="#ffffff" d="M202.26562 302.21918L202.26562 310.7973L201.1875 310.7973L201.1875 303.57855L199.0 304.37543L199.0 303.39105L202.10938 302.21918L202.26562 302.21918ZM207.29688 306.00043L208.0625 306.00043Q208.64062 306.00043 209.0 305.81293Q209.375 305.6098 209.5625 305.28168Q209.75 304.95355 209.75 304.53168Q209.75 304.0473 209.57812 303.71918Q209.42188 303.37543 209.09375 303.20355Q208.76562 303.03168 208.26562 303.03168Q207.79688 303.03168 207.45312 303.21918Q207.10938 303.39105 206.90625 303.71918Q206.71875 304.0473 206.71875 304.50043L205.625 304.50043Q205.625 303.84418 205.95312 303.31293Q206.28125 302.78168 206.875 302.46918Q207.46875 302.14105 208.26562 302.14105Q209.03125 302.14105 209.60938 302.4223Q210.1875 302.68793 210.51562 303.2348Q210.84375 303.76605 210.84375 304.56293Q210.84375 304.89105 210.6875 305.25043Q210.53125 305.6098 210.21875 305.93793Q209.90625 306.25043 209.40625 306.45355Q208.92188 306.65668 208.21875 306.65668L207.29688 306.65668L207.29688 306.00043ZM207.29688 306.89105L207.29688 306.2348L208.21875 306.2348Q209.03125 306.2348 209.5625 306.43793Q210.09375 306.62543 210.40625 306.95355Q210.71875 307.26605 210.84375 307.65668Q210.96875 308.03168 210.96875 308.4223Q210.96875 309.01605 210.76562 309.4848Q210.5625 309.93793 210.1875 310.26605Q209.82812 310.57855 209.32812 310.75043Q208.84375 310.9223 208.26562 310.9223Q207.70312 310.9223 207.21875 310.76605Q206.73438 310.59418 206.35938 310.2973Q205.98438 310.00043 205.76562 309.56293Q205.5625 309.1098 205.5625 308.5473L206.64062 308.5473Q206.64062 308.9848 206.82812 309.32855Q207.03125 309.65668 207.39062 309.84418Q207.76562 310.01605 208.26562 310.01605Q208.76562 310.01605 209.125 309.84418Q209.48438 309.6723 209.67188 309.32855Q209.875 308.96918 209.875 308.43793Q209.875 307.90668 209.65625 307.56293Q209.4375 307.21918 209.01562 307.06293Q208.60938 306.89105 208.0625 306.89105L207.29688 306.89105Z" fill-rule="nonzero"/><path stroke="#4285f4" stroke-width="3.0" stroke-linejoin="round" stroke-linecap="round" d="M308.96875 321.87418L308.96875 322.7648L302.8125 322.7648L302.8125 322.12418L306.625 316.21793L307.51562 316.21793L306.5625 317.92105L304.04688 321.87418L308.96875 321.87418ZM307.78125 316.21793L307.78125 324.74918L306.70312 324.74918L306.70312 316.21793L307.78125 316.21793Z" fill-rule="nonzero"/><path fill="#ffffff" d="M308.96875 321.87418L308.96875 322.7648L302.8125 322.7648L302.8125 322.12418L306.625 316.21793L307.51562 316.21793L306.5625 317.92105L304.04688 321.87418L308.96875 321.87418ZM307.78125 316.21793L307.78125 324.74918L306.70312 324.74918L306.70312 316.21793L307.78125 316.21793Z" fill-rule="nonzero"/><path stroke="#4285f4" stroke-width="3.0" stroke-linejoin="round" stroke-linecap="round" d="M406.76562 320.82166L406.76562 329.39978L405.6875 329.39978L405.6875 322.18103L403.5 322.9779L403.5 321.99353L406.60938 320.82166L406.76562 320.82166Z" fill-rule="nonzero"/><path fill="#ffffff" d="M406.76562 320.82166L406.76562 329.39978L405.6875 329.39978L405.6875 322.18103L403.5 322.9779L403.5 321.99353L406.60938 320.82166L406.76562 320.82166Z" fill-rule="nonzero"/><path stroke="#4285f4" stroke-width="3.0" stroke-linejoin="round" stroke-linecap="round" d="M506.76562 320.82166L506.76562 329.39978L505.6875 329.39978L505.6875 322.18103L503.5 322.9779L503.5 321.99353L506.60938 320.82166L506.76562 320.82166Z" fill-rule="nonzero"/><path fill="#ffffff" d="M506.76562 320.82166L506.76562 329.39978L505.6875 329.39978L505.6875 322.18103L503.5 322.9779L503.5 321.99353L506.60938 320.82166L506.76562 320.82166Z" fill-rule="nonzero"/><path fill="#000000" d="M38.6125 309.9969L38.6125 311.3094Q38.6125 312.35626 38.425 313.075Q38.2375 313.79376 37.878124 314.23126Q37.534374 314.66876 37.034374 314.8719Q36.55 315.075 35.925 315.075Q35.440624 315.075 35.01875 314.95Q34.596874 314.825 34.26875 314.5594Q33.940624 314.27814 33.70625 313.84064Q33.471874 313.40314 33.346874 312.77814Q33.221874 312.1375 33.221874 311.3094L33.221874 309.9969Q33.221874 308.95 33.409374 308.2469Q33.6125 307.54376 33.95625 307.10626Q34.315624 306.66876 34.8 306.48126Q35.3 306.29376 35.909374 306.29376Q36.409374 306.29376 36.83125 306.41876Q37.253124 306.54376 37.58125 306.8094Q37.909374 307.0594 38.128124 307.4969Q38.3625 307.91876 38.4875 308.54376Q38.6125 309.16876 38.6125 309.9969ZM37.51875 311.48126L37.51875 309.825Q37.51875 309.2469 37.45625 308.8094Q37.39375 308.3719 37.253124 308.0594Q37.128124 307.7469 36.925 307.5594Q36.7375 307.3719 36.4875 307.27814Q36.2375 307.1844 35.909374 307.1844Q35.534374 307.1844 35.221874 307.325Q34.925 307.46564 34.721874 307.77814Q34.51875 308.09064 34.409374 308.60626Q34.315624 309.10626 34.315624 309.825L34.315624 311.48126Q34.315624 312.0594 34.378124 312.4969Q34.45625 312.9344 34.58125 313.2625Q34.721874 313.575 34.909374 313.77814Q35.1125 313.98126 35.3625 314.075Q35.6125 314.16876 35.925 314.16876Q36.33125 314.16876 36.628124 314.02814Q36.925 313.8719 37.128124 313.54376Q37.33125 313.21564 37.425 312.71564Q37.51875 312.2 37.51875 311.48126Z" fill-rule="nonzero"/><path fill="#000000" d="M31.846874 252.05104L31.846874 252.94167L26.26875 252.94167L26.26875 252.16042L29.065624 249.05104Q29.58125 248.47292 29.8625 248.08229Q30.14375 247.67604 30.253124 247.36354Q30.378124 247.03542 30.378124 246.70729Q30.378124 246.28542 30.20625 245.94167Q30.034374 245.59792 29.690624 245.39479Q29.3625 245.17604 28.878124 245.17604Q28.315624 245.17604 27.940624 245.41042Q27.565624 245.62917 27.378124 246.01979Q27.190624 246.41042 27.190624 246.91042L26.096874 246.91042Q26.096874 246.19167 26.409374 245.59792Q26.7375 245.00417 27.346874 244.64479Q27.971874 244.28542 28.878124 244.28542Q29.690624 244.28542 30.26875 244.58229Q30.846874 244.86354 31.14375 245.37917Q31.45625 245.87917 31.45625 246.56667Q31.45625 246.94167 31.33125 247.33229Q31.20625 247.70729 30.9875 248.09792Q30.76875 248.47292 30.471874 248.84792Q30.190624 249.20729 29.8625 249.56667L27.565624 252.05104L31.846874 252.05104ZM38.6125 247.98854L38.6125 249.30104Q38.6125 250.34792 38.425 251.06667Q38.2375 251.78542 37.878124 252.22292Q37.534374 252.66042 37.034374 252.86354Q36.55 253.06667 35.925 253.06667Q35.440624 253.06667 35.01875 252.94167Q34.596874 252.81667 34.26875 252.55104Q33.940624 252.26979 33.70625 251.83229Q33.471874 251.39479 33.346874 250.76979Q33.221874 250.12917 33.221874 249.30104L33.221874 247.98854Q33.221874 246.94167 33.409374 246.23854Q33.6125 245.53542 33.95625 245.09792Q34.315624 244.66042 34.8 244.47292Q35.3 244.28542 35.909374 244.28542Q36.409374 244.28542 36.83125 244.41042Q37.253124 244.53542 37.58125 244.80104Q37.909374 245.05104 38.128124 245.48854Q38.3625 245.91042 38.4875 246.53542Q38.6125 247.16042 38.6125 247.98854ZM37.51875 249.47292L37.51875 247.81667Q37.51875 247.23854 37.45625 246.80104Q37.39375 246.36354 37.253124 246.05104Q37.128124 245.73854 36.925 245.55104Q36.7375 245.36354 36.4875 245.26979Q36.2375 245.17604 35.909374 245.17604Q35.534374 245.17604 35.221874 245.31667Q34.925 245.45729 34.721874 245.76979Q34.51875 246.08229 34.409374 246.59792Q34.315624 247.09792 34.315624 247.81667L34.315624 249.47292Q34.315624 250.05104 34.378124 250.48854Q34.45625 250.92604 34.58125 251.25417Q34.721874 251.56667 34.909374 251.76979Q35.1125 251.97292 35.3625 252.06667Q35.6125 252.16042 35.925 252.16042Q36.33125 252.16042 36.628124 252.01979Q36.925 251.86354 37.128124 251.53542Q37.33125 251.20729 37.425 250.70729Q37.51875 250.19167 37.51875 249.47292Z" fill-rule="nonzero"/><path fill="#000000" d="M32.01875 188.05833L32.01875 188.94896L25.8625 188.94896L25.8625 188.30833L29.675 182.40208L30.565624 182.40208L29.6125 184.10521L27.096874 188.05833L32.01875 188.05833ZM30.83125 182.40208L30.83125 190.93333L29.753124 190.93333L29.753124 182.40208L30.83125 182.40208ZM38.6125 185.98021L38.6125 187.29271Q38.6125 188.33958 38.425 189.05833Q38.2375 189.77708 37.878124 190.21458Q37.534374 190.65208 37.034374 190.85521Q36.55 191.05833 35.925 191.05833Q35.440624 191.05833 35.01875 190.93333Q34.596874 190.80833 34.26875 190.54271Q33.940624 190.26146 33.70625 189.82396Q33.471874 189.38646 33.346874 188.76146Q33.221874 188.12083 33.221874 187.29271L33.221874 185.98021Q33.221874 184.93333 33.409374 184.23021Q33.6125 183.52708 33.95625 183.08958Q34.315624 182.65208 34.8 182.46458Q35.3 182.27708 35.909374 182.27708Q36.409374 182.27708 36.83125 182.40208Q37.253124 182.52708 37.58125 182.79271Q37.909374 183.04271 38.128124 183.48021Q38.3625 183.90208 38.4875 184.52708Q38.6125 185.15208 38.6125 185.98021ZM37.51875 187.46458L37.51875 185.80833Q37.51875 185.23021 37.45625 184.79271Q37.39375 184.35521 37.253124 184.04271Q37.128124 183.73021 36.925 183.54271Q36.7375 183.35521 36.4875 183.26146Q36.2375 183.16771 35.909374 183.16771Q35.534374 183.16771 35.221874 183.30833Q34.925 183.44896 34.721874 183.76146Q34.51875 184.07396 34.409374 184.58958Q34.315624 185.08958 34.315624 185.80833L34.315624 187.46458Q34.315624 188.04271 34.378124 188.48021Q34.45625 188.91771 34.58125 189.24583Q34.721874 189.55833 34.909374 189.76146Q35.1125 189.96458 35.3625 190.05833Q35.6125 190.15208 35.925 190.15208Q36.33125 190.15208 36.628124 190.01146Q36.925 189.85521 37.128124 189.52708Q37.33125 189.19896 37.425 188.69896Q37.51875 188.18333 37.51875 187.46458Z" fill-rule="nonzero"/><path fill="#000000" d="M30.425 120.37813L30.51875 120.37813L30.51875 121.3L30.425 121.3Q29.565624 121.3 28.971874 121.58125Q28.39375 121.8625 28.05 122.33125Q27.721874 122.78438 27.565624 123.37813Q27.425 123.95625 27.425 124.55L27.425 125.8Q27.425 126.3625 27.55 126.8Q27.690624 127.2375 27.925 127.55Q28.159374 127.84688 28.45625 128.00313Q28.753124 128.14375 29.065624 128.14375Q29.440624 128.14375 29.7375 128.00313Q30.034374 127.8625 30.2375 127.59688Q30.440624 127.33125 30.534374 126.9875Q30.64375 126.62813 30.64375 126.19063Q30.64375 125.81563 30.55 125.45625Q30.45625 125.09688 30.26875 124.83125Q30.08125 124.55 29.784374 124.39375Q29.4875 124.22188 29.096874 124.22188Q28.64375 124.22188 28.253124 124.44063Q27.8625 124.65938 27.6125 125.01875Q27.3625 125.37813 27.33125 125.78438L26.753124 125.78438Q26.846874 125.12813 27.065624 124.65938Q27.284374 124.19063 27.628124 123.89375Q27.971874 123.59688 28.378124 123.47188Q28.8 123.33125 29.26875 123.33125Q29.909374 123.33125 30.3625 123.58125Q30.83125 123.81563 31.128124 124.22188Q31.440624 124.6125 31.58125 125.1125Q31.721874 125.6125 31.721874 126.14375Q31.721874 126.7375 31.55 127.26875Q31.378124 127.8 31.034374 128.20625Q30.70625 128.59688 30.20625 128.83125Q29.721874 129.05 29.065624 129.05Q28.378124 129.05 27.8625 128.76875Q27.346874 128.47188 27.003124 128.00313Q26.675 127.51875 26.503124 126.94063Q26.33125 126.3625 26.33125 125.76875L26.33125 125.25313Q26.33125 124.34688 26.503124 123.4875Q26.690624 122.6125 27.14375 121.90938Q27.596874 121.20625 28.39375 120.8Q29.190624 120.37813 30.425 120.37813ZM38.6125 123.97188L38.6125 125.28438Q38.6125 126.33125 38.425 127.05Q38.2375 127.76875 37.878124 128.20625Q37.534374 128.64375 37.034374 128.84688Q36.55 129.05 35.925 129.05Q35.440624 129.05 35.01875 128.925Q34.596874 128.8 34.26875 128.53438Q33.940624 128.25313 33.70625 127.81563Q33.471874 127.37813 33.346874 126.75313Q33.221874 126.1125 33.221874 125.28438L33.221874 123.97188Q33.221874 122.925 33.409374 122.22188Q33.6125 121.51875 33.95625 121.08125Q34.315624 120.64375 34.8 120.45625Q35.3 120.26875 35.909374 120.26875Q36.409374 120.26875 36.83125 120.39375Q37.253124 120.51875 37.58125 120.78438Q37.909374 121.03438 38.128124 121.47188Q38.3625 121.89375 38.4875 122.51875Q38.6125 123.14375 38.6125 123.97188ZM37.51875 125.45625L37.51875 123.8Q37.51875 123.22188 37.45625 122.78438Q37.39375 122.34688 37.253124 122.03438Q37.128124 121.72188 36.925 121.53438Q36.7375 121.34688 36.4875 121.25313Q36.2375 121.15938 35.909374 121.15938Q35.534374 121.15938 35.221874 121.3Q34.925 121.44063 34.721874 121.75313Q34.51875 122.06563 34.409374 122.58125Q34.315624 123.08125 34.315624 123.8L34.315624 125.45625Q34.315624 126.03438 34.378124 126.47188Q34.45625 126.90938 34.58125 127.2375Q34.721874 127.55 34.909374 127.75313Q35.1125 127.95625 35.3625 128.05Q35.6125 128.14375 35.925 128.14375Q36.33125 128.14375 36.628124 128.00313Q36.925 127.84688 37.128124 127.51875Q37.33125 127.19063 37.425 126.69063Q37.51875 126.175 37.51875 125.45625Z" fill-rule="nonzero"/><path fill="#000000" d="M31.64375 64.604164Q31.64375 65.385414 31.284374 65.93229Q30.925 66.46354 30.3 66.760414Q29.690624 67.041664 28.925 67.041664Q28.159374 67.041664 27.534374 66.760414Q26.925 66.46354 26.565624 65.93229Q26.20625 65.385414 26.20625 64.604164Q26.20625 64.104164 26.409374 63.68229Q26.6125 63.24479 26.971874 62.93229Q27.33125 62.61979 27.815624 62.447914Q28.315624 62.27604 28.909374 62.27604Q29.70625 62.27604 30.315624 62.572914Q30.925 62.86979 31.284374 63.40104Q31.64375 63.93229 31.64375 64.604164ZM30.55 64.58854Q30.55 64.104164 30.346874 63.74479Q30.14375 63.36979 29.76875 63.166664Q29.39375 62.96354 28.909374 62.96354Q28.409374 62.96354 28.05 63.166664Q27.690624 63.36979 27.4875 63.74479Q27.3 64.104164 27.3 64.58854Q27.3 65.072914 27.4875 65.43229Q27.690624 65.77604 28.05 65.96354Q28.425 66.135414 28.925 66.135414Q29.425 66.135414 29.784374 65.96354Q30.159374 65.77604 30.346874 65.43229Q30.55 65.072914 30.55 64.58854ZM31.440624 60.604164Q31.440624 61.229164 31.1125 61.729164Q30.784374 62.229164 30.20625 62.510414Q29.64375 62.791664 28.925 62.791664Q28.190624 62.791664 27.6125 62.510414Q27.05 62.229164 26.721874 61.729164Q26.409374 61.229164 26.409374 60.604164Q26.409374 59.854164 26.721874 59.33854Q27.05 58.822914 27.6125 58.541664Q28.190624 58.260414 28.925 58.260414Q29.659374 58.260414 30.221874 58.541664Q30.784374 58.822914 31.1125 59.33854Q31.440624 59.854164 31.440624 60.604164ZM30.3625 60.61979Q30.3625 60.197914 30.175 59.86979Q29.9875 59.541664 29.659374 59.354164Q29.346874 59.15104 28.925 59.15104Q28.4875 59.15104 28.159374 59.33854Q27.846874 59.510414 27.675 59.83854Q27.503124 60.166664 27.503124 60.61979Q27.503124 61.05729 27.675 61.385414Q27.846874 61.71354 28.175 61.90104Q28.503124 62.08854 28.925 62.08854Q29.346874 62.08854 29.659374 61.90104Q29.9875 61.71354 30.175 61.385414Q30.3625 61.05729 30.3625 60.61979ZM38.6125 61.96354L38.6125 63.27604Q38.6125 64.322914 38.425 65.041664Q38.2375 65.760414 37.878124 66.197914Q37.534374 66.635414 37.034374 66.83854Q36.55 67.041664 35.925 67.041664Q35.440624 67.041664 35.01875 66.916664Q34.596874 66.791664 34.26875 66.52604Q33.940624 66.24479 33.70625 65.80729Q33.471874 65.36979 33.346874 64.74479Q33.221874 64.104164 33.221874 63.27604L33.221874 61.96354Q33.221874 60.916664 33.409374 60.21354Q33.6125 59.510414 33.95625 59.072914Q34.315624 58.635414 34.8 58.447914Q35.3 58.260414 35.909374 58.260414Q36.409374 58.260414 36.83125 58.385414Q37.253124 58.510414 37.58125 58.77604Q37.909374 59.02604 38.128124 59.46354Q38.3625 59.885414 38.4875 60.510414Q38.6125 61.135414 38.6125 61.96354ZM37.51875 63.447914L37.51875 61.791664Q37.51875 61.21354 37.45625 60.77604Q37.39375 60.33854 37.253124 60.02604Q37.128124 59.71354 36.925 59.52604Q36.7375 59.33854 36.4875 59.24479Q36.2375 59.15104 35.909374 59.15104Q35.534374 59.15104 35.221874 59.291664Q34.925 59.43229 34.721874 59.74479Q34.51875 60.05729 34.409374 60.572914Q34.315624 61.072914 34.315624 61.791664L34.315624 63.447914Q34.315624 64.02604 34.378124 64.46354Q34.45625 64.90104 34.58125 65.229164Q34.721874 65.541664 34.909374 65.74479Q35.1125 65.947914 35.3625 66.041664Q35.6125 66.135414 35.925 66.135414Q36.33125 66.135414 36.628124 65.99479Q36.925 65.83854 37.128124 65.510414Q37.33125 65.18229 37.425 64.68229Q37.51875 64.166664 37.51875 63.447914Z" fill-rule="nonzero"/><path fill="#000000" d="M89.1948 345.46564L87.03855 345.46564L87.02293 344.54376L88.99168 344.54376Q89.47605 344.54376 89.83543 344.3875Q90.1948 344.21564 90.39793 343.91876Q90.60105 343.60626 90.60105 343.1844Q90.60105 342.71564 90.41355 342.41876Q90.24168 342.1219 89.86668 341.98126Q89.5073 341.84064 88.9448 341.84064L87.28855 341.84064L87.28855 349.45L86.14793 349.45L86.14793 340.91876L88.9448 340.91876Q89.60105 340.91876 90.11668 341.0594Q90.6323 341.1844 90.99168 341.46564Q91.35105 341.73126 91.53855 342.16876Q91.72605 342.59064 91.72605 343.1844Q91.72605 343.71564 91.46043 344.15314Q91.1948 344.575 90.71043 344.84064Q90.24168 345.10626 89.60105 345.1844L89.1948 345.46564ZM89.14793 349.45L86.58543 349.45L87.22605 348.52814L89.14793 348.52814Q89.67918 348.52814 90.05418 348.34064Q90.4448 348.15314 90.6323 347.8094Q90.83543 347.46564 90.83543 346.9969Q90.83543 346.52814 90.66355 346.1844Q90.49168 345.84064 90.1323 345.65314Q89.77293 345.46564 89.1948 345.46564L87.58543 345.46564L87.60105 344.54376L89.80418 344.54376L90.03855 344.8719Q90.64793 344.9344 91.0698 345.23126Q91.5073 345.52814 91.72605 345.98126Q91.96043 346.4344 91.96043 346.98126Q91.96043 347.77814 91.60105 348.34064Q91.2573 348.8875 90.61668 349.16876Q89.99168 349.45 89.14793 349.45ZM92.71043 346.35626L92.71043 346.21564Q92.71043 345.52814 92.89793 344.95Q93.10105 344.35626 93.47605 343.91876Q93.85105 343.48126 94.3823 343.2469Q94.91355 342.9969 95.58543 342.9969Q96.24168 342.9969 96.77293 343.2469Q97.3198 343.48126 97.6948 343.91876Q98.0698 344.35626 98.27293 344.95Q98.47605 345.52814 98.47605 346.21564L98.47605 346.35626Q98.47605 347.02814 98.27293 347.6219Q98.0698 348.2 97.6948 348.6375Q97.3198 349.075 96.78855 349.325Q96.2573 349.575 95.58543 349.575Q94.92918 349.575 94.3823 349.325Q93.85105 349.075 93.47605 348.6375Q93.10105 348.2 92.89793 347.6219Q92.71043 347.02814 92.71043 346.35626ZM93.78855 346.21564L93.78855 346.35626Q93.78855 346.825 93.89793 347.2469Q94.0073 347.66876 94.22605 347.9969Q94.46043 348.3094 94.80418 348.4969Q95.14793 348.66876 95.58543 348.66876Q96.03855 348.66876 96.36668 348.4969Q96.71043 348.3094 96.92918 347.9969Q97.16355 347.66876 97.27293 347.2469Q97.3823 346.825 97.3823 346.35626L97.3823 346.21564Q97.3823 345.7469 97.27293 345.325Q97.16355 344.90314 96.92918 344.59064Q96.71043 344.2625 96.36668 344.075Q96.03855 343.8875 95.58543 343.8875Q95.1323 343.8875 94.78855 344.075Q94.46043 344.2625 94.22605 344.59064Q94.0073 344.90314 93.89793 345.325Q93.78855 345.7469 93.78855 346.21564ZM99.71043 346.35626L99.71043 346.21564Q99.71043 345.52814 99.89793 344.95Q100.10105 344.35626 100.47605 343.91876Q100.85105 343.48126 101.3823 343.2469Q101.91355 342.9969 102.58543 342.9969Q103.24168 342.9969 103.77293 343.2469Q104.3198 343.48126 104.6948 343.91876Q105.0698 344.35626 105.27293 344.95Q105.47605 345.52814 105.47605 346.21564L105.47605 346.35626Q105.47605 347.02814 105.27293 347.6219Q105.0698 348.2 104.6948 348.6375Q104.3198 349.075 103.78855 349.325Q103.2573 349.575 102.58543 349.575Q101.92918 349.575 101.3823 349.325Q100.85105 349.075 100.47605 348.6375Q100.10105 348.2 99.89793 347.6219Q99.71043 347.02814 99.71043 346.35626ZM100.78855 346.21564L100.78855 346.35626Q100.78855 346.825 100.89793 347.2469Q101.0073 347.66876 101.22605 347.9969Q101.46043 348.3094 101.80418 348.4969Q102.14793 348.66876 102.58543 348.66876Q103.03855 348.66876 103.36668 348.4969Q103.71043 348.3094 103.92918 347.9969Q104.16355 347.66876 104.27293 347.2469Q104.3823 346.825 104.3823 346.35626L104.3823 346.21564Q104.3823 345.7469 104.27293 345.325Q104.16355 344.90314 103.92918 344.59064Q103.71043 344.2625 103.36668 344.075Q103.03855 343.8875 102.58543 343.8875Q102.1323 343.8875 101.78855 344.075Q101.46043 344.2625 101.22605 344.59064Q101.0073 344.90314 100.89793 345.325Q100.78855 345.7469 100.78855 346.21564ZM108.08543 340.45L108.08543 349.45L106.99168 349.45L106.99168 340.45L108.08543 340.45ZM111.96043 343.10626L109.1948 346.075L107.64793 347.66876L107.55418 346.5125L108.66355 345.2L110.6323 343.10626L111.96043 343.10626ZM110.96043 349.45L108.6948 346.41876L109.2573 345.46564L112.24168 349.45L110.96043 349.45ZM115.61668 349.575Q114.96043 349.575 114.41355 349.35626Q113.8823 349.1219 113.49168 348.71564Q113.11668 348.29376 112.91355 347.73126Q112.71043 347.16876 112.71043 346.4969L112.71043 346.2625Q112.71043 345.48126 112.92918 344.8719Q113.16355 344.2625 113.55418 343.84064Q113.9448 343.41876 114.4448 343.21564Q114.9448 342.9969 115.47605 342.9969Q116.16355 342.9969 116.64793 343.23126Q117.14793 343.46564 117.46043 343.8875Q117.78855 344.29376 117.92918 344.8719Q118.08543 345.4344 118.08543 346.09064L118.08543 346.59064L113.35105 346.59064L113.35105 345.7L117.0073 345.7L117.0073 345.6219Q116.97605 345.2 116.8198 344.8094Q116.67918 344.40314 116.35105 344.15314Q116.03855 343.8875 115.47605 343.8875Q115.11668 343.8875 114.80418 344.04376Q114.49168 344.2 114.2573 344.5125Q114.03855 344.8094 113.91355 345.2469Q113.80418 345.6844 113.80418 346.2625L113.80418 346.4969Q113.80418 346.95 113.92918 347.35626Q114.05418 347.7469 114.28855 348.04376Q114.53855 348.34064 114.8823 348.5125Q115.24168 348.6844 115.67918 348.6844Q116.2573 348.6844 116.64793 348.45Q117.05418 348.21564 117.35105 347.825L118.0073 348.34064Q117.80418 348.65314 117.47605 348.9344Q117.16355 349.21564 116.6948 349.40314Q116.24168 349.575 115.61668 349.575ZM122.99168 348.21564L122.99168 340.45L124.0698 340.45L124.0698 349.45L123.08543 349.45L122.99168 348.21564ZM118.72605 346.35626L118.72605 346.23126Q118.72605 345.4969 118.89793 344.90314Q119.08543 344.3094 119.41355 343.8875Q119.74168 343.45 120.1948 343.23126Q120.66355 342.9969 121.22605 342.9969Q121.8198 342.9969 122.27293 343.2Q122.72605 343.40314 123.03855 343.8094Q123.35105 344.2 123.52293 344.7625Q123.71043 345.3094 123.78855 346.0125L123.78855 346.5594Q123.72605 347.2469 123.53855 347.8094Q123.35105 348.3719 123.03855 348.7625Q122.72605 349.15314 122.27293 349.3719Q121.8198 349.575 121.21043 349.575Q120.66355 349.575 120.1948 349.34064Q119.74168 349.09064 119.41355 348.65314Q119.08543 348.21564 118.89793 347.6375Q118.72605 347.04376 118.72605 346.35626ZM119.80418 346.23126L119.80418 346.35626Q119.80418 346.825 119.89793 347.2469Q120.0073 347.65314 120.21043 347.98126Q120.41355 348.29376 120.72605 348.48126Q121.05418 348.65314 121.49168 348.65314Q122.02293 348.65314 122.36668 348.41876Q122.72605 348.1844 122.92918 347.8094Q123.14793 347.4344 123.2573 346.9969L123.2573 345.59064Q123.1948 345.2625 123.05418 344.96564Q122.92918 344.66876 122.71043 344.4344Q122.5073 344.1844 122.21043 344.04376Q121.91355 343.90314 121.49168 343.90314Q121.05418 343.90314 120.72605 344.09064Q120.41355 344.27814 120.21043 344.60626Q120.0073 344.91876 119.89793 345.34064Q119.80418 345.7469 119.80418 346.23126Z" fill-rule="nonzero"/><path fill="#000000" d="M185.56615 346.8719L187.25365 340.91876L188.08177 340.91876L187.61302 343.23126L185.7849 349.45L184.9724 349.45L185.56615 346.8719ZM183.81615 340.91876L185.1599 346.7469L185.56615 349.45L184.75365 349.45L182.69115 340.91876L183.81615 340.91876ZM190.26927 346.7469L191.5974 340.91876L192.7224 340.91876L190.6599 349.45L189.8474 349.45L190.26927 346.7469ZM188.20677 340.91876L189.8474 346.8719L190.44115 349.45L189.62865 349.45L187.87865 343.23126L187.39427 340.91876L188.20677 340.91876ZM195.33177 343.10626L195.33177 349.45L194.25365 349.45L194.25365 343.10626L195.33177 343.10626ZM194.1599 341.4344Q194.1599 341.16876 194.31615 340.98126Q194.48802 340.79376 194.80052 340.79376Q195.11302 340.79376 195.26927 340.98126Q195.44115 341.16876 195.44115 341.4344Q195.44115 341.6844 195.26927 341.8719Q195.11302 342.04376 194.80052 342.04376Q194.48802 342.04376 194.31615 341.8719Q194.1599 341.6844 194.1599 341.4344ZM200.8474 347.7625Q200.8474 347.52814 200.73802 347.325Q200.64427 347.1219 200.33177 346.96564Q200.01927 346.79376 199.39427 346.66876Q198.86302 346.5594 198.44115 346.41876Q198.01927 346.2625 197.7224 346.04376Q197.42552 345.825 197.26927 345.52814Q197.11302 345.23126 197.11302 344.84064Q197.11302 344.46564 197.26927 344.1375Q197.44115 343.79376 197.73802 343.54376Q198.05052 343.27814 198.48802 343.1375Q198.92552 342.9969 199.45677 342.9969Q200.2224 342.9969 200.75365 343.2625Q201.30052 343.52814 201.58177 343.98126Q201.86302 344.4344 201.86302 344.96564L200.7849 344.96564Q200.7849 344.71564 200.62865 344.46564Q200.4724 344.21564 200.17552 344.0594Q199.87865 343.8875 199.45677 343.8875Q199.00365 343.8875 198.7224 344.02814Q198.44115 344.15314 198.31615 344.3719Q198.19115 344.575 198.19115 344.8094Q198.19115 344.9969 198.25365 345.1375Q198.31615 345.2625 198.4724 345.3875Q198.62865 345.4969 198.9099 345.60626Q199.20677 345.7 199.6599 345.79376Q200.44115 345.96564 200.94115 346.21564Q201.44115 346.46564 201.69115 346.825Q201.94115 347.16876 201.94115 347.6844Q201.94115 348.10626 201.75365 348.45Q201.58177 348.79376 201.25365 349.04376Q200.94115 349.29376 200.48802 349.4344Q200.0349 349.575 199.48802 349.575Q198.64427 349.575 198.06615 349.27814Q197.48802 348.96564 197.19115 348.4969Q196.89427 348.0125 196.89427 347.4969L197.9724 347.4969Q198.00365 347.9344 198.23802 348.2Q198.4724 348.46564 198.80052 348.575Q199.14427 348.66876 199.48802 348.66876Q199.92552 348.66876 200.2224 348.5594Q200.5349 348.4344 200.69115 348.23126Q200.8474 348.02814 200.8474 347.7625ZM204.23802 340.45L204.23802 349.45L203.1599 349.45L203.1599 340.45L204.23802 340.45ZM203.98802 346.04376L203.5349 346.02814Q203.5349 345.3719 203.7224 344.825Q203.9099 344.2625 204.25365 343.85626Q204.5974 343.45 205.06615 343.23126Q205.5349 342.9969 206.11302 342.9969Q206.58177 342.9969 206.95677 343.1219Q207.33177 343.2469 207.5974 343.52814Q207.86302 343.79376 208.00365 344.23126Q208.14427 344.66876 208.14427 345.29376L208.14427 349.45L207.05052 349.45L207.05052 345.27814Q207.05052 344.77814 206.9099 344.48126Q206.76927 344.1844 206.48802 344.04376Q206.20677 343.90314 205.7849 343.90314Q205.37865 343.90314 205.05052 344.075Q204.7224 344.2469 204.48802 344.54376Q204.25365 344.84064 204.11302 345.23126Q203.98802 345.60626 203.98802 346.04376ZM214.33177 340.45L214.33177 349.45L213.25365 349.45L213.25365 340.45L214.33177 340.45ZM217.33177 343.10626L217.33177 349.45L216.25365 349.45L216.25365 343.10626L217.33177 343.10626ZM216.1599 341.4344Q216.1599 341.16876 216.31615 340.98126Q216.48802 340.79376 216.80052 340.79376Q217.11302 340.79376 217.26927 340.98126Q217.44115 341.16876 217.44115 341.4344Q217.44115 341.6844 217.26927 341.8719Q217.11302 342.04376 216.80052 342.04376Q216.48802 342.04376 216.31615 341.8719Q216.1599 341.6844 216.1599 341.4344ZM222.8474 347.7625Q222.8474 347.52814 222.73802 347.325Q222.64427 347.1219 222.33177 346.96564Q222.01927 346.79376 221.39427 346.66876Q220.86302 346.5594 220.44115 346.41876Q220.01927 346.2625 219.7224 346.04376Q219.42552 345.825 219.26927 345.52814Q219.11302 345.23126 219.11302 344.84064Q219.11302 344.46564 219.26927 344.1375Q219.44115 343.79376 219.73802 343.54376Q220.05052 343.27814 220.48802 343.1375Q220.92552 342.9969 221.45677 342.9969Q222.2224 342.9969 222.75365 343.2625Q223.30052 343.52814 223.58177 343.98126Q223.86302 344.4344 223.86302 344.96564L222.7849 344.96564Q222.7849 344.71564 222.62865 344.46564Q222.4724 344.21564 222.17552 344.0594Q221.87865 343.8875 221.45677 343.8875Q221.00365 343.8875 220.7224 344.02814Q220.44115 344.15314 220.31615 344.3719Q220.19115 344.575 220.19115 344.8094Q220.19115 344.9969 220.25365 345.1375Q220.31615 345.2625 220.4724 345.3875Q220.62865 345.4969 220.9099 345.60626Q221.20677 345.7 221.6599 345.79376Q222.44115 345.96564 222.94115 346.21564Q223.44115 346.46564 223.69115 346.825Q223.94115 347.16876 223.94115 347.6844Q223.94115 348.10626 223.75365 348.45Q223.58177 348.79376 223.25365 349.04376Q222.94115 349.29376 222.48802 349.4344Q222.0349 349.575 221.48802 349.575Q220.64427 349.575 220.06615 349.27814Q219.48802 348.96564 219.19115 348.4969Q218.89427 348.0125 218.89427 347.4969L219.9724 347.4969Q220.00365 347.9344 220.23802 348.2Q220.4724 348.46564 220.80052 348.575Q221.14427 348.66876 221.48802 348.66876Q221.92552 348.66876 222.2224 348.5594Q222.5349 348.4344 222.69115 348.23126Q222.8474 348.02814 222.8474 347.7625ZM227.81615 343.10626L227.81615 343.9344L224.37865 343.9344L224.37865 343.10626L227.81615 343.10626ZM225.55052 341.575L226.62865 341.575L226.62865 347.8719Q226.62865 348.2 226.7224 348.3719Q226.83177 348.52814 226.98802 348.59064Q227.14427 348.6375 227.33177 348.6375Q227.45677 348.6375 227.5974 348.60626Q227.75365 348.575 227.83177 348.5594L227.8474 349.45Q227.70677 349.4969 227.50365 349.52814Q227.30052 349.575 227.00365 349.575Q226.61302 349.575 226.26927 349.41876Q225.94115 349.2469 225.73802 348.8875Q225.55052 348.5125 225.55052 347.8719L225.55052 341.575Z" fill-rule="nonzero"/><path fill="#000000" d="M279.73438 346.8719L281.42188 340.91876L282.25 340.91876L281.78125 343.23126L279.95312 349.45L279.14062 349.45L279.73438 346.8719ZM277.98438 340.91876L279.32812 346.7469L279.73438 349.45L278.92188 349.45L276.85938 340.91876L277.98438 340.91876ZM284.4375 346.7469L285.76562 340.91876L286.89062 340.91876L284.82812 349.45L284.01562 349.45L284.4375 346.7469ZM282.375 340.91876L284.01562 346.8719L284.60938 349.45L283.79688 349.45L282.04688 343.23126L281.5625 340.91876L282.375 340.91876ZM289.5 343.10626L289.5 349.45L288.42188 349.45L288.42188 343.10626L289.5 343.10626ZM288.32812 341.4344Q288.32812 341.16876 288.48438 340.98126Q288.65625 340.79376 288.96875 340.79376Q289.28125 340.79376 289.4375 340.98126Q289.60938 341.16876 289.60938 341.4344Q289.60938 341.6844 289.4375 341.8719Q289.28125 342.04376 288.96875 342.04376Q288.65625 342.04376 288.48438 341.8719Q288.32812 341.6844 288.32812 341.4344ZM292.5 340.45L292.5 349.45L291.42188 349.45L291.42188 340.45L292.5 340.45ZM295.5 340.45L295.5 349.45L294.42188 349.45L294.42188 340.45L295.5 340.45ZM304.0625 348.3719L304.0625 345.10626Q304.0625 344.73126 303.90625 344.45Q303.76562 344.16876 303.46875 344.02814Q303.17188 343.8719 302.73438 343.8719Q302.3125 343.8719 302.0 344.0125Q301.70312 344.15314 301.53125 344.3875Q301.35938 344.60626 301.35938 344.8719L300.28125 344.8719Q300.28125 344.52814 300.45312 344.2Q300.625 343.85626 300.95312 343.59064Q301.28125 343.3094 301.75 343.15314Q302.21875 342.9969 302.79688 342.9969Q303.48438 342.9969 304.01562 343.23126Q304.54688 343.46564 304.84375 343.9344Q305.15625 344.40314 305.15625 345.10626L305.15625 348.0594Q305.15625 348.3875 305.20312 348.7469Q305.26562 349.09064 305.375 349.35626L305.375 349.45L304.23438 349.45Q304.15625 349.2625 304.10938 348.95Q304.0625 348.6375 304.0625 348.3719ZM304.25 345.60626L304.26562 346.3719L303.17188 346.3719Q302.70312 346.3719 302.34375 346.45Q301.98438 346.5125 301.73438 346.66876Q301.48438 346.8094 301.35938 347.02814Q301.23438 347.2469 301.23438 347.54376Q301.23438 347.84064 301.35938 348.09064Q301.5 348.325 301.76562 348.48126Q302.04688 348.6219 302.4375 348.6219Q302.9375 348.6219 303.3125 348.41876Q303.70312 348.2 303.92188 347.90314Q304.15625 347.59064 304.17188 347.29376L304.64062 347.825Q304.59375 348.0594 304.40625 348.3719Q304.23438 348.66876 303.92188 348.95Q303.625 349.21564 303.20312 349.40314Q302.79688 349.575 302.28125 349.575Q301.64062 349.575 301.15625 349.325Q300.67188 349.0594 300.40625 348.6375Q300.14062 348.21564 300.14062 347.6844Q300.14062 347.16876 300.32812 346.79376Q300.53125 346.40314 300.90625 346.1375Q301.28125 345.8719 301.8125 345.7469Q302.34375 345.60626 303.0 345.60626L304.25 345.60626ZM309.98438 343.10626L309.98438 343.9344L306.54688 343.9344L306.54688 343.10626L309.98438 343.10626ZM307.71875 341.575L308.79688 341.575L308.79688 347.8719Q308.79688 348.2 308.89062 348.3719Q309.0 348.52814 309.15625 348.59064Q309.3125 348.6375 309.5 348.6375Q309.625 348.6375 309.76562 348.60626Q309.92188 348.575 310.0 348.5594L310.01562 349.45Q309.875 349.4969 309.67188 349.52814Q309.46875 349.575 309.17188 349.575Q308.78125 349.575 308.4375 349.41876Q308.10938 349.2469 307.90625 348.8875Q307.71875 348.5125 307.71875 347.8719L307.71875 341.575ZM313.98438 343.10626L313.98438 343.9344L310.54688 343.9344L310.54688 343.10626L313.98438 343.10626ZM311.71875 341.575L312.79688 341.575L312.79688 347.8719Q312.79688 348.2 312.89062 348.3719Q313.0 348.52814 313.15625 348.59064Q313.3125 348.6375 313.5 348.6375Q313.625 348.6375 313.76562 348.60626Q313.92188 348.575 314.0 348.5594L314.01562 349.45Q313.875 349.4969 313.67188 349.52814Q313.46875 349.575 313.17188 349.575Q312.78125 349.575 312.4375 349.41876Q312.10938 349.2469 311.90625 348.8875Q311.71875 348.5125 311.71875 347.8719L311.71875 341.575ZM317.95312 349.575Q317.29688 349.575 316.75 349.35626Q316.21875 349.1219 315.82812 348.71564Q315.45312 348.29376 315.25 347.73126Q315.04688 347.16876 315.04688 346.4969L315.04688 346.2625Q315.04688 345.48126 315.26562 344.8719Q315.5 344.2625 315.89062 343.84064Q316.28125 343.41876 316.78125 343.21564Q317.28125 342.9969 317.8125 342.9969Q318.5 342.9969 318.98438 343.23126Q319.48438 343.46564 319.79688 343.8875Q320.125 344.29376 320.26562 344.8719Q320.42188 345.4344 320.42188 346.09064L320.42188 346.59064L315.6875 346.59064L315.6875 345.7L319.34375 345.7L319.34375 345.6219Q319.3125 345.2 319.15625 344.8094Q319.01562 344.40314 318.6875 344.15314Q318.375 343.8875 317.8125 343.8875Q317.45312 343.8875 317.14062 344.04376Q316.82812 344.2 316.59375 344.5125Q316.375 344.8094 316.25 345.2469Q316.14062 345.6844 316.14062 346.2625L316.14062 346.4969Q316.14062 346.95 316.26562 347.35626Q316.39062 347.7469 316.625 348.04376Q316.875 348.34064 317.21875 348.5125Q317.57812 348.6844 318.01562 348.6844Q318.59375 348.6844 318.98438 348.45Q319.39062 348.21564 319.6875 347.825L320.34375 348.34064Q320.14062 348.65314 319.8125 348.9344Q319.5 349.21564 319.03125 349.40314Q318.57812 349.575 317.95312 349.575ZM322.40625 344.46564L322.40625 349.45L321.32812 349.45L321.32812 343.10626L322.35938 343.10626L322.40625 344.46564ZM322.15625 346.04376L321.70312 346.02814Q321.70312 345.3719 321.89062 344.825Q322.07812 344.2625 322.42188 343.85626Q322.76562 343.45 323.23438 343.23126Q323.70312 342.9969 324.28125 342.9969Q324.75 342.9969 325.125 343.1219Q325.5 343.2469 325.76562 343.52814Q326.03125 343.79376 326.17188 344.23126Q326.3125 344.66876 326.3125 345.29376L326.3125 349.45L325.21875 349.45L325.21875 345.27814Q325.21875 344.77814 325.07812 344.48126Q324.9375 344.1844 324.65625 344.04376Q324.375 343.90314 323.95312 343.90314Q323.54688 343.90314 323.21875 344.075Q322.89062 344.2469 322.65625 344.54376Q322.42188 344.84064 322.28125 345.23126Q322.15625 345.60626 322.15625 346.04376ZM332.32812 348.21564L332.32812 340.45L333.40625 340.45L333.40625 349.45L332.42188 349.45L332.32812 348.21564ZM328.0625 346.35626L328.0625 346.23126Q328.0625 345.4969 328.23438 344.90314Q328.42188 344.3094 328.75 343.8875Q329.07812 343.45 329.53125 343.23126Q330.0 342.9969 330.5625 342.9969Q331.15625 342.9969 331.60938 343.2Q332.0625 343.40314 332.375 343.8094Q332.6875 344.2 332.85938 344.7625Q333.04688 345.3094 333.125 346.0125L333.125 346.5594Q333.0625 347.2469 332.875 347.8094Q332.6875 348.3719 332.375 348.7625Q332.0625 349.15314 331.60938 349.3719Q331.15625 349.575 330.54688 349.575Q330.0 349.575 329.53125 349.34064Q329.07812 349.09064 328.75 348.65314Q328.42188 348.21564 328.23438 347.6375Q328.0625 347.04376 328.0625 346.35626ZM329.14062 346.23126L329.14062 346.35626Q329.14062 346.825 329.23438 347.2469Q329.34375 347.65314 329.54688 347.98126Q329.75 348.29376 330.0625 348.48126Q330.39062 348.65314 330.82812 348.65314Q331.35938 348.65314 331.70312 348.41876Q332.0625 348.1844 332.26562 347.8094Q332.48438 347.4344 332.59375 346.9969L332.59375 345.59064Q332.53125 345.2625 332.39062 344.96564Q332.26562 344.66876 332.04688 344.4344Q331.84375 344.1844 331.54688 344.04376Q331.25 343.90314 330.82812 343.90314Q330.39062 343.90314 330.0625 344.09064Q329.75 344.27814 329.54688 344.60626Q329.34375 344.91876 329.23438 345.34064Q329.14062 345.7469 329.14062 346.23126Z" fill-rule="nonzero"/><path fill="#000000" d="M388.69946 347.29376Q388.69946 346.9969 388.6057 346.7625Q388.5276 346.52814 388.2932 346.34064Q388.07446 346.15314 387.6682 345.98126Q387.2776 345.8094 386.68384 345.6375Q386.0432 345.45 385.5276 345.23126Q385.0276 344.9969 384.6526 344.7Q384.2932 344.3875 384.1057 344.0125Q383.9182 343.6219 383.9182 343.1219Q383.9182 342.6219 384.12134 342.2Q384.32446 341.77814 384.69946 341.46564Q385.0901 341.15314 385.62134 340.98126Q386.1526 340.79376 386.80884 340.79376Q387.7776 340.79376 388.44946 341.16876Q389.12134 341.52814 389.4651 342.1219Q389.82446 342.71564 389.82446 343.3719L388.69946 343.3719Q388.69946 342.90314 388.4807 342.52814Q388.2776 342.15314 387.8557 341.95Q387.44946 341.73126 386.80884 341.73126Q386.2151 341.73126 385.80884 341.91876Q385.4182 342.09064 385.2307 342.40314Q385.0432 342.71564 385.0432 343.10626Q385.0432 343.3719 385.1526 343.60626Q385.2776 343.825 385.51196 344.0125Q385.76196 344.2 386.13696 344.35626Q386.51196 344.5125 387.0432 344.65314Q387.76196 344.85626 388.2932 345.1219Q388.82446 345.3719 389.1682 345.6844Q389.51196 345.9969 389.6682 346.3875Q389.8401 346.77814 389.8401 347.27814Q389.8401 347.8094 389.62134 348.23126Q389.4182 348.65314 389.0276 348.95Q388.63696 349.2469 388.0901 349.41876Q387.5432 349.575 386.87134 349.575Q386.2776 349.575 385.69946 349.40314Q385.13696 349.23126 384.6682 348.90314Q384.19946 348.575 383.9182 348.10626Q383.63696 347.6219 383.63696 346.98126L384.76196 346.98126Q384.76196 347.41876 384.93384 347.73126Q385.1057 348.04376 385.4026 348.2469Q385.69946 348.45 386.07446 348.5594Q386.44946 348.65314 386.87134 348.65314Q387.4651 348.65314 387.87134 348.4969Q388.2776 348.325 388.4807 348.02814Q388.69946 347.71564 388.69946 347.29376ZM390.7151 346.35626L390.7151 346.21564Q390.7151 345.52814 390.9026 344.95Q391.1057 344.35626 391.4807 343.91876Q391.8557 343.48126 392.38696 343.2469Q392.9182 342.9969 393.5901 342.9969Q394.24634 342.9969 394.7776 343.2469Q395.32446 343.48126 395.69946 343.91876Q396.07446 344.35626 396.2776 344.95Q396.4807 345.52814 396.4807 346.21564L396.4807 346.35626Q396.4807 347.02814 396.2776 347.6219Q396.07446 348.2 395.69946 348.6375Q395.32446 349.075 394.7932 349.325Q394.26196 349.575 393.5901 349.575Q392.93384 349.575 392.38696 349.325Q391.8557 349.075 391.4807 348.6375Q391.1057 348.2 390.9026 347.6219Q390.7151 347.02814 390.7151 346.35626ZM391.7932 346.21564L391.7932 346.35626Q391.7932 346.825 391.9026 347.2469Q392.01196 347.66876 392.2307 347.9969Q392.4651 348.3094 392.80884 348.4969Q393.1526 348.66876 393.5901 348.66876Q394.0432 348.66876 394.37134 348.4969Q394.7151 348.3094 394.93384 347.9969Q395.1682 347.66876 395.2776 347.2469Q395.38696 346.825 395.38696 346.35626L395.38696 346.21564Q395.38696 345.7469 395.2776 345.325Q395.1682 344.90314 394.93384 344.59064Q394.7151 344.2625 394.37134 344.075Q394.0432 343.8875 393.5901 343.8875Q393.13696 343.8875 392.7932 344.075Q392.4651 344.2625 392.2307 344.59064Q392.01196 344.90314 391.9026 345.325Q391.7932 345.7469 391.7932 346.21564ZM399.1682 340.45L399.1682 349.45L398.0901 349.45L398.0901 340.45L399.1682 340.45ZM404.99634 348.21564L404.99634 340.45L406.07446 340.45L406.07446 349.45L405.0901 349.45L404.99634 348.21564ZM400.7307 346.35626L400.7307 346.23126Q400.7307 345.4969 400.9026 344.90314Q401.0901 344.3094 401.4182 343.8875Q401.74634 343.45 402.19946 343.23126Q402.6682 342.9969 403.2307 342.9969Q403.82446 342.9969 404.2776 343.2Q404.7307 343.40314 405.0432 343.8094Q405.3557 344.2 405.5276 344.7625Q405.7151 345.3094 405.7932 346.0125L405.7932 346.5594Q405.7307 347.2469 405.5432 347.8094Q405.3557 348.3719 405.0432 348.7625Q404.7307 349.15314 404.2776 349.3719Q403.82446 349.575 403.2151 349.575Q402.6682 349.575 402.19946 349.34064Q401.74634 349.09064 401.4182 348.65314Q401.0901 348.21564 400.9026 347.6375Q400.7307 347.04376 400.7307 346.35626ZM401.80884 346.23126L401.80884 346.35626Q401.80884 346.825 401.9026 347.2469Q402.01196 347.65314 402.2151 347.98126Q402.4182 348.29376 402.7307 348.48126Q403.05884 348.65314 403.49634 348.65314Q404.0276 348.65314 404.37134 348.41876Q404.7307 348.1844 404.93384 347.8094Q405.1526 347.4344 405.26196 346.9969L405.26196 345.59064Q405.19946 345.2625 405.05884 344.96564Q404.93384 344.66876 404.7151 344.4344Q404.51196 344.1844 404.2151 344.04376Q403.9182 343.90314 403.49634 343.90314Q403.05884 343.90314 402.7307 344.09064Q402.4182 344.27814 402.2151 344.60626Q402.01196 344.91876 401.9026 345.34064Q401.80884 345.7469 401.80884 346.23126ZM410.7151 346.35626L410.7151 346.21564Q410.7151 345.52814 410.9026 344.95Q411.1057 344.35626 411.4807 343.91876Q411.8557 343.48126 412.38696 343.2469Q412.9182 342.9969 413.5901 342.9969Q414.24634 342.9969 414.7776 343.2469Q415.32446 343.48126 415.69946 343.91876Q416.07446 344.35626 416.2776 344.95Q416.4807 345.52814 416.4807 346.21564L416.4807 346.35626Q416.4807 347.02814 416.2776 347.6219Q416.07446 348.2 415.69946 348.6375Q415.32446 349.075 414.7932 349.325Q414.26196 349.575 413.5901 349.575Q412.93384 349.575 412.38696 349.325Q411.8557 349.075 411.4807 348.6375Q411.1057 348.2 410.9026 347.6219Q410.7151 347.02814 410.7151 346.35626ZM411.7932 346.21564L411.7932 346.35626Q411.7932 346.825 411.9026 347.2469Q412.01196 347.66876 412.2307 347.9969Q412.4651 348.3094 412.80884 348.4969Q413.1526 348.66876 413.5901 348.66876Q414.0432 348.66876 414.37134 348.4969Q414.7151 348.3094 414.93384 347.9969Q415.1682 347.66876 415.2776 347.2469Q415.38696 346.825 415.38696 346.35626L415.38696 346.21564Q415.38696 345.7469 415.2776 345.325Q415.1682 344.90314 414.93384 344.59064Q414.7151 344.2625 414.37134 344.075Q414.0432 343.8875 413.5901 343.8875Q413.13696 343.8875 412.7932 344.075Q412.4651 344.2625 412.2307 344.59064Q412.01196 344.90314 411.9026 345.325Q411.7932 345.7469 411.7932 346.21564ZM421.87134 347.98126L421.87134 343.10626L422.9651 343.10626L422.9651 349.45L421.93384 349.45L421.87134 347.98126ZM422.07446 346.65314L422.5276 346.6375Q422.5276 347.2625 422.38696 347.8094Q422.26196 348.34064 421.9651 348.73126Q421.68384 349.1219 421.19946 349.35626Q420.7307 349.575 420.05884 349.575Q419.5901 349.575 419.19946 349.4344Q418.82446 349.29376 418.5432 349.0125Q418.2776 348.73126 418.12134 348.27814Q417.9651 347.825 417.9651 347.2L417.9651 343.10626L419.05884 343.10626L419.05884 347.21564Q419.05884 347.6375 419.1526 347.91876Q419.24634 348.2 419.4182 348.35626Q419.5901 348.5125 419.7932 348.59064Q419.99634 348.65314 420.2151 348.65314Q420.9182 348.65314 421.30884 348.3875Q421.7151 348.10626 421.88696 347.65314Q422.07446 347.2 422.07446 346.65314ZM427.6526 343.10626L427.6526 343.9344L424.2151 343.9344L424.2151 343.10626L427.6526 343.10626ZM425.38696 341.575L426.4651 341.575L426.4651 347.8719Q426.4651 348.2 426.55884 348.3719Q426.6682 348.52814 426.82446 348.59064Q426.9807 348.6375 427.1682 348.6375Q427.2932 348.6375 427.43384 348.60626Q427.5901 348.575 427.6682 348.5594L427.68384 349.45Q427.5432 349.4969 427.3401 349.52814Q427.13696 349.575 426.8401 349.575Q426.44946 349.575 426.1057 349.41876Q425.7776 349.2469 425.57446 348.8875Q425.38696 348.5125 425.38696 347.8719L425.38696 341.575Z" fill-rule="nonzero"/><path fill="#000000" d="M469.3677 347.29376Q469.3677 346.9969 469.27396 346.7625Q469.19583 346.52814 468.96146 346.34064Q468.7427 346.15314 468.33646 345.98126Q467.94583 345.8094 467.35208 345.6375Q466.71146 345.45 466.19583 345.23126Q465.69583 344.9969 465.32083 344.7Q464.96146 344.3875 464.77396 344.0125Q464.58646 343.6219 464.58646 343.1219Q464.58646 342.6219 464.78958 342.2Q464.9927 341.77814 465.3677 341.46564Q465.75833 341.15314 466.28958 340.98126Q466.82083 340.79376 467.47708 340.79376Q468.44583 340.79376 469.1177 341.16876Q469.78958 341.52814 470.13333 342.1219Q470.4927 342.71564 470.4927 343.3719L469.3677 343.3719Q469.3677 342.90314 469.14896 342.52814Q468.94583 342.15314 468.52396 341.95Q468.1177 341.73126 467.47708 341.73126Q466.88333 341.73126 466.47708 341.91876Q466.08646 342.09064 465.89896 342.40314Q465.71146 342.71564 465.71146 343.10626Q465.71146 343.3719 465.82083 343.60626Q465.94583 343.825 466.1802 344.0125Q466.4302 344.2 466.8052 344.35626Q467.1802 344.5125 467.71146 344.65314Q468.4302 344.85626 468.96146 345.1219Q469.4927 345.3719 469.83646 345.6844Q470.1802 345.9969 470.33646 346.3875Q470.50833 346.77814 470.50833 347.27814Q470.50833 347.8094 470.28958 348.23126Q470.08646 348.65314 469.69583 348.95Q469.3052 349.2469 468.75833 349.41876Q468.21146 349.575 467.53958 349.575Q466.94583 349.575 466.3677 349.40314Q465.8052 349.23126 465.33646 348.90314Q464.8677 348.575 464.58646 348.10626Q464.3052 347.6219 464.3052 346.98126L465.4302 346.98126Q465.4302 347.41876 465.60208 347.73126Q465.77396 348.04376 466.07083 348.2469Q466.3677 348.45 466.7427 348.5594Q467.1177 348.65314 467.53958 348.65314Q468.13333 348.65314 468.53958 348.4969Q468.94583 348.325 469.14896 348.02814Q469.3677 347.71564 469.3677 347.29376ZM472.7427 340.45L472.7427 349.45L471.66458 349.45L471.66458 340.45L472.7427 340.45ZM472.4927 346.04376L472.03958 346.02814Q472.03958 345.3719 472.22708 344.825Q472.41458 344.2625 472.75833 343.85626Q473.10208 343.45 473.57083 343.23126Q474.03958 342.9969 474.6177 342.9969Q475.08646 342.9969 475.46146 343.1219Q475.83646 343.2469 476.10208 343.52814Q476.3677 343.79376 476.50833 344.23126Q476.64896 344.66876 476.64896 345.29376L476.64896 349.45L475.5552 349.45L475.5552 345.27814Q475.5552 344.77814 475.41458 344.48126Q475.27396 344.1844 474.9927 344.04376Q474.71146 343.90314 474.28958 343.90314Q473.88333 343.90314 473.5552 344.075Q473.22708 344.2469 472.9927 344.54376Q472.75833 344.84064 472.6177 345.23126Q472.4927 345.60626 472.4927 346.04376ZM478.38333 346.35626L478.38333 346.21564Q478.38333 345.52814 478.57083 344.95Q478.77396 344.35626 479.14896 343.91876Q479.52396 343.48126 480.0552 343.2469Q480.58646 342.9969 481.25833 342.9969Q481.91458 342.9969 482.44583 343.2469Q482.9927 343.48126 483.3677 343.91876Q483.7427 344.35626 483.94583 344.95Q484.14896 345.52814 484.14896 346.21564L484.14896 346.35626Q484.14896 347.02814 483.94583 347.6219Q483.7427 348.2 483.3677 348.6375Q482.9927 349.075 482.46146 349.325Q481.9302 349.575 481.25833 349.575Q480.60208 349.575 480.0552 349.325Q479.52396 349.075 479.14896 348.6375Q478.77396 348.2 478.57083 347.6219Q478.38333 347.02814 478.38333 346.35626ZM479.46146 346.21564L479.46146 346.35626Q479.46146 346.825 479.57083 347.2469Q479.6802 347.66876 479.89896 347.9969Q480.13333 348.3094 480.47708 348.4969Q480.82083 348.66876 481.25833 348.66876Q481.71146 348.66876 482.03958 348.4969Q482.38333 348.3094 482.60208 347.9969Q482.83646 347.66876 482.94583 347.2469Q483.0552 346.825 483.0552 346.35626L483.0552 346.21564Q483.0552 345.7469 482.94583 345.325Q482.83646 344.90314 482.60208 344.59064Q482.38333 344.2625 482.03958 344.075Q481.71146 343.8875 481.25833 343.8875Q480.8052 343.8875 480.46146 344.075Q480.13333 344.2625 479.89896 344.59064Q479.6802 344.90314 479.57083 345.325Q479.46146 345.7469 479.46146 346.21564ZM487.27396 348.325L488.89896 343.10626L489.6177 343.10626L489.47708 344.15314L487.82083 349.45L487.1177 349.45L487.27396 348.325ZM486.1802 343.10626L487.5552 348.3875L487.66458 349.45L486.9302 349.45L485.08646 343.10626L486.1802 343.10626ZM491.16458 348.34064L492.4927 343.10626L493.57083 343.10626L491.72708 349.45L491.00833 349.45L491.16458 348.34064ZM489.77396 343.10626L491.3677 348.23126L491.53958 349.45L490.85208 349.45L489.14896 344.1375L489.00833 343.10626L489.77396 343.10626ZM500.19583 348.66876Q500.58646 348.66876 500.91458 348.5125Q501.2427 348.35626 501.44583 348.09064Q501.66458 347.8094 501.69583 347.45L502.72708 347.45Q502.69583 348.0125 502.33646 348.4969Q501.9927 348.98126 501.4302 349.27814Q500.8677 349.575 500.19583 349.575Q499.4927 349.575 498.96146 349.325Q498.4302 349.0594 498.07083 348.6219Q497.72708 348.1844 497.5552 347.6219Q497.38333 347.04376 497.38333 346.40314L497.38333 346.15314Q497.38333 345.5125 497.5552 344.95Q497.72708 344.3719 498.07083 343.9344Q498.4302 343.4969 498.96146 343.2469Q499.4927 342.9969 500.19583 342.9969Q500.94583 342.9969 501.4927 343.29376Q502.0552 343.59064 502.3677 344.1219Q502.69583 344.6375 502.72708 345.29376L501.69583 345.29376Q501.66458 344.90314 501.47708 344.59064Q501.28958 344.2625 500.96146 344.075Q500.63333 343.8875 500.19583 343.8875Q499.69583 343.8875 499.35208 344.09064Q499.02396 344.27814 498.82083 344.60626Q498.63333 344.9344 498.53958 345.34064Q498.46146 345.7469 498.46146 346.15314L498.46146 346.40314Q498.46146 346.825 498.53958 347.23126Q498.63333 347.6219 498.82083 347.95Q499.02396 348.27814 499.35208 348.48126Q499.69583 348.66876 500.19583 348.66876ZM507.39896 348.3719L507.39896 345.10626Q507.39896 344.73126 507.2427 344.45Q507.10208 344.16876 506.8052 344.02814Q506.50833 343.8719 506.07083 343.8719Q505.64896 343.8719 505.33646 344.0125Q505.03958 344.15314 504.8677 344.3875Q504.69583 344.60626 504.69583 344.8719L503.6177 344.8719Q503.6177 344.52814 503.78958 344.2Q503.96146 343.85626 504.28958 343.59064Q504.6177 343.3094 505.08646 343.15314Q505.5552 342.9969 506.13333 342.9969Q506.82083 342.9969 507.35208 343.23126Q507.88333 343.46564 508.1802 343.9344Q508.4927 344.40314 508.4927 345.10626L508.4927 348.0594Q508.4927 348.3875 508.53958 348.7469Q508.60208 349.09064 508.71146 349.35626L508.71146 349.45L507.57083 349.45Q507.4927 349.2625 507.44583 348.95Q507.39896 348.6375 507.39896 348.3719ZM507.58646 345.60626L507.60208 346.3719L506.50833 346.3719Q506.03958 346.3719 505.6802 346.45Q505.32083 346.5125 505.07083 346.66876Q504.82083 346.8094 504.69583 347.02814Q504.57083 347.2469 504.57083 347.54376Q504.57083 347.84064 504.69583 348.09064Q504.83646 348.325 505.10208 348.48126Q505.38333 348.6219 505.77396 348.6219Q506.27396 348.6219 506.64896 348.41876Q507.03958 348.2 507.25833 347.90314Q507.4927 347.59064 507.50833 347.29376L507.97708 347.825Q507.9302 348.0594 507.7427 348.3719Q507.57083 348.66876 507.25833 348.95Q506.96146 349.21564 506.53958 349.40314Q506.13333 349.575 505.6177 349.575Q504.97708 349.575 504.4927 349.325Q504.00833 349.0594 503.7427 348.6375Q503.47708 348.21564 503.47708 347.6844Q503.47708 347.16876 503.66458 346.79376Q503.8677 346.40314 504.2427 346.1375Q504.6177 345.8719 505.14896 345.7469Q505.6802 345.60626 506.33646 345.60626L507.58646 345.60626ZM511.7427 344.46564L511.7427 349.45L510.66458 349.45L510.66458 343.10626L511.69583 343.10626L511.7427 344.46564ZM511.4927 346.04376L511.03958 346.02814Q511.03958 345.3719 511.22708 344.825Q511.41458 344.2625 511.75833 343.85626Q512.10205 343.45 512.5708 343.23126Q513.03955 342.9969 513.6177 342.9969Q514.0864 342.9969 514.4614 343.1219Q514.8364 343.2469 515.10205 343.52814Q515.3677 343.79376 515.5083 344.23126Q515.6489 344.66876 515.6489 345.29376L515.6489 349.45L514.5552 349.45L514.5552 345.27814Q514.5552 344.77814 514.41455 344.48126Q514.2739 344.1844 513.9927 344.04376Q513.7114 343.90314 513.28955 343.90314Q512.8833 343.90314 512.5552 344.075Q512.22705 344.2469 511.9927 344.54376Q511.75833 344.84064 511.6177 345.23126Q511.4927 345.60626 511.4927 346.04376ZM520.1958 348.66876Q520.5864 348.66876 520.91455 348.5125Q521.2427 348.35626 521.4458 348.09064Q521.66455 347.8094 521.6958 347.45L522.72705 347.45Q522.6958 348.0125 522.3364 348.4969Q521.9927 348.98126 521.4302 349.27814Q520.8677 349.575 520.1958 349.575Q519.4927 349.575 518.9614 349.325Q518.4302 349.0594 518.0708 348.6219Q517.72705 348.1844 517.5552 347.6219Q517.3833 347.04376 517.3833 346.40314L517.3833 346.15314Q517.3833 345.5125 517.5552 344.95Q517.72705 344.3719 518.0708 343.9344Q518.4302 343.4969 518.9614 343.2469Q519.4927 342.9969 520.1958 342.9969Q520.9458 342.9969 521.4927 343.29376Q522.0552 343.59064 522.3677 344.1219Q522.6958 344.6375 522.72705 345.29376L521.6958 345.29376Q521.66455 344.90314 521.47705 344.59064Q521.28955 344.2625 520.9614 344.075Q520.6333 343.8875 520.1958 343.8875Q519.6958 343.8875 519.35205 344.09064Q519.0239 344.27814 518.8208 344.60626Q518.6333 344.9344 518.53955 345.34064Q518.4614 345.7469 518.4614 346.15314L518.4614 346.40314Q518.4614 346.825 518.53955 347.23126Q518.6333 347.6219 518.8208 347.95Q519.0239 348.27814 519.35205 348.48126Q519.6958 348.66876 520.1958 348.66876ZM526.28955 349.575Q525.6333 349.575 525.0864 349.35626Q524.5552 349.1219 524.16455 348.71564Q523.78955 348.29376 523.5864 347.73126Q523.3833 347.16876 523.3833 346.4969L523.3833 346.2625Q523.3833 345.48126 523.60205 344.8719Q523.8364 344.2625 524.22705 343.84064Q524.6177 343.41876 525.1177 343.21564Q525.6177 342.9969 526.1489 342.9969Q526.8364 342.9969 527.3208 343.23126Q527.8208 343.46564 528.1333 343.8875Q528.4614 344.29376 528.60205 344.8719Q528.7583 345.4344 528.7583 346.09064L528.7583 346.59064L524.0239 346.59064L524.0239 345.7L527.6802 345.7L527.6802 345.6219Q527.6489 345.2 527.4927 344.8094Q527.35205 344.40314 527.0239 344.15314Q526.7114 343.8875 526.1489 343.8875Q525.78955 343.8875 525.47705 344.04376Q525.16455 344.2 524.9302 344.5125Q524.7114 344.8094 524.5864 345.2469Q524.47705 345.6844 524.47705 346.2625L524.47705 346.4969Q524.47705 346.95 524.60205 347.35626Q524.72705 347.7469 524.9614 348.04376Q525.2114 348.34064 525.5552 348.5125Q525.91455 348.6844 526.35205 348.6844Q526.9302 348.6844 527.3208 348.45Q527.72705 348.21564 528.0239 347.825L528.6802 348.34064Q528.47705 348.65314 528.1489 348.9344Q527.8364 349.21564 527.3677 349.40314Q526.91455 349.575 526.28955 349.575ZM530.8364 340.45L530.8364 349.45L529.7583 349.45L529.7583 340.45L530.8364 340.45ZM533.8364 340.45L533.8364 349.45L532.7583 349.45L532.7583 340.45L533.8364 340.45ZM538.28955 349.575Q537.6333 349.575 537.0864 349.35626Q536.5552 349.1219 536.16455 348.71564Q535.78955 348.29376 535.5864 347.73126Q535.3833 347.16876 535.3833 346.4969L535.3833 346.2625Q535.3833 345.48126 535.60205 344.8719Q535.8364 344.2625 536.22705 343.84064Q536.6177 343.41876 537.1177 343.21564Q537.6177 342.9969 538.1489 342.9969Q538.8364 342.9969 539.3208 343.23126Q539.8208 343.46564 540.1333 343.8875Q540.4614 344.29376 540.60205 344.8719Q540.7583 345.4344 540.7583 346.09064L540.7583 346.59064L536.0239 346.59064L536.0239 345.7L539.6802 345.7L539.6802 345.6219Q539.6489 345.2 539.4927 344.8094Q539.35205 344.40314 539.0239 344.15314Q538.7114 343.8875 538.1489 343.8875Q537.78955 343.8875 537.47705 344.04376Q537.16455 344.2 536.9302 344.5125Q536.7114 344.8094 536.5864 345.2469Q536.47705 345.6844 536.47705 346.2625L536.47705 346.4969Q536.47705 346.95 536.60205 347.35626Q536.72705 347.7469 536.9614 348.04376Q537.2114 348.34064 537.5552 348.5125Q537.91455 348.6844 538.35205 348.6844Q538.9302 348.6844 539.3208 348.45Q539.72705 348.21564 540.0239 347.825L540.6802 348.34064Q540.47705 348.65314 540.1489 348.9344Q539.8364 349.21564 539.3677 349.40314Q538.91455 349.575 538.28955 349.575ZM545.66455 348.21564L545.66455 340.45L546.7427 340.45L546.7427 349.45L545.7583 349.45L545.66455 348.21564ZM541.3989 346.35626L541.3989 346.23126Q541.3989 345.4969 541.5708 344.90314Q541.7583 344.3094 542.0864 343.8875Q542.41455 343.45 542.8677 343.23126Q543.3364 342.9969 543.8989 342.9969Q544.4927 342.9969 544.9458 343.2Q545.3989 343.40314 545.7114 343.8094Q546.0239 344.2 546.1958 344.7625Q546.3833 345.3094 546.4614 346.0125L546.4614 346.5594Q546.3989 347.2469 546.2114 347.8094Q546.0239 348.3719 545.7114 348.7625Q545.3989 349.15314 544.9458 349.3719Q544.4927 349.575 543.8833 349.575Q543.3364 349.575 542.8677 349.34064Q542.41455 349.09064 542.0864 348.65314Q541.7583 348.21564 541.5708 347.6375Q541.3989 347.04376 541.3989 346.35626ZM542.47705 346.23126L542.47705 346.35626Q542.47705 346.825 542.5708 347.2469Q542.6802 347.65314 542.8833 347.98126Q543.0864 348.29376 543.3989 348.48126Q543.72705 348.65314 544.16455 348.65314Q544.6958 348.65314 545.03955 348.41876Q545.3989 348.1844 545.60205 347.8094Q545.8208 347.4344 545.9302 346.9969L545.9302 345.59064Q545.8677 345.2625 545.72705 344.96564Q545.60205 344.66876 545.3833 344.4344Q545.1802 344.1844 544.8833 344.04376Q544.5864 343.90314 544.16455 343.90314Q543.72705 343.90314 543.3989 344.09064Q543.0864 344.27814 542.8833 344.60626Q542.6802 344.91876 542.5708 345.34064Q542.47705 345.7469 542.47705 346.23126Z" fill-rule="nonzero"/><path fill="#434343" d="M194.53125 23.33125L194.53125 37.55L192.65625 37.55L192.65625 23.33125L194.53125 23.33125ZM200.5 29.721874L200.5 31.26875L194.125 31.26875L194.125 29.721874L200.5 29.721874ZM201.45312 23.33125L201.45312 24.878124L194.125 24.878124L194.125 23.33125L201.45312 23.33125ZM205.1875 28.64375L205.1875 37.55L203.375 37.55L203.375 26.9875L205.14062 26.9875L205.1875 28.64375ZM208.48438 26.925L208.46875 28.596874Q208.25 28.55 208.04688 28.534374Q207.84375 28.51875 207.59375 28.51875Q206.96875 28.51875 206.48438 28.721874Q206.01562 28.909374 205.67188 29.26875Q205.34375 29.6125 205.15625 30.096874Q204.96875 30.58125 204.90625 31.159374L204.40625 31.45625Q204.40625 30.503124 204.59375 29.659374Q204.78125 28.815624 205.17188 28.175Q205.57812 27.51875 206.20312 27.159374Q206.82812 26.784374 207.6875 26.784374Q207.875 26.784374 208.125 26.83125Q208.39062 26.878124 208.48438 26.925ZM209.90625 32.378124L209.90625 32.159374Q209.90625 31.01875 210.23438 30.034374Q210.5625 29.05 211.1875 28.33125Q211.8125 27.596874 212.70312 27.190624Q213.59375 26.784374 214.6875 26.784374Q215.8125 26.784374 216.70312 27.190624Q217.59375 27.596874 218.21875 28.33125Q218.85938 29.05 219.1875 30.034374Q219.51562 31.01875 219.51562 32.159374L219.51562 32.378124Q219.51562 33.51875 219.1875 34.503124Q218.85938 35.471874 218.21875 36.20625Q217.59375 36.940624 216.70312 37.346874Q215.82812 37.753124 214.71875 37.753124Q213.59375 37.753124 212.70312 37.346874Q211.82812 36.940624 211.1875 36.20625Q210.5625 35.471874 210.23438 34.503124Q209.90625 33.51875 209.90625 32.378124ZM211.70312 32.159374L211.70312 32.378124Q211.70312 33.175 211.89062 33.878124Q212.07812 34.565624 212.45312 35.1125Q212.82812 35.64375 213.39062 35.95625Q213.96875 36.253124 214.71875 36.253124Q215.45312 36.253124 216.01562 35.95625Q216.57812 35.64375 216.95312 35.1125Q217.32812 34.565624 217.51562 33.878124Q217.70312 33.175 217.70312 32.378124L217.70312 32.159374Q217.70312 31.378124 217.51562 30.690624Q217.32812 29.9875 216.9375 29.440624Q216.5625 28.89375 216.0 28.58125Q215.45312 28.26875 214.6875 28.26875Q213.95312 28.26875 213.39062 28.58125Q212.82812 28.89375 212.45312 29.440624Q212.07812 29.9875 211.89062 30.690624Q211.70312 31.378124 211.70312 32.159374ZM223.17188 29.08125L223.17188 37.55L221.35938 37.55L221.35938 26.9875L223.07812 26.9875L223.17188 29.08125ZM222.79688 31.8625L221.96875 31.83125Q221.96875 30.753124 222.23438 29.83125Q222.51562 28.909374 223.04688 28.221874Q223.59375 27.534374 224.39062 27.159374Q225.20312 26.784374 226.25 26.784374Q227.0 26.784374 227.625 27.003124Q228.25 27.20625 228.70312 27.659374Q229.15625 28.1125 229.40625 28.815624Q229.67188 29.51875 229.67188 30.503124L229.67188 37.55L227.85938 37.55L227.85938 30.596874Q227.85938 29.76875 227.57812 29.26875Q227.3125 28.76875 226.79688 28.55Q226.29688 28.315624 225.60938 28.315624Q224.8125 28.315624 224.26562 28.596874Q223.73438 28.878124 223.40625 29.378124Q223.09375 29.878124 222.9375 30.51875Q222.79688 31.159374 222.79688 31.8625ZM229.65625 30.8625L228.4375 31.2375Q228.45312 30.378124 228.71875 29.58125Q229.0 28.76875 229.53125 28.14375Q230.0625 27.51875 230.84375 27.159374Q231.625 26.784374 232.64062 26.784374Q233.48438 26.784374 234.14062 27.01875Q234.8125 27.2375 235.26562 27.70625Q235.71875 28.159374 235.95312 28.89375Q236.1875 29.6125 236.1875 30.6125L236.1875 37.55L234.35938 37.55L234.35938 30.58125Q234.35938 29.690624 234.07812 29.20625Q233.8125 28.70625 233.29688 28.51875Q232.79688 28.315624 232.10938 28.315624Q231.51562 28.315624 231.04688 28.51875Q230.59375 28.721874 230.28125 29.08125Q229.96875 29.440624 229.8125 29.89375Q229.65625 30.346874 229.65625 30.8625ZM247.04688 35.675L249.76562 26.9875L250.95312 26.9875L250.71875 28.70625L247.96875 37.55L246.79688 37.55L247.04688 35.675ZM245.23438 26.9875L247.54688 35.76875L247.70312 37.55L246.48438 37.55L243.42188 26.9875L245.23438 26.9875ZM253.5625 35.70625L255.76562 26.9875L257.5625 26.9875L254.5 37.55L253.28125 37.55L253.5625 35.70625ZM251.21875 26.9875L253.875 35.534374L254.1875 37.55L253.03125 37.55L250.1875 28.690624L249.95312 26.9875L251.21875 26.9875ZM261.34375 26.9875L261.34375 37.55L259.53125 37.55L259.53125 26.9875L261.34375 26.9875ZM259.39062 24.175Q259.39062 23.7375 259.65625 23.440624Q259.92188 23.128124 260.45312 23.128124Q260.96875 23.128124 261.25 23.440624Q261.53125 23.7375 261.53125 24.175Q261.53125 24.596874 261.25 24.89375Q260.96875 25.190624 260.45312 25.190624Q259.92188 25.190624 259.65625 24.89375Q259.39062 24.596874 259.39062 24.175ZM270.53125 34.753124Q270.53125 34.3625 270.35938 34.01875Q270.1875 33.675 269.65625 33.409374Q269.14062 33.128124 268.09375 32.925Q267.21875 32.7375 266.5 32.4875Q265.79688 32.221874 265.29688 31.8625Q264.8125 31.503124 264.54688 31.01875Q264.29688 30.534374 264.29688 29.878124Q264.29688 29.253124 264.5625 28.690624Q264.84375 28.128124 265.35938 27.70625Q265.875 27.26875 266.59375 27.034374Q267.3125 26.784374 268.20312 26.784374Q269.46875 26.784374 270.35938 27.2375Q271.26562 27.690624 271.75 28.440624Q272.23438 29.175 272.23438 30.08125L270.42188 30.08125Q270.42188 29.64375 270.15625 29.2375Q269.90625 28.815624 269.40625 28.55Q268.92188 28.26875 268.20312 28.26875Q267.45312 28.26875 266.98438 28.503124Q266.53125 28.7375 266.3125 29.096874Q266.10938 29.440624 266.10938 29.83125Q266.10938 30.1125 266.20312 30.346874Q266.3125 30.58125 266.57812 30.76875Q266.84375 30.95625 267.3125 31.128124Q267.79688 31.284374 268.53125 31.45625Q269.84375 31.753124 270.67188 32.159374Q271.51562 32.565624 271.92188 33.159374Q272.34375 33.753124 272.34375 34.6125Q272.34375 35.3 272.04688 35.878124Q271.76562 36.45625 271.21875 36.878124Q270.67188 37.284374 269.92188 37.51875Q269.1875 37.753124 268.25 37.753124Q266.85938 37.753124 265.89062 37.253124Q264.92188 36.753124 264.42188 35.95625Q263.92188 35.159374 263.92188 34.284374L265.75 34.284374Q265.78125 35.034374 266.17188 35.471874Q266.5625 35.89375 267.125 36.08125Q267.70312 36.253124 268.25 36.253124Q269.0 36.253124 269.5 36.065624Q270.0 35.8625 270.26562 35.534374Q270.53125 35.190624 270.53125 34.753124ZM276.1875 22.55L276.1875 37.55L274.375 37.55L274.375 22.55L276.1875 22.55ZM275.75 31.8625L275.0 31.83125Q275.01562 30.753124 275.32812 29.83125Q275.64062 28.909374 276.20312 28.221874Q276.76562 27.534374 277.54688 27.159374Q278.34375 26.784374 279.29688 26.784374Q280.07812 26.784374 280.70312 27.003124Q281.32812 27.20625 281.76562 27.675Q282.21875 28.128124 282.45312 28.8625Q282.6875 29.58125 282.6875 30.628124L282.6875 37.55L280.875 37.55L280.875 30.6125Q280.875 29.76875 280.625 29.26875Q280.39062 28.76875 279.92188 28.55Q279.45312 28.315624 278.76562 28.315624Q278.09375 28.315624 277.53125 28.596874Q276.98438 28.878124 276.57812 29.378124Q276.1875 29.878124 275.96875 30.51875Q275.75 31.159374 275.75 31.8625ZM287.34375 26.9875L287.34375 37.55L285.53125 37.55L285.53125 26.9875L287.34375 26.9875ZM285.39062 24.175Q285.39062 23.7375 285.65625 23.440624Q285.92188 23.128124 286.45312 23.128124Q286.96875 23.128124 287.25 23.440624Q287.53125 23.7375 287.53125 24.175Q287.53125 24.596874 287.25 24.89375Q286.96875 25.190624 286.45312 25.190624Q285.92188 25.190624 285.65625 24.89375Q285.39062 24.596874 285.39062 24.175ZM292.1875 29.2375L292.1875 37.55L290.375 37.55L290.375 26.9875L292.09375 26.9875L292.1875 29.2375ZM291.75 31.8625L291.0 31.83125Q291.01562 30.753124 291.32812 29.83125Q291.64062 28.909374 292.20312 28.221874Q292.76562 27.534374 293.54688 27.159374Q294.34375 26.784374 295.29688 26.784374Q296.07812 26.784374 296.70312 27.003124Q297.32812 27.20625 297.76562 27.675Q298.21875 28.128124 298.45312 28.8625Q298.6875 29.58125 298.6875 30.628124L298.6875 37.55L296.875 37.55L296.875 30.6125Q296.875 29.76875 296.625 29.26875Q296.39062 28.76875 295.92188 28.55Q295.45312 28.315624 294.76562 28.315624Q294.09375 28.315624 293.53125 28.596874Q292.98438 28.878124 292.57812 29.378124Q292.1875 29.878124 291.96875 30.51875Q291.75 31.159374 291.75 31.8625ZM308.21875 26.9875L309.85938 26.9875L309.85938 37.33125Q309.85938 38.721874 309.29688 39.70625Q308.73438 40.690624 307.71875 41.20625Q306.70312 41.721874 305.39062 41.721874Q304.84375 41.721874 304.10938 41.55Q303.375 41.378124 302.65625 40.971874Q301.95312 40.565624 301.46875 39.878124L302.42188 38.815624Q303.09375 39.6125 303.8125 39.925Q304.54688 40.2375 305.25 40.2375Q306.10938 40.2375 306.73438 39.909374Q307.35938 39.596874 307.70312 38.95625Q308.0625 38.33125 308.0625 37.409374L308.0625 29.3L308.21875 26.9875ZM300.95312 32.378124L300.95312 32.175Q300.95312 30.971874 301.23438 29.9875Q301.53125 28.9875 302.0625 28.284374Q302.60938 27.565624 303.375 27.175Q304.15625 26.784374 305.125 26.784374Q306.10938 26.784374 306.85938 27.14375Q307.60938 27.4875 308.125 28.14375Q308.65625 28.8 308.95312 29.7375Q309.26562 30.659374 309.375 31.83125L309.375 32.721874Q309.26562 33.89375 308.95312 34.815624Q308.65625 35.7375 308.125 36.39375Q307.60938 37.05 306.85938 37.409374Q306.10938 37.753124 305.09375 37.753124Q304.15625 37.753124 303.39062 37.346874Q302.625 36.940624 302.07812 36.221874Q301.53125 35.503124 301.23438 34.51875Q300.95312 33.534374 300.95312 32.378124ZM302.75 32.175L302.75 32.378124Q302.75 33.175 302.90625 33.878124Q303.07812 34.565624 303.40625 35.096874Q303.75 35.6125 304.28125 35.909374Q304.8125 36.20625 305.53125 36.20625Q306.4375 36.20625 307.01562 35.83125Q307.60938 35.45625 307.95312 34.83125Q308.29688 34.20625 308.5 33.471874L308.5 31.1125Q308.39062 30.58125 308.17188 30.08125Q307.95312 29.565624 307.59375 29.175Q307.25 28.784374 306.73438 28.55Q306.23438 28.315624 305.5625 28.315624Q304.8125 28.315624 304.28125 28.628124Q303.75 28.925 303.40625 29.45625Q303.07812 29.9875 302.90625 30.690624Q302.75 31.39375 302.75 32.175ZM321.79688 26.9875L321.79688 28.3625L316.09375 28.3625L316.09375 26.9875L321.79688 26.9875ZM318.01562 24.409374L319.82812 24.409374L319.82812 34.925Q319.82812 35.471874 319.98438 35.753124Q320.15625 36.01875 320.42188 36.1125Q320.6875 36.190624 320.98438 36.190624Q321.21875 36.190624 321.46875 36.14375Q321.71875 36.096874 321.84375 36.08125L321.84375 37.55Q321.64062 37.6125 321.28125 37.675Q320.9375 37.753124 320.45312 37.753124Q319.79688 37.753124 319.23438 37.4875Q318.67188 37.221874 318.34375 36.596874Q318.01562 35.971874 318.01562 34.925L318.01562 24.409374ZM323.90625 32.378124L323.90625 32.159374Q323.90625 31.01875 324.23438 30.034374Q324.5625 29.05 325.1875 28.33125Q325.8125 27.596874 326.70312 27.190624Q327.59375 26.784374 328.6875 26.784374Q329.8125 26.784374 330.70312 27.190624Q331.59375 27.596874 332.21875 28.33125Q332.85938 29.05 333.1875 30.034374Q333.51562 31.01875 333.51562 32.159374L333.51562 32.378124Q333.51562 33.51875 333.1875 34.503124Q332.85938 35.471874 332.21875 36.20625Q331.59375 36.940624 330.70312 37.346874Q329.82812 37.753124 328.71875 37.753124Q327.59375 37.753124 326.70312 37.346874Q325.82812 36.940624 325.1875 36.20625Q324.5625 35.471874 324.23438 34.503124Q323.90625 33.51875 323.90625 32.378124ZM325.70312 32.159374L325.70312 32.378124Q325.70312 33.175 325.89062 33.878124Q326.07812 34.565624 326.45312 35.1125Q326.82812 35.64375 327.39062 35.95625Q327.96875 36.253124 328.71875 36.253124Q329.45312 36.253124 330.01562 35.95625Q330.57812 35.64375 330.95312 35.1125Q331.32812 34.565624 331.51562 33.878124Q331.70312 33.175 331.70312 32.378124L331.70312 32.159374Q331.70312 31.378124 331.51562 30.690624Q331.32812 29.9875 330.9375 29.440624Q330.5625 28.89375 330.0 28.58125Q329.45312 28.26875 328.6875 28.26875Q327.95312 28.26875 327.39062 28.58125Q326.82812 28.89375 326.45312 29.440624Q326.07812 29.9875 325.89062 30.690624Q325.70312 31.378124 325.70312 32.159374ZM340.375 22.55L342.1875 22.55L342.1875 35.503124L342.03125 37.55L340.375 37.55L340.375 22.55ZM349.32812 32.175L349.32812 32.378124Q349.32812 33.534374 349.04688 34.51875Q348.78125 35.503124 348.25 36.221874Q347.71875 36.940624 346.95312 37.346874Q346.20312 37.753124 345.21875 37.753124Q344.20312 37.753124 343.4375 37.409374Q342.6875 37.05 342.17188 36.39375Q341.65625 35.7375 341.34375 34.815624Q341.04688 33.89375 340.92188 32.721874L340.92188 31.83125Q341.04688 30.659374 341.34375 29.7375Q341.65625 28.8 342.17188 28.14375Q342.6875 27.4875 343.4375 27.14375Q344.20312 26.784374 345.1875 26.784374Q346.1875 26.784374 346.95312 27.175Q347.73438 27.565624 348.25 28.284374Q348.78125 28.9875 349.04688 29.9875Q349.32812 30.971874 349.32812 32.175ZM347.5 32.378124L347.5 32.175Q347.5 31.39375 347.35938 30.690624Q347.21875 29.9875 346.89062 29.45625Q346.5625 28.925 346.03125 28.628124Q345.51562 28.315624 344.75 28.315624Q344.0625 28.315624 343.54688 28.55Q343.04688 28.784374 342.6875 29.175Q342.34375 29.565624 342.125 30.08125Q341.90625 30.58125 341.79688 31.1125L341.79688 33.471874Q341.95312 34.14375 342.3125 34.784374Q342.67188 35.409374 343.26562 35.815624Q343.875 36.20625 344.76562 36.20625Q345.5 36.20625 346.01562 35.909374Q346.54688 35.6125 346.85938 35.096874Q347.1875 34.565624 347.34375 33.878124Q347.5 33.175 347.5 32.378124ZM350.90625 32.378124L350.90625 32.159374Q350.90625 31.01875 351.23438 30.034374Q351.5625 29.05 352.1875 28.33125Q352.8125 27.596874 353.70312 27.190624Q354.59375 26.784374 355.6875 26.784374Q356.8125 26.784374 357.70312 27.190624Q358.59375 27.596874 359.21875 28.33125Q359.85938 29.05 360.1875 30.034374Q360.51562 31.01875 360.51562 32.159374L360.51562 32.378124Q360.51562 33.51875 360.1875 34.503124Q359.85938 35.471874 359.21875 36.20625Q358.59375 36.940624 357.70312 37.346874Q356.82812 37.753124 355.71875 37.753124Q354.59375 37.753124 353.70312 37.346874Q352.82812 36.940624 352.1875 36.20625Q351.5625 35.471874 351.23438 34.503124Q350.90625 33.51875 350.90625 32.378124ZM352.70312 32.159374L352.70312 32.378124Q352.70312 33.175 352.89062 33.878124Q353.07812 34.565624 353.45312 35.1125Q353.82812 35.64375 354.39062 35.95625Q354.96875 36.253124 355.71875 36.253124Q356.45312 36.253124 357.01562 35.95625Q357.57812 35.64375 357.95312 35.1125Q358.32812 34.565624 358.51562 33.878124Q358.70312 33.175 358.70312 32.378124L358.70312 32.159374Q358.70312 31.378124 358.51562 30.690624Q358.32812 29.9875 357.9375 29.440624Q357.5625 28.89375 357.0 28.58125Q356.45312 28.26875 355.6875 28.26875Q354.95312 28.26875 354.39062 28.58125Q353.82812 28.89375 353.45312 29.440624Q353.07812 29.9875 352.89062 30.690624Q352.70312 31.378124 352.70312 32.159374ZM361.90625 32.378124L361.90625 32.159374Q361.90625 31.01875 362.23438 30.034374Q362.5625 29.05 363.1875 28.33125Q363.8125 27.596874 364.70312 27.190624Q365.59375 26.784374 366.6875 26.784374Q367.8125 26.784374 368.70312 27.190624Q369.59375 27.596874 370.21875 28.33125Q370.85938 29.05 371.1875 30.034374Q371.51562 31.01875 371.51562 32.159374L371.51562 32.378124Q371.51562 33.51875 371.1875 34.503124Q370.85938 35.471874 370.21875 36.20625Q369.59375 36.940624 368.70312 37.346874Q367.82812 37.753124 366.71875 37.753124Q365.59375 37.753124 364.70312 37.346874Q363.82812 36.940624 363.1875 36.20625Q362.5625 35.471874 362.23438 34.503124Q361.90625 33.51875 361.90625 32.378124ZM363.70312 32.159374L363.70312 32.378124Q363.70312 33.175 363.89062 33.878124Q364.07812 34.565624 364.45312 35.1125Q364.82812 35.64375 365.39062 35.95625Q365.96875 36.253124 366.71875 36.253124Q367.45312 36.253124 368.01562 35.95625Q368.57812 35.64375 368.95312 35.1125Q369.32812 34.565624 369.51562 33.878124Q369.70312 33.175 369.70312 32.378124L369.70312 32.159374Q369.70312 31.378124 369.51562 30.690624Q369.32812 29.9875 368.9375 29.440624Q368.5625 28.89375 368.0 28.58125Q367.45312 28.26875 366.6875 28.26875Q365.95312 28.26875 365.39062 28.58125Q364.82812 28.89375 364.45312 29.440624Q364.07812 29.9875 363.89062 30.690624Q363.70312 31.378124 363.70312 32.159374ZM375.1875 22.55L375.1875 37.55L373.375 37.55L373.375 22.55L375.1875 22.55ZM381.65625 26.9875L377.04688 31.909374L374.46875 34.596874L374.3125 32.659374L376.15625 30.45625L379.4375 26.9875L381.65625 26.9875ZM380.0 37.55L376.23438 32.503124L377.17188 30.89375L382.125 37.55L380.0 37.55ZM385.34375 26.9875L385.34375 37.55L383.53125 37.55L383.53125 26.9875L385.34375 26.9875ZM383.39062 24.175Q383.39062 23.7375 383.65625 23.440624Q383.92188 23.128124 384.45312 23.128124Q384.96875 23.128124 385.25 23.440624Q385.53125 23.7375 385.53125 24.175Q385.53125 24.596874 385.25 24.89375Q384.96875 25.190624 384.45312 25.190624Q383.92188 25.190624 383.65625 24.89375Q383.39062 24.596874 383.39062 24.175ZM390.1875 29.2375L390.1875 37.55L388.375 37.55L388.375 26.9875L390.09375 26.9875L390.1875 29.2375ZM389.75 31.8625L389.0 31.83125Q389.01562 30.753124 389.32812 29.83125Q389.64062 28.909374 390.20312 28.221874Q390.76562 27.534374 391.54688 27.159374Q392.34375 26.784374 393.29688 26.784374Q394.07812 26.784374 394.70312 27.003124Q395.32812 27.20625 395.76562 27.675Q396.21875 28.128124 396.45312 28.8625Q396.6875 29.58125 396.6875 30.628124L396.6875 37.55L394.875 37.55L394.875 30.6125Q394.875 29.76875 394.625 29.26875Q394.39062 28.76875 393.92188 28.55Q393.45312 28.315624 392.76562 28.315624Q392.09375 28.315624 391.53125 28.596874Q390.98438 28.878124 390.57812 29.378124Q390.1875 29.878124 389.96875 30.51875Q389.75 31.159374 389.75 31.8625ZM406.21875 26.9875L407.85938 26.9875L407.85938 37.33125Q407.85938 38.721874 407.29688 39.70625Q406.73438 40.690624 405.71875 41.20625Q404.70312 41.721874 403.39062 41.721874Q402.84375 41.721874 402.10938 41.55Q401.375 41.378124 400.65625 40.971874Q399.95312 40.565624 399.46875 39.878124L400.42188 38.815624Q401.09375 39.6125 401.8125 39.925Q402.54688 40.2375 403.25 40.2375Q404.10938 40.2375 404.73438 39.909374Q405.35938 39.596874 405.70312 38.95625Q406.0625 38.33125 406.0625 37.409374L406.0625 29.3L406.21875 26.9875ZM398.95312 32.378124L398.95312 32.175Q398.95312 30.971874 399.23438 29.9875Q399.53125 28.9875 400.0625 28.284374Q400.60938 27.565624 401.375 27.175Q402.15625 26.784374 403.125 26.784374Q404.10938 26.784374 404.85938 27.14375Q405.60938 27.4875 406.125 28.14375Q406.65625 28.8 406.95312 29.7375Q407.26562 30.659374 407.375 31.83125L407.375 32.721874Q407.26562 33.89375 406.95312 34.815624Q406.65625 35.7375 406.125 36.39375Q405.60938 37.05 404.85938 37.409374Q404.10938 37.753124 403.09375 37.753124Q402.15625 37.753124 401.39062 37.346874Q400.625 36.940624 400.07812 36.221874Q399.53125 35.503124 399.23438 34.51875Q398.95312 33.534374 398.95312 32.378124ZM400.75 32.175L400.75 32.378124Q400.75 33.175 400.90625 33.878124Q401.07812 34.565624 401.40625 35.096874Q401.75 35.6125 402.28125 35.909374Q402.8125 36.20625 403.53125 36.20625Q404.4375 36.20625 405.01562 35.83125Q405.60938 35.45625 405.95312 34.83125Q406.29688 34.20625 406.5 33.471874L406.5 31.1125Q406.39062 30.58125 406.17188 30.08125Q405.95312 29.565624 405.59375 29.175Q405.25 28.784374 404.73438 28.55Q404.23438 28.315624 403.5625 28.315624Q402.8125 28.315624 402.28125 28.628124Q401.75 28.925 401.40625 29.45625Q401.07812 29.9875 400.90625 30.690624Q400.75 31.39375 400.75 32.175Z" fill-rule="nonzero"/></svg>