<svg version="1.1" viewBox="0.0 0.0 600.0 371.0" fill="none" stroke="none" stroke-linecap="square" stroke-miterlimit="10" width="600" height="371" xmlns:xlink="http://www.w3.org/1999/xlink" xmlns="http://www.w3.org/2000/svg"><path fill="#ffffff" d="M0 0L600.0 0L600.0 371.0L0 371.0L0 0Z" fill-rule="nonzero"/><path stroke="#333333" stroke-width="1.0" stroke-linecap="butt" d="M64.5 312.5L581.5 312.5" fill-rule="nonzero"/><path fill="#eeeeee" d="M45.5 331.5L64.5 313.5L581.5 313.5L562.5 331.5Z" fill-rule="nonzero"/><path stroke="#cccccc" stroke-width="1.0" stroke-linecap="butt" d="M64.5 229.5L581.5 229.5" fill-rule="nonzero"/><path stroke="#cccccc" stroke-width="1.0" stroke-linecap="butt" d="M64.5 145.5L581.5 145.5" fill-rule="nonzero"/><path stroke="#cccccc" stroke-width="1.0" stroke-linecap="butt" d="M64.5 62.5L581.5 62.5" fill-rule="nonzero"/><path stroke="#000000" stroke-width="1.0" stroke-linecap="butt" stroke-opacity="0.0" d="M64.5 284.5L581.5 284.5" fill-rule="nonzero"/><path stroke="#000000" stroke-width="1.0" stroke-linecap="butt" stroke-opacity="0.0" d="M64.5 256.5L581.5 256.5" fill-rule="nonzero"/><path stroke="#000000" stroke-width="1.0" stroke-linecap="butt" stroke-opacity="0.0" d="M64.5 201.5L581.5 201.5" fill-rule="nonzero"/><path stroke="#000000" stroke-width="1.0" stroke-linecap="butt" stroke-opacity="0.0" d="M64.5 173.5L581.5 173.5" fill-rule="nonzero"/><path stroke="#000000" stroke-width="1.0" stroke-linecap="butt" stroke-opacity="0.0" d="M64.5 117.5L581.5 117.5" fill-rule="nonzero"/><path stroke="#000000" stroke-width="1.0" stroke-linecap="butt" stroke-opacity="0.0" d="M64.5 90.5L581.5 90.5" fill-rule="nonzero"/><clipPath id="id_0"><path d="M45.55 62.416668L581.45 62.416668L581.45 331.45L45.55 331.45L45.55 62.416668Z" clip-rule="nonzero"/></clipPath><path fill="#2b569f" clip-path="url(#id_0)" d="M138.0 87.0L138.0 312.0L124.0 326.0L124.0 101.0Z" fill-rule="nonzero"/><path fill="#689df6" clip-path="url(#id_0)" d="M124.0 101.0L69.0 101.0L83.0 87.0L138.0 87.0Z" fill-rule="nonzero"/><path stroke="#000000" stroke-width="2.0" stroke-linecap="butt" stroke-opacity="0.0" clip-path="url(#id_0)" d="M124.0 326.0L69.0 326.0L69.0 101.0L124.0 101.0Z" fill-rule="nonzero"/><path fill="#4285f4" clip-path="url(#id_0)" d="M124.0 326.0L69.0 326.0L69.0 101.0L124.0 101.0Z" fill-rule="nonzero"/><path fill="#2b569f" clip-path="url(#id_0)" d="M222.0 112.0L222.0 312.0L208.0 326.0L208.0 126.0Z" fill-rule="nonzero"/><path fill="#689df6" clip-path="url(#id_0)" d="M208.0 126.0L153.0 126.0L167.0 112.0L222.0 112.0Z" fill-rule="nonzero"/><path stroke="#000000" stroke-width="2.0" stroke-linecap="butt" stroke-opacity="0.0" clip-path="url(#id_0)" d="M208.0 326.0L153.0 326.0L153.0 126.0L208.0 126.0Z" fill-rule="nonzero"/><path fill="#4285f4" clip-path="url(#id_0)" d="M208.0 326.0L153.0 326.0L153.0 126.0L208.0 126.0Z" fill-rule="nonzero"/><path fill="#2b569f" clip-path="url(#id_0)" d="M306.0 212.0L306.0 312.0L292.0 326.0L292.0 226.0Z" fill-rule="nonzero"/><path fill="#689df6" clip-path="url(#id_0)" d="M292.0 226.0L237.0 226.0L251.0 212.0L306.0 212.0Z" fill-rule="nonzero"/><path stroke="#000000" stroke-width="2.0" stroke-linecap="butt" stroke-opacity="0.0" clip-path="url(#id_0)" d="M292.0 326.0L237.0 326.0L237.0 226.0L292.0 226.0Z" fill-rule="nonzero"/><path fill="#4285f4" clip-path="url(#id_0)" d="M292.0 326.0L237.0 326.0L237.0 226.0L292.0 226.0Z" fill-rule="nonzero"/><path fill="#2b569f" clip-path="url(#id_0)" d="M391.0 229.0L391.0 312.0L377.0 326.0L377.0 243.0Z" fill-rule="nonzero"/><path fill="#689df6" clip-path="url(#id_0)" d="M377.0 243.0L322.0 243.0L336.0 229.0L391.0 229.0Z" fill-rule="nonzero"/><path stroke="#000000" stroke-width="2.0" stroke-linecap="butt" stroke-opacity="0.0" clip-path="url(#id_0)" d="M377.0 326.0L322.0 326.0L322.0 243.0L377.0 243.0Z" fill-rule="nonzero"/><path fill="#4285f4" clip-path="url(#id_0)" d="M377.0 326.0L322.0 326.0L322.0 243.0L377.0 243.0Z" fill-rule="nonzero"/><path fill="#2b569f" clip-path="url(#id_0)" d="M475.0 262.0L475.0 312.0L461.0 326.0L461.0 276.0Z" fill-rule="nonzero"/><path fill="#689df6" clip-path="url(#id_0)" d="M461.0 276.0L406.0 276.0L420.0 262.0L475.0 262.0Z" fill-rule="nonzero"/><path stroke="#000000" stroke-width="2.0" stroke-linecap="butt" stroke-opacity="0.0" clip-path="url(#id_0)" d="M461.0 326.0L406.0 326.0L406.0 276.0L461.0 276.0Z" fill-rule="nonzero"/><path fill="#4285f4" clip-path="url(#id_0)" d="M461.0 326.0L406.0 326.0L406.0 276.0L461.0 276.0Z" fill-rule="nonzero"/><path fill="#2b569f" clip-path="url(#id_0)" d="M559.0 304.0L559.0 312.0L545.0 326.0L545.0 318.0Z" fill-rule="nonzero"/><path fill="#689df6" clip-path="url(#id_0)" d="M545.0 318.0L490.0 318.0L504.0 304.0L559.0 304.0Z" fill-rule="nonzero"/><path stroke="#000000" stroke-width="2.0" stroke-linecap="butt" stroke-opacity="0.0" clip-path="url(#id_0)" d="M545.0 326.0L490.0 326.0L490.0 318.0L545.0 318.0Z" fill-rule="nonzero"/><path fill="#4285f4" clip-path="url(#id_0)" d="M545.0 326.0L490.0 326.0L490.0 318.0L545.0 318.0Z" fill-rule="nonzero"/><path stroke="#4285f4" stroke-width="3.0" stroke-linejoin="round" stroke-linecap="round" d="M95.296875 217.54437L95.296875 218.435L89.71875 218.435L89.71875 217.65375L92.515625 214.54437Q93.03125 213.96625 93.3125 213.57562Q93.59375 213.16937 93.703125 212.85687Q93.828125 212.52875 93.828125 212.20062Q93.828125 211.77875 93.65625 211.435Q93.484375 211.09125 93.140625 210.88812Q92.8125 210.66937 92.328125 210.66937Q91.765625 210.66937 91.390625 210.90375Q91.015625 211.1225 90.828125 211.51312Q90.640625 211.90375 90.640625 212.40375L89.546875 212.40375Q89.546875 211.685 89.859375 211.09125Q90.1875 210.4975 90.796875 210.13812Q91.421875 209.77875 92.328125 209.77875Q93.140625 209.77875 93.71875 210.07562Q94.296875 210.35687 94.59375 210.8725Q94.90625 211.3725 94.90625 212.06Q94.90625 212.435 94.78125 212.82562Q94.65625 213.20062 94.4375 213.59125Q94.21875 213.96625 93.921875 214.34125Q93.640625 214.70062 93.3125 215.06L91.015625 217.54437L95.296875 217.54437ZM102.21875 209.90375L102.21875 210.51312L98.6875 218.435L97.546875 218.435L101.078125 210.79437L96.453125 210.79437L96.453125 209.90375L102.21875 209.90375Z" fill-rule="nonzero"/><path fill="#ffffff" d="M95.296875 217.54437L95.296875 218.435L89.71875 218.435L89.71875 217.65375L92.515625 214.54437Q93.03125 213.96625 93.3125 213.57562Q93.59375 213.16937 93.703125 212.85687Q93.828125 212.52875 93.828125 212.20062Q93.828125 211.77875 93.65625 211.435Q93.484375 211.09125 93.140625 210.88812Q92.8125 210.66937 92.328125 210.66937Q91.765625 210.66937 91.390625 210.90375Q91.015625 211.1225 90.828125 211.51312Q90.640625 211.90375 90.640625 212.40375L89.546875 212.40375Q89.546875 211.685 89.859375 211.09125Q90.1875 210.4975 90.796875 210.13812Q91.421875 209.77875 92.328125 209.77875Q93.140625 209.77875 93.71875 210.07562Q94.296875 210.35687 94.59375 210.8725Q94.90625 211.3725 94.90625 212.06Q94.90625 212.435 94.78125 212.82562Q94.65625 213.20062 94.4375 213.59125Q94.21875 213.96625 93.921875 214.34125Q93.640625 214.70062 93.3125 215.06L91.015625 217.54437L95.296875 217.54437ZM102.21875 209.90375L102.21875 210.51312L98.6875 218.435L97.546875 218.435L101.078125 210.79437L96.453125 210.79437L96.453125 209.90375L102.21875 209.90375Z" fill-rule="nonzero"/><path stroke="#4285f4" stroke-width="3.0" stroke-linejoin="round" stroke-linecap="round" d="M179.29688 230.04604L179.29688 230.93666L173.71875 230.93666L173.71875 230.15541L176.51562 227.04604Q177.03125 226.46791 177.3125 226.07729Q177.59375 225.67104 177.70312 225.35854Q177.82812 225.03041 177.82812 224.70229Q177.82812 224.28041 177.65625 223.93666Q177.48438 223.59291 177.14062 223.38979Q176.8125 223.17104 176.32812 223.17104Q175.76562 223.17104 175.39062 223.40541Q175.01562 223.62416 174.82812 224.01479Q174.64062 224.40541 174.64062 224.90541L173.54688 224.90541Q173.54688 224.18666 173.85938 223.59291Q174.1875 222.99916 174.79688 222.63979Q175.42188 222.28041 176.32812 222.28041Q177.14062 222.28041 177.71875 222.57729Q178.29688 222.85854 178.59375 223.37416Q178.90625 223.87416 178.90625 224.56166Q178.90625 224.93666 178.78125 225.32729Q178.65625 225.70229 178.4375 226.09291Q178.21875 226.46791 177.92188 226.84291Q177.64062 227.20229 177.3125 227.56166L175.01562 230.04604L179.29688 230.04604ZM186.46875 228.06166L186.46875 228.95229L180.3125 228.95229L180.3125 228.31166L184.125 222.40541L185.01562 222.40541L184.0625 224.10854L181.54688 228.06166L186.46875 228.06166ZM185.28125 222.40541L185.28125 230.93666L184.20312 230.93666L184.20312 222.40541L185.28125 222.40541Z" fill-rule="nonzero"/><path fill="#ffffff" d="M179.29688 230.04604L179.29688 230.93666L173.71875 230.93666L173.71875 230.15541L176.51562 227.04604Q177.03125 226.46791 177.3125 226.07729Q177.59375 225.67104 177.70312 225.35854Q177.82812 225.03041 177.82812 224.70229Q177.82812 224.28041 177.65625 223.93666Q177.48438 223.59291 177.14062 223.38979Q176.8125 223.17104 176.32812 223.17104Q175.76562 223.17104 175.39062 223.40541Q175.01562 223.62416 174.82812 224.01479Q174.64062 224.40541 174.64062 224.90541L173.54688 224.90541Q173.54688 224.18666 173.85938 223.59291Q174.1875 222.99916 174.79688 222.63979Q175.42188 222.28041 176.32812 222.28041Q177.14062 222.28041 177.71875 222.57729Q178.29688 222.85854 178.59375 223.37416Q178.90625 223.87416 178.90625 224.56166Q178.90625 224.93666 178.78125 225.32729Q178.65625 225.70229 178.4375 226.09291Q178.21875 226.46791 177.92188 226.84291Q177.64062 227.20229 177.3125 227.56166L175.01562 230.04604L179.29688 230.04604ZM186.46875 228.06166L186.46875 228.95229L180.3125 228.95229L180.3125 228.31166L184.125 222.40541L185.01562 222.40541L184.0625 224.10854L181.54688 228.06166L186.46875 228.06166ZM185.28125 222.40541L185.28125 230.93666L184.20312 230.93666L184.20312 222.40541L185.28125 222.40541Z" fill-rule="nonzero"/><path stroke="#4285f4" stroke-width="3.0" stroke-linejoin="round" stroke-linecap="round" d="M261.26562 272.3652L261.26562 280.94333L260.1875 280.94333L260.1875 273.72458L258.0 274.52145L258.0 273.53708L261.10938 272.3652L261.26562 272.3652ZM270.29688 280.0527L270.29688 280.94333L264.71875 280.94333L264.71875 280.16208L267.51562 277.0527Q268.03125 276.47458 268.3125 276.08395Q268.59375 275.6777 268.70312 275.3652Q268.82812 275.03708 268.82812 274.70895Q268.82812 274.28708 268.65625 273.94333Q268.48438 273.59958 268.14062 273.39645Q267.8125 273.1777 267.32812 273.1777Q266.76562 273.1777 266.39062 273.41208Q266.01562 273.63083 265.82812 274.02145Q265.64062 274.41208 265.64062 274.91208L264.54688 274.91208Q264.54688 274.19333 264.85938 273.59958Q265.1875 273.00583 265.79688 272.64645Q266.42188 272.28708 267.32812 272.28708Q268.14062 272.28708 268.71875 272.58395Q269.29688 272.8652 269.59375 273.38083Q269.90625 273.88083 269.90625 274.56833Q269.90625 274.94333 269.78125 275.33395Q269.65625 275.70895 269.4375 276.09958Q269.21875 276.47458 268.92188 276.84958Q268.64062 277.20895 268.3125 277.56833L266.01562 280.0527L270.29688 280.0527Z" fill-rule="nonzero"/><path fill="#ffffff" d="M261.26562 272.3652L261.26562 280.94333L260.1875 280.94333L260.1875 273.72458L258.0 274.52145L258.0 273.53708L261.10938 272.3652L261.26562 272.3652ZM270.29688 280.0527L270.29688 280.94333L264.71875 280.94333L264.71875 280.16208L267.51562 277.0527Q268.03125 276.47458 268.3125 276.08395Q268.59375 275.6777 268.70312 275.3652Q268.82812 275.03708 268.82812 274.70895Q268.82812 274.28708 268.65625 273.94333Q268.48438 273.59958 268.14062 273.39645Q267.8125 273.1777 267.32812 273.1777Q266.76562 273.1777 266.39062 273.41208Q266.01562 273.63083 265.82812 274.02145Q265.64062 274.41208 265.64062 274.91208L264.54688 274.91208Q264.54688 274.19333 264.85938 273.59958Q265.1875 273.00583 265.79688 272.64645Q266.42188 272.28708 267.32812 272.28708Q268.14062 272.28708 268.71875 272.58395Q269.29688 272.8652 269.59375 273.38083Q269.90625 273.88083 269.90625 274.56833Q269.90625 274.94333 269.78125 275.33395Q269.65625 275.70895 269.4375 276.09958Q269.21875 276.47458 268.92188 276.84958Q268.64062 277.20895 268.3125 277.56833L266.01562 280.0527L270.29688 280.0527Z" fill-rule="nonzero"/><path stroke="#4285f4" stroke-width="3.0" stroke-linejoin="round" stroke-linecap="round" d="M346.26562 280.69965L346.26562 289.27777L345.1875 289.27777L345.1875 282.05902L343.0 282.8559L343.0 281.87152L346.10938 280.69965L346.26562 280.69965ZM355.0625 284.32465L355.0625 285.63715Q355.0625 286.68402 354.875 287.40277Q354.6875 288.12152 354.32812 288.55902Q353.98438 288.99652 353.48438 289.19965Q353.0 289.40277 352.375 289.40277Q351.89062 289.40277 351.46875 289.27777Q351.04688 289.15277 350.71875 288.88715Q350.39062 288.6059 350.15625 288.1684Q349.92188 287.7309 349.79688 287.1059Q349.67188 286.46527 349.67188 285.63715L349.67188 284.32465Q349.67188 283.27777 349.85938 282.57465Q350.0625 281.87152 350.40625 281.43402Q350.76562 280.99652 351.25 280.80902Q351.75 280.62152 352.35938 280.62152Q352.85938 280.62152 353.28125 280.74652Q353.70312 280.87152 354.03125 281.13715Q354.35938 281.38715 354.57812 281.82465Q354.8125 282.24652 354.9375 282.87152Q355.0625 283.49652 355.0625 284.32465ZM353.96875 285.80902L353.96875 284.15277Q353.96875 283.57465 353.90625 283.13715Q353.84375 282.69965 353.70312 282.38715Q353.57812 282.07465 353.375 281.88715Q353.1875 281.69965 352.9375 281.6059Q352.6875 281.51215 352.35938 281.51215Q351.98438 281.51215 351.67188 281.65277Q351.375 281.7934 351.17188 282.1059Q350.96875 282.4184 350.85938 282.93402Q350.76562 283.43402 350.76562 284.15277L350.76562 285.80902Q350.76562 286.38715 350.82812 286.82465Q350.90625 287.26215 351.03125 287.59027Q351.17188 287.90277 351.35938 288.1059Q351.5625 288.30902 351.8125 288.40277Q352.0625 288.49652 352.375 288.49652Q352.78125 288.49652 353.07812 288.3559Q353.375 288.19965 353.57812 287.87152Q353.78125 287.5434 353.875 287.0434Q353.96875 286.52777 353.96875 285.80902Z" fill-rule="nonzero"/><path fill="#ffffff" d="M346.26562 280.69965L346.26562 289.27777L345.1875 289.27777L345.1875 282.05902L343.0 282.8559L343.0 281.87152L346.10938 280.69965L346.26562 280.69965ZM355.0625 284.32465L355.0625 285.63715Q355.0625 286.68402 354.875 287.40277Q354.6875 288.12152 354.32812 288.55902Q353.98438 288.99652 353.48438 289.19965Q353.0 289.40277 352.375 289.40277Q351.89062 289.40277 351.46875 289.27777Q351.04688 289.15277 350.71875 288.88715Q350.39062 288.6059 350.15625 288.1684Q349.92188 287.7309 349.79688 287.1059Q349.67188 286.46527 349.67188 285.63715L349.67188 284.32465Q349.67188 283.27777 349.85938 282.57465Q350.0625 281.87152 350.40625 281.43402Q350.76562 280.99652 351.25 280.80902Q351.75 280.62152 352.35938 280.62152Q352.85938 280.62152 353.28125 280.74652Q353.70312 280.87152 354.03125 281.13715Q354.35938 281.38715 354.57812 281.82465Q354.8125 282.24652 354.9375 282.87152Q355.0625 283.49652 355.0625 284.32465ZM353.96875 285.80902L353.96875 284.15277Q353.96875 283.57465 353.90625 283.13715Q353.84375 282.69965 353.70312 282.38715Q353.57812 282.07465 353.375 281.88715Q353.1875 281.69965 352.9375 281.6059Q352.6875 281.51215 352.35938 281.51215Q351.98438 281.51215 351.67188 281.65277Q351.375 281.7934 351.17188 282.1059Q350.96875 282.4184 350.85938 282.93402Q350.76562 283.43402 350.76562 284.15277L350.76562 285.80902Q350.76562 286.38715 350.82812 286.82465Q350.90625 287.26215 351.03125 287.59027Q351.17188 287.90277 351.35938 288.1059Q351.5625 288.30902 351.8125 288.40277Q352.0625 288.49652 352.375 288.49652Q352.78125 288.49652 353.07812 288.3559Q353.375 288.19965 353.57812 287.87152Q353.78125 287.5434 353.875 287.0434Q353.96875 286.52777 353.96875 285.80902Z" fill-rule="nonzero"/><path stroke="#4285f4" stroke-width="3.0" stroke-linejoin="round" stroke-linecap="round" d="M434.375 297.39978L434.46875 297.39978L434.46875 298.32166L434.375 298.32166Q433.51562 298.32166 432.92188 298.6029Q432.34375 298.88416 432.0 299.3529Q431.67188 299.80603 431.51562 300.39978Q431.375 300.9779 431.375 301.57166L431.375 302.82166Q431.375 303.38416 431.5 303.82166Q431.64062 304.25916 431.875 304.57166Q432.10938 304.86853 432.40625 305.02478Q432.70312 305.1654 433.01562 305.1654Q433.39062 305.1654 433.6875 305.02478Q433.98438 304.88416 434.1875 304.61853Q434.39062 304.3529 434.48438 304.00916Q434.59375 303.64978 434.59375 303.21228Q434.59375 302.83728 434.5 302.4779Q434.40625 302.11853 434.21875 301.8529Q434.03125 301.57166 433.73438 301.4154Q433.4375 301.24353 433.04688 301.24353Q432.59375 301.24353 432.20312 301.46228Q431.8125 301.68103 431.5625 302.0404Q431.3125 302.39978 431.28125 302.80603L430.70312 302.80603Q430.79688 302.14978 431.01562 301.68103Q431.23438 301.21228 431.57812 300.9154Q431.92188 300.61853 432.32812 300.49353Q432.75 300.3529 433.21875 300.3529Q433.85938 300.3529 434.3125 300.6029Q434.78125 300.83728 435.07812 301.24353Q435.39062 301.63416 435.53125 302.13416Q435.67188 302.63416 435.67188 303.1654Q435.67188 303.75916 435.5 304.2904Q435.32812 304.82166 434.98438 305.2279Q434.65625 305.61853 434.15625 305.8529Q433.67188 306.07166 433.01562 306.07166Q432.32812 306.07166 431.8125 305.7904Q431.29688 305.49353 430.95312 305.02478Q430.625 304.5404 430.45312 303.96228Q430.28125 303.38416 430.28125 302.7904L430.28125 302.27478Q430.28125 301.36853 430.45312 300.50916Q430.64062 299.63416 431.09375 298.93103Q431.54688 298.2279 432.34375 297.82166Q433.14062 297.39978 434.375 297.39978Z" fill-rule="nonzero"/><path fill="#ffffff" d="M434.375 297.39978L434.46875 297.39978L434.46875 298.32166L434.375 298.32166Q433.51562 298.32166 432.92188 298.6029Q432.34375 298.88416 432.0 299.3529Q431.67188 299.80603 431.51562 300.39978Q431.375 300.9779 431.375 301.57166L431.375 302.82166Q431.375 303.38416 431.5 303.82166Q431.64062 304.25916 431.875 304.57166Q432.10938 304.86853 432.40625 305.02478Q432.70312 305.1654 433.01562 305.1654Q433.39062 305.1654 433.6875 305.02478Q433.98438 304.88416 434.1875 304.61853Q434.39062 304.3529 434.48438 304.00916Q434.59375 303.64978 434.59375 303.21228Q434.59375 302.83728 434.5 302.4779Q434.40625 302.11853 434.21875 301.8529Q434.03125 301.57166 433.73438 301.4154Q433.4375 301.24353 433.04688 301.24353Q432.59375 301.24353 432.20312 301.46228Q431.8125 301.68103 431.5625 302.0404Q431.3125 302.39978 431.28125 302.80603L430.70312 302.80603Q430.79688 302.14978 431.01562 301.68103Q431.23438 301.21228 431.57812 300.9154Q431.92188 300.61853 432.32812 300.49353Q432.75 300.3529 433.21875 300.3529Q433.85938 300.3529 434.3125 300.6029Q434.78125 300.83728 435.07812 301.24353Q435.39062 301.63416 435.53125 302.13416Q435.67188 302.63416 435.67188 303.1654Q435.67188 303.75916 435.5 304.2904Q435.32812 304.82166 434.98438 305.2279Q434.65625 305.61853 434.15625 305.8529Q433.67188 306.07166 433.01562 306.07166Q432.32812 306.07166 431.8125 305.7904Q431.29688 305.49353 430.95312 305.02478Q430.625 304.5404 430.45312 303.96228Q430.28125 303.38416 430.28125 302.7904L430.28125 302.27478Q430.28125 301.36853 430.45312 300.50916Q430.64062 299.63416 431.09375 298.93103Q431.54688 298.2279 432.34375 297.82166Q433.14062 297.39978 434.375 297.39978Z" fill-rule="nonzero"/><path stroke="#4285f4" stroke-width="3.0" stroke-linejoin="round" stroke-linecap="round" d="M517.7656 318.20465L517.7656 326.78278L516.6875 326.78278L516.6875 319.56403L514.5 320.3609L514.5 319.37653L517.6094 318.20465L517.7656 318.20465Z" fill-rule="nonzero"/><path fill="#ffffff" d="M517.7656 318.20465L517.7656 326.78278L516.6875 326.78278L516.6875 319.56403L514.5 320.3609L514.5 319.37653L517.6094 318.20465L517.7656 318.20465Z" fill-rule="nonzero"/><path fill="#000000" d="M38.6125 311.9969L38.6125 313.3094Q38.6125 314.35626 38.425 315.075Q38.2375 315.79376 37.878124 316.23126Q37.534374 316.66876 37.034374 316.8719Q36.55 317.075 35.925 317.075Q35.440624 317.075 35.01875 316.95Q34.596874 316.825 34.26875 316.5594Q33.940624 316.27814 33.70625 315.84064Q33.471874 315.40314 33.346874 314.77814Q33.221874 314.1375 33.221874 313.3094L33.221874 311.9969Q33.221874 310.95 33.409374 310.2469Q33.6125 309.54376 33.95625 309.10626Q34.315624 308.66876 34.8 308.48126Q35.3 308.29376 35.909374 308.29376Q36.409374 308.29376 36.83125 308.41876Q37.253124 308.54376 37.58125 308.8094Q37.909374 309.0594 38.128124 309.4969Q38.3625 309.91876 38.4875 310.54376Q38.6125 311.16876 38.6125 311.9969ZM37.51875 313.48126L37.51875 311.825Q37.51875 311.2469 37.45625 310.8094Q37.39375 310.3719 37.253124 310.0594Q37.128124 309.7469 36.925 309.5594Q36.7375 309.3719 36.4875 309.27814Q36.2375 309.1844 35.909374 309.1844Q35.534374 309.1844 35.221874 309.325Q34.925 309.46564 34.721874 309.77814Q34.51875 310.09064 34.409374 310.60626Q34.315624 311.10626 34.315624 311.825L34.315624 313.48126Q34.315624 314.0594 34.378124 314.4969Q34.45625 314.9344 34.58125 315.2625Q34.721874 315.575 34.909374 315.77814Q35.1125 315.98126 35.3625 316.075Q35.6125 316.16876 35.925 316.16876Q36.33125 316.16876 36.628124 316.02814Q36.925 315.8719 37.128124 315.54376Q37.33125 315.21564 37.425 314.71564Q37.51875 314.2 37.51875 313.48126Z" fill-rule="nonzero"/><path fill="#000000" d="M29.815624 225.02744L29.815624 233.60556L28.7375 233.60556L28.7375 226.38681L26.55 227.18369L26.55 226.19931L29.659374 225.02744L29.815624 225.02744ZM38.6125 228.65244L38.6125 229.96494Q38.6125 231.01181 38.425 231.73056Q38.2375 232.44931 37.878124 232.88681Q37.534374 233.32431 37.034374 233.52744Q36.55 233.73056 35.925 233.73056Q35.440624 233.73056 35.01875 233.60556Q34.596874 233.48056 34.26875 233.21494Q33.940624 232.93369 33.70625 232.49619Q33.471874 232.05869 33.346874 231.43369Q33.221874 230.79306 33.221874 229.96494L33.221874 228.65244Q33.221874 227.60556 33.409374 226.90244Q33.6125 226.19931 33.95625 225.76181Q34.315624 225.32431 34.8 225.13681Q35.3 224.94931 35.909374 224.94931Q36.409374 224.94931 36.83125 225.07431Q37.253124 225.19931 37.58125 225.46494Q37.909374 225.71494 38.128124 226.15244Q38.3625 226.57431 38.4875 227.19931Q38.6125 227.82431 38.6125 228.65244ZM37.51875 230.13681L37.51875 228.48056Q37.51875 227.90244 37.45625 227.46494Q37.39375 227.02744 37.253124 226.71494Q37.128124 226.40244 36.925 226.21494Q36.7375 226.02744 36.4875 225.93369Q36.2375 225.83994 35.909374 225.83994Q35.534374 225.83994 35.221874 225.98056Q34.925 226.12119 34.721874 226.43369Q34.51875 226.74619 34.409374 227.26181Q34.315624 227.76181 34.315624 228.48056L34.315624 230.13681Q34.315624 230.71494 34.378124 231.15244Q34.45625 231.58994 34.58125 231.91806Q34.721874 232.23056 34.909374 232.43369Q35.1125 232.63681 35.3625 232.73056Q35.6125 232.82431 35.925 232.82431Q36.33125 232.82431 36.628124 232.68369Q36.925 232.52744 37.128124 232.19931Q37.33125 231.87119 37.425 231.37119Q37.51875 230.85556 37.51875 230.13681Z" fill-rule="nonzero"/><path fill="#000000" d="M31.846874 149.37048L31.846874 150.26111L26.26875 150.26111L26.26875 149.47986L29.065624 146.37048Q29.58125 145.79236 29.8625 145.40173Q30.14375 144.99548 30.253124 144.68298Q30.378124 144.35486 30.378124 144.02673Q30.378124 143.60486 30.20625 143.26111Q30.034374 142.91736 29.690624 142.71423Q29.3625 142.49548 28.878124 142.49548Q28.315624 142.49548 27.940624 142.72986Q27.565624 142.94861 27.378124 143.33923Q27.190624 143.72986 27.190624 144.22986L26.096874 144.22986Q26.096874 143.51111 26.409374 142.91736Q26.7375 142.32361 27.346874 141.96423Q27.971874 141.60486 28.878124 141.60486Q29.690624 141.60486 30.26875 141.90173Q30.846874 142.18298 31.14375 142.69861Q31.45625 143.19861 31.45625 143.88611Q31.45625 144.26111 31.33125 144.65173Q31.20625 145.02673 30.9875 145.41736Q30.76875 145.79236 30.471874 146.16736Q30.190624 146.52673 29.8625 146.88611L27.565624 149.37048L31.846874 149.37048ZM38.6125 145.30798L38.6125 146.62048Q38.6125 147.66736 38.425 148.38611Q38.2375 149.10486 37.878124 149.54236Q37.534374 149.97986 37.034374 150.18298Q36.55 150.38611 35.925 150.38611Q35.440624 150.38611 35.01875 150.26111Q34.596874 150.13611 34.26875 149.87048Q33.940624 149.58923 33.70625 149.15173Q33.471874 148.71423 33.346874 148.08923Q33.221874 147.44861 33.221874 146.62048L33.221874 145.30798Q33.221874 144.26111 33.409374 143.55798Q33.6125 142.85486 33.95625 142.41736Q34.315624 141.97986 34.8 141.79236Q35.3 141.60486 35.909374 141.60486Q36.409374 141.60486 36.83125 141.72986Q37.253124 141.85486 37.58125 142.12048Q37.909374 142.37048 38.128124 142.80798Q38.3625 143.22986 38.4875 143.85486Q38.6125 144.47986 38.6125 145.30798ZM37.51875 146.79236L37.51875 145.13611Q37.51875 144.55798 37.45625 144.12048Q37.39375 143.68298 37.253124 143.37048Q37.128124 143.05798 36.925 142.87048Q36.7375 142.68298 36.4875 142.58923Q36.2375 142.49548 35.909374 142.49548Q35.534374 142.49548 35.221874 142.63611Q34.925 142.77673 34.721874 143.08923Q34.51875 143.40173 34.409374 143.91736Q34.315624 144.41736 34.315624 145.13611L34.315624 146.79236Q34.315624 147.37048 34.378124 147.80798Q34.45625 148.24548 34.58125 148.57361Q34.721874 148.88611 34.909374 149.08923Q35.1125 149.29236 35.3625 149.38611Q35.6125 149.47986 35.925 149.47986Q36.33125 149.47986 36.628124 149.33923Q36.925 149.18298 37.128124 148.85486Q37.33125 148.52673 37.425 148.02673Q37.51875 147.51111 37.51875 146.79236Z" fill-rule="nonzero"/><path fill="#000000" d="M27.846874 62.11979L28.6125 62.11979Q29.190624 62.11979 29.55 61.93229Q29.925 61.729164 30.1125 61.40104Q30.3 61.072914 30.3 60.65104Q30.3 60.166664 30.128124 59.83854Q29.971874 59.49479 29.64375 59.322914Q29.315624 59.15104 28.815624 59.15104Q28.346874 59.15104 28.003124 59.33854Q27.659374 59.510414 27.45625 59.83854Q27.26875 60.166664 27.26875 60.61979L26.175 60.61979Q26.175 59.96354 26.503124 59.43229Q26.83125 58.90104 27.425 58.58854Q28.01875 58.260414 28.815624 58.260414Q29.58125 58.260414 30.159374 58.541664Q30.7375 58.80729 31.065624 59.354164Q31.39375 59.885414 31.39375 60.68229Q31.39375 61.010414 31.2375 61.36979Q31.08125 61.729164 30.76875 62.05729Q30.45625 62.36979 29.95625 62.572914Q29.471874 62.77604 28.76875 62.77604L27.846874 62.77604L27.846874 62.11979ZM27.846874 63.010414L27.846874 62.354164L28.76875 62.354164Q29.58125 62.354164 30.1125 62.55729Q30.64375 62.74479 30.95625 63.072914Q31.26875 63.385414 31.39375 63.77604Q31.51875 64.15104 31.51875 64.541664Q31.51875 65.135414 31.315624 65.604164Q31.1125 66.05729 30.7375 66.385414Q30.378124 66.697914 29.878124 66.86979Q29.39375 67.041664 28.815624 67.041664Q28.253124 67.041664 27.76875 66.885414Q27.284374 66.71354 26.909374 66.416664Q26.534374 66.11979 26.315624 65.68229Q26.1125 65.229164 26.1125 64.666664L27.190624 64.666664Q27.190624 65.104164 27.378124 65.447914Q27.58125 65.77604 27.940624 65.96354Q28.315624 66.135414 28.815624 66.135414Q29.315624 66.135414 29.675 65.96354Q30.034374 65.791664 30.221874 65.447914Q30.425 65.08854 30.425 64.55729Q30.425 64.02604 30.20625 63.68229Q29.9875 63.33854 29.565624 63.18229Q29.159374 63.010414 28.6125 63.010414L27.846874 63.010414ZM38.6125 61.96354L38.6125 63.27604Q38.6125 64.322914 38.425 65.041664Q38.2375 65.760414 37.878124 66.197914Q37.534374 66.635414 37.034374 66.83854Q36.55 67.041664 35.925 67.041664Q35.440624 67.041664 35.01875 66.916664Q34.596874 66.791664 34.26875 66.52604Q33.940624 66.24479 33.70625 65.80729Q33.471874 65.36979 33.346874 64.74479Q33.221874 64.104164 33.221874 63.27604L33.221874 61.96354Q33.221874 60.916664 33.409374 60.21354Q33.6125 59.510414 33.95625 59.072914Q34.315624 58.635414 34.8 58.447914Q35.3 58.260414 35.909374 58.260414Q36.409374 58.260414 36.83125 58.385414Q37.253124 58.510414 37.58125 58.77604Q37.909374 59.02604 38.128124 59.46354Q38.3625 59.885414 38.4875 60.510414Q38.6125 61.135414 38.6125 61.96354ZM37.51875 63.447914L37.51875 61.791664Q37.51875 61.21354 37.45625 60.77604Q37.39375 60.33854 37.253124 60.02604Q37.128124 59.71354 36.925 59.52604Q36.7375 59.33854 36.4875 59.24479Q36.2375 59.15104 35.909374 59.15104Q35.534374 59.15104 35.221874 59.291664Q34.925 59.43229 34.721874 59.74479Q34.51875 60.05729 34.409374 60.572914Q34.315624 61.072914 34.315624 61.791664L34.315624 63.447914Q34.315624 64.02604 34.378124 64.46354Q34.45625 64.90104 34.58125 65.229164Q34.721874 65.541664 34.909374 65.74479Q35.1125 65.947914 35.3625 66.041664Q35.6125 66.135414 35.925 66.135414Q36.33125 66.135414 36.628124 65.99479Q36.925 65.83854 37.128124 65.510414Q37.33125 65.18229 37.425 64.68229Q37.51875 64.166664 37.51875 63.447914Z" fill-rule="nonzero"/><path fill="#000000" d="M63.046997 345.46564L60.890747 345.46564L60.875122 344.54376L62.843872 344.54376Q63.328247 344.54376 63.687622 344.3875Q64.047 344.21564 64.25012 343.91876Q64.45325 343.60626 64.45325 343.1844Q64.45325 342.71564 64.26575 342.41876Q64.09387 342.1219 63.718872 341.98126Q63.359497 341.84064 62.796997 341.84064L61.140747 341.84064L61.140747 349.45L60.000122 349.45L60.000122 340.91876L62.796997 340.91876Q63.453247 340.91876 63.968872 341.0594Q64.4845 341.1844 64.84387 341.46564Q65.20325 341.73126 65.39075 342.16876Q65.57825 342.59064 65.57825 343.1844Q65.57825 343.71564 65.31262 344.15314Q65.047 344.575 64.56262 344.84064Q64.09387 345.10626 63.453247 345.1844L63.046997 345.46564ZM63.000122 349.45L60.437622 349.45L61.078247 348.52814L63.000122 348.52814Q63.531372 348.52814 63.906372 348.34064Q64.297 348.15314 64.4845 347.8094Q64.68762 347.46564 64.68762 346.9969Q64.68762 346.52814 64.51575 346.1844Q64.34387 345.84064 63.984497 345.65314Q63.625122 345.46564 63.046997 345.46564L61.437622 345.46564L61.453247 344.54376L63.656372 344.54376L63.890747 344.8719Q64.50012 344.9344 64.922 345.23126Q65.3595 345.52814 65.57825 345.98126Q65.81262 346.4344 65.81262 346.98126Q65.81262 347.77814 65.45325 348.34064Q65.1095 348.8875 64.46887 349.16876Q63.843872 349.45 63.000122 349.45ZM66.56262 346.35626L66.56262 346.21564Q66.56262 345.52814 66.75012 344.95Q66.95325 344.35626 67.32825 343.91876Q67.70325 343.48126 68.2345 343.2469Q68.76575 342.9969 69.43762 342.9969Q70.09387 342.9969 70.62512 343.2469Q71.172 343.48126 71.547 343.91876Q71.922 344.35626 72.12512 344.95Q72.32825 345.52814 72.32825 346.21564L72.32825 346.35626Q72.32825 347.02814 72.12512 347.6219Q71.922 348.2 71.547 348.6375Q71.172 349.075 70.64075 349.325Q70.1095 349.575 69.43762 349.575Q68.78137 349.575 68.2345 349.325Q67.70325 349.075 67.32825 348.6375Q66.95325 348.2 66.75012 347.6219Q66.56262 347.02814 66.56262 346.35626ZM67.64075 346.21564L67.64075 346.35626Q67.64075 346.825 67.75012 347.2469Q67.8595 347.66876 68.07825 347.9969Q68.31262 348.3094 68.65637 348.4969Q69.00012 348.66876 69.43762 348.66876Q69.89075 348.66876 70.21887 348.4969Q70.56262 348.3094 70.78137 347.9969Q71.01575 347.66876 71.12512 347.2469Q71.2345 346.825 71.2345 346.35626L71.2345 346.21564Q71.2345 345.7469 71.12512 345.325Q71.01575 344.90314 70.78137 344.59064Q70.56262 344.2625 70.21887 344.075Q69.89075 343.8875 69.43762 343.8875Q68.9845 343.8875 68.64075 344.075Q68.31262 344.2625 68.07825 344.59064Q67.8595 344.90314 67.75012 345.325Q67.64075 345.7469 67.64075 346.21564ZM73.56262 346.35626L73.56262 346.21564Q73.56262 345.52814 73.75012 344.95Q73.95325 344.35626 74.32825 343.91876Q74.70325 343.48126 75.2345 343.2469Q75.76575 342.9969 76.43762 342.9969Q77.09387 342.9969 77.62512 343.2469Q78.172 343.48126 78.547 343.91876Q78.922 344.35626 79.12512 344.95Q79.32825 345.52814 79.32825 346.21564L79.32825 346.35626Q79.32825 347.02814 79.12512 347.6219Q78.922 348.2 78.547 348.6375Q78.172 349.075 77.64075 349.325Q77.1095 349.575 76.43762 349.575Q75.78137 349.575 75.2345 349.325Q74.70325 349.075 74.32825 348.6375Q73.95325 348.2 73.75012 347.6219Q73.56262 347.02814 73.56262 346.35626ZM74.64075 346.21564L74.64075 346.35626Q74.64075 346.825 74.75012 347.2469Q74.8595 347.66876 75.07825 347.9969Q75.31262 348.3094 75.65637 348.4969Q76.00012 348.66876 76.43762 348.66876Q76.89075 348.66876 77.21887 348.4969Q77.56262 348.3094 77.78137 347.9969Q78.01575 347.66876 78.12512 347.2469Q78.2345 346.825 78.2345 346.35626L78.2345 346.21564Q78.2345 345.7469 78.12512 345.325Q78.01575 344.90314 77.78137 344.59064Q77.56262 344.2625 77.21887 344.075Q76.89075 343.8875 76.43762 343.8875Q75.9845 343.8875 75.64075 344.075Q75.31262 344.2625 75.07825 344.59064Q74.8595 344.90314 74.75012 345.325Q74.64075 345.7469 74.64075 346.21564ZM81.93762 340.45L81.93762 349.45L80.84387 349.45L80.84387 340.45L81.93762 340.45ZM85.81262 343.10626L83.047 346.075L81.50012 347.66876L81.40637 346.5125L82.51575 345.2L84.4845 343.10626L85.81262 343.10626ZM84.81262 349.45L82.547 346.41876L83.1095 345.46564L86.09387 349.45L84.81262 349.45ZM87.3595 340.91876L88.45325 340.91876L91.25012 347.8719L94.047 340.91876L95.14075 340.91876L91.672 349.45L90.82825 349.45L87.3595 340.91876ZM87.00012 340.91876L87.96887 340.91876L88.12512 346.1219L88.12512 349.45L87.00012 349.45L87.00012 340.91876ZM94.53137 340.91876L95.50012 340.91876L95.50012 349.45L94.37512 349.45L94.37512 346.1219L94.53137 340.91876ZM98.62512 348.79376L100.39075 343.10626L101.547 343.10626L99.00012 350.4344Q98.922 350.66876 98.76575 350.9344Q98.62512 351.21564 98.40637 351.45Q98.18762 351.7 97.87512 351.85626Q97.56262 352.0125 97.12512 352.0125Q97.00012 352.0125 96.797 351.96564Q96.59387 351.9344 96.51575 351.91876L96.51575 351.04376Q96.56262 351.04376 96.65637 351.04376Q96.76575 351.0594 96.797 351.0594Q97.172 351.0594 97.422 350.96564Q97.68762 350.8719 97.8595 350.6375Q98.047 350.41876 98.172 350.02814L98.62512 348.79376ZM97.32825 343.10626L98.96887 348.02814L99.25012 349.16876L98.4845 349.575L96.14075 343.10626L97.32825 343.10626ZM107.547 347.29376Q107.547 346.9969 107.45325 346.7625Q107.37512 346.52814 107.14075 346.34064Q106.922 346.15314 106.51575 345.98126Q106.12512 345.8094 105.53137 345.6375Q104.89075 345.45 104.37512 345.23126Q103.87512 344.9969 103.50012 344.7Q103.14075 344.3875 102.95325 344.0125Q102.76575 343.6219 102.76575 343.1219Q102.76575 342.6219 102.96887 342.2Q103.172 341.77814 103.547 341.46564Q103.93762 341.15314 104.46887 340.98126Q105.00012 340.79376 105.65637 340.79376Q106.62512 340.79376 107.297 341.16876Q107.96887 341.52814 108.31262 342.1219Q108.672 342.71564 108.672 343.3719L107.547 343.3719Q107.547 342.90314 107.32825 342.52814Q107.12512 342.15314 106.70325 341.95Q106.297 341.73126 105.65637 341.73126Q105.06262 341.73126 104.65637 341.91876Q104.26575 342.09064 104.07825 342.40314Q103.89075 342.71564 103.89075 343.10626Q103.89075 343.3719 104.00012 343.60626Q104.12512 343.825 104.3595 344.0125Q104.6095 344.2 104.9845 344.35626Q105.3595 344.5125 105.89075 344.65314Q106.6095 344.85626 107.14075 345.1219Q107.672 345.3719 108.01575 345.6844Q108.3595 345.9969 108.51575 346.3875Q108.68762 346.77814 108.68762 347.27814Q108.68762 347.8094 108.46887 348.23126Q108.26575 348.65314 107.87512 348.95Q107.4845 349.2469 106.93762 349.41876Q106.39075 349.575 105.71887 349.575Q105.12512 349.575 104.547 349.40314Q103.9845 349.23126 103.51575 348.90314Q103.047 348.575 102.76575 348.10626Q102.4845 347.6219 102.4845 346.98126L103.6095 346.98126Q103.6095 347.41876 103.78137 347.73126Q103.95325 348.04376 104.25012 348.2469Q104.547 348.45 104.922 348.5594Q105.297 348.65314 105.71887 348.65314Q106.31262 348.65314 106.71887 348.4969Q107.12512 348.325 107.32825 348.02814Q107.547 347.71564 107.547 347.29376ZM110.922 340.45L110.922 349.45L109.84387 349.45L109.84387 340.45L110.922 340.45ZM110.672 346.04376L110.21887 346.02814Q110.21887 345.3719 110.40637 344.825Q110.59387 344.2625 110.93762 343.85626Q111.28137 343.45 111.75012 343.23126Q112.21887 342.9969 112.797 342.9969Q113.26575 342.9969 113.64075 343.1219Q114.01575 343.2469 114.28137 343.52814Q114.547 343.79376 114.68762 344.23126Q114.82825 344.66876 114.82825 345.29376L114.82825 349.45L113.7345 349.45L113.7345 345.27814Q113.7345 344.77814 113.59387 344.48126Q113.45325 344.1844 113.172 344.04376Q112.89075 343.90314 112.46887 343.90314Q112.06262 343.90314 111.7345 344.075Q111.40637 344.2469 111.172 344.54376Q110.93762 344.84064 110.797 345.23126Q110.672 345.60626 110.672 346.04376ZM116.56262 346.35626L116.56262 346.21564Q116.56262 345.52814 116.75012 344.95Q116.95325 344.35626 117.32825 343.91876Q117.70325 343.48126 118.2345 343.2469Q118.76575 342.9969 119.43762 342.9969Q120.09387 342.9969 120.62512 343.2469Q121.172 343.48126 121.547 343.91876Q121.922 344.35626 122.12512 344.95Q122.32825 345.52814 122.32825 346.21564L122.32825 346.35626Q122.32825 347.02814 122.12512 347.6219Q121.922 348.2 121.547 348.6375Q121.172 349.075 120.64075 349.325Q120.1095 349.575 119.43762 349.575Q118.78137 349.575 118.2345 349.325Q117.70325 349.075 117.32825 348.6375Q116.95325 348.2 116.75012 347.6219Q116.56262 347.02814 116.56262 346.35626ZM117.64075 346.21564L117.64075 346.35626Q117.64075 346.825 117.75012 347.2469Q117.8595 347.66876 118.07825 347.9969Q118.31262 348.3094 118.65637 348.4969Q119.00012 348.66876 119.43762 348.66876Q119.89075 348.66876 120.21887 348.4969Q120.56262 348.3094 120.78137 347.9969Q121.01575 347.66876 121.12512 347.2469Q121.2345 346.825 121.2345 346.35626L121.2345 346.21564Q121.2345 345.7469 121.12512 345.325Q121.01575 344.90314 120.78137 344.59064Q120.56262 344.2625 120.21887 344.075Q119.89075 343.8875 119.43762 343.8875Q118.9845 343.8875 118.64075 344.075Q118.31262 344.2625 118.07825 344.59064Q117.8595 344.90314 117.75012 345.325Q117.64075 345.7469 117.64075 346.21564ZM125.45325 348.325L127.07825 343.10626L127.797 343.10626L127.65637 344.15314L126.00012 349.45L125.297 349.45L125.45325 348.325ZM124.3595 343.10626L125.7345 348.3875L125.84387 349.45L125.1095 349.45L123.26575 343.10626L124.3595 343.10626ZM129.34387 348.34064L130.672 343.10626L131.75012 343.10626L129.90637 349.45L129.18762 349.45L129.34387 348.34064ZM127.95325 343.10626L129.547 348.23126L129.71887 349.45L129.03137 349.45L127.32825 344.1375L127.18762 343.10626L127.95325 343.10626Z" fill-rule="nonzero"/><path fill="#000000" d="M172.97195 344.91876L172.97195 345.45Q172.97195 346.41876 172.72195 347.1844Q172.48758 347.9344 172.03445 348.46564Q171.58133 348.9969 170.95633 349.29376Q170.33133 349.575 169.55008 349.575Q168.78445 349.575 168.15945 349.29376Q167.53445 348.9969 167.0657 348.46564Q166.61258 347.9344 166.36258 347.1844Q166.11258 346.41876 166.11258 345.45L166.11258 344.91876Q166.11258 343.95 166.36258 343.2Q166.61258 342.4344 167.0657 341.90314Q167.51883 341.35626 168.14383 341.075Q168.78445 340.79376 169.53445 340.79376Q170.3157 340.79376 170.9407 341.075Q171.58133 341.35626 172.03445 341.90314Q172.48758 342.4344 172.72195 343.2Q172.97195 343.95 172.97195 344.91876ZM171.84695 345.45L171.84695 344.90314Q171.84695 344.1375 171.6907 343.5594Q171.53445 342.96564 171.23758 342.575Q170.9407 342.16876 170.5032 341.96564Q170.08133 341.7625 169.53445 341.7625Q169.0032 341.7625 168.58133 341.96564Q168.15945 342.16876 167.84695 342.575Q167.55008 342.96564 167.3782 343.5594Q167.22195 344.1375 167.22195 344.90314L167.22195 345.45Q167.22195 346.21564 167.3782 346.8094Q167.55008 347.40314 167.86258 347.8094Q168.17508 348.2 168.59695 348.40314Q169.01883 348.60626 169.55008 348.60626Q170.09695 348.60626 170.51883 348.40314Q170.95633 348.2 171.2532 347.8094Q171.55008 347.40314 171.6907 346.8094Q171.84695 346.21564 171.84695 345.45ZM176.89383 343.10626L176.89383 343.9344L173.45633 343.9344L173.45633 343.10626L176.89383 343.10626ZM174.6282 341.575L175.70633 341.575L175.70633 347.8719Q175.70633 348.2 175.80008 348.3719Q175.90945 348.52814 176.0657 348.59064Q176.22195 348.6375 176.40945 348.6375Q176.53445 348.6375 176.67508 348.60626Q176.83133 348.575 176.90945 348.5594L176.92508 349.45Q176.78445 349.4969 176.58133 349.52814Q176.3782 349.575 176.08133 349.575Q175.6907 349.575 175.34695 349.41876Q175.01883 349.2469 174.8157 348.8875Q174.6282 348.5125 174.6282 347.8719L174.6282 341.575ZM179.3157 340.45L179.3157 349.45L178.23758 349.45L178.23758 340.45L179.3157 340.45ZM179.0657 346.04376L178.61258 346.02814Q178.61258 345.3719 178.80008 344.825Q178.98758 344.2625 179.33133 343.85626Q179.67508 343.45 180.14383 343.23126Q180.61258 342.9969 181.1907 342.9969Q181.65945 342.9969 182.03445 343.1219Q182.40945 343.2469 182.67508 343.52814Q182.9407 343.79376 183.08133 344.23126Q183.22195 344.66876 183.22195 345.29376L183.22195 349.45L182.1282 349.45L182.1282 345.27814Q182.1282 344.77814 181.98758 344.48126Q181.84695 344.1844 181.5657 344.04376Q181.28445 343.90314 180.86258 343.90314Q180.45633 343.90314 180.1282 344.075Q179.80008 344.2469 179.5657 344.54376Q179.33133 344.84064 179.1907 345.23126Q179.0657 345.60626 179.0657 346.04376ZM187.86258 349.575Q187.20633 349.575 186.65945 349.35626Q186.1282 349.1219 185.73758 348.71564Q185.36258 348.29376 185.15945 347.73126Q184.95633 347.16876 184.95633 346.4969L184.95633 346.2625Q184.95633 345.48126 185.17508 344.8719Q185.40945 344.2625 185.80008 343.84064Q186.1907 343.41876 186.6907 343.21564Q187.1907 342.9969 187.72195 342.9969Q188.40945 342.9969 188.89383 343.23126Q189.39383 343.46564 189.70633 343.8875Q190.03445 344.29376 190.17508 344.8719Q190.33133 345.4344 190.33133 346.09064L190.33133 346.59064L185.59695 346.59064L185.59695 345.7L189.2532 345.7L189.2532 345.6219Q189.22195 345.2 189.0657 344.8094Q188.92508 344.40314 188.59695 344.15314Q188.28445 343.8875 187.72195 343.8875Q187.36258 343.8875 187.05008 344.04376Q186.73758 344.2 186.5032 344.5125Q186.28445 344.8094 186.15945 345.2469Q186.05008 345.6844 186.05008 346.2625L186.05008 346.4969Q186.05008 346.95 186.17508 347.35626Q186.30008 347.7469 186.53445 348.04376Q186.78445 348.34064 187.1282 348.5125Q187.48758 348.6844 187.92508 348.6844Q188.5032 348.6844 188.89383 348.45Q189.30008 348.21564 189.59695 347.825L190.2532 348.34064Q190.05008 348.65314 189.72195 348.9344Q189.40945 349.21564 188.9407 349.40314Q188.48758 349.575 187.86258 349.575ZM192.3157 344.10626L192.3157 349.45L191.23758 349.45L191.23758 343.10626L192.28445 343.10626L192.3157 344.10626ZM194.30008 343.075L194.30008 344.075Q194.15945 344.0594 194.03445 344.04376Q193.92508 344.02814 193.76883 344.02814Q193.39383 344.02814 193.09695 344.15314Q192.8157 344.2625 192.61258 344.48126Q192.42508 344.6844 192.30008 344.98126Q192.1907 345.27814 192.15945 345.6219L191.84695 345.79376Q191.84695 345.21564 191.95633 344.71564Q192.08133 344.21564 192.3157 343.825Q192.5657 343.4344 192.92508 343.21564Q193.30008 342.9969 193.8157 342.9969Q193.9407 342.9969 194.08133 343.02814Q194.23758 343.04376 194.30008 343.075Z" fill-rule="nonzero"/><path fill="#000000" d="M248.8344 347.29376Q248.8344 346.9969 248.74065 346.7625Q248.66252 346.52814 248.42815 346.34064Q248.2094 346.15314 247.80315 345.98126Q247.41252 345.8094 246.81877 345.6375Q246.17815 345.45 245.66252 345.23126Q245.16252 344.9969 244.78752 344.7Q244.42815 344.3875 244.24065 344.0125Q244.05315 343.6219 244.05315 343.1219Q244.05315 342.6219 244.25627 342.2Q244.4594 341.77814 244.8344 341.46564Q245.22502 341.15314 245.75627 340.98126Q246.28752 340.79376 246.94377 340.79376Q247.91252 340.79376 248.5844 341.16876Q249.25627 341.52814 249.60002 342.1219Q249.9594 342.71564 249.9594 343.3719L248.8344 343.3719Q248.8344 342.90314 248.61565 342.52814Q248.41252 342.15314 247.99065 341.95Q247.5844 341.73126 246.94377 341.73126Q246.35002 341.73126 245.94377 341.91876Q245.55315 342.09064 245.36565 342.40314Q245.17815 342.71564 245.17815 343.10626Q245.17815 343.3719 245.28752 343.60626Q245.41252 343.825 245.6469 344.0125Q245.8969 344.2 246.2719 344.35626Q246.6469 344.5125 247.17815 344.65314Q247.8969 344.85626 248.42815 345.1219Q248.9594 345.3719 249.30315 345.6844Q249.6469 345.9969 249.80315 346.3875Q249.97502 346.77814 249.97502 347.27814Q249.97502 347.8094 249.75627 348.23126Q249.55315 348.65314 249.16252 348.95Q248.7719 349.2469 248.22502 349.41876Q247.67815 349.575 247.00627 349.575Q246.41252 349.575 245.8344 349.40314Q245.2719 349.23126 244.80315 348.90314Q244.3344 348.575 244.05315 348.10626Q243.7719 347.6219 243.7719 346.98126L244.8969 346.98126Q244.8969 347.41876 245.06877 347.73126Q245.24065 348.04376 245.53752 348.2469Q245.8344 348.45 246.2094 348.5594Q246.5844 348.65314 247.00627 348.65314Q247.60002 348.65314 248.00627 348.4969Q248.41252 348.325 248.61565 348.02814Q248.8344 347.71564 248.8344 347.29376ZM252.22502 340.45L252.22502 349.45L251.13127 349.45L251.13127 340.45L252.22502 340.45ZM256.10004 343.10626L253.3344 346.075L251.78752 347.66876L251.69377 346.5125L252.80315 345.2L254.7719 343.10626L256.10004 343.10626ZM255.10002 349.45L252.8344 346.41876L253.3969 345.46564L256.3813 349.45L255.10002 349.45ZM258.30316 343.10626L258.30316 349.45L257.22504 349.45L257.22504 343.10626L258.30316 343.10626ZM257.1313 341.4344Q257.1313 341.16876 257.28754 340.98126Q257.4594 340.79376 257.7719 340.79376Q258.0844 340.79376 258.24066 340.98126Q258.41254 341.16876 258.41254 341.4344Q258.41254 341.6844 258.24066 341.8719Q258.0844 342.04376 257.7719 342.04376Q257.4594 342.04376 257.28754 341.8719Q257.1313 341.6844 257.1313 341.4344ZM261.30316 340.45L261.30316 349.45L260.22504 349.45L260.22504 340.45L261.30316 340.45ZM264.30316 340.45L264.30316 349.45L263.22504 349.45L263.22504 340.45L264.30316 340.45ZM266.1313 340.45L267.2094 340.45L267.2094 348.21564L267.11566 349.45L266.1313 349.45L266.1313 340.45ZM271.49066 346.23126L271.49066 346.35626Q271.49066 347.04376 271.3188 347.6375Q271.16254 348.21564 270.85004 348.65314Q270.53754 349.09064 270.0688 349.34064Q269.61566 349.575 269.03754 349.575Q268.42816 349.575 267.97504 349.3719Q267.5219 349.15314 267.2094 348.7625Q266.8969 348.3719 266.7094 347.8094Q266.5219 347.2469 266.4594 346.5594L266.4594 346.0125Q266.5219 345.3094 266.7094 344.7625Q266.8969 344.2 267.2094 343.8094Q267.5219 343.40314 267.97504 343.2Q268.42816 342.9969 269.0219 342.9969Q269.61566 342.9969 270.0688 343.23126Q270.53754 343.45 270.85004 343.8875Q271.16254 344.3094 271.3188 344.90314Q271.49066 345.4969 271.49066 346.23126ZM270.41254 346.35626L270.41254 346.23126Q270.41254 345.7469 270.3188 345.34064Q270.22504 344.91876 270.03754 344.60626Q269.85004 344.27814 269.5219 344.09064Q269.2094 343.90314 268.7563 343.90314Q268.3344 343.90314 268.03754 344.04376Q267.74066 344.1844 267.5219 344.4344Q267.3188 344.66876 267.17816 344.96564Q267.05316 345.2625 266.99066 345.59064L266.99066 346.9969Q267.0844 347.40314 267.28754 347.79376Q267.5063 348.16876 267.86566 348.41876Q268.22504 348.65314 268.7563 348.65314Q269.1938 348.65314 269.5063 348.48126Q269.8344 348.29376 270.0219 347.98126Q270.22504 347.65314 270.3188 347.2469Q270.41254 346.825 270.41254 346.35626ZM272.85004 346.35626L272.85004 346.21564Q272.85004 345.52814 273.03754 344.95Q273.24066 344.35626 273.61566 343.91876Q273.99066 343.48126 274.5219 343.2469Q275.05316 342.9969 275.72504 342.9969Q276.3813 342.9969 276.91254 343.2469Q277.4594 343.48126 277.8344 343.91876Q278.2094 344.35626 278.41254 344.95Q278.61566 345.52814 278.61566 346.21564L278.61566 346.35626Q278.61566 347.02814 278.41254 347.6219Q278.2094 348.2 277.8344 348.6375Q277.4594 349.075 276.92816 349.325Q276.3969 349.575 275.72504 349.575Q275.0688 349.575 274.5219 349.325Q273.99066 349.075 273.61566 348.6375Q273.24066 348.2 273.03754 347.6219Q272.85004 347.02814 272.85004 346.35626ZM273.92816 346.21564L273.92816 346.35626Q273.92816 346.825 274.03754 347.2469Q274.1469 347.66876 274.36566 347.9969Q274.60004 348.3094 274.9438 348.4969Q275.28754 348.66876 275.72504 348.66876Q276.17816 348.66876 276.5063 348.4969Q276.85004 348.3094 277.0688 347.9969Q277.30316 347.66876 277.41254 347.2469Q277.5219 346.825 277.5219 346.35626L277.5219 346.21564Q277.5219 345.7469 277.41254 345.325Q277.30316 344.90314 277.0688 344.59064Q276.85004 344.2625 276.5063 344.075Q276.17816 343.8875 275.72504 343.8875Q275.2719 343.8875 274.92816 344.075Q274.60004 344.2625 274.36566 344.59064Q274.1469 344.90314 274.03754 345.325Q273.92816 345.7469 273.92816 346.21564ZM280.86566 343.10626L282.2563 345.41876L283.66254 343.10626L284.92816 343.10626L282.85004 346.23126L284.99066 349.45L283.74066 349.45L282.2719 347.075L280.80316 349.45L279.55316 349.45L281.67816 346.23126L279.61566 343.10626L280.86566 343.10626Z" fill-rule="nonzero"/><path fill="#000000" d="M332.89996 340.91876L332.89996 349.45L331.77496 349.45L331.77496 340.91876L332.89996 340.91876ZM335.6031 344.46564L335.6031 349.45L334.52496 349.45L334.52496 343.10626L335.5562 343.10626L335.6031 344.46564ZM335.3531 346.04376L334.89996 346.02814Q334.89996 345.3719 335.08746 344.825Q335.27496 344.2625 335.6187 343.85626Q335.96246 343.45 336.4312 343.23126Q336.89996 342.9969 337.4781 342.9969Q337.94684 342.9969 338.32184 343.1219Q338.69684 343.2469 338.96246 343.52814Q339.2281 343.79376 339.3687 344.23126Q339.50934 344.66876 339.50934 345.29376L339.50934 349.45L338.4156 349.45L338.4156 345.27814Q338.4156 344.77814 338.27496 344.48126Q338.13434 344.1844 337.8531 344.04376Q337.57184 343.90314 337.14996 343.90314Q336.7437 343.90314 336.4156 344.075Q336.08746 344.2469 335.8531 344.54376Q335.6187 344.84064 335.4781 345.23126Q335.3531 345.60626 335.3531 346.04376ZM345.21246 347.7625Q345.21246 347.52814 345.1031 347.325Q345.00934 347.1219 344.69684 346.96564Q344.38434 346.79376 343.75934 346.66876Q343.2281 346.5594 342.8062 346.41876Q342.38434 346.2625 342.08746 346.04376Q341.7906 345.825 341.63434 345.52814Q341.4781 345.23126 341.4781 344.84064Q341.4781 344.46564 341.63434 344.1375Q341.8062 343.79376 342.1031 343.54376Q342.4156 343.27814 342.8531 343.1375Q343.2906 342.9969 343.82184 342.9969Q344.58746 342.9969 345.1187 343.2625Q345.6656 343.52814 345.94684 343.98126Q346.2281 344.4344 346.2281 344.96564L345.14996 344.96564Q345.14996 344.71564 344.9937 344.46564Q344.83746 344.21564 344.5406 344.0594Q344.2437 343.8875 343.82184 343.8875Q343.3687 343.8875 343.08746 344.02814Q342.8062 344.15314 342.6812 344.3719Q342.5562 344.575 342.5562 344.8094Q342.5562 344.9969 342.6187 345.1375Q342.6812 345.2625 342.83746 345.3875Q342.9937 345.4969 343.27496 345.60626Q343.57184 345.7 344.02496 345.79376Q344.8062 345.96564 345.3062 346.21564Q345.8062 346.46564 346.0562 346.825Q346.3062 347.16876 346.3062 347.6844Q346.3062 348.10626 346.1187 348.45Q345.94684 348.79376 345.6187 349.04376Q345.3062 349.29376 344.8531 349.4344Q344.39996 349.575 343.8531 349.575Q343.00934 349.575 342.4312 349.27814Q341.8531 348.96564 341.5562 348.4969Q341.25934 348.0125 341.25934 347.4969L342.33746 347.4969Q342.3687 347.9344 342.6031 348.2Q342.83746 348.46564 343.1656 348.575Q343.50934 348.66876 343.8531 348.66876Q344.2906 348.66876 344.58746 348.5594Q344.89996 348.4344 345.0562 348.23126Q345.21246 348.02814 345.21246 347.7625ZM348.69684 343.10626L348.69684 349.45L347.6187 349.45L347.6187 343.10626L348.69684 343.10626ZM347.52496 341.4344Q347.52496 341.16876 347.6812 340.98126Q347.8531 340.79376 348.1656 340.79376Q348.4781 340.79376 348.63434 340.98126Q348.8062 341.16876 348.8062 341.4344Q348.8062 341.6844 348.63434 341.8719Q348.4781 342.04376 348.1656 342.04376Q347.8531 342.04376 347.6812 341.8719Q347.52496 341.6844 347.52496 341.4344ZM354.52496 348.21564L354.52496 340.45L355.6031 340.45L355.6031 349.45L354.6187 349.45L354.52496 348.21564ZM350.25934 346.35626L350.25934 346.23126Q350.25934 345.4969 350.4312 344.90314Q350.6187 344.3094 350.94684 343.8875Q351.27496 343.45 351.7281 343.23126Q352.19684 342.9969 352.75934 342.9969Q353.3531 342.9969 353.8062 343.2Q354.25934 343.40314 354.57184 343.8094Q354.88434 344.2 355.0562 344.7625Q355.2437 345.3094 355.32184 346.0125L355.32184 346.5594Q355.25934 347.2469 355.07184 347.8094Q354.88434 348.3719 354.57184 348.7625Q354.25934 349.15314 353.8062 349.3719Q353.3531 349.575 352.7437 349.575Q352.19684 349.575 351.7281 349.34064Q351.27496 349.09064 350.94684 348.65314Q350.6187 348.21564 350.4312 347.6375Q350.25934 347.04376 350.25934 346.35626ZM351.33746 346.23126L351.33746 346.35626Q351.33746 346.825 351.4312 347.2469Q351.5406 347.65314 351.7437 347.98126Q351.94684 348.29376 352.25934 348.48126Q352.58746 348.65314 353.02496 348.65314Q353.5562 348.65314 353.89996 348.41876Q354.25934 348.1844 354.46246 347.8094Q354.6812 347.4344 354.7906 346.9969L354.7906 345.59064Q354.7281 345.2625 354.58746 344.96564Q354.46246 344.66876 354.2437 344.4344Q354.0406 344.1844 353.7437 344.04376Q353.44684 343.90314 353.02496 343.90314Q352.58746 343.90314 352.25934 344.09064Q351.94684 344.27814 351.7437 344.60626Q351.5406 344.91876 351.4312 345.34064Q351.33746 345.7469 351.33746 346.23126ZM360.14996 349.575Q359.4937 349.575 358.94684 349.35626Q358.4156 349.1219 358.02496 348.71564Q357.64996 348.29376 357.44684 347.73126Q357.2437 347.16876 357.2437 346.4969L357.2437 346.2625Q357.2437 345.48126 357.46246 344.8719Q357.69684 344.2625 358.08746 343.84064Q358.4781 343.41876 358.9781 343.21564Q359.4781 342.9969 360.00934 342.9969Q360.69684 342.9969 361.1812 343.23126Q361.6812 343.46564 361.9937 343.8875Q362.32184 344.29376 362.46246 344.8719Q362.6187 345.4344 362.6187 346.09064L362.6187 346.59064L357.88434 346.59064L357.88434 345.7L361.5406 345.7L361.5406 345.6219Q361.50934 345.2 361.3531 344.8094Q361.21246 344.40314 360.88434 344.15314Q360.57184 343.8875 360.00934 343.8875Q359.64996 343.8875 359.33746 344.04376Q359.02496 344.2 358.7906 344.5125Q358.57184 344.8094 358.44684 345.2469Q358.33746 345.6844 358.33746 346.2625L358.33746 346.4969Q358.33746 346.95 358.46246 347.35626Q358.58746 347.7469 358.82184 348.04376Q359.07184 348.34064 359.4156 348.5125Q359.77496 348.6844 360.21246 348.6844Q360.7906 348.6844 361.1812 348.45Q361.58746 348.21564 361.88434 347.825L362.5406 348.34064Q362.33746 348.65314 362.00934 348.9344Q361.69684 349.21564 361.2281 349.40314Q360.77496 349.575 360.14996 349.575ZM364.6031 344.10626L364.6031 349.45L363.52496 349.45L363.52496 343.10626L364.57184 343.10626L364.6031 344.10626ZM366.58746 343.075L366.58746 344.075Q366.44684 344.0594 366.32184 344.04376Q366.21246 344.02814 366.0562 344.02814Q365.6812 344.02814 365.38434 344.15314Q365.1031 344.2625 364.89996 344.48126Q364.71246 344.6844 364.58746 344.98126Q364.4781 345.27814 364.44684 345.6219L364.13434 345.79376Q364.13434 345.21564 364.2437 344.71564Q364.3687 344.21564 364.6031 343.825Q364.8531 343.4344 365.21246 343.21564Q365.58746 342.9969 366.1031 342.9969Q366.2281 342.9969 366.3687 343.02814Q366.52496 343.04376 366.58746 343.075Z" fill-rule="nonzero"/><path fill="#000000" d="M406.88742 345.2L406.88742 348.325Q406.73117 348.5594 406.38742 348.85626Q406.04367 349.1375 405.4343 349.35626Q404.82492 349.575 403.8718 349.575Q403.09055 349.575 402.4343 349.3094Q401.77805 349.02814 401.29367 348.4969Q400.82492 347.96564 400.5593 347.21564Q400.3093 346.46564 400.3093 345.5125L400.3093 344.85626Q400.3093 343.8875 400.52805 343.1375Q400.76242 342.3875 401.19992 341.8719Q401.63742 341.34064 402.27805 341.075Q402.91867 340.79376 403.7468 340.79376Q404.71555 340.79376 405.3718 341.1375Q406.04367 341.48126 406.40305 342.075Q406.77805 342.65314 406.88742 343.41876L405.76242 343.41876Q405.6843 342.95 405.44992 342.575Q405.23117 342.1844 404.8093 341.96564Q404.40305 341.73126 403.7468 341.73126Q403.15305 341.73126 402.71555 341.95Q402.27805 342.15314 401.9968 342.5594Q401.71555 342.96564 401.57492 343.54376Q401.44992 344.1219 401.44992 344.84064L401.44992 345.5125Q401.44992 346.2469 401.6218 346.825Q401.79367 347.40314 402.10617 347.825Q402.4343 348.23126 402.8718 348.45Q403.32492 348.65314 403.8718 348.65314Q404.48117 348.65314 404.85617 348.54376Q405.23117 348.4344 405.4343 348.29376Q405.65305 348.15314 405.76242 348.02814L405.76242 346.1219L403.79367 346.1219L403.79367 345.2L406.88742 345.2ZM408.13742 346.35626L408.13742 346.21564Q408.13742 345.52814 408.32492 344.95Q408.52805 344.35626 408.90305 343.91876Q409.27805 343.48126 409.8093 343.2469Q410.34055 342.9969 411.01242 342.9969Q411.66867 342.9969 412.19992 343.2469Q412.7468 343.48126 413.1218 343.91876Q413.4968 344.35626 413.69992 344.95Q413.90305 345.52814 413.90305 346.21564L413.90305 346.35626Q413.90305 347.02814 413.69992 347.6219Q413.4968 348.2 413.1218 348.6375Q412.7468 349.075 412.21555 349.325Q411.6843 349.575 411.01242 349.575Q410.35617 349.575 409.8093 349.325Q409.27805 349.075 408.90305 348.6375Q408.52805 348.2 408.32492 347.6219Q408.13742 347.02814 408.13742 346.35626ZM409.21555 346.21564L409.21555 346.35626Q409.21555 346.825 409.32492 347.2469Q409.4343 347.66876 409.65305 347.9969Q409.88742 348.3094 410.23117 348.4969Q410.57492 348.66876 411.01242 348.66876Q411.46555 348.66876 411.79367 348.4969Q412.13742 348.3094 412.35617 347.9969Q412.59055 347.66876 412.69992 347.2469Q412.8093 346.825 412.8093 346.35626L412.8093 346.21564Q412.8093 345.7469 412.69992 345.325Q412.59055 344.90314 412.35617 344.59064Q412.13742 344.2625 411.79367 344.075Q411.46555 343.8875 411.01242 343.8875Q410.5593 343.8875 410.21555 344.075Q409.88742 344.2625 409.65305 344.59064Q409.4343 344.90314 409.32492 345.325Q409.21555 345.7469 409.21555 346.21564ZM415.13742 346.35626L415.13742 346.21564Q415.13742 345.52814 415.32492 344.95Q415.52805 344.35626 415.90305 343.91876Q416.27805 343.48126 416.8093 343.2469Q417.34055 342.9969 418.01242 342.9969Q418.66867 342.9969 419.19992 343.2469Q419.7468 343.48126 420.1218 343.91876Q420.4968 344.35626 420.69992 344.95Q420.90305 345.52814 420.90305 346.21564L420.90305 346.35626Q420.90305 347.02814 420.69992 347.6219Q420.4968 348.2 420.1218 348.6375Q419.7468 349.075 419.21555 349.325Q418.6843 349.575 418.01242 349.575Q417.35617 349.575 416.8093 349.325Q416.27805 349.075 415.90305 348.6375Q415.52805 348.2 415.32492 347.6219Q415.13742 347.02814 415.13742 346.35626ZM416.21555 346.21564L416.21555 346.35626Q416.21555 346.825 416.32492 347.2469Q416.4343 347.66876 416.65305 347.9969Q416.88742 348.3094 417.23117 348.4969Q417.57492 348.66876 418.01242 348.66876Q418.46555 348.66876 418.79367 348.4969Q419.13742 348.3094 419.35617 347.9969Q419.59055 347.66876 419.69992 347.2469Q419.8093 346.825 419.8093 346.35626L419.8093 346.21564Q419.8093 345.7469 419.69992 345.325Q419.59055 344.90314 419.35617 344.59064Q419.13742 344.2625 418.79367 344.075Q418.46555 343.8875 418.01242 343.8875Q417.5593 343.8875 417.21555 344.075Q416.88742 344.2625 416.65305 344.59064Q416.4343 344.90314 416.32492 345.325Q416.21555 345.7469 416.21555 346.21564ZM426.52805 343.10626L427.51242 343.10626L427.51242 349.3094Q427.51242 350.15314 427.16867 350.7469Q426.82492 351.34064 426.21555 351.6375Q425.6218 351.95 424.82492 351.95Q424.4968 351.95 424.04367 351.84064Q423.60617 351.7469 423.1843 351.4969Q422.76242 351.2625 422.48117 350.85626L423.04367 350.2Q423.44992 350.6844 423.8718 350.8719Q424.3093 351.0594 424.7468 351.0594Q425.26242 351.0594 425.63742 350.85626Q426.01242 350.66876 426.21555 350.29376Q426.41867 349.91876 426.41867 349.3719L426.41867 344.4969L426.52805 343.10626ZM422.15305 346.35626L422.15305 346.23126Q422.15305 345.4969 422.32492 344.90314Q422.51242 344.3094 422.82492 343.8875Q423.15305 343.45 423.60617 343.23126Q424.07492 342.9969 424.66867 342.9969Q425.26242 342.9969 425.69992 343.2Q426.15305 343.40314 426.46555 343.8094Q426.77805 344.2 426.96555 344.7625Q427.15305 345.3094 427.21555 346.0125L427.21555 346.5594Q427.15305 347.2469 426.96555 347.8094Q426.77805 348.3719 426.46555 348.7625Q426.15305 349.15314 425.69992 349.3719Q425.2468 349.575 424.65305 349.575Q424.07492 349.575 423.6218 349.34064Q423.16867 349.09064 422.84055 348.65314Q422.51242 348.21564 422.32492 347.6375Q422.15305 347.04376 422.15305 346.35626ZM423.2468 346.23126L423.2468 346.35626Q423.2468 346.825 423.34055 347.2469Q423.4343 347.65314 423.63742 347.98126Q423.84055 348.29376 424.15305 348.48126Q424.48117 348.65314 424.91867 348.65314Q425.44992 348.65314 425.79367 348.41876Q426.15305 348.1844 426.35617 347.8094Q426.57492 347.4344 426.6843 346.9969L426.6843 345.59064Q426.6218 345.2625 426.48117 344.96564Q426.35617 344.66876 426.15305 344.4344Q425.94992 344.1844 425.63742 344.04376Q425.34055 343.90314 424.91867 343.90314Q424.48117 343.90314 424.15305 344.09064Q423.84055 344.27814 423.63742 344.60626Q423.4343 344.91876 423.34055 345.34064Q423.2468 345.7469 423.2468 346.23126ZM430.59055 340.45L430.59055 349.45L429.51242 349.45L429.51242 340.45L430.59055 340.45ZM435.04367 349.575Q434.38742 349.575 433.84055 349.35626Q433.3093 349.1219 432.91867 348.71564Q432.54367 348.29376 432.34055 347.73126Q432.13742 347.16876 432.13742 346.4969L432.13742 346.2625Q432.13742 345.48126 432.35617 344.8719Q432.59055 344.2625 432.98117 343.84064Q433.3718 343.41876 433.8718 343.21564Q434.3718 342.9969 434.90305 342.9969Q435.59055 342.9969 436.07492 343.23126Q436.57492 343.46564 436.88742 343.8875Q437.21555 344.29376 437.35617 344.8719Q437.51242 345.4344 437.51242 346.09064L437.51242 346.59064L432.77805 346.59064L432.77805 345.7L436.4343 345.7L436.4343 345.6219Q436.40305 345.2 436.2468 344.8094Q436.10617 344.40314 435.77805 344.15314Q435.46555 343.8875 434.90305 343.8875Q434.54367 343.8875 434.23117 344.04376Q433.91867 344.2 433.6843 344.5125Q433.46555 344.8094 433.34055 345.2469Q433.23117 345.6844 433.23117 346.2625L433.23117 346.4969Q433.23117 346.95 433.35617 347.35626Q433.48117 347.7469 433.71555 348.04376Q433.96555 348.34064 434.3093 348.5125Q434.66867 348.6844 435.10617 348.6844Q435.6843 348.6844 436.07492 348.45Q436.48117 348.21564 436.77805 347.825L437.4343 348.34064Q437.23117 348.65314 436.90305 348.9344Q436.59055 349.21564 436.1218 349.40314Q435.66867 349.575 435.04367 349.575ZM443.02805 349.45L441.94992 349.45L441.94992 342.4344Q441.94992 341.7625 442.19992 341.29376Q442.44992 340.8094 442.91867 340.575Q443.38742 340.325 444.02805 340.325Q444.21555 340.325 444.40305 340.35626Q444.60617 340.3719 444.77805 340.41876L444.71555 341.3094Q444.60617 341.27814 444.44992 341.2625Q444.29367 341.2469 444.13742 341.2469Q443.79367 341.2469 443.54367 341.3875Q443.29367 341.52814 443.15305 341.79376Q443.02805 342.0594 443.02805 342.4344L443.02805 349.45ZM444.38742 343.10626L444.38742 343.9344L440.94992 343.9344L440.94992 343.10626L444.38742 343.10626ZM445.13742 346.35626L445.13742 346.21564Q445.13742 345.52814 445.32492 344.95Q445.52805 344.35626 445.90305 343.91876Q446.27805 343.48126 446.8093 343.2469Q447.34055 342.9969 448.01242 342.9969Q448.66867 342.9969 449.19992 343.2469Q449.7468 343.48126 450.1218 343.91876Q450.4968 344.35626 450.69992 344.95Q450.90305 345.52814 450.90305 346.21564L450.90305 346.35626Q450.90305 347.02814 450.69992 347.6219Q450.4968 348.2 450.1218 348.6375Q449.7468 349.075 449.21555 349.325Q448.6843 349.575 448.01242 349.575Q447.35617 349.575 446.8093 349.325Q446.27805 349.075 445.90305 348.6375Q445.52805 348.2 445.32492 347.6219Q445.13742 347.02814 445.13742 346.35626ZM446.21555 346.21564L446.21555 346.35626Q446.21555 346.825 446.32492 347.2469Q446.4343 347.66876 446.65305 347.9969Q446.88742 348.3094 447.23117 348.4969Q447.57492 348.66876 448.01242 348.66876Q448.46555 348.66876 448.79367 348.4969Q449.13742 348.3094 449.35617 347.9969Q449.59055 347.66876 449.69992 347.2469Q449.8093 346.825 449.8093 346.35626L449.8093 346.21564Q449.8093 345.7469 449.69992 345.325Q449.59055 344.90314 449.35617 344.59064Q449.13742 344.2625 448.79367 344.075Q448.46555 343.8875 448.01242 343.8875Q447.5593 343.8875 447.21555 344.075Q446.88742 344.2625 446.65305 344.59064Q446.4343 344.90314 446.32492 345.325Q446.21555 345.7469 446.21555 346.21564ZM453.4968 344.10626L453.4968 349.45L452.41867 349.45L452.41867 343.10626L453.46555 343.10626L453.4968 344.10626ZM455.48117 343.075L455.48117 344.075Q455.34055 344.0594 455.21555 344.04376Q455.10617 344.02814 454.94992 344.02814Q454.57492 344.02814 454.27805 344.15314Q453.9968 344.2625 453.79367 344.48126Q453.60617 344.6844 453.48117 344.98126Q453.3718 345.27814 453.34055 345.6219L453.02805 345.79376Q453.02805 345.21564 453.13742 344.71564Q453.26242 344.21564 453.4968 343.825Q453.7468 343.4344 454.10617 343.21564Q454.48117 342.9969 454.9968 342.9969Q455.1218 342.9969 455.26242 343.02814Q455.41867 343.04376 455.48117 343.075ZM457.4968 344.3719L457.4968 349.45L456.40305 349.45L456.40305 343.10626L457.4343 343.10626L457.4968 344.3719ZM457.27805 346.04376L456.76242 346.02814Q456.77805 345.3719 456.9343 344.825Q457.10617 344.2625 457.41867 343.85626Q457.7468 343.45 458.23117 343.23126Q458.71555 342.9969 459.34055 342.9969Q459.79367 342.9969 460.16867 343.1219Q460.54367 343.2469 460.8093 343.5125Q461.09055 343.77814 461.23117 344.2Q461.38742 344.6219 461.38742 345.23126L461.38742 349.45L460.3093 349.45L460.3093 345.27814Q460.3093 344.77814 460.13742 344.48126Q459.98117 344.1844 459.66867 344.04376Q459.3718 343.90314 458.94992 343.90314Q458.48117 343.90314 458.15305 344.075Q457.82492 344.2469 457.63742 344.54376Q457.44992 344.84064 457.35617 345.23126Q457.27805 345.60626 457.27805 346.04376ZM461.38742 345.4344L460.65305 345.66876Q460.65305 345.1375 460.82492 344.66876Q460.9968 344.1844 461.3093 343.8094Q461.63742 343.4344 462.10617 343.21564Q462.57492 342.9969 463.16867 342.9969Q463.6843 342.9969 464.07492 343.1375Q464.48117 343.2625 464.7468 343.54376Q465.01242 343.825 465.15305 344.2625Q465.29367 344.6844 465.29367 345.27814L465.29367 349.45L464.21555 349.45L464.21555 345.27814Q464.21555 344.73126 464.04367 344.45Q463.8718 344.15314 463.57492 344.02814Q463.27805 343.90314 462.85617 343.90314Q462.4968 343.90314 462.21555 344.02814Q461.94992 344.15314 461.76242 344.3719Q461.57492 344.575 461.48117 344.85626Q461.38742 345.1375 461.38742 345.4344Z" fill-rule="nonzero"/><path fill="#000000" d="M501.78113 349.45L499.99988 349.45L500.0155 348.52814L501.78113 348.52814Q502.703 348.52814 503.31238 348.15314Q503.92175 347.7625 504.21863 347.075Q504.53113 346.3719 504.53113 345.4344L504.53113 344.91876Q504.53113 344.1844 504.35925 343.6219Q504.18738 343.04376 503.84363 342.65314Q503.49988 342.2469 502.99988 342.04376Q502.5155 341.84064 501.8905 341.84064L499.96863 341.84064L499.96863 340.91876L501.8905 340.91876Q502.73425 340.91876 503.42175 341.2Q504.10925 341.48126 504.60925 342.0125Q505.10925 342.52814 505.37488 343.27814Q505.65613 344.0125 505.65613 344.9344L505.65613 345.4344Q505.65613 346.3719 505.37488 347.1219Q505.10925 347.85626 504.59363 348.3719Q504.09363 348.8875 503.37488 349.16876Q502.67175 349.45 501.78113 349.45ZM500.60925 340.91876L500.60925 349.45L499.46863 349.45L499.46863 340.91876L500.60925 340.91876ZM508.48425 343.10626L508.48425 349.45L507.40613 349.45L507.40613 343.10626L508.48425 343.10626ZM507.31238 341.4344Q507.31238 341.16876 507.46863 340.98126Q507.6405 340.79376 507.953 340.79376Q508.2655 340.79376 508.42175 340.98126Q508.59363 341.16876 508.59363 341.4344Q508.59363 341.6844 508.42175 341.8719Q508.2655 342.04376 507.953 342.04376Q507.6405 342.04376 507.46863 341.8719Q507.31238 341.6844 507.31238 341.4344ZM513.9999 347.7625Q513.9999 347.52814 513.8905 347.325Q513.79675 347.1219 513.48425 346.96564Q513.17175 346.79376 512.54675 346.66876Q512.0155 346.5594 511.59363 346.41876Q511.17175 346.2625 510.87488 346.04376Q510.578 345.825 510.42175 345.52814Q510.2655 345.23126 510.2655 344.84064Q510.2655 344.46564 510.42175 344.1375Q510.59363 343.79376 510.8905 343.54376Q511.203 343.27814 511.6405 343.1375Q512.078 342.9969 512.60925 342.9969Q513.3749 342.9969 513.9061 343.2625Q514.453 343.52814 514.73425 343.98126Q515.0155 344.4344 515.0155 344.96564L513.9374 344.96564Q513.9374 344.71564 513.7811 344.46564Q513.6249 344.21564 513.328 344.0594Q513.0311 343.8875 512.60925 343.8875Q512.1561 343.8875 511.87488 344.02814Q511.59363 344.15314 511.46863 344.3719Q511.34363 344.575 511.34363 344.8094Q511.34363 344.9969 511.40613 345.1375Q511.46863 345.2625 511.62488 345.3875Q511.78113 345.4969 512.0624 345.60626Q512.35925 345.7 512.8124 345.79376Q513.5936 345.96564 514.0936 346.21564Q514.5936 346.46564 514.8436 346.825Q515.0936 347.16876 515.0936 347.6844Q515.0936 348.10626 514.9061 348.45Q514.73425 348.79376 514.4061 349.04376Q514.0936 349.29376 513.6405 349.4344Q513.1874 349.575 512.6405 349.575Q511.79675 349.575 511.21863 349.27814Q510.6405 348.96564 510.34363 348.4969Q510.04675 348.0125 510.04675 347.4969L511.12488 347.4969Q511.15613 347.9344 511.3905 348.2Q511.62488 348.46564 511.953 348.575Q512.29675 348.66876 512.6405 348.66876Q513.078 348.66876 513.3749 348.5594Q513.6874 348.4344 513.8436 348.23126Q513.9999 348.02814 513.9999 347.7625ZM518.9686 343.10626L518.9686 343.9344L515.5311 343.9344L515.5311 343.10626L518.9686 343.10626ZM516.703 341.575L517.7811 341.575L517.7811 347.8719Q517.7811 348.2 517.8749 348.3719Q517.98425 348.52814 518.1405 348.59064Q518.29675 348.6375 518.48425 348.6375Q518.60925 348.6375 518.7499 348.60626Q518.9061 348.575 518.98425 348.5594L518.9999 349.45Q518.85925 349.4969 518.6561 349.52814Q518.453 349.575 518.1561 349.575Q517.7655 349.575 517.42175 349.41876Q517.0936 349.2469 516.8905 348.8875Q516.703 348.5125 516.703 347.8719L516.703 341.575ZM521.3905 344.10626L521.3905 349.45L520.3124 349.45L520.3124 343.10626L521.35925 343.10626L521.3905 344.10626ZM523.3749 343.075L523.3749 344.075Q523.23425 344.0594 523.10925 344.04376Q522.9999 344.02814 522.8436 344.02814Q522.4686 344.02814 522.17175 344.15314Q521.8905 344.2625 521.6874 344.48126Q521.4999 344.6844 521.3749 344.98126Q521.2655 345.27814 521.23425 345.6219L520.92175 345.79376Q520.92175 345.21564 521.0311 344.71564Q521.1561 344.21564 521.3905 343.825Q521.6405 343.4344 521.9999 343.21564Q522.3749 342.9969 522.8905 342.9969Q523.0155 342.9969 523.1561 343.02814Q523.3124 343.04376 523.3749 343.075ZM525.48425 343.10626L525.48425 349.45L524.4061 349.45L524.4061 343.10626L525.48425 343.10626ZM524.3124 341.4344Q524.3124 341.16876 524.4686 340.98126Q524.6405 340.79376 524.953 340.79376Q525.2655 340.79376 525.42175 340.98126Q525.5936 341.16876 525.5936 341.4344Q525.5936 341.6844 525.42175 341.8719Q525.2655 342.04376 524.953 342.04376Q524.6405 342.04376 524.4686 341.8719Q524.3124 341.6844 524.3124 341.4344ZM529.8436 348.66876Q530.23425 348.66876 530.5624 348.5125Q530.8905 348.35626 531.0936 348.09064Q531.3124 347.8094 531.3436 347.45L532.3749 347.45Q532.3436 348.0125 531.98425 348.4969Q531.6405 348.98126 531.078 349.27814Q530.5155 349.575 529.8436 349.575Q529.1405 349.575 528.60925 349.325Q528.078 349.0594 527.7186 348.6219Q527.3749 348.1844 527.203 347.6219Q527.0311 347.04376 527.0311 346.40314L527.0311 346.15314Q527.0311 345.5125 527.203 344.95Q527.3749 344.3719 527.7186 343.9344Q528.078 343.4969 528.60925 343.2469Q529.1405 342.9969 529.8436 342.9969Q530.5936 342.9969 531.1405 343.29376Q531.703 343.59064 532.0155 344.1219Q532.3436 344.6375 532.3749 345.29376L531.3436 345.29376Q531.3124 344.90314 531.1249 344.59064Q530.9374 344.2625 530.60925 344.075Q530.2811 343.8875 529.8436 343.8875Q529.3436 343.8875 528.9999 344.09064Q528.67175 344.27814 528.4686 344.60626Q528.2811 344.9344 528.1874 345.34064Q528.10925 345.7469 528.10925 346.15314L528.10925 346.40314Q528.10925 346.825 528.1874 347.23126Q528.2811 347.6219 528.4686 347.95Q528.67175 348.27814 528.9999 348.48126Q529.3436 348.66876 529.8436 348.66876ZM535.9686 343.10626L535.9686 343.9344L532.5311 343.9344L532.5311 343.10626L535.9686 343.10626ZM533.703 341.575L534.7811 341.575L534.7811 347.8719Q534.7811 348.2 534.8749 348.3719Q534.98425 348.52814 535.1405 348.59064Q535.29675 348.6375 535.48425 348.6375Q535.60925 348.6375 535.7499 348.60626Q535.9061 348.575 535.98425 348.5594L535.9999 349.45Q535.85925 349.4969 535.6561 349.52814Q535.453 349.575 535.1561 349.575Q534.7655 349.575 534.42175 349.41876Q534.0936 349.2469 533.8905 348.8875Q533.703 348.5125 533.703 347.8719L533.703 341.575Z" fill-rule="nonzero"/><path fill="#434343" d="M253.40625 23.33125L253.40625 37.55L251.54688 37.55L251.54688 23.33125L253.40625 23.33125ZM257.96875 23.33125L257.96875 24.878124L246.98438 24.878124L246.98438 23.33125L257.96875 23.33125ZM261.84375 26.9875L261.84375 37.55L260.03125 37.55L260.03125 26.9875L261.84375 26.9875ZM259.89062 24.175Q259.89062 23.7375 260.15625 23.440624Q260.42188 23.128124 260.95312 23.128124Q261.46875 23.128124 261.75 23.440624Q262.03125 23.7375 262.03125 24.175Q262.03125 24.596874 261.75 24.89375Q261.46875 25.190624 260.95312 25.190624Q260.42188 25.190624 260.15625 24.89375Q259.89062 24.596874 259.89062 24.175ZM269.10938 36.253124Q269.75 36.253124 270.29688 36.003124Q270.84375 35.7375 271.1875 35.26875Q271.54688 34.8 271.59375 34.20625L273.3125 34.20625Q273.26562 35.14375 272.6875 35.95625Q272.10938 36.753124 271.17188 37.253124Q270.23438 37.753124 269.10938 37.753124Q267.92188 37.753124 267.03125 37.33125Q266.14062 36.909374 265.5625 36.175Q264.98438 35.440624 264.6875 34.4875Q264.40625 33.534374 264.40625 32.471874L264.40625 32.065624Q264.40625 31.003124 264.6875 30.05Q264.98438 29.096874 265.5625 28.3625Q266.14062 27.628124 267.03125 27.20625Q267.92188 26.784374 269.10938 26.784374Q270.34375 26.784374 271.26562 27.3Q272.20312 27.8 272.73438 28.659374Q273.26562 29.51875 273.3125 30.6125L271.59375 30.6125Q271.54688 29.95625 271.21875 29.440624Q270.90625 28.909374 270.35938 28.596874Q269.82812 28.26875 269.10938 28.26875Q268.28125 28.26875 267.71875 28.596874Q267.15625 28.925 266.82812 29.4875Q266.5 30.034374 266.35938 30.70625Q266.21875 31.3625 266.21875 32.065624L266.21875 32.471874Q266.21875 33.159374 266.34375 33.846874Q266.48438 34.51875 266.8125 35.065624Q267.14062 35.6125 267.70312 35.940624Q268.26562 36.253124 269.10938 36.253124ZM276.6875 22.55L276.6875 37.55L274.875 37.55L274.875 22.55L276.6875 22.55ZM283.15625 26.9875L278.54688 31.909374L275.96875 34.596874L275.8125 32.659374L277.65625 30.45625L280.9375 26.9875L283.15625 26.9875ZM281.5 37.55L277.73438 32.503124L278.67188 30.89375L283.625 37.55L281.5 37.55ZM289.26562 37.753124Q288.15625 37.753124 287.26562 37.378124Q286.375 36.9875 285.73438 36.315624Q285.09375 35.628124 284.75 34.690624Q284.40625 33.753124 284.40625 32.64375L284.40625 32.221874Q284.40625 30.940624 284.78125 29.925Q285.17188 28.909374 285.82812 28.20625Q286.48438 27.503124 287.3125 27.14375Q288.14062 26.784374 289.03125 26.784374Q290.15625 26.784374 290.98438 27.175Q291.8125 27.565624 292.32812 28.26875Q292.85938 28.971874 293.10938 29.909374Q293.375 30.846874 293.375 31.95625L293.375 32.76875L285.48438 32.76875L285.48438 31.3L291.5625 31.3L291.5625 31.159374Q291.53125 30.45625 291.28125 29.8Q291.03125 29.128124 290.48438 28.70625Q289.95312 28.26875 289.03125 28.26875Q288.40625 28.26875 287.89062 28.534374Q287.375 28.784374 287.0 29.3Q286.64062 29.8 286.42188 30.534374Q286.21875 31.26875 286.21875 32.221874L286.21875 32.64375Q286.21875 33.39375 286.42188 34.05Q286.64062 34.70625 287.04688 35.20625Q287.45312 35.70625 288.03125 35.9875Q288.625 36.26875 289.35938 36.26875Q290.3125 36.26875 290.96875 35.878124Q291.64062 35.4875 292.14062 34.83125L293.23438 35.70625Q292.89062 36.221874 292.35938 36.690624Q291.84375 37.159374 291.07812 37.45625Q290.3125 37.753124 289.26562 37.753124ZM300.29688 26.9875L300.29688 28.3625L294.59375 28.3625L294.59375 26.9875L300.29688 26.9875ZM296.51562 24.409374L298.32812 24.409374L298.32812 34.925Q298.32812 35.471874 298.48438 35.753124Q298.65625 36.01875 298.92188 36.1125Q299.1875 36.190624 299.48438 36.190624Q299.71875 36.190624 299.96875 36.14375Q300.21875 36.096874 300.34375 36.08125L300.34375 37.55Q300.14062 37.6125 299.78125 37.675Q299.4375 37.753124 298.95312 37.753124Q298.29688 37.753124 297.73438 37.4875Q297.17188 37.221874 296.84375 36.596874Q296.51562 35.971874 296.51562 34.925L296.51562 24.409374ZM309.03125 34.753124Q309.03125 34.3625 308.85938 34.01875Q308.6875 33.675 308.15625 33.409374Q307.64062 33.128124 306.59375 32.925Q305.71875 32.7375 305.0 32.4875Q304.29688 32.221874 303.79688 31.8625Q303.3125 31.503124 303.04688 31.01875Q302.79688 30.534374 302.79688 29.878124Q302.79688 29.253124 303.0625 28.690624Q303.34375 28.128124 303.85938 27.70625Q304.375 27.26875 305.09375 27.034374Q305.8125 26.784374 306.70312 26.784374Q307.96875 26.784374 308.85938 27.2375Q309.76562 27.690624 310.25 28.440624Q310.73438 29.175 310.73438 30.08125L308.92188 30.08125Q308.92188 29.64375 308.65625 29.2375Q308.40625 28.815624 307.90625 28.55Q307.42188 28.26875 306.70312 28.26875Q305.95312 28.26875 305.48438 28.503124Q305.03125 28.7375 304.8125 29.096874Q304.60938 29.440624 304.60938 29.83125Q304.60938 30.1125 304.70312 30.346874Q304.8125 30.58125 305.07812 30.76875Q305.34375 30.95625 305.8125 31.128124Q306.29688 31.284374 307.03125 31.45625Q308.34375 31.753124 309.17188 32.159374Q310.01562 32.565624 310.42188 33.159374Q310.84375 33.753124 310.84375 34.6125Q310.84375 35.3 310.54688 35.878124Q310.26562 36.45625 309.71875 36.878124Q309.17188 37.284374 308.42188 37.51875Q307.6875 37.753124 306.75 37.753124Q305.35938 37.753124 304.39062 37.253124Q303.42188 36.753124 302.92188 35.95625Q302.42188 35.159374 302.42188 34.284374L304.25 34.284374Q304.28125 35.034374 304.67188 35.471874Q305.0625 35.89375 305.625 36.08125Q306.20312 36.253124 306.75 36.253124Q307.5 36.253124 308.0 36.065624Q308.5 35.8625 308.76562 35.534374Q309.03125 35.190624 309.03125 34.753124ZM317.40625 32.378124L317.40625 32.159374Q317.40625 31.01875 317.73438 30.034374Q318.0625 29.05 318.6875 28.33125Q319.3125 27.596874 320.20312 27.190624Q321.09375 26.784374 322.1875 26.784374Q323.3125 26.784374 324.20312 27.190624Q325.09375 27.596874 325.71875 28.33125Q326.35938 29.05 326.6875 30.034374Q327.01562 31.01875 327.01562 32.159374L327.01562 32.378124Q327.01562 33.51875 326.6875 34.503124Q326.35938 35.471874 325.71875 36.20625Q325.09375 36.940624 324.20312 37.346874Q323.32812 37.753124 322.21875 37.753124Q321.09375 37.753124 320.20312 37.346874Q319.32812 36.940624 318.6875 36.20625Q318.0625 35.471874 317.73438 34.503124Q317.40625 33.51875 317.40625 32.378124ZM319.20312 32.159374L319.20312 32.378124Q319.20312 33.175 319.39062 33.878124Q319.57812 34.565624 319.95312 35.1125Q320.32812 35.64375 320.89062 35.95625Q321.46875 36.253124 322.21875 36.253124Q322.95312 36.253124 323.51562 35.95625Q324.07812 35.64375 324.45312 35.1125Q324.82812 34.565624 325.01562 33.878124Q325.20312 33.175 325.20312 32.378124L325.20312 32.159374Q325.20312 31.378124 325.01562 30.690624Q324.82812 29.9875 324.4375 29.440624Q324.0625 28.89375 323.5 28.58125Q322.95312 28.26875 322.1875 28.26875Q321.45312 28.26875 320.89062 28.58125Q320.32812 28.89375 319.95312 29.440624Q319.57812 29.9875 319.39062 30.690624Q319.20312 31.378124 319.20312 32.159374ZM330.6875 29.2375L330.6875 37.55L328.875 37.55L328.875 26.9875L330.59375 26.9875L330.6875 29.2375ZM330.25 31.8625L329.5 31.83125Q329.51562 30.753124 329.82812 29.83125Q330.14062 28.909374 330.70312 28.221874Q331.26562 27.534374 332.04688 27.159374Q332.84375 26.784374 333.79688 26.784374Q334.57812 26.784374 335.20312 27.003124Q335.82812 27.20625 336.26562 27.675Q336.71875 28.128124 336.95312 28.8625Q337.1875 29.58125 337.1875 30.628124L337.1875 37.55L335.375 37.55L335.375 30.6125Q335.375 29.76875 335.125 29.26875Q334.89062 28.76875 334.42188 28.55Q333.95312 28.315624 333.26562 28.315624Q332.59375 28.315624 332.03125 28.596874Q331.48438 28.878124 331.07812 29.378124Q330.6875 29.878124 330.46875 30.51875Q330.25 31.159374 330.25 31.8625ZM339.90625 36.596874Q339.90625 36.128124 340.1875 35.815624Q340.48438 35.503124 341.03125 35.503124Q341.57812 35.503124 341.85938 35.815624Q342.15625 36.128124 342.15625 36.596874Q342.15625 37.034374 341.85938 37.3625Q341.57812 37.675 341.03125 37.675Q340.48438 37.675 340.1875 37.3625Q339.90625 37.034374 339.90625 36.596874ZM344.90625 36.596874Q344.90625 36.128124 345.1875 35.815624Q345.48438 35.503124 346.03125 35.503124Q346.57812 35.503124 346.85938 35.815624Q347.15625 36.128124 347.15625 36.596874Q347.15625 37.034374 346.85938 37.3625Q346.57812 37.675 346.03125 37.675Q345.48438 37.675 345.1875 37.3625Q344.90625 37.034374 344.90625 36.596874ZM349.90625 36.596874Q349.90625 36.128124 350.1875 35.815624Q350.48438 35.503124 351.03125 35.503124Q351.57812 35.503124 351.85938 35.815624Q352.15625 36.128124 352.15625 36.596874Q352.15625 37.034374 351.85938 37.3625Q351.57812 37.675 351.03125 37.675Q350.48438 37.675 350.1875 37.3625Q349.90625 37.034374 349.90625 36.596874Z" fill-rule="nonzero"/></svg>