<svg version="1.1" viewBox="0.0 0.0 600.0 371.0" fill="none" stroke="none" stroke-linecap="square" stroke-miterlimit="10" width="600" height="371" xmlns:xlink="http://www.w3.org/1999/xlink" xmlns="http://www.w3.org/2000/svg"><path fill="#ffffff" d="M0 0L600.0 0L600.0 371.0L0 371.0L0 0Z" fill-rule="nonzero"/><path stroke="#333333" stroke-width="1.0" stroke-linecap="butt" d="M76.5 300.5L581.5 300.5" fill-rule="nonzero"/><path fill="#eeeeee" d="M45.5 331.5L76.5 301.5L581.5 301.5L550.5 331.5Z" fill-rule="nonzero"/><path stroke="#cccccc" stroke-width="1.0" stroke-linecap="butt" d="M76.5 240.5L581.5 240.5" fill-rule="nonzero"/><path stroke="#cccccc" stroke-width="1.0" stroke-linecap="butt" d="M76.5 181.5L581.5 181.5" fill-rule="nonzero"/><path stroke="#cccccc" stroke-width="1.0" stroke-linecap="butt" d="M76.5 121.5L581.5 121.5" fill-rule="nonzero"/><path stroke="#cccccc" stroke-width="1.0" stroke-linecap="butt" d="M76.5 62.5L581.5 62.5" fill-rule="nonzero"/><path stroke="#000000" stroke-width="1.0" stroke-linecap="butt" stroke-opacity="0.0" d="M76.5 280.5L581.5 280.5" fill-rule="nonzero"/><path stroke="#000000" stroke-width="1.0" stroke-linecap="butt" stroke-opacity="0.0" d="M76.5 260.5L581.5 260.5" fill-rule="nonzero"/><path stroke="#000000" stroke-width="1.0" stroke-linecap="butt" stroke-opacity="0.0" d="M76.5 221.5L581.5 221.5" fill-rule="nonzero"/><path stroke="#000000" stroke-width="1.0" stroke-linecap="butt" stroke-opacity="0.0" d="M76.5 201.5L581.5 201.5" fill-rule="nonzero"/><path stroke="#000000" stroke-width="1.0" stroke-linecap="butt" stroke-opacity="0.0" d="M76.5 161.5L581.5 161.5" fill-rule="nonzero"/><path stroke="#000000" stroke-width="1.0" stroke-linecap="butt" stroke-opacity="0.0" d="M76.5 141.5L581.5 141.5" fill-rule="nonzero"/><path stroke="#000000" stroke-width="1.0" stroke-linecap="butt" stroke-opacity="0.0" d="M76.5 102.5L581.5 102.5" fill-rule="nonzero"/><path stroke="#000000" stroke-width="1.0" stroke-linecap="butt" stroke-opacity="0.0" d="M76.5 82.5L581.5 82.5" fill-rule="nonzero"/><clipPath id="id_0"><path d="M45.55 62.416668L581.45 62.416668L581.45 331.45L45.55 331.45L45.55 62.416668Z" clip-rule="nonzero"/></clipPath><path fill="#2b569f" clip-path="url(#id_0)" d="M219.0 98.0L219.0 300.0L193.0 326.0L193.0 124.0Z" fill-rule="nonzero"/><path fill="#689df6" clip-path="url(#id_0)" d="M193.0 124.0L89.0 124.0L115.0 98.0L219.0 98.0Z" fill-rule="nonzero"/><path stroke="#000000" stroke-width="2.0" stroke-linecap="butt" stroke-opacity="0.0" clip-path="url(#id_0)" d="M193.0 326.0L89.0 326.0L89.0 124.0L193.0 124.0Z" fill-rule="nonzero"/><path fill="#4285f4" clip-path="url(#id_0)" d="M193.0 326.0L89.0 326.0L89.0 124.0L193.0 124.0Z" fill-rule="nonzero"/><path fill="#2b569f" clip-path="url(#id_0)" d="M379.0 268.0L379.0 300.0L353.0 326.0L353.0 294.0Z" fill-rule="nonzero"/><path fill="#689df6" clip-path="url(#id_0)" d="M353.0 294.0L249.0 294.0L275.0 268.0L379.0 268.0Z" fill-rule="nonzero"/><path stroke="#000000" stroke-width="2.0" stroke-linecap="butt" stroke-opacity="0.0" clip-path="url(#id_0)" d="M353.0 326.0L249.0 326.0L249.0 294.0L353.0 294.0Z" fill-rule="nonzero"/><path fill="#4285f4" clip-path="url(#id_0)" d="M353.0 326.0L249.0 326.0L249.0 294.0L353.0 294.0Z" fill-rule="nonzero"/><path fill="#2b569f" clip-path="url(#id_0)" d="M538.0 297.0L538.0 300.0L512.0 326.0L512.0 323.0Z" fill-rule="nonzero"/><path fill="#689df6" clip-path="url(#id_0)" d="M512.0 323.0L408.0 323.0L434.0 297.0L538.0 297.0Z" fill-rule="nonzero"/><path stroke="#000000" stroke-width="2.0" stroke-linecap="butt" stroke-opacity="0.0" clip-path="url(#id_0)" d="M512.0 326.0L408.0 326.0L408.0 323.0L512.0 323.0Z" fill-rule="nonzero"/><path fill="#4285f4" clip-path="url(#id_0)" d="M512.0 326.0L408.0 326.0L408.0 323.0L512.0 323.0Z" fill-rule="nonzero"/><path stroke="#4285f4" stroke-width="3.0" stroke-linejoin="round" stroke-linecap="round" d="M138.875 221.23895L138.96875 221.23895L138.96875 222.16083L138.875 222.16083Q138.01562 222.16083 137.42188 222.44208Q136.84375 222.72333 136.5 223.19208Q136.17188 223.6452 136.01562 224.23895Q135.875 224.81708 135.875 225.41083L135.875 226.66083Q135.875 227.22333 136.0 227.66083Q136.14062 228.09833 136.375 228.41083Q136.60938 228.7077 136.90625 228.86395Q137.20312 229.00458 137.51562 229.00458Q137.89062 229.00458 138.1875 228.86395Q138.48438 228.72333 138.6875 228.4577Q138.89062 228.19208 138.98438 227.84833Q139.09375 227.48895 139.09375 227.05145Q139.09375 226.67645 139.0 226.31708Q138.90625 225.9577 138.71875 225.69208Q138.53125 225.41083 138.23438 225.25458Q137.9375 225.0827 137.54688 225.0827Q137.09375 225.0827 136.70312 225.30145Q136.3125 225.5202 136.0625 225.87958Q135.8125 226.23895 135.78125 226.6452L135.20312 226.6452Q135.29688 225.98895 135.51562 225.5202Q135.73438 225.05145 136.07812 224.75458Q136.42188 224.4577 136.82812 224.3327Q137.25 224.19208 137.71875 224.19208Q138.35938 224.19208 138.8125 224.44208Q139.28125 224.67645 139.57812 225.0827Q139.89062 225.47333 140.03125 225.97333Q140.17188 226.47333 140.17188 227.00458Q140.17188 227.59833 140.0 228.12958Q139.82812 228.66083 139.48438 229.06708Q139.15625 229.4577 138.65625 229.69208Q138.17188 229.91083 137.51562 229.91083Q136.82812 229.91083 136.3125 229.62958Q135.79688 229.3327 135.45312 228.86395Q135.125 228.37958 134.95312 227.80145Q134.78125 227.22333 134.78125 226.62958L134.78125 226.11395Q134.78125 225.2077 134.95312 224.34833Q135.14062 223.47333 135.59375 222.7702Q136.04688 222.06708 136.84375 221.66083Q137.64062 221.23895 138.875 221.23895ZM147.09375 227.47333Q147.09375 228.25458 146.73438 228.80145Q146.375 229.3327 145.75 229.62958Q145.14062 229.91083 144.375 229.91083Q143.60938 229.91083 142.98438 229.62958Q142.375 229.3327 142.01562 228.80145Q141.65625 228.25458 141.65625 227.47333Q141.65625 226.97333 141.85938 226.55145Q142.0625 226.11395 142.42188 225.80145Q142.78125 225.48895 143.26562 225.31708Q143.76562 225.1452 144.35938 225.1452Q145.15625 225.1452 145.76562 225.44208Q146.375 225.73895 146.73438 226.2702Q147.09375 226.80145 147.09375 227.47333ZM146.0 227.4577Q146.0 226.97333 145.79688 226.61395Q145.59375 226.23895 145.21875 226.03583Q144.84375 225.8327 144.35938 225.8327Q143.85938 225.8327 143.5 226.03583Q143.14062 226.23895 142.9375 226.61395Q142.75 226.97333 142.75 227.4577Q142.75 227.94208 142.9375 228.30145Q143.14062 228.6452 143.5 228.8327Q143.875 229.00458 144.375 229.00458Q144.875 229.00458 145.23438 228.8327Q145.60938 228.6452 145.79688 228.30145Q146.0 227.94208 146.0 227.4577ZM146.89062 223.47333Q146.89062 224.09833 146.5625 224.59833Q146.23438 225.09833 145.65625 225.37958Q145.09375 225.66083 144.375 225.66083Q143.64062 225.66083 143.0625 225.37958Q142.5 225.09833 142.17188 224.59833Q141.85938 224.09833 141.85938 223.47333Q141.85938 222.72333 142.17188 222.2077Q142.5 221.69208 143.0625 221.41083Q143.64062 221.12958 144.375 221.12958Q145.10938 221.12958 145.67188 221.41083Q146.23438 221.69208 146.5625 222.2077Q146.89062 222.72333 146.89062 223.47333ZM145.8125 223.48895Q145.8125 223.06708 145.625 222.73895Q145.4375 222.41083 145.10938 222.22333Q144.79688 222.0202 144.375 222.0202Q143.9375 222.0202 143.60938 222.2077Q143.29688 222.37958 143.125 222.7077Q142.95312 223.03583 142.95312 223.48895Q142.95312 223.92645 143.125 224.25458Q143.29688 224.5827 143.625 224.7702Q143.95312 224.9577 144.375 224.9577Q144.79688 224.9577 145.10938 224.7702Q145.4375 224.5827 145.625 224.25458Q145.8125 223.92645 145.8125 223.48895Z" fill-rule="nonzero"/><path fill="#ffffff" d="M138.875 221.23895L138.96875 221.23895L138.96875 222.16083L138.875 222.16083Q138.01562 222.16083 137.42188 222.44208Q136.84375 222.72333 136.5 223.19208Q136.17188 223.6452 136.01562 224.23895Q135.875 224.81708 135.875 225.41083L135.875 226.66083Q135.875 227.22333 136.0 227.66083Q136.14062 228.09833 136.375 228.41083Q136.60938 228.7077 136.90625 228.86395Q137.20312 229.00458 137.51562 229.00458Q137.89062 229.00458 138.1875 228.86395Q138.48438 228.72333 138.6875 228.4577Q138.89062 228.19208 138.98438 227.84833Q139.09375 227.48895 139.09375 227.05145Q139.09375 226.67645 139.0 226.31708Q138.90625 225.9577 138.71875 225.69208Q138.53125 225.41083 138.23438 225.25458Q137.9375 225.0827 137.54688 225.0827Q137.09375 225.0827 136.70312 225.30145Q136.3125 225.5202 136.0625 225.87958Q135.8125 226.23895 135.78125 226.6452L135.20312 226.6452Q135.29688 225.98895 135.51562 225.5202Q135.73438 225.05145 136.07812 224.75458Q136.42188 224.4577 136.82812 224.3327Q137.25 224.19208 137.71875 224.19208Q138.35938 224.19208 138.8125 224.44208Q139.28125 224.67645 139.57812 225.0827Q139.89062 225.47333 140.03125 225.97333Q140.17188 226.47333 140.17188 227.00458Q140.17188 227.59833 140.0 228.12958Q139.82812 228.66083 139.48438 229.06708Q139.15625 229.4577 138.65625 229.69208Q138.17188 229.91083 137.51562 229.91083Q136.82812 229.91083 136.3125 229.62958Q135.79688 229.3327 135.45312 228.86395Q135.125 228.37958 134.95312 227.80145Q134.78125 227.22333 134.78125 226.62958L134.78125 226.11395Q134.78125 225.2077 134.95312 224.34833Q135.14062 223.47333 135.59375 222.7702Q136.04688 222.06708 136.84375 221.66083Q137.64062 221.23895 138.875 221.23895ZM147.09375 227.47333Q147.09375 228.25458 146.73438 228.80145Q146.375 229.3327 145.75 229.62958Q145.14062 229.91083 144.375 229.91083Q143.60938 229.91083 142.98438 229.62958Q142.375 229.3327 142.01562 228.80145Q141.65625 228.25458 141.65625 227.47333Q141.65625 226.97333 141.85938 226.55145Q142.0625 226.11395 142.42188 225.80145Q142.78125 225.48895 143.26562 225.31708Q143.76562 225.1452 144.35938 225.1452Q145.15625 225.1452 145.76562 225.44208Q146.375 225.73895 146.73438 226.2702Q147.09375 226.80145 147.09375 227.47333ZM146.0 227.4577Q146.0 226.97333 145.79688 226.61395Q145.59375 226.23895 145.21875 226.03583Q144.84375 225.8327 144.35938 225.8327Q143.85938 225.8327 143.5 226.03583Q143.14062 226.23895 142.9375 226.61395Q142.75 226.97333 142.75 227.4577Q142.75 227.94208 142.9375 228.30145Q143.14062 228.6452 143.5 228.8327Q143.875 229.00458 144.375 229.00458Q144.875 229.00458 145.23438 228.8327Q145.60938 228.6452 145.79688 228.30145Q146.0 227.94208 146.0 227.4577ZM146.89062 223.47333Q146.89062 224.09833 146.5625 224.59833Q146.23438 225.09833 145.65625 225.37958Q145.09375 225.66083 144.375 225.66083Q143.64062 225.66083 143.0625 225.37958Q142.5 225.09833 142.17188 224.59833Q141.85938 224.09833 141.85938 223.47333Q141.85938 222.72333 142.17188 222.2077Q142.5 221.69208 143.0625 221.41083Q143.64062 221.12958 144.375 221.12958Q145.10938 221.12958 145.67188 221.41083Q146.23438 221.69208 146.5625 222.2077Q146.89062 222.72333 146.89062 223.47333ZM145.8125 223.48895Q145.8125 223.06708 145.625 222.73895Q145.4375 222.41083 145.10938 222.22333Q144.79688 222.0202 144.375 222.0202Q143.9375 222.0202 143.60938 222.2077Q143.29688 222.37958 143.125 222.7077Q142.95312 223.03583 142.95312 223.48895Q142.95312 223.92645 143.125 224.25458Q143.29688 224.5827 143.625 224.7702Q143.95312 224.9577 144.375 224.9577Q144.79688 224.9577 145.10938 224.7702Q145.4375 224.5827 145.625 224.25458Q145.8125 223.92645 145.8125 223.48895Z" fill-rule="nonzero"/><path stroke="#4285f4" stroke-width="3.0" stroke-linejoin="round" stroke-linecap="round" d="M298.26562 306.00708L298.26562 314.5852L297.1875 314.5852L297.1875 307.36646L295.0 308.16333L295.0 307.17896L298.10938 306.00708L298.26562 306.00708ZM305.26562 306.00708L305.26562 314.5852L304.1875 314.5852L304.1875 307.36646L302.0 308.16333L302.0 307.17896L305.10938 306.00708L305.26562 306.00708Z" fill-rule="nonzero"/><path fill="#ffffff" d="M298.26562 306.00708L298.26562 314.5852L297.1875 314.5852L297.1875 307.36646L295.0 308.16333L295.0 307.17896L298.10938 306.00708L298.26562 306.00708ZM305.26562 306.00708L305.26562 314.5852L304.1875 314.5852L304.1875 307.36646L302.0 308.16333L302.0 307.17896L305.10938 306.00708L305.26562 306.00708Z" fill-rule="nonzero"/><path stroke="#4285f4" stroke-width="3.0" stroke-linejoin="round" stroke-linecap="round" d="M460.76562 320.88416L460.76562 329.46228L459.6875 329.46228L459.6875 322.24353L457.5 323.0404L457.5 322.05603L460.60938 320.88416L460.76562 320.88416Z" fill-rule="nonzero"/><path fill="#ffffff" d="M460.76562 320.88416L460.76562 329.46228L459.6875 329.46228L459.6875 322.24353L457.5 323.0404L457.5 322.05603L460.60938 320.88416L460.76562 320.88416Z" fill-rule="nonzero"/><path fill="#000000" d="M38.6125 299.9969L38.6125 301.3094Q38.6125 302.35626 38.425 303.075Q38.2375 303.79376 37.878124 304.23126Q37.534374 304.66876 37.034374 304.8719Q36.55 305.075 35.925 305.075Q35.440624 305.075 35.01875 304.95Q34.596874 304.825 34.26875 304.5594Q33.940624 304.27814 33.70625 303.84064Q33.471874 303.40314 33.346874 302.77814Q33.221874 302.1375 33.221874 301.3094L33.221874 299.9969Q33.221874 298.95 33.409374 298.2469Q33.6125 297.54376 33.95625 297.10626Q34.315624 296.66876 34.8 296.48126Q35.3 296.29376 35.909374 296.29376Q36.409374 296.29376 36.83125 296.41876Q37.253124 296.54376 37.58125 296.8094Q37.909374 297.0594 38.128124 297.4969Q38.3625 297.91876 38.4875 298.54376Q38.6125 299.16876 38.6125 299.9969ZM37.51875 301.48126L37.51875 299.825Q37.51875 299.2469 37.45625 298.8094Q37.39375 298.3719 37.253124 298.0594Q37.128124 297.7469 36.925 297.5594Q36.7375 297.3719 36.4875 297.27814Q36.2375 297.1844 35.909374 297.1844Q35.534374 297.1844 35.221874 297.325Q34.925 297.46564 34.721874 297.77814Q34.51875 298.09064 34.409374 298.60626Q34.315624 299.10626 34.315624 299.825L34.315624 301.48126Q34.315624 302.0594 34.378124 302.4969Q34.45625 302.9344 34.58125 303.2625Q34.721874 303.575 34.909374 303.77814Q35.1125 303.98126 35.3625 304.075Q35.6125 304.16876 35.925 304.16876Q36.33125 304.16876 36.628124 304.02814Q36.925 303.8719 37.128124 303.54376Q37.33125 303.21564 37.425 302.71564Q37.51875 302.2 37.51875 301.48126Z" fill-rule="nonzero"/><path fill="#000000" d="M31.846874 244.55104L31.846874 245.44167L26.26875 245.44167L26.26875 244.66042L29.065624 241.55104Q29.58125 240.97292 29.8625 240.58229Q30.14375 240.17604 30.253124 239.86354Q30.378124 239.53542 30.378124 239.20729Q30.378124 238.78542 30.20625 238.44167Q30.034374 238.09792 29.690624 237.89479Q29.3625 237.67604 28.878124 237.67604Q28.315624 237.67604 27.940624 237.91042Q27.565624 238.12917 27.378124 238.51979Q27.190624 238.91042 27.190624 239.41042L26.096874 239.41042Q26.096874 238.69167 26.409374 238.09792Q26.7375 237.50417 27.346874 237.14479Q27.971874 236.78542 28.878124 236.78542Q29.690624 236.78542 30.26875 237.08229Q30.846874 237.36354 31.14375 237.87917Q31.45625 238.37917 31.45625 239.06667Q31.45625 239.44167 31.33125 239.83229Q31.20625 240.20729 30.9875 240.59792Q30.76875 240.97292 30.471874 241.34792Q30.190624 241.70729 29.8625 242.06667L27.565624 244.55104L31.846874 244.55104ZM38.6125 240.48854L38.6125 241.80104Q38.6125 242.84792 38.425 243.56667Q38.2375 244.28542 37.878124 244.72292Q37.534374 245.16042 37.034374 245.36354Q36.55 245.56667 35.925 245.56667Q35.440624 245.56667 35.01875 245.44167Q34.596874 245.31667 34.26875 245.05104Q33.940624 244.76979 33.70625 244.33229Q33.471874 243.89479 33.346874 243.26979Q33.221874 242.62917 33.221874 241.80104L33.221874 240.48854Q33.221874 239.44167 33.409374 238.73854Q33.6125 238.03542 33.95625 237.59792Q34.315624 237.16042 34.8 236.97292Q35.3 236.78542 35.909374 236.78542Q36.409374 236.78542 36.83125 236.91042Q37.253124 237.03542 37.58125 237.30104Q37.909374 237.55104 38.128124 237.98854Q38.3625 238.41042 38.4875 239.03542Q38.6125 239.66042 38.6125 240.48854ZM37.51875 241.97292L37.51875 240.31667Q37.51875 239.73854 37.45625 239.30104Q37.39375 238.86354 37.253124 238.55104Q37.128124 238.23854 36.925 238.05104Q36.7375 237.86354 36.4875 237.76979Q36.2375 237.67604 35.909374 237.67604Q35.534374 237.67604 35.221874 237.81667Q34.925 237.95729 34.721874 238.26979Q34.51875 238.58229 34.409374 239.09792Q34.315624 239.59792 34.315624 240.31667L34.315624 241.97292Q34.315624 242.55104 34.378124 242.98854Q34.45625 243.42604 34.58125 243.75417Q34.721874 244.06667 34.909374 244.26979Q35.1125 244.47292 35.3625 244.56667Q35.6125 244.66042 35.925 244.66042Q36.33125 244.66042 36.628124 244.51979Q36.925 244.36354 37.128124 244.03542Q37.33125 243.70729 37.425 243.20729Q37.51875 242.69167 37.51875 241.97292Z" fill-rule="nonzero"/><path fill="#000000" d="M32.01875 183.05833L32.01875 183.94896L25.8625 183.94896L25.8625 183.30833L29.675 177.40208L30.565624 177.40208L29.6125 179.10521L27.096874 183.05833L32.01875 183.05833ZM30.83125 177.40208L30.83125 185.93333L29.753124 185.93333L29.753124 177.40208L30.83125 177.40208ZM38.6125 180.98021L38.6125 182.29271Q38.6125 183.33958 38.425 184.05833Q38.2375 184.77708 37.878124 185.21458Q37.534374 185.65208 37.034374 185.85521Q36.55 186.05833 35.925 186.05833Q35.440624 186.05833 35.01875 185.93333Q34.596874 185.80833 34.26875 185.54271Q33.940624 185.26146 33.70625 184.82396Q33.471874 184.38646 33.346874 183.76146Q33.221874 183.12083 33.221874 182.29271L33.221874 180.98021Q33.221874 179.93333 33.409374 179.23021Q33.6125 178.52708 33.95625 178.08958Q34.315624 177.65208 34.8 177.46458Q35.3 177.27708 35.909374 177.27708Q36.409374 177.27708 36.83125 177.40208Q37.253124 177.52708 37.58125 177.79271Q37.909374 178.04271 38.128124 178.48021Q38.3625 178.90208 38.4875 179.52708Q38.6125 180.15208 38.6125 180.98021ZM37.51875 182.46458L37.51875 180.80833Q37.51875 180.23021 37.45625 179.79271Q37.39375 179.35521 37.253124 179.04271Q37.128124 178.73021 36.925 178.54271Q36.7375 178.35521 36.4875 178.26146Q36.2375 178.16771 35.909374 178.16771Q35.534374 178.16771 35.221874 178.30833Q34.925 178.44896 34.721874 178.76146Q34.51875 179.07396 34.409374 179.58958Q34.315624 180.08958 34.315624 180.80833L34.315624 182.46458Q34.315624 183.04271 34.378124 183.48021Q34.45625 183.91771 34.58125 184.24583Q34.721874 184.55833 34.909374 184.76146Q35.1125 184.96458 35.3625 185.05833Q35.6125 185.15208 35.925 185.15208Q36.33125 185.15208 36.628124 185.01146Q36.925 184.85521 37.128124 184.52708Q37.33125 184.19896 37.425 183.69896Q37.51875 183.18333 37.51875 182.46458Z" fill-rule="nonzero"/><path fill="#000000" d="M30.425 117.87813L30.51875 117.87813L30.51875 118.8L30.425 118.8Q29.565624 118.8 28.971874 119.08125Q28.39375 119.3625 28.05 119.83125Q27.721874 120.28438 27.565624 120.87813Q27.425 121.45625 27.425 122.05L27.425 123.3Q27.425 123.8625 27.55 124.3Q27.690624 124.7375 27.925 125.05Q28.159374 125.34688 28.45625 125.50313Q28.753124 125.64375 29.065624 125.64375Q29.440624 125.64375 29.7375 125.50313Q30.034374 125.3625 30.2375 125.09688Q30.440624 124.83125 30.534374 124.4875Q30.64375 124.12813 30.64375 123.69063Q30.64375 123.31563 30.55 122.95625Q30.45625 122.59688 30.26875 122.33125Q30.08125 122.05 29.784374 121.89375Q29.4875 121.72188 29.096874 121.72188Q28.64375 121.72188 28.253124 121.94063Q27.8625 122.15938 27.6125 122.51875Q27.3625 122.87813 27.33125 123.28438L26.753124 123.28438Q26.846874 122.62813 27.065624 122.15938Q27.284374 121.69063 27.628124 121.39375Q27.971874 121.09688 28.378124 120.97188Q28.8 120.83125 29.26875 120.83125Q29.909374 120.83125 30.3625 121.08125Q30.83125 121.31563 31.128124 121.72188Q31.440624 122.1125 31.58125 122.6125Q31.721874 123.1125 31.721874 123.64375Q31.721874 124.2375 31.55 124.76875Q31.378124 125.3 31.034374 125.70625Q30.70625 126.09688 30.20625 126.33125Q29.721874 126.55 29.065624 126.55Q28.378124 126.55 27.8625 126.26875Q27.346874 125.97188 27.003124 125.50313Q26.675 125.01875 26.503124 124.44063Q26.33125 123.8625 26.33125 123.26875L26.33125 122.75313Q26.33125 121.84688 26.503124 120.9875Q26.690624 120.1125 27.14375 119.40938Q27.596874 118.70625 28.39375 118.3Q29.190624 117.87813 30.425 117.87813ZM38.6125 121.47188L38.6125 122.78438Q38.6125 123.83125 38.425 124.55Q38.2375 125.26875 37.878124 125.70625Q37.534374 126.14375 37.034374 126.34688Q36.55 126.55 35.925 126.55Q35.440624 126.55 35.01875 126.425Q34.596874 126.3 34.26875 126.03438Q33.940624 125.75313 33.70625 125.31563Q33.471874 124.87813 33.346874 124.25313Q33.221874 123.6125 33.221874 122.78438L33.221874 121.47188Q33.221874 120.425 33.409374 119.72188Q33.6125 119.01875 33.95625 118.58125Q34.315624 118.14375 34.8 117.95625Q35.3 117.76875 35.909374 117.76875Q36.409374 117.76875 36.83125 117.89375Q37.253124 118.01875 37.58125 118.28438Q37.909374 118.53438 38.128124 118.97188Q38.3625 119.39375 38.4875 120.01875Q38.6125 120.64375 38.6125 121.47188ZM37.51875 122.95625L37.51875 121.3Q37.51875 120.72188 37.45625 120.28438Q37.39375 119.84688 37.253124 119.53438Q37.128124 119.22188 36.925 119.03438Q36.7375 118.84688 36.4875 118.75313Q36.2375 118.65938 35.909374 118.65938Q35.534374 118.65938 35.221874 118.8Q34.925 118.94063 34.721874 119.25313Q34.51875 119.56563 34.409374 120.08125Q34.315624 120.58125 34.315624 121.3L34.315624 122.95625Q34.315624 123.53438 34.378124 123.97188Q34.45625 124.40938 34.58125 124.7375Q34.721874 125.05 34.909374 125.25313Q35.1125 125.45625 35.3625 125.55Q35.6125 125.64375 35.925 125.64375Q36.33125 125.64375 36.628124 125.50313Q36.925 125.34688 37.128124 125.01875Q37.33125 124.69063 37.425 124.19063Q37.51875 123.675 37.51875 122.95625Z" fill-rule="nonzero"/><path fill="#000000" d="M31.64375 64.604164Q31.64375 65.385414 31.284374 65.93229Q30.925 66.46354 30.3 66.760414Q29.690624 67.041664 28.925 67.041664Q28.159374 67.041664 27.534374 66.760414Q26.925 66.46354 26.565624 65.93229Q26.20625 65.385414 26.20625 64.604164Q26.20625 64.104164 26.409374 63.68229Q26.6125 63.24479 26.971874 62.93229Q27.33125 62.61979 27.815624 62.447914Q28.315624 62.27604 28.909374 62.27604Q29.70625 62.27604 30.315624 62.572914Q30.925 62.86979 31.284374 63.40104Q31.64375 63.93229 31.64375 64.604164ZM30.55 64.58854Q30.55 64.104164 30.346874 63.74479Q30.14375 63.36979 29.76875 63.166664Q29.39375 62.96354 28.909374 62.96354Q28.409374 62.96354 28.05 63.166664Q27.690624 63.36979 27.4875 63.74479Q27.3 64.104164 27.3 64.58854Q27.3 65.072914 27.4875 65.43229Q27.690624 65.77604 28.05 65.96354Q28.425 66.135414 28.925 66.135414Q29.425 66.135414 29.784374 65.96354Q30.159374 65.77604 30.346874 65.43229Q30.55 65.072914 30.55 64.58854ZM31.440624 60.604164Q31.440624 61.229164 31.1125 61.729164Q30.784374 62.229164 30.20625 62.510414Q29.64375 62.791664 28.925 62.791664Q28.190624 62.791664 27.6125 62.510414Q27.05 62.229164 26.721874 61.729164Q26.409374 61.229164 26.409374 60.604164Q26.409374 59.854164 26.721874 59.33854Q27.05 58.822914 27.6125 58.541664Q28.190624 58.260414 28.925 58.260414Q29.659374 58.260414 30.221874 58.541664Q30.784374 58.822914 31.1125 59.33854Q31.440624 59.854164 31.440624 60.604164ZM30.3625 60.61979Q30.3625 60.197914 30.175 59.86979Q29.9875 59.541664 29.659374 59.354164Q29.346874 59.15104 28.925 59.15104Q28.4875 59.15104 28.159374 59.33854Q27.846874 59.510414 27.675 59.83854Q27.503124 60.166664 27.503124 60.61979Q27.503124 61.05729 27.675 61.385414Q27.846874 61.71354 28.175 61.90104Q28.503124 62.08854 28.925 62.08854Q29.346874 62.08854 29.659374 61.90104Q29.9875 61.71354 30.175 61.385414Q30.3625 61.05729 30.3625 60.61979ZM38.6125 61.96354L38.6125 63.27604Q38.6125 64.322914 38.425 65.041664Q38.2375 65.760414 37.878124 66.197914Q37.534374 66.635414 37.034374 66.83854Q36.55 67.041664 35.925 67.041664Q35.440624 67.041664 35.01875 66.916664Q34.596874 66.791664 34.26875 66.52604Q33.940624 66.24479 33.70625 65.80729Q33.471874 65.36979 33.346874 64.74479Q33.221874 64.104164 33.221874 63.27604L33.221874 61.96354Q33.221874 60.916664 33.409374 60.21354Q33.6125 59.510414 33.95625 59.072914Q34.315624 58.635414 34.8 58.447914Q35.3 58.260414 35.909374 58.260414Q36.409374 58.260414 36.83125 58.385414Q37.253124 58.510414 37.58125 58.77604Q37.909374 59.02604 38.128124 59.46354Q38.3625 59.885414 38.4875 60.510414Q38.6125 61.135414 38.6125 61.96354ZM37.51875 63.447914L37.51875 61.791664Q37.51875 61.21354 37.45625 60.77604Q37.39375 60.33854 37.253124 60.02604Q37.128124 59.71354 36.925 59.52604Q36.7375 59.33854 36.4875 59.24479Q36.2375 59.15104 35.909374 59.15104Q35.534374 59.15104 35.221874 59.291664Q34.925 59.43229 34.721874 59.74479Q34.51875 60.05729 34.409374 60.572914Q34.315624 61.072914 34.315624 61.791664L34.315624 63.447914Q34.315624 64.02604 34.378124 64.46354Q34.45625 64.90104 34.58125 65.229164Q34.721874 65.541664 34.909374 65.74479Q35.1125 65.947914 35.3625 66.041664Q35.6125 66.135414 35.925 66.135414Q36.33125 66.135414 36.628124 65.99479Q36.925 65.83854 37.128124 65.510414Q37.33125 65.18229 37.425 64.68229Q37.51875 64.166664 37.51875 63.447914Z" fill-rule="nonzero"/><path fill="#000000" d="M118.061104 347.29376Q118.061104 346.9969 117.967354 346.7625Q117.88923 346.52814 117.654854 346.34064Q117.436104 346.15314 117.029854 345.98126Q116.63923 345.8094 116.04548 345.6375Q115.404854 345.45 114.88923 345.23126Q114.38923 344.9969 114.01423 344.7Q113.654854 344.3875 113.467354 344.0125Q113.279854 343.6219 113.279854 343.1219Q113.279854 342.6219 113.48298 342.2Q113.686104 341.77814 114.061104 341.46564Q114.45173 341.15314 114.98298 340.98126Q115.51423 340.79376 116.17048 340.79376Q117.13923 340.79376 117.811104 341.16876Q118.48298 341.52814 118.82673 342.1219Q119.186104 342.71564 119.186104 343.3719L118.061104 343.3719Q118.061104 342.90314 117.842354 342.52814Q117.63923 342.15314 117.217354 341.95Q116.811104 341.73126 116.17048 341.73126Q115.57673 341.73126 115.17048 341.91876Q114.779854 342.09064 114.592354 342.40314Q114.404854 342.71564 114.404854 343.10626Q114.404854 343.3719 114.51423 343.60626Q114.63923 343.825 114.873604 344.0125Q115.123604 344.2 115.498604 344.35626Q115.873604 344.5125 116.404854 344.65314Q117.123604 344.85626 117.654854 345.1219Q118.186104 345.3719 118.529854 345.6844Q118.873604 345.9969 119.029854 346.3875Q119.20173 346.77814 119.20173 347.27814Q119.20173 347.8094 118.98298 348.23126Q118.779854 348.65314 118.38923 348.95Q117.998604 349.2469 117.45173 349.41876Q116.904854 349.575 116.23298 349.575Q115.63923 349.575 115.061104 349.40314Q114.498604 349.23126 114.029854 348.90314Q113.561104 348.575 113.279854 348.10626Q112.998604 347.6219 112.998604 346.98126L114.123604 346.98126Q114.123604 347.41876 114.29548 347.73126Q114.467354 348.04376 114.76423 348.2469Q115.061104 348.45 115.436104 348.5594Q115.811104 348.65314 116.23298 348.65314Q116.82673 348.65314 117.23298 348.4969Q117.63923 348.325 117.842354 348.02814Q118.061104 347.71564 118.061104 347.29376ZM121.529854 343.10626L121.529854 349.45L120.45173 349.45L120.45173 343.10626L121.529854 343.10626ZM120.35798 341.4344Q120.35798 341.16876 120.51423 340.98126Q120.686104 340.79376 120.998604 340.79376Q121.311104 340.79376 121.467354 340.98126Q121.63923 341.16876 121.63923 341.4344Q121.63923 341.6844 121.467354 341.8719Q121.311104 342.04376 120.998604 342.04376Q120.686104 342.04376 120.51423 341.8719Q120.35798 341.6844 120.35798 341.4344ZM124.436104 344.46564L124.436104 349.45L123.35798 349.45L123.35798 343.10626L124.38923 343.10626L124.436104 344.46564ZM124.186104 346.04376L123.73298 346.02814Q123.73298 345.3719 123.92048 344.825Q124.10798 344.2625 124.45173 343.85626Q124.79548 343.45 125.26423 343.23126Q125.73298 342.9969 126.311104 342.9969Q126.779854 342.9969 127.154854 343.1219Q127.529854 343.2469 127.79548 343.52814Q128.0611 343.79376 128.20172 344.23126Q128.34235 344.66876 128.34235 345.29376L128.34235 349.45L127.248604 349.45L127.248604 345.27814Q127.248604 344.77814 127.10798 344.48126Q126.967354 344.1844 126.686104 344.04376Q126.404854 343.90314 125.98298 343.90314Q125.57673 343.90314 125.248604 344.075Q124.92048 344.2469 124.686104 344.54376Q124.45173 344.84064 124.311104 345.23126Q124.186104 345.60626 124.186104 346.04376ZM134.46735 343.10626L135.45172 343.10626L135.45172 349.3094Q135.45172 350.15314 135.10797 350.7469Q134.76422 351.34064 134.15485 351.6375Q133.5611 351.95 132.76422 351.95Q132.4361 351.95 131.98297 351.84064Q131.54547 351.7469 131.1236 351.4969Q130.70172 351.2625 130.42047 350.85626L130.98297 350.2Q131.38922 350.6844 131.8111 350.8719Q132.2486 351.0594 132.6861 351.0594Q133.20172 351.0594 133.57672 350.85626Q133.95172 350.66876 134.15485 350.29376Q134.35797 349.91876 134.35797 349.3719L134.35797 344.4969L134.46735 343.10626ZM130.09235 346.35626L130.09235 346.23126Q130.09235 345.4969 130.26422 344.90314Q130.45172 344.3094 130.76422 343.8875Q131.09235 343.45 131.54547 343.23126Q132.01422 342.9969 132.60797 342.9969Q133.20172 342.9969 133.63922 343.2Q134.09235 343.40314 134.40485 343.8094Q134.71735 344.2 134.90485 344.7625Q135.09235 345.3094 135.15485 346.0125L135.15485 346.5594Q135.09235 347.2469 134.90485 347.8094Q134.71735 348.3719 134.40485 348.7625Q134.09235 349.15314 133.63922 349.3719Q133.1861 349.575 132.59235 349.575Q132.01422 349.575 131.5611 349.34064Q131.10797 349.09064 130.77985 348.65314Q130.45172 348.21564 130.26422 347.6375Q130.09235 347.04376 130.09235 346.35626ZM131.1861 346.23126L131.1861 346.35626Q131.1861 346.825 131.27985 347.2469Q131.3736 347.65314 131.57672 347.98126Q131.77985 348.29376 132.09235 348.48126Q132.42047 348.65314 132.85797 348.65314Q133.38922 348.65314 133.73297 348.41876Q134.09235 348.1844 134.29547 347.8094Q134.51422 347.4344 134.6236 346.9969L134.6236 345.59064Q134.5611 345.2625 134.42047 344.96564Q134.29547 344.66876 134.09235 344.4344Q133.88922 344.1844 133.57672 344.04376Q133.27985 343.90314 132.85797 343.90314Q132.42047 343.90314 132.09235 344.09064Q131.77985 344.27814 131.57672 344.60626Q131.3736 344.91876 131.27985 345.34064Q131.1861 345.7469 131.1861 346.23126ZM138.52985 340.45L138.52985 349.45L137.45172 349.45L137.45172 340.45L138.52985 340.45ZM142.98297 349.575Q142.32672 349.575 141.77985 349.35626Q141.2486 349.1219 140.85797 348.71564Q140.48297 348.29376 140.27985 347.73126Q140.07672 347.16876 140.07672 346.4969L140.07672 346.2625Q140.07672 345.48126 140.29547 344.8719Q140.52985 344.2625 140.92047 343.84064Q141.3111 343.41876 141.8111 343.21564Q142.3111 342.9969 142.84235 342.9969Q143.52985 342.9969 144.01422 343.23126Q144.51422 343.46564 144.82672 343.8875Q145.15485 344.29376 145.29547 344.8719Q145.45172 345.4344 145.45172 346.09064L145.45172 346.59064L140.71735 346.59064L140.71735 345.7L144.3736 345.7L144.3736 345.6219Q144.34235 345.2 144.1861 344.8094Q144.04547 344.40314 143.71735 344.15314Q143.40485 343.8875 142.84235 343.8875Q142.48297 343.8875 142.17047 344.04376Q141.85797 344.2 141.6236 344.5125Q141.40485 344.8094 141.27985 345.2469Q141.17047 345.6844 141.17047 346.2625L141.17047 346.4969Q141.17047 346.95 141.29547 347.35626Q141.42047 347.7469 141.65485 348.04376Q141.90485 348.34064 142.2486 348.5125Q142.60797 348.6844 143.04547 348.6844Q143.6236 348.6844 144.01422 348.45Q144.42047 348.21564 144.71735 347.825L145.3736 348.34064Q145.17047 348.65314 144.84235 348.9344Q144.52985 349.21564 144.0611 349.40314Q143.60797 349.575 142.98297 349.575ZM153.35797 348.21564L153.35797 340.45L154.4361 340.45L154.4361 349.45L153.45172 349.45L153.35797 348.21564ZM149.09235 346.35626L149.09235 346.23126Q149.09235 345.4969 149.26422 344.90314Q149.45172 344.3094 149.77985 343.8875Q150.10797 343.45 150.5611 343.23126Q151.02985 342.9969 151.59235 342.9969Q152.1861 342.9969 152.63922 343.2Q153.09235 343.40314 153.40485 343.8094Q153.71735 344.2 153.88922 344.7625Q154.07672 345.3094 154.15485 346.0125L154.15485 346.5594Q154.09235 347.2469 153.90485 347.8094Q153.71735 348.3719 153.40485 348.7625Q153.09235 349.15314 152.63922 349.3719Q152.1861 349.575 151.57672 349.575Q151.02985 349.575 150.5611 349.34064Q150.10797 349.09064 149.77985 348.65314Q149.45172 348.21564 149.26422 347.6375Q149.09235 347.04376 149.09235 346.35626ZM150.17047 346.23126L150.17047 346.35626Q150.17047 346.825 150.26422 347.2469Q150.3736 347.65314 150.57672 347.98126Q150.77985 348.29376 151.09235 348.48126Q151.42047 348.65314 151.85797 348.65314Q152.38922 348.65314 152.73297 348.41876Q153.09235 348.1844 153.29547 347.8094Q153.51422 347.4344 153.6236 346.9969L153.6236 345.59064Q153.5611 345.2625 153.42047 344.96564Q153.29547 344.66876 153.07672 344.4344Q152.8736 344.1844 152.57672 344.04376Q152.27985 343.90314 151.85797 343.90314Q151.42047 343.90314 151.09235 344.09064Q150.77985 344.27814 150.57672 344.60626Q150.3736 344.91876 150.26422 345.34064Q150.17047 345.7469 150.17047 346.23126ZM160.09235 348.3719L160.09235 345.10626Q160.09235 344.73126 159.9361 344.45Q159.79547 344.16876 159.4986 344.02814Q159.20172 343.8719 158.76422 343.8719Q158.34235 343.8719 158.02985 344.0125Q157.73297 344.15314 157.5611 344.3875Q157.38922 344.60626 157.38922 344.8719L156.3111 344.8719Q156.3111 344.52814 156.48297 344.2Q156.65485 343.85626 156.98297 343.59064Q157.3111 343.3094 157.77985 343.15314Q158.2486 342.9969 158.82672 342.9969Q159.51422 342.9969 160.04547 343.23126Q160.57672 343.46564 160.8736 343.9344Q161.1861 344.40314 161.1861 345.10626L161.1861 348.0594Q161.1861 348.3875 161.23297 348.7469Q161.29547 349.09064 161.40485 349.35626L161.40485 349.45L160.26422 349.45Q160.1861 349.2625 160.13922 348.95Q160.09235 348.6375 160.09235 348.3719ZM160.27985 345.60626L160.29547 346.3719L159.20172 346.3719Q158.73297 346.3719 158.3736 346.45Q158.01422 346.5125 157.76422 346.66876Q157.51422 346.8094 157.38922 347.02814Q157.26422 347.2469 157.26422 347.54376Q157.26422 347.84064 157.38922 348.09064Q157.52985 348.325 157.79547 348.48126Q158.07672 348.6219 158.46735 348.6219Q158.96735 348.6219 159.34235 348.41876Q159.73297 348.2 159.95172 347.90314Q160.1861 347.59064 160.20172 347.29376L160.67047 347.825Q160.6236 348.0594 160.4361 348.3719Q160.26422 348.66876 159.95172 348.95Q159.65485 349.21564 159.23297 349.40314Q158.82672 349.575 158.3111 349.575Q157.67047 349.575 157.1861 349.325Q156.70172 349.0594 156.4361 348.6375Q156.17047 348.21564 156.17047 347.6844Q156.17047 347.16876 156.35797 346.79376Q156.5611 346.40314 156.9361 346.1375Q157.3111 345.8719 157.84235 345.7469Q158.3736 345.60626 159.02985 345.60626L160.27985 345.60626ZM165.13922 348.79376L166.90485 343.10626L168.0611 343.10626L165.51422 350.4344Q165.4361 350.66876 165.27985 350.9344Q165.13922 351.21564 164.92047 351.45Q164.70172 351.7 164.38922 351.85626Q164.07672 352.0125 163.63922 352.0125Q163.51422 352.0125 163.3111 351.96564Q163.10797 351.9344 163.02985 351.91876L163.02985 351.04376Q163.07672 351.04376 163.17047 351.04376Q163.27985 351.0594 163.3111 351.0594Q163.6861 351.0594 163.9361 350.96564Q164.20172 350.8719 164.3736 350.6375Q164.5611 350.41876 164.6861 350.02814L165.13922 348.79376ZM163.84235 343.10626L165.48297 348.02814L165.76422 349.16876L164.9986 349.575L162.65485 343.10626L163.84235 343.10626Z" fill-rule="nonzero"/><path fill="#000000" d="M281.64062 340.91876L281.64062 349.45L280.53125 349.45L280.53125 340.91876L281.64062 340.91876ZM284.39062 340.91876L284.39062 341.84064L277.79688 341.84064L277.79688 340.91876L284.39062 340.91876ZM286.9375 348.325L288.5625 343.10626L289.28125 343.10626L289.14062 344.15314L287.48438 349.45L286.78125 349.45L286.9375 348.325ZM285.84375 343.10626L287.21875 348.3875L287.32812 349.45L286.59375 349.45L284.75 343.10626L285.84375 343.10626ZM290.82812 348.34064L292.15625 343.10626L293.23438 343.10626L291.39062 349.45L290.67188 349.45L290.82812 348.34064ZM289.4375 343.10626L291.03125 348.23126L291.20312 349.45L290.51562 349.45L288.8125 344.1375L288.67188 343.10626L289.4375 343.10626ZM294.04688 346.35626L294.04688 346.21564Q294.04688 345.52814 294.23438 344.95Q294.4375 344.35626 294.8125 343.91876Q295.1875 343.48126 295.71875 343.2469Q296.25 342.9969 296.92188 342.9969Q297.57812 342.9969 298.10938 343.2469Q298.65625 343.48126 299.03125 343.91876Q299.40625 344.35626 299.60938 344.95Q299.8125 345.52814 299.8125 346.21564L299.8125 346.35626Q299.8125 347.02814 299.60938 347.6219Q299.40625 348.2 299.03125 348.6375Q298.65625 349.075 298.125 349.325Q297.59375 349.575 296.92188 349.575Q296.26562 349.575 295.71875 349.325Q295.1875 349.075 294.8125 348.6375Q294.4375 348.2 294.23438 347.6219Q294.04688 347.02814 294.04688 346.35626ZM295.125 346.21564L295.125 346.35626Q295.125 346.825 295.23438 347.2469Q295.34375 347.66876 295.5625 347.9969Q295.79688 348.3094 296.14062 348.4969Q296.48438 348.66876 296.92188 348.66876Q297.375 348.66876 297.70312 348.4969Q298.04688 348.3094 298.26562 347.9969Q298.5 347.66876 298.60938 347.2469Q298.71875 346.825 298.71875 346.35626L298.71875 346.21564Q298.71875 345.7469 298.60938 345.325Q298.5 344.90314 298.26562 344.59064Q298.04688 344.2625 297.70312 344.075Q297.375 343.8875 296.92188 343.8875Q296.46875 343.8875 296.125 344.075Q295.79688 344.2625 295.5625 344.59064Q295.34375 344.90314 295.23438 345.325Q295.125 345.7469 295.125 346.21564ZM308.32812 348.21564L308.32812 340.45L309.40625 340.45L309.40625 349.45L308.42188 349.45L308.32812 348.21564ZM304.0625 346.35626L304.0625 346.23126Q304.0625 345.4969 304.23438 344.90314Q304.42188 344.3094 304.75 343.8875Q305.07812 343.45 305.53125 343.23126Q306.0 342.9969 306.5625 342.9969Q307.15625 342.9969 307.60938 343.2Q308.0625 343.40314 308.375 343.8094Q308.6875 344.2 308.85938 344.7625Q309.04688 345.3094 309.125 346.0125L309.125 346.5594Q309.0625 347.2469 308.875 347.8094Q308.6875 348.3719 308.375 348.7625Q308.0625 349.15314 307.60938 349.3719Q307.15625 349.575 306.54688 349.575Q306.0 349.575 305.53125 349.34064Q305.07812 349.09064 304.75 348.65314Q304.42188 348.21564 304.23438 347.6375Q304.0625 347.04376 304.0625 346.35626ZM305.14062 346.23126L305.14062 346.35626Q305.14062 346.825 305.23438 347.2469Q305.34375 347.65314 305.54688 347.98126Q305.75 348.29376 306.0625 348.48126Q306.39062 348.65314 306.82812 348.65314Q307.35938 348.65314 307.70312 348.41876Q308.0625 348.1844 308.26562 347.8094Q308.48438 347.4344 308.59375 346.9969L308.59375 345.59064Q308.53125 345.2625 308.39062 344.96564Q308.26562 344.66876 308.04688 344.4344Q307.84375 344.1844 307.54688 344.04376Q307.25 343.90314 306.82812 343.90314Q306.39062 343.90314 306.0625 344.09064Q305.75 344.27814 305.54688 344.60626Q305.34375 344.91876 305.23438 345.34064Q305.14062 345.7469 305.14062 346.23126ZM315.0625 348.3719L315.0625 345.10626Q315.0625 344.73126 314.90625 344.45Q314.76562 344.16876 314.46875 344.02814Q314.17188 343.8719 313.73438 343.8719Q313.3125 343.8719 313.0 344.0125Q312.70312 344.15314 312.53125 344.3875Q312.35938 344.60626 312.35938 344.8719L311.28125 344.8719Q311.28125 344.52814 311.45312 344.2Q311.625 343.85626 311.95312 343.59064Q312.28125 343.3094 312.75 343.15314Q313.21875 342.9969 313.79688 342.9969Q314.48438 342.9969 315.01562 343.23126Q315.54688 343.46564 315.84375 343.9344Q316.15625 344.40314 316.15625 345.10626L316.15625 348.0594Q316.15625 348.3875 316.20312 348.7469Q316.26562 349.09064 316.375 349.35626L316.375 349.45L315.23438 349.45Q315.15625 349.2625 315.10938 348.95Q315.0625 348.6375 315.0625 348.3719ZM315.25 345.60626L315.26562 346.3719L314.17188 346.3719Q313.70312 346.3719 313.34375 346.45Q312.98438 346.5125 312.73438 346.66876Q312.48438 346.8094 312.35938 347.02814Q312.23438 347.2469 312.23438 347.54376Q312.23438 347.84064 312.35938 348.09064Q312.5 348.325 312.76562 348.48126Q313.04688 348.6219 313.4375 348.6219Q313.9375 348.6219 314.3125 348.41876Q314.70312 348.2 314.92188 347.90314Q315.15625 347.59064 315.17188 347.29376L315.64062 347.825Q315.59375 348.0594 315.40625 348.3719Q315.23438 348.66876 314.92188 348.95Q314.625 349.21564 314.20312 349.40314Q313.79688 349.575 313.28125 349.575Q312.64062 349.575 312.15625 349.325Q311.67188 349.0594 311.40625 348.6375Q311.14062 348.21564 311.14062 347.6844Q311.14062 347.16876 311.32812 346.79376Q311.53125 346.40314 311.90625 346.1375Q312.28125 345.8719 312.8125 345.7469Q313.34375 345.60626 314.0 345.60626L315.25 345.60626ZM320.10938 348.79376L321.875 343.10626L323.03125 343.10626L320.48438 350.4344Q320.40625 350.66876 320.25 350.9344Q320.10938 351.21564 319.89062 351.45Q319.67188 351.7 319.35938 351.85626Q319.04688 352.0125 318.60938 352.0125Q318.48438 352.0125 318.28125 351.96564Q318.07812 351.9344 318.0 351.91876L318.0 351.04376Q318.04688 351.04376 318.14062 351.04376Q318.25 351.0594 318.28125 351.0594Q318.65625 351.0594 318.90625 350.96564Q319.17188 350.8719 319.34375 350.6375Q319.53125 350.41876 319.65625 350.02814L320.10938 348.79376ZM318.8125 343.10626L320.45312 348.02814L320.73438 349.16876L319.96875 349.575L317.625 343.10626L318.8125 343.10626Z" fill-rule="nonzero"/><path fill="#000000" d="M436.8139 340.91876L437.90765 340.91876L440.70453 347.8719L443.5014 340.91876L444.59515 340.91876L441.1264 349.45L440.28265 349.45L436.8139 340.91876ZM436.45453 340.91876L437.42328 340.91876L437.57953 346.1219L437.57953 349.45L436.45453 349.45L436.45453 340.91876ZM443.98578 340.91876L444.95453 340.91876L444.95453 349.45L443.82953 349.45L443.82953 346.1219L443.98578 340.91876ZM450.17328 347.98126L450.17328 343.10626L451.26703 343.10626L451.26703 349.45L450.23578 349.45L450.17328 347.98126ZM450.3764 346.65314L450.82953 346.6375Q450.82953 347.2625 450.6889 347.8094Q450.5639 348.34064 450.26703 348.73126Q449.98578 349.1219 449.5014 349.35626Q449.03265 349.575 448.36078 349.575Q447.89203 349.575 447.5014 349.4344Q447.1264 349.29376 446.84515 349.0125Q446.57953 348.73126 446.42328 348.27814Q446.26703 347.825 446.26703 347.2L446.26703 343.10626L447.36078 343.10626L447.36078 347.21564Q447.36078 347.6375 447.45453 347.91876Q447.54828 348.2 447.72015 348.35626Q447.89203 348.5125 448.09515 348.59064Q448.29828 348.65314 448.51703 348.65314Q449.22015 348.65314 449.61078 348.3875Q450.01703 348.10626 450.1889 347.65314Q450.3764 347.2 450.3764 346.65314ZM454.47015 340.45L454.47015 349.45L453.39203 349.45L453.39203 340.45L454.47015 340.45ZM458.95453 343.10626L458.95453 343.9344L455.51703 343.9344L455.51703 343.10626L458.95453 343.10626ZM456.6889 341.575L457.76703 341.575L457.76703 347.8719Q457.76703 348.2 457.86078 348.3719Q457.97015 348.52814 458.1264 348.59064Q458.28265 348.6375 458.47015 348.6375Q458.59515 348.6375 458.73578 348.60626Q458.89203 348.575 458.97015 348.5594L458.98578 349.45Q458.84515 349.4969 458.64203 349.52814Q458.4389 349.575 458.14203 349.575Q457.7514 349.575 457.40765 349.41876Q457.07953 349.2469 456.8764 348.8875Q456.6889 348.5125 456.6889 347.8719L456.6889 341.575ZM461.47015 343.10626L461.47015 349.45L460.39203 349.45L460.39203 343.10626L461.47015 343.10626ZM460.29828 341.4344Q460.29828 341.16876 460.45453 340.98126Q460.6264 340.79376 460.9389 340.79376Q461.2514 340.79376 461.40765 340.98126Q461.57953 341.16876 461.57953 341.4344Q461.57953 341.6844 461.40765 341.8719Q461.2514 342.04376 460.9389 342.04376Q460.6264 342.04376 460.45453 341.8719Q460.29828 341.6844 460.29828 341.4344ZM470.29828 348.21564L470.29828 340.45L471.3764 340.45L471.3764 349.45L470.39203 349.45L470.29828 348.21564ZM466.03265 346.35626L466.03265 346.23126Q466.03265 345.4969 466.20453 344.90314Q466.39203 344.3094 466.72015 343.8875Q467.04828 343.45 467.5014 343.23126Q467.97015 342.9969 468.53265 342.9969Q469.1264 342.9969 469.57953 343.2Q470.03265 343.40314 470.34515 343.8094Q470.65765 344.2 470.82953 344.7625Q471.01703 345.3094 471.09515 346.0125L471.09515 346.5594Q471.03265 347.2469 470.84515 347.8094Q470.65765 348.3719 470.34515 348.7625Q470.03265 349.15314 469.57953 349.3719Q469.1264 349.575 468.51703 349.575Q467.97015 349.575 467.5014 349.34064Q467.04828 349.09064 466.72015 348.65314Q466.39203 348.21564 466.20453 347.6375Q466.03265 347.04376 466.03265 346.35626ZM467.11078 346.23126L467.11078 346.35626Q467.11078 346.825 467.20453 347.2469Q467.3139 347.65314 467.51703 347.98126Q467.72015 348.29376 468.03265 348.48126Q468.36078 348.65314 468.79828 348.65314Q469.32953 348.65314 469.67328 348.41876Q470.03265 348.1844 470.23578 347.8094Q470.45453 347.4344 470.5639 346.9969L470.5639 345.59064Q470.5014 345.2625 470.36078 344.96564Q470.23578 344.66876 470.01703 344.4344Q469.8139 344.1844 469.51703 344.04376Q469.22015 343.90314 468.79828 343.90314Q468.36078 343.90314 468.03265 344.09064Q467.72015 344.27814 467.51703 344.60626Q467.3139 344.91876 467.20453 345.34064Q467.11078 345.7469 467.11078 346.23126ZM477.03265 348.3719L477.03265 345.10626Q477.03265 344.73126 476.8764 344.45Q476.73578 344.16876 476.4389 344.02814Q476.14203 343.8719 475.70453 343.8719Q475.28265 343.8719 474.97015 344.0125Q474.67328 344.15314 474.5014 344.3875Q474.32953 344.60626 474.32953 344.8719L473.2514 344.8719Q473.2514 344.52814 473.42328 344.2Q473.59515 343.85626 473.92328 343.59064Q474.2514 343.3094 474.72015 343.15314Q475.1889 342.9969 475.76703 342.9969Q476.45453 342.9969 476.98578 343.23126Q477.51703 343.46564 477.8139 343.9344Q478.1264 344.40314 478.1264 345.10626L478.1264 348.0594Q478.1264 348.3875 478.17328 348.7469Q478.23578 349.09064 478.34515 349.35626L478.34515 349.45L477.20453 349.45Q477.1264 349.2625 477.07953 348.95Q477.03265 348.6375 477.03265 348.3719ZM477.22015 345.60626L477.23578 346.3719L476.14203 346.3719Q475.67328 346.3719 475.3139 346.45Q474.95453 346.5125 474.70453 346.66876Q474.45453 346.8094 474.32953 347.02814Q474.20453 347.2469 474.20453 347.54376Q474.20453 347.84064 474.32953 348.09064Q474.47015 348.325 474.73578 348.48126Q475.01703 348.6219 475.40765 348.6219Q475.90765 348.6219 476.28265 348.41876Q476.67328 348.2 476.89203 347.90314Q477.1264 347.59064 477.14203 347.29376L477.61078 347.825Q477.5639 348.0594 477.3764 348.3719Q477.20453 348.66876 476.89203 348.95Q476.59515 349.21564 476.17328 349.40314Q475.76703 349.575 475.2514 349.575Q474.61078 349.575 474.1264 349.325Q473.64203 349.0594 473.3764 348.6375Q473.11078 348.21564 473.11078 347.6844Q473.11078 347.16876 473.29828 346.79376Q473.5014 346.40314 473.8764 346.1375Q474.2514 345.8719 474.78265 345.7469Q475.3139 345.60626 475.97015 345.60626L477.22015 345.60626ZM482.07953 348.79376L483.84515 343.10626L485.0014 343.10626L482.45453 350.4344Q482.3764 350.66876 482.22015 350.9344Q482.07953 351.21564 481.86078 351.45Q481.64203 351.7 481.32953 351.85626Q481.01703 352.0125 480.57953 352.0125Q480.45453 352.0125 480.2514 351.96564Q480.04828 351.9344 479.97015 351.91876L479.97015 351.04376Q480.01703 351.04376 480.11078 351.04376Q480.22015 351.0594 480.2514 351.0594Q480.6264 351.0594 480.8764 350.96564Q481.14203 350.8719 481.3139 350.6375Q481.5014 350.41876 481.6264 350.02814L482.07953 348.79376ZM480.78265 343.10626L482.42328 348.02814L482.70453 349.16876L481.9389 349.575L479.59515 343.10626L480.78265 343.10626Z" fill-rule="nonzero"/><path fill="#434343" d="M153.65625 30.471874L153.65625 35.675Q153.39062 36.065624 152.8125 36.55Q152.25 37.034374 151.23438 37.39375Q150.21875 37.753124 148.625 37.753124Q147.32812 37.753124 146.23438 37.3Q145.15625 36.83125 144.35938 35.95625Q143.5625 35.08125 143.125 33.83125Q142.6875 32.58125 142.6875 30.9875L142.6875 29.878124Q142.6875 28.284374 143.0625 27.034374Q143.4375 25.784374 144.17188 24.925Q144.90625 24.05 145.96875 23.596874Q147.03125 23.128124 148.42188 23.128124Q150.04688 23.128124 151.14062 23.690624Q152.25 24.253124 152.85938 25.253124Q153.48438 26.2375 153.65625 27.4875L151.78125 27.4875Q151.64062 26.721874 151.26562 26.096874Q150.89062 25.45625 150.20312 25.065624Q149.51562 24.675 148.42188 24.675Q147.42188 24.675 146.70312 25.034374Q145.98438 25.39375 145.51562 26.08125Q145.04688 26.753124 144.8125 27.70625Q144.59375 28.659374 144.59375 29.8625L144.59375 30.9875Q144.59375 32.221874 144.875 33.190624Q145.15625 34.14375 145.6875 34.83125Q146.23438 35.503124 146.98438 35.8625Q147.73438 36.20625 148.64062 36.20625Q149.64062 36.20625 150.26562 36.034374Q150.89062 35.8625 151.23438 35.628124Q151.59375 35.39375 151.78125 35.175L151.78125 31.9875L148.5 31.9875L148.5 30.471874L153.65625 30.471874ZM158.84375 26.9875L158.84375 37.55L157.03125 37.55L157.03125 26.9875L158.84375 26.9875ZM156.89062 24.175Q156.89062 23.7375 157.15625 23.440624Q157.42188 23.128124 157.95312 23.128124Q158.46875 23.128124 158.75 23.440624Q159.03125 23.7375 159.03125 24.175Q159.03125 24.596874 158.75 24.89375Q158.46875 25.190624 157.95312 25.190624Q157.42188 25.190624 157.15625 24.89375Q156.89062 24.596874 156.89062 24.175ZM168.71875 26.9875L170.35938 26.9875L170.35938 37.33125Q170.35938 38.721874 169.79688 39.70625Q169.23438 40.690624 168.21875 41.20625Q167.20312 41.721874 165.89062 41.721874Q165.34375 41.721874 164.60938 41.55Q163.875 41.378124 163.15625 40.971874Q162.45312 40.565624 161.96875 39.878124L162.92188 38.815624Q163.59375 39.6125 164.3125 39.925Q165.04688 40.2375 165.75 40.2375Q166.60938 40.2375 167.23438 39.909374Q167.85938 39.596874 168.20312 38.95625Q168.5625 38.33125 168.5625 37.409374L168.5625 29.3L168.71875 26.9875ZM161.45312 32.378124L161.45312 32.175Q161.45312 30.971874 161.73438 29.9875Q162.03125 28.9875 162.5625 28.284374Q163.10938 27.565624 163.875 27.175Q164.65625 26.784374 165.625 26.784374Q166.60938 26.784374 167.35938 27.14375Q168.10938 27.4875 168.625 28.14375Q169.15625 28.8 169.45312 29.7375Q169.76562 30.659374 169.875 31.83125L169.875 32.721874Q169.76562 33.89375 169.45312 34.815624Q169.15625 35.7375 168.625 36.39375Q168.10938 37.05 167.35938 37.409374Q166.60938 37.753124 165.59375 37.753124Q164.65625 37.753124 163.89062 37.346874Q163.125 36.940624 162.57812 36.221874Q162.03125 35.503124 161.73438 34.51875Q161.45312 33.534374 161.45312 32.378124ZM163.25 32.175L163.25 32.378124Q163.25 33.175 163.40625 33.878124Q163.57812 34.565624 163.90625 35.096874Q164.25 35.6125 164.78125 35.909374Q165.3125 36.20625 166.03125 36.20625Q166.9375 36.20625 167.51562 35.83125Q168.10938 35.45625 168.45312 34.83125Q168.79688 34.20625 169.0 33.471874L169.0 31.1125Q168.89062 30.58125 168.67188 30.08125Q168.45312 29.565624 168.09375 29.175Q167.75 28.784374 167.23438 28.55Q166.73438 28.315624 166.0625 28.315624Q165.3125 28.315624 164.78125 28.628124Q164.25 28.925 163.90625 29.45625Q163.57812 29.9875 163.40625 30.690624Q163.25 31.39375 163.25 32.175ZM179.03125 34.753124Q179.03125 34.3625 178.85938 34.01875Q178.6875 33.675 178.15625 33.409374Q177.64062 33.128124 176.59375 32.925Q175.71875 32.7375 175.0 32.4875Q174.29688 32.221874 173.79688 31.8625Q173.3125 31.503124 173.04688 31.01875Q172.79688 30.534374 172.79688 29.878124Q172.79688 29.253124 173.0625 28.690624Q173.34375 28.128124 173.85938 27.70625Q174.375 27.26875 175.09375 27.034374Q175.8125 26.784374 176.70312 26.784374Q177.96875 26.784374 178.85938 27.2375Q179.76562 27.690624 180.25 28.440624Q180.73438 29.175 180.73438 30.08125L178.92188 30.08125Q178.92188 29.64375 178.65625 29.2375Q178.40625 28.815624 177.90625 28.55Q177.42188 28.26875 176.70312 28.26875Q175.95312 28.26875 175.48438 28.503124Q175.03125 28.7375 174.8125 29.096874Q174.60938 29.440624 174.60938 29.83125Q174.60938 30.1125 174.70312 30.346874Q174.8125 30.58125 175.07812 30.76875Q175.34375 30.95625 175.8125 31.128124Q176.29688 31.284374 177.03125 31.45625Q178.34375 31.753124 179.17188 32.159374Q180.01562 32.565624 180.42188 33.159374Q180.84375 33.753124 180.84375 34.6125Q180.84375 35.3 180.54688 35.878124Q180.26562 36.45625 179.71875 36.878124Q179.17188 37.284374 178.42188 37.51875Q177.6875 37.753124 176.75 37.753124Q175.35938 37.753124 174.39062 37.253124Q173.42188 36.753124 172.92188 35.95625Q172.42188 35.159374 172.42188 34.284374L174.25 34.284374Q174.28125 35.034374 174.67188 35.471874Q175.0625 35.89375 175.625 36.08125Q176.20312 36.253124 176.75 36.253124Q177.5 36.253124 178.0 36.065624Q178.5 35.8625 178.76562 35.534374Q179.03125 35.190624 179.03125 34.753124ZM194.10938 35.7375L194.10938 30.3Q194.10938 29.675 193.85938 29.221874Q193.60938 28.753124 193.10938 28.503124Q192.60938 28.2375 191.875 28.2375Q191.20312 28.2375 190.6875 28.471874Q190.17188 28.70625 189.875 29.096874Q189.59375 29.471874 189.59375 29.909374L187.79688 29.909374Q187.79688 29.346874 188.07812 28.8Q188.375 28.2375 188.92188 27.784374Q189.48438 27.33125 190.25 27.065624Q191.03125 26.784374 191.98438 26.784374Q193.14062 26.784374 194.01562 27.175Q194.90625 27.565624 195.40625 28.3625Q195.92188 29.14375 195.92188 30.315624L195.92188 35.2375Q195.92188 35.76875 196.0 36.3625Q196.09375 36.95625 196.28125 37.39375L196.28125 37.55L194.40625 37.55Q194.26562 37.2375 194.1875 36.721874Q194.10938 36.190624 194.10938 35.7375ZM194.42188 31.14375L194.4375 32.409374L192.60938 32.409374Q191.84375 32.409374 191.23438 32.534374Q190.625 32.659374 190.21875 32.909374Q189.8125 33.14375 189.59375 33.51875Q189.375 33.878124 189.375 34.3625Q189.375 34.8625 189.59375 35.284374Q189.82812 35.690624 190.28125 35.925Q190.73438 36.159374 191.40625 36.159374Q192.23438 36.159374 192.85938 35.815624Q193.5 35.45625 193.875 34.95625Q194.25 34.440624 194.28125 33.971874L195.0625 34.83125Q194.98438 35.2375 194.67188 35.7375Q194.375 36.2375 193.875 36.690624Q193.375 37.14375 192.6875 37.45625Q192.0 37.753124 191.14062 37.753124Q190.0625 37.753124 189.25 37.33125Q188.45312 36.909374 188.0 36.20625Q187.5625 35.4875 187.5625 34.6125Q187.5625 33.753124 187.89062 33.1125Q188.23438 32.45625 188.85938 32.034374Q189.48438 31.596874 190.35938 31.378124Q191.23438 31.14375 192.32812 31.14375L194.42188 31.14375ZM200.6875 29.2375L200.6875 37.55L198.875 37.55L198.875 26.9875L200.59375 26.9875L200.6875 29.2375ZM200.25 31.8625L199.5 31.83125Q199.51562 30.753124 199.82812 29.83125Q200.14062 28.909374 200.70312 28.221874Q201.26562 27.534374 202.04688 27.159374Q202.84375 26.784374 203.79688 26.784374Q204.57812 26.784374 205.20312 27.003124Q205.82812 27.20625 206.26562 27.675Q206.71875 28.128124 206.95312 28.8625Q207.1875 29.58125 207.1875 30.628124L207.1875 37.55L205.375 37.55L205.375 30.6125Q205.375 29.76875 205.125 29.26875Q204.89062 28.76875 204.42188 28.55Q203.95312 28.315624 203.26562 28.315624Q202.59375 28.315624 202.03125 28.596874Q201.48438 28.878124 201.07812 29.378124Q200.6875 29.878124 200.46875 30.51875Q200.25 31.159374 200.25 31.8625ZM216.53125 35.503124L216.53125 22.55L218.35938 22.55L218.35938 37.55L216.6875 37.55L216.53125 35.503124ZM209.42188 32.378124L209.42188 32.175Q209.42188 30.971874 209.71875 29.9875Q210.03125 28.9875 210.57812 28.284374Q211.125 27.565624 211.89062 27.175Q212.65625 26.784374 213.60938 26.784374Q214.60938 26.784374 215.34375 27.14375Q216.09375 27.4875 216.60938 28.14375Q217.14062 28.8 217.4375 29.7375Q217.75 30.659374 217.85938 31.83125L217.85938 32.721874Q217.76562 33.89375 217.45312 34.815624Q217.14062 35.7375 216.60938 36.39375Q216.09375 37.05 215.34375 37.409374Q214.59375 37.753124 213.59375 37.753124Q212.65625 37.753124 211.89062 37.346874Q211.125 36.940624 210.57812 36.221874Q210.03125 35.503124 209.71875 34.51875Q209.42188 33.534374 209.42188 32.378124ZM211.25 32.175L211.25 32.378124Q211.25 33.175 211.40625 33.878124Q211.5625 34.565624 211.90625 35.096874Q212.25 35.6125 212.78125 35.909374Q213.3125 36.20625 214.03125 36.20625Q214.9375 36.20625 215.51562 35.83125Q216.09375 35.45625 216.4375 34.83125Q216.79688 34.20625 217.0 33.471874L217.0 31.1125Q216.875 30.58125 216.65625 30.08125Q216.4375 29.565624 216.09375 29.175Q215.75 28.784374 215.23438 28.55Q214.73438 28.315624 214.0625 28.315624Q213.3125 28.315624 212.78125 28.628124Q212.25 28.925 211.90625 29.45625Q211.5625 29.9875 211.40625 30.690624Q211.25 31.39375 211.25 32.175ZM228.57812 37.55L226.76562 37.55L226.76562 25.8625Q226.76562 24.721874 227.17188 23.940624Q227.59375 23.159374 228.375 22.753124Q229.15625 22.346874 230.23438 22.346874Q230.54688 22.346874 230.85938 22.39375Q231.1875 22.425 231.48438 22.503124L231.39062 23.971874Q231.1875 23.925 230.92188 23.909374Q230.65625 23.89375 230.40625 23.89375Q229.82812 23.89375 229.40625 24.128124Q229.0 24.346874 228.78125 24.784374Q228.57812 25.221874 228.57812 25.8625L228.57812 37.55ZM230.8125 26.9875L230.8125 28.3625L225.09375 28.3625L225.09375 26.9875L230.8125 26.9875ZM237.26562 37.753124Q236.15625 37.753124 235.26562 37.378124Q234.375 36.9875 233.73438 36.315624Q233.09375 35.628124 232.75 34.690624Q232.40625 33.753124 232.40625 32.64375L232.40625 32.221874Q232.40625 30.940624 232.78125 29.925Q233.17188 28.909374 233.82812 28.20625Q234.48438 27.503124 235.3125 27.14375Q236.14062 26.784374 237.03125 26.784374Q238.15625 26.784374 238.98438 27.175Q239.8125 27.565624 240.32812 28.26875Q240.85938 28.971874 241.10938 29.909374Q241.375 30.846874 241.375 31.95625L241.375 32.76875L233.48438 32.76875L233.48438 31.3L239.5625 31.3L239.5625 31.159374Q239.53125 30.45625 239.28125 29.8Q239.03125 29.128124 238.48438 28.70625Q237.95312 28.26875 237.03125 28.26875Q236.40625 28.26875 235.89062 28.534374Q235.375 28.784374 235.0 29.3Q234.64062 29.8 234.42188 30.534374Q234.21875 31.26875 234.21875 32.221874L234.21875 32.64375Q234.21875 33.39375 234.42188 34.05Q234.64062 34.70625 235.04688 35.20625Q235.45312 35.70625 236.03125 35.9875Q236.625 36.26875 237.35938 36.26875Q238.3125 36.26875 238.96875 35.878124Q239.64062 35.4875 240.14062 34.83125L241.23438 35.70625Q240.89062 36.221874 240.35938 36.690624Q239.84375 37.159374 239.07812 37.45625Q238.3125 37.753124 237.26562 37.753124ZM250.03125 34.753124Q250.03125 34.3625 249.85938 34.01875Q249.6875 33.675 249.15625 33.409374Q248.64062 33.128124 247.59375 32.925Q246.71875 32.7375 246.0 32.4875Q245.29688 32.221874 244.79688 31.8625Q244.3125 31.503124 244.04688 31.01875Q243.79688 30.534374 243.79688 29.878124Q243.79688 29.253124 244.0625 28.690624Q244.34375 28.128124 244.85938 27.70625Q245.375 27.26875 246.09375 27.034374Q246.8125 26.784374 247.70312 26.784374Q248.96875 26.784374 249.85938 27.2375Q250.76562 27.690624 251.25 28.440624Q251.73438 29.175 251.73438 30.08125L249.92188 30.08125Q249.92188 29.64375 249.65625 29.2375Q249.40625 28.815624 248.90625 28.55Q248.42188 28.26875 247.70312 28.26875Q246.95312 28.26875 246.48438 28.503124Q246.03125 28.7375 245.8125 29.096874Q245.60938 29.440624 245.60938 29.83125Q245.60938 30.1125 245.70312 30.346874Q245.8125 30.58125 246.07812 30.76875Q246.34375 30.95625 246.8125 31.128124Q247.29688 31.284374 248.03125 31.45625Q249.34375 31.753124 250.17188 32.159374Q251.01562 32.565624 251.42188 33.159374Q251.84375 33.753124 251.84375 34.6125Q251.84375 35.3 251.54688 35.878124Q251.26562 36.45625 250.71875 36.878124Q250.17188 37.284374 249.42188 37.51875Q248.6875 37.753124 247.75 37.753124Q246.35938 37.753124 245.39062 37.253124Q244.42188 36.753124 243.92188 35.95625Q243.42188 35.159374 243.42188 34.284374L245.25 34.284374Q245.28125 35.034374 245.67188 35.471874Q246.0625 35.89375 246.625 36.08125Q247.20312 36.253124 247.75 36.253124Q248.5 36.253124 249.0 36.065624Q249.5 35.8625 249.76562 35.534374Q250.03125 35.190624 250.03125 34.753124ZM258.29688 26.9875L258.29688 28.3625L252.59375 28.3625L252.59375 26.9875L258.29688 26.9875ZM254.51562 24.409374L256.32812 24.409374L256.32812 34.925Q256.32812 35.471874 256.48438 35.753124Q256.65625 36.01875 256.92188 36.1125Q257.1875 36.190624 257.48438 36.190624Q257.71875 36.190624 257.96875 36.14375Q258.21875 36.096874 258.34375 36.08125L258.34375 37.55Q258.14062 37.6125 257.78125 37.675Q257.4375 37.753124 256.95312 37.753124Q256.29688 37.753124 255.73438 37.4875Q255.17188 37.221874 254.84375 36.596874Q254.51562 35.971874 254.51562 34.925L254.51562 24.409374ZM262.84375 26.9875L262.84375 37.55L261.03125 37.55L261.03125 26.9875L262.84375 26.9875ZM260.89062 24.175Q260.89062 23.7375 261.15625 23.440624Q261.42188 23.128124 261.95312 23.128124Q262.46875 23.128124 262.75 23.440624Q263.03125 23.7375 263.03125 24.175Q263.03125 24.596874 262.75 24.89375Q262.46875 25.190624 261.95312 25.190624Q261.42188 25.190624 261.15625 24.89375Q260.89062 24.596874 260.89062 24.175ZM269.09375 35.925L271.98438 26.9875L273.82812 26.9875L270.03125 37.55L268.8125 37.55L269.09375 35.925ZM266.67188 26.9875L269.65625 35.971874L269.85938 37.55L268.65625 37.55L264.82812 26.9875L266.67188 26.9875ZM282.10938 35.7375L282.10938 30.3Q282.10938 29.675 281.85938 29.221874Q281.60938 28.753124 281.10938 28.503124Q280.60938 28.2375 279.875 28.2375Q279.20312 28.2375 278.6875 28.471874Q278.17188 28.70625 277.875 29.096874Q277.59375 29.471874 277.59375 29.909374L275.79688 29.909374Q275.79688 29.346874 276.07812 28.8Q276.375 28.2375 276.92188 27.784374Q277.48438 27.33125 278.25 27.065624Q279.03125 26.784374 279.98438 26.784374Q281.14062 26.784374 282.01562 27.175Q282.90625 27.565624 283.40625 28.3625Q283.92188 29.14375 283.92188 30.315624L283.92188 35.2375Q283.92188 35.76875 284.0 36.3625Q284.09375 36.95625 284.28125 37.39375L284.28125 37.55L282.40625 37.55Q282.26562 37.2375 282.1875 36.721874Q282.10938 36.190624 282.10938 35.7375ZM282.42188 31.14375L282.4375 32.409374L280.60938 32.409374Q279.84375 32.409374 279.23438 32.534374Q278.625 32.659374 278.21875 32.909374Q277.8125 33.14375 277.59375 33.51875Q277.375 33.878124 277.375 34.3625Q277.375 34.8625 277.59375 35.284374Q277.82812 35.690624 278.28125 35.925Q278.73438 36.159374 279.40625 36.159374Q280.23438 36.159374 280.85938 35.815624Q281.5 35.45625 281.875 34.95625Q282.25 34.440624 282.28125 33.971874L283.0625 34.83125Q282.98438 35.2375 282.67188 35.7375Q282.375 36.2375 281.875 36.690624Q281.375 37.14375 280.6875 37.45625Q280.0 37.753124 279.14062 37.753124Q278.0625 37.753124 277.25 37.33125Q276.45312 36.909374 276.0 36.20625Q275.5625 35.4875 275.5625 34.6125Q275.5625 33.753124 275.89062 33.1125Q276.23438 32.45625 276.85938 32.034374Q277.48438 31.596874 278.35938 31.378124Q279.23438 31.14375 280.32812 31.14375L282.42188 31.14375ZM288.84375 22.55L288.84375 37.55L287.03125 37.55L287.03125 22.55L288.84375 22.55ZM298.03125 34.753124Q298.03125 34.3625 297.85938 34.01875Q297.6875 33.675 297.15625 33.409374Q296.64062 33.128124 295.59375 32.925Q294.71875 32.7375 294.0 32.4875Q293.29688 32.221874 292.79688 31.8625Q292.3125 31.503124 292.04688 31.01875Q291.79688 30.534374 291.79688 29.878124Q291.79688 29.253124 292.0625 28.690624Q292.34375 28.128124 292.85938 27.70625Q293.375 27.26875 294.09375 27.034374Q294.8125 26.784374 295.70312 26.784374Q296.96875 26.784374 297.85938 27.2375Q298.76562 27.690624 299.25 28.440624Q299.73438 29.175 299.73438 30.08125L297.92188 30.08125Q297.92188 29.64375 297.65625 29.2375Q297.40625 28.815624 296.90625 28.55Q296.42188 28.26875 295.70312 28.26875Q294.95312 28.26875 294.48438 28.503124Q294.03125 28.7375 293.8125 29.096874Q293.60938 29.440624 293.60938 29.83125Q293.60938 30.1125 293.70312 30.346874Q293.8125 30.58125 294.07812 30.76875Q294.34375 30.95625 294.8125 31.128124Q295.29688 31.284374 296.03125 31.45625Q297.34375 31.753124 298.17188 32.159374Q299.01562 32.565624 299.42188 33.159374Q299.84375 33.753124 299.84375 34.6125Q299.84375 35.3 299.54688 35.878124Q299.26562 36.45625 298.71875 36.878124Q298.17188 37.284374 297.42188 37.51875Q296.6875 37.753124 295.75 37.753124Q294.35938 37.753124 293.39062 37.253124Q292.42188 36.753124 291.92188 35.95625Q291.42188 35.159374 291.42188 34.284374L293.25 34.284374Q293.28125 35.034374 293.67188 35.471874Q294.0625 35.89375 294.625 36.08125Q295.20312 36.253124 295.75 36.253124Q296.5 36.253124 297.0 36.065624Q297.5 35.8625 297.76562 35.534374Q298.03125 35.190624 298.03125 34.753124ZM303.51562 35.39375L303.51562 36.8625Q303.51562 37.753124 303.0625 38.7375Q302.625 39.721874 301.8125 40.39375L300.78125 39.675Q301.09375 39.253124 301.3125 38.8Q301.53125 38.3625 301.64062 37.878124Q301.75 37.409374 301.75 36.878124L301.75 35.39375L303.51562 35.39375ZM315.10938 36.253124Q315.75 36.253124 316.29688 36.003124Q316.84375 35.7375 317.1875 35.26875Q317.54688 34.8 317.59375 34.20625L319.3125 34.20625Q319.26562 35.14375 318.6875 35.95625Q318.10938 36.753124 317.17188 37.253124Q316.23438 37.753124 315.10938 37.753124Q313.92188 37.753124 313.03125 37.33125Q312.14062 36.909374 311.5625 36.175Q310.98438 35.440624 310.6875 34.4875Q310.40625 33.534374 310.40625 32.471874L310.40625 32.065624Q310.40625 31.003124 310.6875 30.05Q310.98438 29.096874 311.5625 28.3625Q312.14062 27.628124 313.03125 27.20625Q313.92188 26.784374 315.10938 26.784374Q316.34375 26.784374 317.26562 27.3Q318.20312 27.8 318.73438 28.659374Q319.26562 29.51875 319.3125 30.6125L317.59375 30.6125Q317.54688 29.95625 317.21875 29.440624Q316.90625 28.909374 316.35938 28.596874Q315.82812 28.26875 315.10938 28.26875Q314.28125 28.26875 313.71875 28.596874Q313.15625 28.925 312.82812 29.4875Q312.5 30.034374 312.35938 30.70625Q312.21875 31.3625 312.21875 32.065624L312.21875 32.471874Q312.21875 33.159374 312.34375 33.846874Q312.48438 34.51875 312.8125 35.065624Q313.14062 35.6125 313.70312 35.940624Q314.26562 36.253124 315.10938 36.253124ZM320.40625 32.378124L320.40625 32.159374Q320.40625 31.01875 320.73438 30.034374Q321.0625 29.05 321.6875 28.33125Q322.3125 27.596874 323.20312 27.190624Q324.09375 26.784374 325.1875 26.784374Q326.3125 26.784374 327.20312 27.190624Q328.09375 27.596874 328.71875 28.33125Q329.35938 29.05 329.6875 30.034374Q330.01562 31.01875 330.01562 32.159374L330.01562 32.378124Q330.01562 33.51875 329.6875 34.503124Q329.35938 35.471874 328.71875 36.20625Q328.09375 36.940624 327.20312 37.346874Q326.32812 37.753124 325.21875 37.753124Q324.09375 37.753124 323.20312 37.346874Q322.32812 36.940624 321.6875 36.20625Q321.0625 35.471874 320.73438 34.503124Q320.40625 33.51875 320.40625 32.378124ZM322.20312 32.159374L322.20312 32.378124Q322.20312 33.175 322.39062 33.878124Q322.57812 34.565624 322.95312 35.1125Q323.32812 35.64375 323.89062 35.95625Q324.46875 36.253124 325.21875 36.253124Q325.95312 36.253124 326.51562 35.95625Q327.07812 35.64375 327.45312 35.1125Q327.82812 34.565624 328.01562 33.878124Q328.20312 33.175 328.20312 32.378124L328.20312 32.159374Q328.20312 31.378124 328.01562 30.690624Q327.82812 29.9875 327.4375 29.440624Q327.0625 28.89375 326.5 28.58125Q325.95312 28.26875 325.1875 28.26875Q324.45312 28.26875 323.89062 28.58125Q323.32812 28.89375 322.95312 29.440624Q322.57812 29.9875 322.39062 30.690624Q322.20312 31.378124 322.20312 32.159374ZM335.09375 35.925L337.98438 26.9875L339.82812 26.9875L336.03125 37.55L334.8125 37.55L335.09375 35.925ZM332.67188 26.9875L335.65625 35.971874L335.85938 37.55L334.65625 37.55L330.82812 26.9875L332.67188 26.9875ZM346.26562 37.753124Q345.15625 37.753124 344.26562 37.378124Q343.375 36.9875 342.73438 36.315624Q342.09375 35.628124 341.75 34.690624Q341.40625 33.753124 341.40625 32.64375L341.40625 32.221874Q341.40625 30.940624 341.78125 29.925Q342.17188 28.909374 342.82812 28.20625Q343.48438 27.503124 344.3125 27.14375Q345.14062 26.784374 346.03125 26.784374Q347.15625 26.784374 347.98438 27.175Q348.8125 27.565624 349.32812 28.26875Q349.85938 28.971874 350.10938 29.909374Q350.375 30.846874 350.375 31.95625L350.375 32.76875L342.48438 32.76875L342.48438 31.3L348.5625 31.3L348.5625 31.159374Q348.53125 30.45625 348.28125 29.8Q348.03125 29.128124 347.48438 28.70625Q346.95312 28.26875 346.03125 28.26875Q345.40625 28.26875 344.89062 28.534374Q344.375 28.784374 344.0 29.3Q343.64062 29.8 343.42188 30.534374Q343.21875 31.26875 343.21875 32.221874L343.21875 32.64375Q343.21875 33.39375 343.42188 34.05Q343.64062 34.70625 344.04688 35.20625Q344.45312 35.70625 345.03125 35.9875Q345.625 36.26875 346.35938 36.26875Q347.3125 36.26875 347.96875 35.878124Q348.64062 35.4875 349.14062 34.83125L350.23438 35.70625Q349.89062 36.221874 349.35938 36.690624Q348.84375 37.159374 348.07812 37.45625Q347.3125 37.753124 346.26562 37.753124ZM354.6875 28.64375L354.6875 37.55L352.875 37.55L352.875 26.9875L354.64062 26.9875L354.6875 28.64375ZM357.98438 26.925L357.96875 28.596874Q357.75 28.55 357.54688 28.534374Q357.34375 28.51875 357.09375 28.51875Q356.46875 28.51875 355.98438 28.721874Q355.51562 28.909374 355.17188 29.26875Q354.84375 29.6125 354.65625 30.096874Q354.46875 30.58125 354.40625 31.159374L353.90625 31.45625Q353.90625 30.503124 354.09375 29.659374Q354.28125 28.815624 354.67188 28.175Q355.07812 27.51875 355.70312 27.159374Q356.32812 26.784374 357.1875 26.784374Q357.375 26.784374 357.625 26.83125Q357.89062 26.878124 357.98438 26.925ZM364.26562 37.753124Q363.15625 37.753124 362.26562 37.378124Q361.375 36.9875 360.73438 36.315624Q360.09375 35.628124 359.75 34.690624Q359.40625 33.753124 359.40625 32.64375L359.40625 32.221874Q359.40625 30.940624 359.78125 29.925Q360.17188 28.909374 360.82812 28.20625Q361.48438 27.503124 362.3125 27.14375Q363.14062 26.784374 364.03125 26.784374Q365.15625 26.784374 365.98438 27.175Q366.8125 27.565624 367.32812 28.26875Q367.85938 28.971874 368.10938 29.909374Q368.375 30.846874 368.375 31.95625L368.375 32.76875L360.48438 32.76875L360.48438 31.3L366.5625 31.3L366.5625 31.159374Q366.53125 30.45625 366.28125 29.8Q366.03125 29.128124 365.48438 28.70625Q364.95312 28.26875 364.03125 28.26875Q363.40625 28.26875 362.89062 28.534374Q362.375 28.784374 362.0 29.3Q361.64062 29.8 361.42188 30.534374Q361.21875 31.26875 361.21875 32.221874L361.21875 32.64375Q361.21875 33.39375 361.42188 34.05Q361.64062 34.70625 362.04688 35.20625Q362.45312 35.70625 363.03125 35.9875Q363.625 36.26875 364.35938 36.26875Q365.3125 36.26875 365.96875 35.878124Q366.64062 35.4875 367.14062 34.83125L368.23438 35.70625Q367.89062 36.221874 367.35938 36.690624Q366.84375 37.159374 366.07812 37.45625Q365.3125 37.753124 364.26562 37.753124ZM377.53125 35.503124L377.53125 22.55L379.35938 22.55L379.35938 37.55L377.6875 37.55L377.53125 35.503124ZM370.42188 32.378124L370.42188 32.175Q370.42188 30.971874 370.71875 29.9875Q371.03125 28.9875 371.57812 28.284374Q372.125 27.565624 372.89062 27.175Q373.65625 26.784374 374.60938 26.784374Q375.60938 26.784374 376.34375 27.14375Q377.09375 27.4875 377.60938 28.14375Q378.14062 28.8 378.4375 29.7375Q378.75 30.659374 378.85938 31.83125L378.85938 32.721874Q378.76562 33.89375 378.45312 34.815624Q378.14062 35.7375 377.60938 36.39375Q377.09375 37.05 376.34375 37.409374Q375.59375 37.753124 374.59375 37.753124Q373.65625 37.753124 372.89062 37.346874Q372.125 36.940624 371.57812 36.221874Q371.03125 35.503124 370.71875 34.51875Q370.42188 33.534374 370.42188 32.378124ZM372.25 32.175L372.25 32.378124Q372.25 33.175 372.40625 33.878124Q372.5625 34.565624 372.90625 35.096874Q373.25 35.6125 373.78125 35.909374Q374.3125 36.20625 375.03125 36.20625Q375.9375 36.20625 376.51562 35.83125Q377.09375 35.45625 377.4375 34.83125Q377.79688 34.20625 378.0 33.471874L378.0 31.1125Q377.875 30.58125 377.65625 30.08125Q377.4375 29.565624 377.09375 29.175Q376.75 28.784374 376.23438 28.55Q375.73438 28.315624 375.0625 28.315624Q374.3125 28.315624 373.78125 28.628124Q373.25 28.925 372.90625 29.45625Q372.5625 29.9875 372.40625 30.690624Q372.25 31.39375 372.25 32.175ZM391.29688 26.9875L391.29688 28.3625L385.59375 28.3625L385.59375 26.9875L391.29688 26.9875ZM387.51562 24.409374L389.32812 24.409374L389.32812 34.925Q389.32812 35.471874 389.48438 35.753124Q389.65625 36.01875 389.92188 36.1125Q390.1875 36.190624 390.48438 36.190624Q390.71875 36.190624 390.96875 36.14375Q391.21875 36.096874 391.34375 36.08125L391.34375 37.55Q391.14062 37.6125 390.78125 37.675Q390.4375 37.753124 389.95312 37.753124Q389.29688 37.753124 388.73438 37.4875Q388.17188 37.221874 387.84375 36.596874Q387.51562 35.971874 387.51562 34.925L387.51562 24.409374ZM395.6875 22.55L395.6875 37.55L393.875 37.55L393.875 22.55L395.6875 22.55ZM395.25 31.8625L394.5 31.83125Q394.51562 30.753124 394.82812 29.83125Q395.14062 28.909374 395.70312 28.221874Q396.26562 27.534374 397.04688 27.159374Q397.84375 26.784374 398.79688 26.784374Q399.57812 26.784374 400.20312 27.003124Q400.82812 27.20625 401.26562 27.675Q401.71875 28.128124 401.95312 28.8625Q402.1875 29.58125 402.1875 30.628124L402.1875 37.55L400.375 37.55L400.375 30.6125Q400.375 29.76875 400.125 29.26875Q399.89062 28.76875 399.42188 28.55Q398.95312 28.315624 398.26562 28.315624Q397.59375 28.315624 397.03125 28.596874Q396.48438 28.878124 396.07812 29.378124Q395.6875 29.878124 395.46875 30.51875Q395.25 31.159374 395.25 31.8625ZM409.26562 37.753124Q408.15625 37.753124 407.26562 37.378124Q406.375 36.9875 405.73438 36.315624Q405.09375 35.628124 404.75 34.690624Q404.40625 33.753124 404.40625 32.64375L404.40625 32.221874Q404.40625 30.940624 404.78125 29.925Q405.17188 28.909374 405.82812 28.20625Q406.48438 27.503124 407.3125 27.14375Q408.14062 26.784374 409.03125 26.784374Q410.15625 26.784374 410.98438 27.175Q411.8125 27.565624 412.32812 28.26875Q412.85938 28.971874 413.10938 29.909374Q413.375 30.846874 413.375 31.95625L413.375 32.76875L405.48438 32.76875L405.48438 31.3L411.5625 31.3L411.5625 31.159374Q411.53125 30.45625 411.28125 29.8Q411.03125 29.128124 410.48438 28.70625Q409.95312 28.26875 409.03125 28.26875Q408.40625 28.26875 407.89062 28.534374Q407.375 28.784374 407.0 29.3Q406.64062 29.8 406.42188 30.534374Q406.21875 31.26875 406.21875 32.221874L406.21875 32.64375Q406.21875 33.39375 406.42188 34.05Q406.64062 34.70625 407.04688 35.20625Q407.45312 35.70625 408.03125 35.9875Q408.625 36.26875 409.35938 36.26875Q410.3125 36.26875 410.96875 35.878124Q411.64062 35.4875 412.14062 34.83125L413.23438 35.70625Q412.89062 36.221874 412.35938 36.690624Q411.84375 37.159374 411.07812 37.45625Q410.3125 37.753124 409.26562 37.753124ZM417.67188 29.08125L417.67188 37.55L415.85938 37.55L415.85938 26.9875L417.57812 26.9875L417.67188 29.08125ZM417.29688 31.8625L416.46875 31.83125Q416.46875 30.753124 416.73438 29.83125Q417.01562 28.909374 417.54688 28.221874Q418.09375 27.534374 418.89062 27.159374Q419.70312 26.784374 420.75 26.784374Q421.5 26.784374 422.125 27.003124Q422.75 27.20625 423.20312 27.659374Q423.65625 28.1125 423.90625 28.815624Q424.17188 29.51875 424.17188 30.503124L424.17188 37.55L422.35938 37.55L422.35938 30.596874Q422.35938 29.76875 422.07812 29.26875Q421.8125 28.76875 421.29688 28.55Q420.79688 28.315624 420.10938 28.315624Q419.3125 28.315624 418.76562 28.596874Q418.23438 28.878124 417.90625 29.378124Q417.59375 29.878124 417.4375 30.51875Q417.29688 31.159374 417.29688 31.8625ZM424.15625 30.8625L422.9375 31.2375Q422.95312 30.378124 423.21875 29.58125Q423.5 28.76875 424.03125 28.14375Q424.5625 27.51875 425.34375 27.159374Q426.125 26.784374 427.14062 26.784374Q427.98438 26.784374 428.64062 27.01875Q429.3125 27.2375 429.76562 27.70625Q430.21875 28.159374 430.45312 28.89375Q430.6875 29.6125 430.6875 30.6125L430.6875 37.55L428.85938 37.55L428.85938 30.58125Q428.85938 29.690624 428.57812 29.20625Q428.3125 28.70625 427.79688 28.51875Q427.29688 28.315624 426.60938 28.315624Q426.01562 28.315624 425.54688 28.51875Q425.09375 28.721874 424.78125 29.08125Q424.46875 29.440624 424.3125 29.89375Q424.15625 30.346874 424.15625 30.8625ZM445.10938 35.7375L445.10938 30.3Q445.10938 29.675 444.85938 29.221874Q444.60938 28.753124 444.10938 28.503124Q443.60938 28.2375 442.875 28.2375Q442.20312 28.2375 441.6875 28.471874Q441.17188 28.70625 440.875 29.096874Q440.59375 29.471874 440.59375 29.909374L438.79688 29.909374Q438.79688 29.346874 439.07812 28.8Q439.375 28.2375 439.92188 27.784374Q440.48438 27.33125 441.25 27.065624Q442.03125 26.784374 442.98438 26.784374Q444.14062 26.784374 445.01562 27.175Q445.90625 27.565624 446.40625 28.3625Q446.92188 29.14375 446.92188 30.315624L446.92188 35.2375Q446.92188 35.76875 447.0 36.3625Q447.09375 36.95625 447.28125 37.39375L447.28125 37.55L445.40625 37.55Q445.26562 37.2375 445.1875 36.721874Q445.10938 36.190624 445.10938 35.7375ZM445.42188 31.14375L445.4375 32.409374L443.60938 32.409374Q442.84375 32.409374 442.23438 32.534374Q441.625 32.659374 441.21875 32.909374Q440.8125 33.14375 440.59375 33.51875Q440.375 33.878124 440.375 34.3625Q440.375 34.8625 440.59375 35.284374Q440.82812 35.690624 441.28125 35.925Q441.73438 36.159374 442.40625 36.159374Q443.23438 36.159374 443.85938 35.815624Q444.5 35.45625 444.875 34.95625Q445.25 34.440624 445.28125 33.971874L446.0625 34.83125Q445.98438 35.2375 445.67188 35.7375Q445.375 36.2375 444.875 36.690624Q444.375 37.14375 443.6875 37.45625Q443.0 37.753124 442.14062 37.753124Q441.0625 37.753124 440.25 37.33125Q439.45312 36.909374 439.0 36.20625Q438.5625 35.4875 438.5625 34.6125Q438.5625 33.753124 438.89062 33.1125Q439.23438 32.45625 439.85938 32.034374Q440.48438 31.596874 441.35938 31.378124Q442.23438 31.14375 443.32812 31.14375L445.42188 31.14375ZM451.84375 22.55L451.84375 37.55L450.03125 37.55L450.03125 22.55L451.84375 22.55ZM456.84375 22.55L456.84375 37.55L455.03125 37.55L455.03125 22.55L456.84375 22.55Z" fill-rule="nonzero"/></svg>
