<svg version="1.1" viewBox="0.0 0.0 600.0 371.0" fill="none" stroke="none" stroke-linecap="square" stroke-miterlimit="10" width="600" height="371" xmlns:xlink="http://www.w3.org/1999/xlink" xmlns="http://www.w3.org/2000/svg"><path fill="#ffffff" d="M0 0L600.0 0L600.0 371.0L0 371.0L0 0Z" fill-rule="nonzero"/><path stroke="#333333" stroke-width="1.0" stroke-linecap="butt" d="M76.5 300.5L581.5 300.5" fill-rule="nonzero"/><path fill="#eeeeee" d="M45.5 331.5L76.5 301.5L581.5 301.5L550.5 331.5Z" fill-rule="nonzero"/><path stroke="#cccccc" stroke-width="1.0" stroke-linecap="butt" d="M76.5 252.5L581.5 252.5" fill-rule="nonzero"/><path stroke="#cccccc" stroke-width="1.0" stroke-linecap="butt" d="M76.5 205.5L581.5 205.5" fill-rule="nonzero"/><path stroke="#cccccc" stroke-width="1.0" stroke-linecap="butt" d="M76.5 157.5L581.5 157.5" fill-rule="nonzero"/><path stroke="#cccccc" stroke-width="1.0" stroke-linecap="butt" d="M76.5 110.5L581.5 110.5" fill-rule="nonzero"/><path stroke="#cccccc" stroke-width="1.0" stroke-linecap="butt" d="M76.5 62.5L581.5 62.5" fill-rule="nonzero"/><path stroke="#000000" stroke-width="1.0" stroke-linecap="butt" stroke-opacity="0.0" d="M76.5 284.5L581.5 284.5" fill-rule="nonzero"/><path stroke="#000000" stroke-width="1.0" stroke-linecap="butt" stroke-opacity="0.0" d="M76.5 268.5L581.5 268.5" fill-rule="nonzero"/><path stroke="#000000" stroke-width="1.0" stroke-linecap="butt" stroke-opacity="0.0" d="M76.5 236.5L581.5 236.5" fill-rule="nonzero"/><path stroke="#000000" stroke-width="1.0" stroke-linecap="butt" stroke-opacity="0.0" d="M76.5 221.5L581.5 221.5" fill-rule="nonzero"/><path stroke="#000000" stroke-width="1.0" stroke-linecap="butt" stroke-opacity="0.0" d="M76.5 189.5L581.5 189.5" fill-rule="nonzero"/><path stroke="#000000" stroke-width="1.0" stroke-linecap="butt" stroke-opacity="0.0" d="M76.5 173.5L581.5 173.5" fill-rule="nonzero"/><path stroke="#000000" stroke-width="1.0" stroke-linecap="butt" stroke-opacity="0.0" d="M76.5 141.5L581.5 141.5" fill-rule="nonzero"/><path stroke="#000000" stroke-width="1.0" stroke-linecap="butt" stroke-opacity="0.0" d="M76.5 125.5L581.5 125.5" fill-rule="nonzero"/><path stroke="#000000" stroke-width="1.0" stroke-linecap="butt" stroke-opacity="0.0" d="M76.5 94.5L581.5 94.5" fill-rule="nonzero"/><path stroke="#000000" stroke-width="1.0" stroke-linecap="butt" stroke-opacity="0.0" d="M76.5 78.5L581.5 78.5" fill-rule="nonzero"/><clipPath id="id_0"><path d="M45.55 62.416668L581.45 62.416668L581.45 331.45L45.55 331.45L45.55 62.416668Z" clip-rule="nonzero"/></clipPath><path fill="#2b569f" clip-path="url(#id_0)" d="M219.0 67.0L219.0 300.0L193.0 326.0L193.0 93.0Z" fill-rule="nonzero"/><path fill="#689df6" clip-path="url(#id_0)" d="M193.0 93.0L89.0 93.0L115.0 67.0L219.0 67.0Z" fill-rule="nonzero"/><path stroke="#000000" stroke-width="2.0" stroke-linecap="butt" stroke-opacity="0.0" clip-path="url(#id_0)" d="M193.0 326.0L89.0 326.0L89.0 93.0L193.0 93.0Z" fill-rule="nonzero"/><path fill="#4285f4" clip-path="url(#id_0)" d="M193.0 326.0L89.0 326.0L89.0 93.0L193.0 93.0Z" fill-rule="nonzero"/><path fill="#2b569f" clip-path="url(#id_0)" d="M379.0 177.0L379.0 300.0L353.0 326.0L353.0 203.0Z" fill-rule="nonzero"/><path fill="#689df6" clip-path="url(#id_0)" d="M353.0 203.0L249.0 203.0L275.0 177.0L379.0 177.0Z" fill-rule="nonzero"/><path stroke="#000000" stroke-width="2.0" stroke-linecap="butt" stroke-opacity="0.0" clip-path="url(#id_0)" d="M353.0 326.0L249.0 326.0L249.0 203.0L353.0 203.0Z" fill-rule="nonzero"/><path fill="#4285f4" clip-path="url(#id_0)" d="M353.0 326.0L249.0 326.0L249.0 203.0L353.0 203.0Z" fill-rule="nonzero"/><path fill="#2b569f" clip-path="url(#id_0)" d="M538.0 277.0L538.0 300.0L512.0 326.0L512.0 303.0Z" fill-rule="nonzero"/><path fill="#689df6" clip-path="url(#id_0)" d="M512.0 303.0L408.0 303.0L434.0 277.0L538.0 277.0Z" fill-rule="nonzero"/><path stroke="#000000" stroke-width="2.0" stroke-linecap="butt" stroke-opacity="0.0" clip-path="url(#id_0)" d="M512.0 326.0L408.0 326.0L408.0 303.0L512.0 303.0Z" fill-rule="nonzero"/><path fill="#4285f4" clip-path="url(#id_0)" d="M512.0 326.0L408.0 326.0L408.0 303.0L512.0 303.0Z" fill-rule="nonzero"/><path stroke="#4285f4" stroke-width="3.0" stroke-linejoin="round" stroke-linecap="round" d="M140.46875 211.43866L140.46875 212.32928L134.3125 212.32928L134.3125 211.68866L138.125 205.78241L139.01562 205.78241L138.0625 207.48553L135.54688 211.43866L140.46875 211.43866ZM139.28125 205.78241L139.28125 214.31366L138.20312 214.31366L138.20312 205.78241L139.28125 205.78241ZM142.78125 213.40741L142.90625 213.40741Q143.84375 213.40741 144.42188 213.14178Q145.01562 212.87616 145.32812 212.43866Q145.64062 211.98553 145.75 211.42303Q145.875 210.86053 145.875 210.28241L145.875 208.96991Q145.875 208.39178 145.73438 207.93866Q145.60938 207.48553 145.375 207.18866Q145.15625 206.87616 144.85938 206.71991Q144.5625 206.56366 144.23438 206.56366Q143.85938 206.56366 143.5625 206.71991Q143.26562 206.86053 143.0625 207.12616Q142.85938 207.39178 142.75 207.76678Q142.65625 208.12616 142.65625 208.54803Q142.65625 208.93866 142.75 209.29803Q142.84375 209.64178 143.03125 209.93866Q143.23438 210.21991 143.51562 210.39178Q143.8125 210.56366 144.20312 210.56366Q144.5625 210.56366 144.875 210.42303Q145.20312 210.26678 145.45312 210.01678Q145.70312 209.76678 145.84375 209.45428Q146.0 209.14178 146.01562 208.79803L146.53125 208.79803Q146.53125 209.28241 146.34375 209.75116Q146.15625 210.21991 145.8125 210.61053Q145.48438 211.00116 145.01562 211.23553Q144.5625 211.45428 144.03125 211.45428Q143.39062 211.45428 142.92188 211.21991Q142.46875 210.96991 142.17188 210.56366Q141.875 210.14178 141.73438 209.64178Q141.59375 209.12616 141.59375 208.61053Q141.59375 208.00116 141.75 207.46991Q141.92188 206.93866 142.25 206.53241Q142.59375 206.12616 143.07812 205.89178Q143.57812 205.65741 144.23438 205.65741Q144.96875 205.65741 145.48438 205.95428Q146.0 206.25116 146.32812 206.75116Q146.65625 207.23553 146.79688 207.86053Q146.95312 208.46991 146.95312 209.11053L146.95312 209.50116Q146.95312 210.17303 146.85938 210.86053Q146.78125 211.53241 146.54688 212.15741Q146.3125 212.78241 145.85938 213.26678Q145.40625 213.75116 144.67188 214.04803Q143.95312 214.32928 142.90625 214.32928L142.78125 214.32928L142.78125 213.40741Z" fill-rule="nonzero"/><path fill="#ffffff" d="M140.46875 211.43866L140.46875 212.32928L134.3125 212.32928L134.3125 211.68866L138.125 205.78241L139.01562 205.78241L138.0625 207.48553L135.54688 211.43866L140.46875 211.43866ZM139.28125 205.78241L139.28125 214.31366L138.20312 214.31366L138.20312 205.78241L139.28125 205.78241ZM142.78125 213.40741L142.90625 213.40741Q143.84375 213.40741 144.42188 213.14178Q145.01562 212.87616 145.32812 212.43866Q145.64062 211.98553 145.75 211.42303Q145.875 210.86053 145.875 210.28241L145.875 208.96991Q145.875 208.39178 145.73438 207.93866Q145.60938 207.48553 145.375 207.18866Q145.15625 206.87616 144.85938 206.71991Q144.5625 206.56366 144.23438 206.56366Q143.85938 206.56366 143.5625 206.71991Q143.26562 206.86053 143.0625 207.12616Q142.85938 207.39178 142.75 207.76678Q142.65625 208.12616 142.65625 208.54803Q142.65625 208.93866 142.75 209.29803Q142.84375 209.64178 143.03125 209.93866Q143.23438 210.21991 143.51562 210.39178Q143.8125 210.56366 144.20312 210.56366Q144.5625 210.56366 144.875 210.42303Q145.20312 210.26678 145.45312 210.01678Q145.70312 209.76678 145.84375 209.45428Q146.0 209.14178 146.01562 208.79803L146.53125 208.79803Q146.53125 209.28241 146.34375 209.75116Q146.15625 210.21991 145.8125 210.61053Q145.48438 211.00116 145.01562 211.23553Q144.5625 211.45428 144.03125 211.45428Q143.39062 211.45428 142.92188 211.21991Q142.46875 210.96991 142.17188 210.56366Q141.875 210.14178 141.73438 209.64178Q141.59375 209.12616 141.59375 208.61053Q141.59375 208.00116 141.75 207.46991Q141.92188 206.93866 142.25 206.53241Q142.59375 206.12616 143.07812 205.89178Q143.57812 205.65741 144.23438 205.65741Q144.96875 205.65741 145.48438 205.95428Q146.0 206.25116 146.32812 206.75116Q146.65625 207.23553 146.79688 207.86053Q146.95312 208.46991 146.95312 209.11053L146.95312 209.50116Q146.95312 210.17303 146.85938 210.86053Q146.78125 211.53241 146.54688 212.15741Q146.3125 212.78241 145.85938 213.26678Q145.40625 213.75116 144.67188 214.04803Q143.95312 214.32928 142.90625 214.32928L142.78125 214.32928L142.78125 213.40741Z" fill-rule="nonzero"/><path stroke="#4285f4" stroke-width="3.0" stroke-linejoin="round" stroke-linecap="round" d="M300.29688 268.17072L300.29688 269.06134L294.71875 269.06134L294.71875 268.2801L297.51562 265.17072Q298.03125 264.5926 298.3125 264.20197Q298.59375 263.79572 298.70312 263.48322Q298.82812 263.1551 298.82812 262.82697Q298.82812 262.4051 298.65625 262.06134Q298.48438 261.7176 298.14062 261.51447Q297.8125 261.29572 297.32812 261.29572Q296.76562 261.29572 296.39062 261.5301Q296.01562 261.74884 295.82812 262.13947Q295.64062 262.5301 295.64062 263.0301L294.54688 263.0301Q294.54688 262.31134 294.85938 261.7176Q295.1875 261.12384 295.79688 260.76447Q296.42188 260.4051 297.32812 260.4051Q298.14062 260.4051 298.71875 260.70197Q299.29688 260.98322 299.59375 261.49884Q299.90625 261.99884 299.90625 262.68634Q299.90625 263.06134 299.78125 263.45197Q299.65625 263.82697 299.4375 264.2176Q299.21875 264.5926 298.92188 264.9676Q298.64062 265.32697 298.3125 265.68634L296.01562 268.17072L300.29688 268.17072ZM305.875 260.51447L305.96875 260.51447L305.96875 261.43634L305.875 261.43634Q305.01562 261.43634 304.42188 261.7176Q303.84375 261.99884 303.5 262.4676Q303.17188 262.92072 303.01562 263.51447Q302.875 264.0926 302.875 264.68634L302.875 265.93634Q302.875 266.49884 303.0 266.93634Q303.14062 267.37384 303.375 267.68634Q303.60938 267.98322 303.90625 268.13947Q304.20312 268.2801 304.51562 268.2801Q304.89062 268.2801 305.1875 268.13947Q305.48438 267.99884 305.6875 267.73322Q305.89062 267.4676 305.98438 267.12384Q306.09375 266.76447 306.09375 266.32697Q306.09375 265.95197 306.0 265.5926Q305.90625 265.23322 305.71875 264.9676Q305.53125 264.68634 305.23438 264.5301Q304.9375 264.35822 304.54688 264.35822Q304.09375 264.35822 303.70312 264.57697Q303.3125 264.79572 303.0625 265.1551Q302.8125 265.51447 302.78125 265.92072L302.20312 265.92072Q302.29688 265.26447 302.51562 264.79572Q302.73438 264.32697 303.07812 264.0301Q303.42188 263.73322 303.82812 263.60822Q304.25 263.4676 304.71875 263.4676Q305.35938 263.4676 305.8125 263.7176Q306.28125 263.95197 306.57812 264.35822Q306.89062 264.74884 307.03125 265.24884Q307.17188 265.74884 307.17188 266.2801Q307.17188 266.87384 307.0 267.4051Q306.82812 267.93634 306.48438 268.3426Q306.15625 268.73322 305.65625 268.9676Q305.17188 269.18634 304.51562 269.18634Q303.82812 269.18634 303.3125 268.9051Q302.79688 268.60822 302.45312 268.13947Q302.125 267.6551 301.95312 267.07697Q301.78125 266.49884 301.78125 265.9051L301.78125 265.38947Q301.78125 264.48322 301.95312 263.62384Q302.14062 262.74884 302.59375 262.04572Q303.04688 261.3426 303.84375 260.93634Q304.64062 260.51447 305.875 260.51447Z" fill-rule="nonzero"/><path fill="#ffffff" d="M300.29688 268.17072L300.29688 269.06134L294.71875 269.06134L294.71875 268.2801L297.51562 265.17072Q298.03125 264.5926 298.3125 264.20197Q298.59375 263.79572 298.70312 263.48322Q298.82812 263.1551 298.82812 262.82697Q298.82812 262.4051 298.65625 262.06134Q298.48438 261.7176 298.14062 261.51447Q297.8125 261.29572 297.32812 261.29572Q296.76562 261.29572 296.39062 261.5301Q296.01562 261.74884 295.82812 262.13947Q295.64062 262.5301 295.64062 263.0301L294.54688 263.0301Q294.54688 262.31134 294.85938 261.7176Q295.1875 261.12384 295.79688 260.76447Q296.42188 260.4051 297.32812 260.4051Q298.14062 260.4051 298.71875 260.70197Q299.29688 260.98322 299.59375 261.49884Q299.90625 261.99884 299.90625 262.68634Q299.90625 263.06134 299.78125 263.45197Q299.65625 263.82697 299.4375 264.2176Q299.21875 264.5926 298.92188 264.9676Q298.64062 265.32697 298.3125 265.68634L296.01562 268.17072L300.29688 268.17072ZM305.875 260.51447L305.96875 260.51447L305.96875 261.43634L305.875 261.43634Q305.01562 261.43634 304.42188 261.7176Q303.84375 261.99884 303.5 262.4676Q303.17188 262.92072 303.01562 263.51447Q302.875 264.0926 302.875 264.68634L302.875 265.93634Q302.875 266.49884 303.0 266.93634Q303.14062 267.37384 303.375 267.68634Q303.60938 267.98322 303.90625 268.13947Q304.20312 268.2801 304.51562 268.2801Q304.89062 268.2801 305.1875 268.13947Q305.48438 267.99884 305.6875 267.73322Q305.89062 267.4676 305.98438 267.12384Q306.09375 266.76447 306.09375 266.32697Q306.09375 265.95197 306.0 265.5926Q305.90625 265.23322 305.71875 264.9676Q305.53125 264.68634 305.23438 264.5301Q304.9375 264.35822 304.54688 264.35822Q304.09375 264.35822 303.70312 264.57697Q303.3125 264.79572 303.0625 265.1551Q302.8125 265.51447 302.78125 265.92072L302.20312 265.92072Q302.29688 265.26447 302.51562 264.79572Q302.73438 264.32697 303.07812 264.0301Q303.42188 263.73322 303.82812 263.60822Q304.25 263.4676 304.71875 263.4676Q305.35938 263.4676 305.8125 263.7176Q306.28125 263.95197 306.57812 264.35822Q306.89062 264.74884 307.03125 265.24884Q307.17188 265.74884 307.17188 266.2801Q307.17188 266.87384 307.0 267.4051Q306.82812 267.93634 306.48438 268.3426Q306.15625 268.73322 305.65625 268.9676Q305.17188 269.18634 304.51562 269.18634Q303.82812 269.18634 303.3125 268.9051Q302.79688 268.60822 302.45312 268.13947Q302.125 267.6551 301.95312 267.07697Q301.78125 266.49884 301.78125 265.9051L301.78125 265.38947Q301.78125 264.48322 301.95312 263.62384Q302.14062 262.74884 302.59375 262.04572Q303.04688 261.3426 303.84375 260.93634Q304.64062 260.51447 305.875 260.51447Z" fill-rule="nonzero"/><path stroke="#4285f4" stroke-width="3.0" stroke-linejoin="round" stroke-linecap="round" d="M458.57812 314.98584L457.71875 314.7671L458.14062 310.5171L462.51562 310.5171L462.51562 311.5171L459.0625 311.5171L458.79688 313.8452Q459.03125 313.7046 459.39062 313.5952Q459.76562 313.4702 460.23438 313.4702Q460.8125 313.4702 461.28125 313.67334Q461.75 313.87646 462.07812 314.25146Q462.42188 314.62646 462.59375 315.1577Q462.76562 315.67334 462.76562 316.3296Q462.76562 316.93896 462.59375 317.4546Q462.4375 317.9702 462.09375 318.36084Q461.76562 318.73584 461.25 318.9546Q460.75 319.17334 460.0625 319.17334Q459.54688 319.17334 459.09375 319.0327Q458.64062 318.87646 458.26562 318.5796Q457.90625 318.2827 457.6875 317.8452Q457.46875 317.4077 457.40625 316.79834L458.4375 316.79834Q458.5 317.2827 458.70312 317.61084Q458.92188 317.93896 459.26562 318.11084Q459.60938 318.2671 460.0625 318.2671Q460.45312 318.2671 460.75 318.1421Q461.04688 318.00146 461.25 317.75146Q461.46875 317.50146 461.57812 317.1421Q461.6875 316.7827 461.6875 316.3452Q461.6875 315.93896 461.5625 315.5952Q461.45312 315.25146 461.23438 315.00146Q461.01562 314.73584 460.70312 314.5952Q460.39062 314.43896 459.96875 314.43896Q459.4375 314.43896 459.15625 314.5952Q458.875 314.73584 458.57812 314.98584Z" fill-rule="nonzero"/><path fill="#ffffff" d="M458.57812 314.98584L457.71875 314.7671L458.14062 310.5171L462.51562 310.5171L462.51562 311.5171L459.0625 311.5171L458.79688 313.8452Q459.03125 313.7046 459.39062 313.5952Q459.76562 313.4702 460.23438 313.4702Q460.8125 313.4702 461.28125 313.67334Q461.75 313.87646 462.07812 314.25146Q462.42188 314.62646 462.59375 315.1577Q462.76562 315.67334 462.76562 316.3296Q462.76562 316.93896 462.59375 317.4546Q462.4375 317.9702 462.09375 318.36084Q461.76562 318.73584 461.25 318.9546Q460.75 319.17334 460.0625 319.17334Q459.54688 319.17334 459.09375 319.0327Q458.64062 318.87646 458.26562 318.5796Q457.90625 318.2827 457.6875 317.8452Q457.46875 317.4077 457.40625 316.79834L458.4375 316.79834Q458.5 317.2827 458.70312 317.61084Q458.92188 317.93896 459.26562 318.11084Q459.60938 318.2671 460.0625 318.2671Q460.45312 318.2671 460.75 318.1421Q461.04688 318.00146 461.25 317.75146Q461.46875 317.50146 461.57812 317.1421Q461.6875 316.7827 461.6875 316.3452Q461.6875 315.93896 461.5625 315.5952Q461.45312 315.25146 461.23438 315.00146Q461.01562 314.73584 460.70312 314.5952Q460.39062 314.43896 459.96875 314.43896Q459.4375 314.43896 459.15625 314.5952Q458.875 314.73584 458.57812 314.98584Z" fill-rule="nonzero"/><path fill="#000000" d="M38.6125 299.9969L38.6125 301.3094Q38.6125 302.35626 38.425 303.075Q38.2375 303.79376 37.878124 304.23126Q37.534374 304.66876 37.034374 304.8719Q36.55 305.075 35.925 305.075Q35.440624 305.075 35.01875 304.95Q34.596874 304.825 34.26875 304.5594Q33.940624 304.27814 33.70625 303.84064Q33.471874 303.40314 33.346874 302.77814Q33.221874 302.1375 33.221874 301.3094L33.221874 299.9969Q33.221874 298.95 33.409374 298.2469Q33.6125 297.54376 33.95625 297.10626Q34.315624 296.66876 34.8 296.48126Q35.3 296.29376 35.909374 296.29376Q36.409374 296.29376 36.83125 296.41876Q37.253124 296.54376 37.58125 296.8094Q37.909374 297.0594 38.128124 297.4969Q38.3625 297.91876 38.4875 298.54376Q38.6125 299.16876 38.6125 299.9969ZM37.51875 301.48126L37.51875 299.825Q37.51875 299.2469 37.45625 298.8094Q37.39375 298.3719 37.253124 298.0594Q37.128124 297.7469 36.925 297.5594Q36.7375 297.3719 36.4875 297.27814Q36.2375 297.1844 35.909374 297.1844Q35.534374 297.1844 35.221874 297.325Q34.925 297.46564 34.721874 297.77814Q34.51875 298.09064 34.409374 298.60626Q34.315624 299.10626 34.315624 299.825L34.315624 301.48126Q34.315624 302.0594 34.378124 302.4969Q34.45625 302.9344 34.58125 303.2625Q34.721874 303.575 34.909374 303.77814Q35.1125 303.98126 35.3625 304.075Q35.6125 304.16876 35.925 304.16876Q36.33125 304.16876 36.628124 304.02814Q36.925 303.8719 37.128124 303.54376Q37.33125 303.21564 37.425 302.71564Q37.51875 302.2 37.51875 301.48126Z" fill-rule="nonzero"/><path fill="#000000" d="M29.815624 248.7652L29.815624 257.34332L28.7375 257.34332L28.7375 250.12457L26.55 250.92145L26.55 249.93707L29.659374 248.7652L29.815624 248.7652ZM38.6125 252.3902L38.6125 253.7027Q38.6125 254.74957 38.425 255.46832Q38.2375 256.18707 37.878124 256.62457Q37.534374 257.06207 37.034374 257.2652Q36.55 257.46832 35.925 257.46832Q35.440624 257.46832 35.01875 257.34332Q34.596874 257.21832 34.26875 256.9527Q33.940624 256.67145 33.70625 256.23395Q33.471874 255.79645 33.346874 255.17145Q33.221874 254.53082 33.221874 253.7027L33.221874 252.3902Q33.221874 251.34332 33.409374 250.6402Q33.6125 249.93707 33.95625 249.49957Q34.315624 249.06207 34.8 248.87457Q35.3 248.68707 35.909374 248.68707Q36.409374 248.68707 36.83125 248.81207Q37.253124 248.93707 37.58125 249.2027Q37.909374 249.4527 38.128124 249.8902Q38.3625 250.31207 38.4875 250.93707Q38.6125 251.56207 38.6125 252.3902ZM37.51875 253.87457L37.51875 252.21832Q37.51875 251.6402 37.45625 251.2027Q37.39375 250.7652 37.253124 250.4527Q37.128124 250.1402 36.925 249.9527Q36.7375 249.7652 36.4875 249.67145Q36.2375 249.5777 35.909374 249.5777Q35.534374 249.5777 35.221874 249.71832Q34.925 249.85895 34.721874 250.17145Q34.51875 250.48395 34.409374 250.99957Q34.315624 251.49957 34.315624 252.21832L34.315624 253.87457Q34.315624 254.4527 34.378124 254.8902Q34.45625 255.3277 34.58125 255.65582Q34.721874 255.96832 34.909374 256.17145Q35.1125 256.37457 35.3625 256.46832Q35.6125 256.56207 35.925 256.56207Q36.33125 256.56207 36.628124 256.42145Q36.925 256.2652 37.128124 255.93707Q37.33125 255.60895 37.425 255.10895Q37.51875 254.59332 37.51875 253.87457Z" fill-rule="nonzero"/><path fill="#000000" d="M31.846874 208.84604L31.846874 209.73666L26.26875 209.73666L26.26875 208.95541L29.065624 205.84604Q29.58125 205.26791 29.8625 204.87729Q30.14375 204.47104 30.253124 204.15854Q30.378124 203.83041 30.378124 203.50229Q30.378124 203.08041 30.20625 202.73666Q30.034374 202.39291 29.690624 202.18979Q29.3625 201.97104 28.878124 201.97104Q28.315624 201.97104 27.940624 202.20541Q27.565624 202.42416 27.378124 202.81479Q27.190624 203.20541 27.190624 203.70541L26.096874 203.70541Q26.096874 202.98666 26.409374 202.39291Q26.7375 201.79916 27.346874 201.43979Q27.971874 201.08041 28.878124 201.08041Q29.690624 201.08041 30.26875 201.37729Q30.846874 201.65854 31.14375 202.17416Q31.45625 202.67416 31.45625 203.36166Q31.45625 203.73666 31.33125 204.12729Q31.20625 204.50229 30.9875 204.89291Q30.76875 205.26791 30.471874 205.64291Q30.190624 206.00229 29.8625 206.36166L27.565624 208.84604L31.846874 208.84604ZM38.6125 204.78354L38.6125 206.09604Q38.6125 207.14291 38.425 207.86166Q38.2375 208.58041 37.878124 209.01791Q37.534374 209.45541 37.034374 209.65854Q36.55 209.86166 35.925 209.86166Q35.440624 209.86166 35.01875 209.73666Q34.596874 209.61166 34.26875 209.34604Q33.940624 209.06479 33.70625 208.62729Q33.471874 208.18979 33.346874 207.56479Q33.221874 206.92416 33.221874 206.09604L33.221874 204.78354Q33.221874 203.73666 33.409374 203.03354Q33.6125 202.33041 33.95625 201.89291Q34.315624 201.45541 34.8 201.26791Q35.3 201.08041 35.909374 201.08041Q36.409374 201.08041 36.83125 201.20541Q37.253124 201.33041 37.58125 201.59604Q37.909374 201.84604 38.128124 202.28354Q38.3625 202.70541 38.4875 203.33041Q38.6125 203.95541 38.6125 204.78354ZM37.51875 206.26791L37.51875 204.61166Q37.51875 204.03354 37.45625 203.59604Q37.39375 203.15854 37.253124 202.84604Q37.128124 202.53354 36.925 202.34604Q36.7375 202.15854 36.4875 202.06479Q36.2375 201.97104 35.909374 201.97104Q35.534374 201.97104 35.221874 202.11166Q34.925 202.25229 34.721874 202.56479Q34.51875 202.87729 34.409374 203.39291Q34.315624 203.89291 34.315624 204.61166L34.315624 206.26791Q34.315624 206.84604 34.378124 207.28354Q34.45625 207.72104 34.58125 208.04916Q34.721874 208.36166 34.909374 208.56479Q35.1125 208.76791 35.3625 208.86166Q35.6125 208.95541 35.925 208.95541Q36.33125 208.95541 36.628124 208.81479Q36.925 208.65854 37.128124 208.33041Q37.33125 208.00229 37.425 207.50229Q37.51875 206.98666 37.51875 206.26791Z" fill-rule="nonzero"/><path fill="#000000" d="M27.846874 157.33313L28.6125 157.33313Q29.190624 157.33313 29.55 157.14563Q29.925 156.9425 30.1125 156.61438Q30.3 156.28625 30.3 155.86438Q30.3 155.38 30.128124 155.05188Q29.971874 154.70813 29.64375 154.53625Q29.315624 154.36438 28.815624 154.36438Q28.346874 154.36438 28.003124 154.55188Q27.659374 154.72375 27.45625 155.05188Q27.26875 155.38 27.26875 155.83313L26.175 155.83313Q26.175 155.17688 26.503124 154.64563Q26.83125 154.11438 27.425 153.80188Q28.01875 153.47375 28.815624 153.47375Q29.58125 153.47375 30.159374 153.755Q30.7375 154.02063 31.065624 154.5675Q31.39375 155.09875 31.39375 155.89563Q31.39375 156.22375 31.2375 156.58313Q31.08125 156.9425 30.76875 157.27063Q30.45625 157.58313 29.95625 157.78625Q29.471874 157.98938 28.76875 157.98938L27.846874 157.98938L27.846874 157.33313ZM27.846874 158.22375L27.846874 157.5675L28.76875 157.5675Q29.58125 157.5675 30.1125 157.77063Q30.64375 157.95813 30.95625 158.28625Q31.26875 158.59875 31.39375 158.98938Q31.51875 159.36438 31.51875 159.755Q31.51875 160.34875 31.315624 160.8175Q31.1125 161.27063 30.7375 161.59875Q30.378124 161.91125 29.878124 162.08313Q29.39375 162.255 28.815624 162.255Q28.253124 162.255 27.76875 162.09875Q27.284374 161.92688 26.909374 161.63Q26.534374 161.33313 26.315624 160.89563Q26.1125 160.4425 26.1125 159.88L27.190624 159.88Q27.190624 160.3175 27.378124 160.66125Q27.58125 160.98938 27.940624 161.17688Q28.315624 161.34875 28.815624 161.34875Q29.315624 161.34875 29.675 161.17688Q30.034374 161.005 30.221874 160.66125Q30.425 160.30188 30.425 159.77063Q30.425 159.23938 30.20625 158.89563Q29.9875 158.55188 29.565624 158.39563Q29.159374 158.22375 28.6125 158.22375L27.846874 158.22375ZM38.6125 157.17688L38.6125 158.48938Q38.6125 159.53625 38.425 160.255Q38.2375 160.97375 37.878124 161.41125Q37.534374 161.84875 37.034374 162.05188Q36.55 162.255 35.925 162.255Q35.440624 162.255 35.01875 162.13Q34.596874 162.005 34.26875 161.73938Q33.940624 161.45813 33.70625 161.02063Q33.471874 160.58313 33.346874 159.95813Q33.221874 159.3175 33.221874 158.48938L33.221874 157.17688Q33.221874 156.13 33.409374 155.42688Q33.6125 154.72375 33.95625 154.28625Q34.315624 153.84875 34.8 153.66125Q35.3 153.47375 35.909374 153.47375Q36.409374 153.47375 36.83125 153.59875Q37.253124 153.72375 37.58125 153.98938Q37.909374 154.23938 38.128124 154.67688Q38.3625 155.09875 38.4875 155.72375Q38.6125 156.34875 38.6125 157.17688ZM37.51875 158.66125L37.51875 157.005Q37.51875 156.42688 37.45625 155.98938Q37.39375 155.55188 37.253124 155.23938Q37.128124 154.92688 36.925 154.73938Q36.7375 154.55188 36.4875 154.45813Q36.2375 154.36438 35.909374 154.36438Q35.534374 154.36438 35.221874 154.505Q34.925 154.64563 34.721874 154.95813Q34.51875 155.27063 34.409374 155.78625Q34.315624 156.28625 34.315624 157.005L34.315624 158.66125Q34.315624 159.23938 34.378124 159.67688Q34.45625 160.11438 34.58125 160.4425Q34.721874 160.755 34.909374 160.95813Q35.1125 161.16125 35.3625 161.255Q35.6125 161.34875 35.925 161.34875Q36.33125 161.34875 36.628124 161.20813Q36.925 161.05188 37.128124 160.72375Q37.33125 160.39563 37.425 159.89563Q37.51875 159.38 37.51875 158.66125Z" fill-rule="nonzero"/><path fill="#000000" d="M32.01875 111.64833L32.01875 112.538956L25.8625 112.538956L25.8625 111.89833L29.675 105.99208L30.565624 105.99208L29.6125 107.695206L27.096874 111.64833L32.01875 111.64833ZM30.83125 105.99208L30.83125 114.52333L29.753124 114.52333L29.753124 105.99208L30.83125 105.99208ZM38.6125 109.570206L38.6125 110.882706Q38.6125 111.92958 38.425 112.64833Q38.2375 113.36708 37.878124 113.80458Q37.534374 114.24208 37.034374 114.445206Q36.55 114.64833 35.925 114.64833Q35.440624 114.64833 35.01875 114.52333Q34.596874 114.39833 34.26875 114.132706Q33.940624 113.851456 33.70625 113.413956Q33.471874 112.976456 33.346874 112.351456Q33.221874 111.71083 33.221874 110.882706L33.221874 109.570206Q33.221874 108.52333 33.409374 107.820206Q33.6125 107.11708 33.95625 106.67958Q34.315624 106.24208 34.8 106.05458Q35.3 105.86708 35.909374 105.86708Q36.409374 105.86708 36.83125 105.99208Q37.253124 106.11708 37.58125 106.382706Q37.909374 106.632706 38.128124 107.070206Q38.3625 107.49208 38.4875 108.11708Q38.6125 108.74208 38.6125 109.570206ZM37.51875 111.05458L37.51875 109.39833Q37.51875 108.820206 37.45625 108.382706Q37.39375 107.945206 37.253124 107.632706Q37.128124 107.320206 36.925 107.132706Q36.7375 106.945206 36.4875 106.851456Q36.2375 106.757706 35.909374 106.757706Q35.534374 106.757706 35.221874 106.89833Q34.925 107.038956 34.721874 107.351456Q34.51875 107.663956 34.409374 108.17958Q34.315624 108.67958 34.315624 109.39833L34.315624 111.05458Q34.315624 111.632706 34.378124 112.070206Q34.45625 112.507706 34.58125 112.83583Q34.721874 113.14833 34.909374 113.351456Q35.1125 113.55458 35.3625 113.64833Q35.6125 113.74208 35.925 113.74208Q36.33125 113.74208 36.628124 113.601456Q36.925 113.445206 37.128124 113.11708Q37.33125 112.788956 37.425 112.288956Q37.51875 111.77333 37.51875 111.05458Z" fill-rule="nonzero"/><path fill="#000000" d="M27.628124 62.854164L26.76875 62.635414L27.190624 58.385414L31.565624 58.385414L31.565624 59.385414L28.1125 59.385414L27.846874 61.71354Q28.08125 61.572914 28.440624 61.46354Q28.815624 61.33854 29.284374 61.33854Q29.8625 61.33854 30.33125 61.541664Q30.8 61.74479 31.128124 62.11979Q31.471874 62.49479 31.64375 63.02604Q31.815624 63.541664 31.815624 64.197914Q31.815624 64.80729 31.64375 65.322914Q31.4875 65.83854 31.14375 66.229164Q30.815624 66.604164 30.3 66.822914Q29.8 67.041664 29.1125 67.041664Q28.596874 67.041664 28.14375 66.90104Q27.690624 66.74479 27.315624 66.447914Q26.95625 66.15104 26.7375 65.71354Q26.51875 65.27604 26.45625 64.666664L27.4875 64.666664Q27.55 65.15104 27.753124 65.479164Q27.971874 65.80729 28.315624 65.979164Q28.659374 66.135414 29.1125 66.135414Q29.503124 66.135414 29.8 66.010414Q30.096874 65.86979 30.3 65.61979Q30.51875 65.36979 30.628124 65.010414Q30.7375 64.65104 30.7375 64.21354Q30.7375 63.80729 30.6125 63.46354Q30.503124 63.11979 30.284374 62.86979Q30.065624 62.604164 29.753124 62.46354Q29.440624 62.30729 29.01875 62.30729Q28.4875 62.30729 28.20625 62.46354Q27.925 62.604164 27.628124 62.854164ZM38.6125 61.96354L38.6125 63.27604Q38.6125 64.322914 38.425 65.041664Q38.2375 65.760414 37.878124 66.197914Q37.534374 66.635414 37.034374 66.83854Q36.55 67.041664 35.925 67.041664Q35.440624 67.041664 35.01875 66.916664Q34.596874 66.791664 34.26875 66.52604Q33.940624 66.24479 33.70625 65.80729Q33.471874 65.36979 33.346874 64.74479Q33.221874 64.104164 33.221874 63.27604L33.221874 61.96354Q33.221874 60.916664 33.409374 60.21354Q33.6125 59.510414 33.95625 59.072914Q34.315624 58.635414 34.8 58.447914Q35.3 58.260414 35.909374 58.260414Q36.409374 58.260414 36.83125 58.385414Q37.253124 58.510414 37.58125 58.77604Q37.909374 59.02604 38.128124 59.46354Q38.3625 59.885414 38.4875 60.510414Q38.6125 61.135414 38.6125 61.96354ZM37.51875 63.447914L37.51875 61.791664Q37.51875 61.21354 37.45625 60.77604Q37.39375 60.33854 37.253124 60.02604Q37.128124 59.71354 36.925 59.52604Q36.7375 59.33854 36.4875 59.24479Q36.2375 59.15104 35.909374 59.15104Q35.534374 59.15104 35.221874 59.291664Q34.925 59.43229 34.721874 59.74479Q34.51875 60.05729 34.409374 60.572914Q34.315624 61.072914 34.315624 61.791664L34.315624 63.447914Q34.315624 64.02604 34.378124 64.46354Q34.45625 64.90104 34.58125 65.229164Q34.721874 65.541664 34.909374 65.74479Q35.1125 65.947914 35.3625 66.041664Q35.6125 66.135414 35.925 66.135414Q36.33125 66.135414 36.628124 65.99479Q36.925 65.83854 37.128124 65.510414Q37.33125 65.18229 37.425 64.68229Q37.51875 64.166664 37.51875 63.447914Z" fill-rule="nonzero"/><path fill="#000000" d="M120.186104 341.66876L117.35798 349.45L116.20173 349.45L119.45173 340.91876L120.20173 340.91876L120.186104 341.66876ZM122.54548 349.45L119.717354 341.66876L119.70173 340.91876L120.436104 340.91876L123.70173 349.45L122.54548 349.45ZM122.404854 346.29376L122.404854 347.21564L117.60798 347.21564L117.60798 346.29376L122.404854 346.29376ZM127.51423 343.10626L127.51423 343.9344L124.07673 343.9344L124.07673 343.10626L127.51423 343.10626ZM125.248604 341.575L126.32673 341.575L126.32673 347.8719Q126.32673 348.2 126.42048 348.3719Q126.529854 348.52814 126.686104 348.59064Q126.842354 348.6375 127.029854 348.6375Q127.154854 348.6375 127.29548 348.60626Q127.45173 348.575 127.529854 348.5594L127.54548 349.45Q127.404854 349.4969 127.20173 349.52814Q126.998604 349.575 126.70173 349.575Q126.311104 349.575 125.967354 349.41876Q125.63923 349.2469 125.436104 348.8875Q125.248604 348.5125 125.248604 347.8719L125.248604 341.575ZM131.51422 343.10626L131.51422 343.9344L128.07672 343.9344L128.07672 343.10626L131.51422 343.10626ZM129.2486 341.575L130.32672 341.575L130.32672 347.8719Q130.32672 348.2 130.42047 348.3719Q130.52985 348.52814 130.6861 348.59064Q130.84235 348.6375 131.02985 348.6375Q131.15485 348.6375 131.29547 348.60626Q131.45172 348.575 131.52985 348.5594L131.54547 349.45Q131.40485 349.4969 131.20172 349.52814Q130.9986 349.575 130.70172 349.575Q130.3111 349.575 129.96735 349.41876Q129.63922 349.2469 129.4361 348.8875Q129.2486 348.5125 129.2486 347.8719L129.2486 341.575ZM135.48297 349.575Q134.82672 349.575 134.27985 349.35626Q133.7486 349.1219 133.35797 348.71564Q132.98297 348.29376 132.77985 347.73126Q132.57672 347.16876 132.57672 346.4969L132.57672 346.2625Q132.57672 345.48126 132.79547 344.8719Q133.02985 344.2625 133.42047 343.84064Q133.8111 343.41876 134.3111 343.21564Q134.8111 342.9969 135.34235 342.9969Q136.02985 342.9969 136.51422 343.23126Q137.01422 343.46564 137.32672 343.8875Q137.65485 344.29376 137.79547 344.8719Q137.95172 345.4344 137.95172 346.09064L137.95172 346.59064L133.21735 346.59064L133.21735 345.7L136.8736 345.7L136.8736 345.6219Q136.84235 345.2 136.6861 344.8094Q136.54547 344.40314 136.21735 344.15314Q135.90485 343.8875 135.34235 343.8875Q134.98297 343.8875 134.67047 344.04376Q134.35797 344.2 134.1236 344.5125Q133.90485 344.8094 133.77985 345.2469Q133.67047 345.6844 133.67047 346.2625L133.67047 346.4969Q133.67047 346.95 133.79547 347.35626Q133.92047 347.7469 134.15485 348.04376Q134.40485 348.34064 134.7486 348.5125Q135.10797 348.6844 135.54547 348.6844Q136.1236 348.6844 136.51422 348.45Q136.92047 348.21564 137.21735 347.825L137.8736 348.34064Q137.67047 348.65314 137.34235 348.9344Q137.02985 349.21564 136.5611 349.40314Q136.10797 349.575 135.48297 349.575ZM139.9361 344.46564L139.9361 349.45L138.85797 349.45L138.85797 343.10626L139.88922 343.10626L139.9361 344.46564ZM139.6861 346.04376L139.23297 346.02814Q139.23297 345.3719 139.42047 344.825Q139.60797 344.2625 139.95172 343.85626Q140.29547 343.45 140.76422 343.23126Q141.23297 342.9969 141.8111 342.9969Q142.27985 342.9969 142.65485 343.1219Q143.02985 343.2469 143.29547 343.52814Q143.5611 343.79376 143.70172 344.23126Q143.84235 344.66876 143.84235 345.29376L143.84235 349.45L142.7486 349.45L142.7486 345.27814Q142.7486 344.77814 142.60797 344.48126Q142.46735 344.1844 142.1861 344.04376Q141.90485 343.90314 141.48297 343.90314Q141.07672 343.90314 140.7486 344.075Q140.42047 344.2469 140.1861 344.54376Q139.95172 344.84064 139.8111 345.23126Q139.6861 345.60626 139.6861 346.04376ZM149.85797 348.21564L149.85797 340.45L150.9361 340.45L150.9361 349.45L149.95172 349.45L149.85797 348.21564ZM145.59235 346.35626L145.59235 346.23126Q145.59235 345.4969 145.76422 344.90314Q145.95172 344.3094 146.27985 343.8875Q146.60797 343.45 147.0611 343.23126Q147.52985 342.9969 148.09235 342.9969Q148.6861 342.9969 149.13922 343.2Q149.59235 343.40314 149.90485 343.8094Q150.21735 344.2 150.38922 344.7625Q150.57672 345.3094 150.65485 346.0125L150.65485 346.5594Q150.59235 347.2469 150.40485 347.8094Q150.21735 348.3719 149.90485 348.7625Q149.59235 349.15314 149.13922 349.3719Q148.6861 349.575 148.07672 349.575Q147.52985 349.575 147.0611 349.34064Q146.60797 349.09064 146.27985 348.65314Q145.95172 348.21564 145.76422 347.6375Q145.59235 347.04376 145.59235 346.35626ZM146.67047 346.23126L146.67047 346.35626Q146.67047 346.825 146.76422 347.2469Q146.8736 347.65314 147.07672 347.98126Q147.27985 348.29376 147.59235 348.48126Q147.92047 348.65314 148.35797 348.65314Q148.88922 348.65314 149.23297 348.41876Q149.59235 348.1844 149.79547 347.8094Q150.01422 347.4344 150.1236 346.9969L150.1236 345.59064Q150.0611 345.2625 149.92047 344.96564Q149.79547 344.66876 149.57672 344.4344Q149.3736 344.1844 149.07672 344.04376Q148.77985 343.90314 148.35797 343.90314Q147.92047 343.90314 147.59235 344.09064Q147.27985 344.27814 147.07672 344.60626Q146.8736 344.91876 146.76422 345.34064Q146.67047 345.7469 146.67047 346.23126ZM155.48297 349.575Q154.82672 349.575 154.27985 349.35626Q153.7486 349.1219 153.35797 348.71564Q152.98297 348.29376 152.77985 347.73126Q152.57672 347.16876 152.57672 346.4969L152.57672 346.2625Q152.57672 345.48126 152.79547 344.8719Q153.02985 344.2625 153.42047 343.84064Q153.8111 343.41876 154.3111 343.21564Q154.8111 342.9969 155.34235 342.9969Q156.02985 342.9969 156.51422 343.23126Q157.01422 343.46564 157.32672 343.8875Q157.65485 344.29376 157.79547 344.8719Q157.95172 345.4344 157.95172 346.09064L157.95172 346.59064L153.21735 346.59064L153.21735 345.7L156.8736 345.7L156.8736 345.6219Q156.84235 345.2 156.6861 344.8094Q156.54547 344.40314 156.21735 344.15314Q155.90485 343.8875 155.34235 343.8875Q154.98297 343.8875 154.67047 344.04376Q154.35797 344.2 154.1236 344.5125Q153.90485 344.8094 153.77985 345.2469Q153.67047 345.6844 153.67047 346.2625L153.67047 346.4969Q153.67047 346.95 153.79547 347.35626Q153.92047 347.7469 154.15485 348.04376Q154.40485 348.34064 154.7486 348.5125Q155.10797 348.6844 155.54547 348.6844Q156.1236 348.6844 156.51422 348.45Q156.92047 348.21564 157.21735 347.825L157.8736 348.34064Q157.67047 348.65314 157.34235 348.9344Q157.02985 349.21564 156.5611 349.40314Q156.10797 349.575 155.48297 349.575ZM162.85797 348.21564L162.85797 340.45L163.9361 340.45L163.9361 349.45L162.95172 349.45L162.85797 348.21564ZM158.59235 346.35626L158.59235 346.23126Q158.59235 345.4969 158.76422 344.90314Q158.95172 344.3094 159.27985 343.8875Q159.60797 343.45 160.0611 343.23126Q160.52985 342.9969 161.09235 342.9969Q161.6861 342.9969 162.13922 343.2Q162.59235 343.40314 162.90485 343.8094Q163.21735 344.2 163.38922 344.7625Q163.57672 345.3094 163.65485 346.0125L163.65485 346.5594Q163.59235 347.2469 163.40485 347.8094Q163.21735 348.3719 162.90485 348.7625Q162.59235 349.15314 162.13922 349.3719Q161.6861 349.575 161.07672 349.575Q160.52985 349.575 160.0611 349.34064Q159.60797 349.09064 159.27985 348.65314Q158.95172 348.21564 158.76422 347.6375Q158.59235 347.04376 158.59235 346.35626ZM159.67047 346.23126L159.67047 346.35626Q159.67047 346.825 159.76422 347.2469Q159.8736 347.65314 160.07672 347.98126Q160.27985 348.29376 160.59235 348.48126Q160.92047 348.65314 161.35797 348.65314Q161.88922 348.65314 162.23297 348.41876Q162.59235 348.1844 162.79547 347.8094Q163.01422 347.4344 163.1236 346.9969L163.1236 345.59064Q163.0611 345.2625 162.92047 344.96564Q162.79547 344.66876 162.57672 344.4344Q162.3736 344.1844 162.07672 344.04376Q161.77985 343.90314 161.35797 343.90314Q160.92047 343.90314 160.59235 344.09064Q160.27985 344.27814 160.07672 344.60626Q159.8736 344.91876 159.76422 345.34064Q159.67047 345.7469 159.67047 346.23126Z" fill-rule="nonzero"/><path fill="#000000" d="M284.53125 347.29376Q284.53125 346.9969 284.4375 346.7625Q284.35938 346.52814 284.125 346.34064Q283.90625 346.15314 283.5 345.98126Q283.10938 345.8094 282.51562 345.6375Q281.875 345.45 281.35938 345.23126Q280.85938 344.9969 280.48438 344.7Q280.125 344.3875 279.9375 344.0125Q279.75 343.6219 279.75 343.1219Q279.75 342.6219 279.95312 342.2Q280.15625 341.77814 280.53125 341.46564Q280.92188 341.15314 281.45312 340.98126Q281.98438 340.79376 282.64062 340.79376Q283.60938 340.79376 284.28125 341.16876Q284.95312 341.52814 285.29688 342.1219Q285.65625 342.71564 285.65625 343.3719L284.53125 343.3719Q284.53125 342.90314 284.3125 342.52814Q284.10938 342.15314 283.6875 341.95Q283.28125 341.73126 282.64062 341.73126Q282.04688 341.73126 281.64062 341.91876Q281.25 342.09064 281.0625 342.40314Q280.875 342.71564 280.875 343.10626Q280.875 343.3719 280.98438 343.60626Q281.10938 343.825 281.34375 344.0125Q281.59375 344.2 281.96875 344.35626Q282.34375 344.5125 282.875 344.65314Q283.59375 344.85626 284.125 345.1219Q284.65625 345.3719 285.0 345.6844Q285.34375 345.9969 285.5 346.3875Q285.67188 346.77814 285.67188 347.27814Q285.67188 347.8094 285.45312 348.23126Q285.25 348.65314 284.85938 348.95Q284.46875 349.2469 283.92188 349.41876Q283.375 349.575 282.70312 349.575Q282.10938 349.575 281.53125 349.40314Q280.96875 349.23126 280.5 348.90314Q280.03125 348.575 279.75 348.10626Q279.46875 347.6219 279.46875 346.98126L280.59375 346.98126Q280.59375 347.41876 280.76562 347.73126Q280.9375 348.04376 281.23438 348.2469Q281.53125 348.45 281.90625 348.5594Q282.28125 348.65314 282.70312 348.65314Q283.29688 348.65314 283.70312 348.4969Q284.10938 348.325 284.3125 348.02814Q284.53125 347.71564 284.53125 347.29376ZM287.92188 340.45L287.92188 349.45L286.82812 349.45L286.82812 340.45L287.92188 340.45ZM291.79688 343.10626L289.03125 346.075L287.48438 347.66876L287.39062 346.5125L288.5 345.2L290.46875 343.10626L291.79688 343.10626ZM290.79688 349.45L288.53125 346.41876L289.09375 345.46564L292.07812 349.45L290.79688 349.45ZM294.0 343.10626L294.0 349.45L292.92188 349.45L292.92188 343.10626L294.0 343.10626ZM292.82812 341.4344Q292.82812 341.16876 292.98438 340.98126Q293.15625 340.79376 293.46875 340.79376Q293.78125 340.79376 293.9375 340.98126Q294.10938 341.16876 294.10938 341.4344Q294.10938 341.6844 293.9375 341.8719Q293.78125 342.04376 293.46875 342.04376Q293.15625 342.04376 292.98438 341.8719Q292.82812 341.6844 292.82812 341.4344ZM296.90625 344.325L296.90625 351.8875L295.82812 351.8875L295.82812 343.10626L296.8125 343.10626L296.90625 344.325ZM301.1875 346.23126L301.1875 346.35626Q301.1875 347.04376 301.01562 347.6375Q300.85938 348.21564 300.54688 348.65314Q300.23438 349.09064 299.76562 349.34064Q299.3125 349.575 298.71875 349.575Q298.125 349.575 297.65625 349.3719Q297.1875 349.16876 296.85938 348.79376Q296.54688 348.40314 296.35938 347.8719Q296.17188 347.34064 296.09375 346.66876L296.09375 346.0125Q296.17188 345.3094 296.35938 344.7625Q296.54688 344.2 296.85938 343.8094Q297.1875 343.40314 297.64062 343.2Q298.10938 342.9969 298.70312 342.9969Q299.29688 342.9969 299.76562 343.23126Q300.23438 343.45 300.54688 343.8875Q300.85938 344.3094 301.01562 344.90314Q301.1875 345.4969 301.1875 346.23126ZM300.09375 346.35626L300.09375 346.23126Q300.09375 345.7469 299.98438 345.34064Q299.89062 344.91876 299.6875 344.60626Q299.48438 344.27814 299.15625 344.09064Q298.82812 343.90314 298.39062 343.90314Q297.98438 343.90314 297.67188 344.04376Q297.375 344.1844 297.15625 344.4344Q296.95312 344.66876 296.8125 344.96564Q296.6875 345.2625 296.625 345.59064L296.625 347.10626Q296.73438 347.5125 296.9375 347.8719Q297.15625 348.23126 297.5 348.45Q297.85938 348.66876 298.40625 348.66876Q298.84375 348.66876 299.15625 348.4969Q299.48438 348.3094 299.6875 347.9969Q299.89062 347.66876 299.98438 347.2469Q300.09375 346.825 300.09375 346.35626ZM303.90625 344.325L303.90625 351.8875L302.82812 351.8875L302.82812 343.10626L303.8125 343.10626L303.90625 344.325ZM308.1875 346.23126L308.1875 346.35626Q308.1875 347.04376 308.01562 347.6375Q307.85938 348.21564 307.54688 348.65314Q307.23438 349.09064 306.76562 349.34064Q306.3125 349.575 305.71875 349.575Q305.125 349.575 304.65625 349.3719Q304.1875 349.16876 303.85938 348.79376Q303.54688 348.40314 303.35938 347.8719Q303.17188 347.34064 303.09375 346.66876L303.09375 346.0125Q303.17188 345.3094 303.35938 344.7625Q303.54688 344.2 303.85938 343.8094Q304.1875 343.40314 304.64062 343.2Q305.10938 342.9969 305.70312 342.9969Q306.29688 342.9969 306.76562 343.23126Q307.23438 343.45 307.54688 343.8875Q307.85938 344.3094 308.01562 344.90314Q308.1875 345.4969 308.1875 346.23126ZM307.09375 346.35626L307.09375 346.23126Q307.09375 345.7469 306.98438 345.34064Q306.89062 344.91876 306.6875 344.60626Q306.48438 344.27814 306.15625 344.09064Q305.82812 343.90314 305.39062 343.90314Q304.98438 343.90314 304.67188 344.04376Q304.375 344.1844 304.15625 344.4344Q303.95312 344.66876 303.8125 344.96564Q303.6875 345.2625 303.625 345.59064L303.625 347.10626Q303.73438 347.5125 303.9375 347.8719Q304.15625 348.23126 304.5 348.45Q304.85938 348.66876 305.40625 348.66876Q305.84375 348.66876 306.15625 348.4969Q306.48438 348.3094 306.6875 347.9969Q306.89062 347.66876 306.98438 347.2469Q307.09375 346.825 307.09375 346.35626ZM312.45312 349.575Q311.79688 349.575 311.25 349.35626Q310.71875 349.1219 310.32812 348.71564Q309.95312 348.29376 309.75 347.73126Q309.54688 347.16876 309.54688 346.4969L309.54688 346.2625Q309.54688 345.48126 309.76562 344.8719Q310.0 344.2625 310.39062 343.84064Q310.78125 343.41876 311.28125 343.21564Q311.78125 342.9969 312.3125 342.9969Q313.0 342.9969 313.48438 343.23126Q313.98438 343.46564 314.29688 343.8875Q314.625 344.29376 314.76562 344.8719Q314.92188 345.4344 314.92188 346.09064L314.92188 346.59064L310.1875 346.59064L310.1875 345.7L313.84375 345.7L313.84375 345.6219Q313.8125 345.2 313.65625 344.8094Q313.51562 344.40314 313.1875 344.15314Q312.875 343.8875 312.3125 343.8875Q311.95312 343.8875 311.64062 344.04376Q311.32812 344.2 311.09375 344.5125Q310.875 344.8094 310.75 345.2469Q310.64062 345.6844 310.64062 346.2625L310.64062 346.4969Q310.64062 346.95 310.76562 347.35626Q310.89062 347.7469 311.125 348.04376Q311.375 348.34064 311.71875 348.5125Q312.07812 348.6844 312.51562 348.6844Q313.09375 348.6844 313.48438 348.45Q313.89062 348.21564 314.1875 347.825L314.84375 348.34064Q314.64062 348.65314 314.3125 348.9344Q314.0 349.21564 313.53125 349.40314Q313.07812 349.575 312.45312 349.575ZM319.82812 348.21564L319.82812 340.45L320.90625 340.45L320.90625 349.45L319.92188 349.45L319.82812 348.21564ZM315.5625 346.35626L315.5625 346.23126Q315.5625 345.4969 315.73438 344.90314Q315.92188 344.3094 316.25 343.8875Q316.57812 343.45 317.03125 343.23126Q317.5 342.9969 318.0625 342.9969Q318.65625 342.9969 319.10938 343.2Q319.5625 343.40314 319.875 343.8094Q320.1875 344.2 320.35938 344.7625Q320.54688 345.3094 320.625 346.0125L320.625 346.5594Q320.5625 347.2469 320.375 347.8094Q320.1875 348.3719 319.875 348.7625Q319.5625 349.15314 319.10938 349.3719Q318.65625 349.575 318.04688 349.575Q317.5 349.575 317.03125 349.34064Q316.57812 349.09064 316.25 348.65314Q315.92188 348.21564 315.73438 347.6375Q315.5625 347.04376 315.5625 346.35626ZM316.64062 346.23126L316.64062 346.35626Q316.64062 346.825 316.73438 347.2469Q316.84375 347.65314 317.04688 347.98126Q317.25 348.29376 317.5625 348.48126Q317.89062 348.65314 318.32812 348.65314Q318.85938 348.65314 319.20312 348.41876Q319.5625 348.1844 319.76562 347.8094Q319.98438 347.4344 320.09375 346.9969L320.09375 345.59064Q320.03125 345.2625 319.89062 344.96564Q319.76562 344.66876 319.54688 344.4344Q319.34375 344.1844 319.04688 344.04376Q318.75 343.90314 318.32812 343.90314Q317.89062 343.90314 317.5625 344.09064Q317.25 344.27814 317.04688 344.60626Q316.84375 344.91876 316.73438 345.34064Q316.64062 345.7469 316.64062 346.23126Z" fill-rule="nonzero"/><path fill="#000000" d="M438.34515 340.91876L439.47015 340.91876L439.47015 346.6844Q439.47015 347.65314 439.03265 348.29376Q438.61078 348.9344 437.90765 349.2625Q437.20453 349.575 436.3764 349.575Q435.5014 349.575 434.79828 349.2625Q434.11078 348.9344 433.70453 348.29376Q433.29828 347.65314 433.29828 346.6844L433.29828 340.91876L434.40765 340.91876L434.40765 346.6844Q434.40765 347.35626 434.65765 347.79376Q434.90765 348.23126 435.34515 348.45Q435.78265 348.65314 436.3764 348.65314Q436.97015 348.65314 437.40765 348.45Q437.84515 348.23126 438.09515 347.79376Q438.34515 347.35626 438.34515 346.6844L438.34515 340.91876ZM442.3764 344.325L442.3764 351.8875L441.29828 351.8875L441.29828 343.10626L442.28265 343.10626L442.3764 344.325ZM446.65765 346.23126L446.65765 346.35626Q446.65765 347.04376 446.48578 347.6375Q446.32953 348.21564 446.01703 348.65314Q445.70453 349.09064 445.23578 349.34064Q444.78265 349.575 444.1889 349.575Q443.59515 349.575 443.1264 349.3719Q442.65765 349.16876 442.32953 348.79376Q442.01703 348.40314 441.82953 347.8719Q441.64203 347.34064 441.5639 346.66876L441.5639 346.0125Q441.64203 345.3094 441.82953 344.7625Q442.01703 344.2 442.32953 343.8094Q442.65765 343.40314 443.11078 343.2Q443.57953 342.9969 444.17328 342.9969Q444.76703 342.9969 445.23578 343.23126Q445.70453 343.45 446.01703 343.8875Q446.32953 344.3094 446.48578 344.90314Q446.65765 345.4969 446.65765 346.23126ZM445.5639 346.35626L445.5639 346.23126Q445.5639 345.7469 445.45453 345.34064Q445.36078 344.91876 445.15765 344.60626Q444.95453 344.27814 444.6264 344.09064Q444.29828 343.90314 443.86078 343.90314Q443.45453 343.90314 443.14203 344.04376Q442.84515 344.1844 442.6264 344.4344Q442.42328 344.66876 442.28265 344.96564Q442.15765 345.2625 442.09515 345.59064L442.09515 347.10626Q442.20453 347.5125 442.40765 347.8719Q442.6264 348.23126 442.97015 348.45Q443.32953 348.66876 443.8764 348.66876Q444.3139 348.66876 444.6264 348.4969Q444.95453 348.3094 445.15765 347.9969Q445.36078 347.66876 445.45453 347.2469Q445.5639 346.825 445.5639 346.35626ZM450.82953 348.66876Q451.22015 348.66876 451.54828 348.5125Q451.8764 348.35626 452.07953 348.09064Q452.29828 347.8094 452.32953 347.45L453.36078 347.45Q453.32953 348.0125 452.97015 348.4969Q452.6264 348.98126 452.0639 349.27814Q451.5014 349.575 450.82953 349.575Q450.1264 349.575 449.59515 349.325Q449.0639 349.0594 448.70453 348.6219Q448.36078 348.1844 448.1889 347.6219Q448.01703 347.04376 448.01703 346.40314L448.01703 346.15314Q448.01703 345.5125 448.1889 344.95Q448.36078 344.3719 448.70453 343.9344Q449.0639 343.4969 449.59515 343.2469Q450.1264 342.9969 450.82953 342.9969Q451.57953 342.9969 452.1264 343.29376Q452.6889 343.59064 453.0014 344.1219Q453.32953 344.6375 453.36078 345.29376L452.32953 345.29376Q452.29828 344.90314 452.11078 344.59064Q451.92328 344.2625 451.59515 344.075Q451.26703 343.8875 450.82953 343.8875Q450.32953 343.8875 449.98578 344.09064Q449.65765 344.27814 449.45453 344.60626Q449.26703 344.9344 449.17328 345.34064Q449.09515 345.7469 449.09515 346.15314L449.09515 346.40314Q449.09515 346.825 449.17328 347.23126Q449.26703 347.6219 449.45453 347.95Q449.65765 348.27814 449.98578 348.48126Q450.32953 348.66876 450.82953 348.66876ZM454.01703 346.35626L454.01703 346.21564Q454.01703 345.52814 454.20453 344.95Q454.40765 344.35626 454.78265 343.91876Q455.15765 343.48126 455.6889 343.2469Q456.22015 342.9969 456.89203 342.9969Q457.54828 342.9969 458.07953 343.2469Q458.6264 343.48126 459.0014 343.91876Q459.3764 344.35626 459.57953 344.95Q459.78265 345.52814 459.78265 346.21564L459.78265 346.35626Q459.78265 347.02814 459.57953 347.6219Q459.3764 348.2 459.0014 348.6375Q458.6264 349.075 458.09515 349.325Q457.5639 349.575 456.89203 349.575Q456.23578 349.575 455.6889 349.325Q455.15765 349.075 454.78265 348.6375Q454.40765 348.2 454.20453 347.6219Q454.01703 347.02814 454.01703 346.35626ZM455.09515 346.21564L455.09515 346.35626Q455.09515 346.825 455.20453 347.2469Q455.3139 347.66876 455.53265 347.9969Q455.76703 348.3094 456.11078 348.4969Q456.45453 348.66876 456.89203 348.66876Q457.34515 348.66876 457.67328 348.4969Q458.01703 348.3094 458.23578 347.9969Q458.47015 347.66876 458.57953 347.2469Q458.6889 346.825 458.6889 346.35626L458.6889 346.21564Q458.6889 345.7469 458.57953 345.325Q458.47015 344.90314 458.23578 344.59064Q458.01703 344.2625 457.67328 344.075Q457.34515 343.8875 456.89203 343.8875Q456.4389 343.8875 456.09515 344.075Q455.76703 344.2625 455.53265 344.59064Q455.3139 344.90314 455.20453 345.325Q455.09515 345.7469 455.09515 346.21564ZM462.3764 344.3719L462.3764 349.45L461.28265 349.45L461.28265 343.10626L462.3139 343.10626L462.3764 344.3719ZM462.15765 346.04376L461.64203 346.02814Q461.65765 345.3719 461.8139 344.825Q461.98578 344.2625 462.29828 343.85626Q462.6264 343.45 463.11078 343.23126Q463.59515 342.9969 464.22015 342.9969Q464.67328 342.9969 465.04828 343.1219Q465.42328 343.2469 465.6889 343.5125Q465.97015 343.77814 466.11078 344.2Q466.26703 344.6219 466.26703 345.23126L466.26703 349.45L465.1889 349.45L465.1889 345.27814Q465.1889 344.77814 465.01703 344.48126Q464.86078 344.1844 464.54828 344.04376Q464.2514 343.90314 463.82953 343.90314Q463.36078 343.90314 463.03265 344.075Q462.70453 344.2469 462.51703 344.54376Q462.32953 344.84064 462.23578 345.23126Q462.15765 345.60626 462.15765 346.04376ZM466.26703 345.4344L465.53265 345.66876Q465.53265 345.1375 465.70453 344.66876Q465.8764 344.1844 466.1889 343.8094Q466.51703 343.4344 466.98578 343.21564Q467.45453 342.9969 468.04828 342.9969Q468.5639 342.9969 468.95453 343.1375Q469.36078 343.2625 469.6264 343.54376Q469.89203 343.825 470.03265 344.2625Q470.17328 344.6844 470.17328 345.27814L470.17328 349.45L469.09515 349.45L469.09515 345.27814Q469.09515 344.73126 468.92328 344.45Q468.7514 344.15314 468.45453 344.02814Q468.15765 343.90314 467.73578 343.90314Q467.3764 343.90314 467.09515 344.02814Q466.82953 344.15314 466.64203 344.3719Q466.45453 344.575 466.36078 344.85626Q466.26703 345.1375 466.26703 345.4344ZM473.47015 343.10626L473.47015 349.45L472.39203 349.45L472.39203 343.10626L473.47015 343.10626ZM472.29828 341.4344Q472.29828 341.16876 472.45453 340.98126Q472.6264 340.79376 472.9389 340.79376Q473.2514 340.79376 473.40765 340.98126Q473.57953 341.16876 473.57953 341.4344Q473.57953 341.6844 473.40765 341.8719Q473.2514 342.04376 472.9389 342.04376Q472.6264 342.04376 472.45453 341.8719Q472.29828 341.6844 472.29828 341.4344ZM476.3764 344.46564L476.3764 349.45L475.29828 349.45L475.29828 343.10626L476.32953 343.10626L476.3764 344.46564ZM476.1264 346.04376L475.67328 346.02814Q475.67328 345.3719 475.86078 344.825Q476.04828 344.2625 476.39203 343.85626Q476.73578 343.45 477.20453 343.23126Q477.67328 342.9969 478.2514 342.9969Q478.72015 342.9969 479.09515 343.1219Q479.47015 343.2469 479.73578 343.52814Q480.0014 343.79376 480.14203 344.23126Q480.28265 344.66876 480.28265 345.29376L480.28265 349.45L479.1889 349.45L479.1889 345.27814Q479.1889 344.77814 479.04828 344.48126Q478.90765 344.1844 478.6264 344.04376Q478.34515 343.90314 477.92328 343.90314Q477.51703 343.90314 477.1889 344.075Q476.86078 344.2469 476.6264 344.54376Q476.39203 344.84064 476.2514 345.23126Q476.1264 345.60626 476.1264 346.04376ZM486.40765 343.10626L487.39203 343.10626L487.39203 349.3094Q487.39203 350.15314 487.04828 350.7469Q486.70453 351.34064 486.09515 351.6375Q485.5014 351.95 484.70453 351.95Q484.3764 351.95 483.92328 351.84064Q483.48578 351.7469 483.0639 351.4969Q482.64203 351.2625 482.36078 350.85626L482.92328 350.2Q483.32953 350.6844 483.7514 350.8719Q484.1889 351.0594 484.6264 351.0594Q485.14203 351.0594 485.51703 350.85626Q485.89203 350.66876 486.09515 350.29376Q486.29828 349.91876 486.29828 349.3719L486.29828 344.4969L486.40765 343.10626ZM482.03265 346.35626L482.03265 346.23126Q482.03265 345.4969 482.20453 344.90314Q482.39203 344.3094 482.70453 343.8875Q483.03265 343.45 483.48578 343.23126Q483.95453 342.9969 484.54828 342.9969Q485.14203 342.9969 485.57953 343.2Q486.03265 343.40314 486.34515 343.8094Q486.65765 344.2 486.84515 344.7625Q487.03265 345.3094 487.09515 346.0125L487.09515 346.5594Q487.03265 347.2469 486.84515 347.8094Q486.65765 348.3719 486.34515 348.7625Q486.03265 349.15314 485.57953 349.3719Q485.1264 349.575 484.53265 349.575Q483.95453 349.575 483.5014 349.34064Q483.04828 349.09064 482.72015 348.65314Q482.39203 348.21564 482.20453 347.6375Q482.03265 347.04376 482.03265 346.35626ZM483.1264 346.23126L483.1264 346.35626Q483.1264 346.825 483.22015 347.2469Q483.3139 347.65314 483.51703 347.98126Q483.72015 348.29376 484.03265 348.48126Q484.36078 348.65314 484.79828 348.65314Q485.32953 348.65314 485.67328 348.41876Q486.03265 348.1844 486.23578 347.8094Q486.45453 347.4344 486.5639 346.9969L486.5639 345.59064Q486.5014 345.2625 486.36078 344.96564Q486.23578 344.66876 486.03265 344.4344Q485.82953 344.1844 485.51703 344.04376Q485.22015 343.90314 484.79828 343.90314Q484.36078 343.90314 484.03265 344.09064Q483.72015 344.27814 483.51703 344.60626Q483.3139 344.91876 483.22015 345.34064Q483.1264 345.7469 483.1264 346.23126Z" fill-rule="nonzero"/><path fill="#434343" d="M226.40625 23.33125L226.40625 37.55L224.54688 37.55L224.54688 23.33125L226.40625 23.33125ZM230.96875 23.33125L230.96875 24.878124L219.98438 24.878124L219.98438 23.33125L230.96875 23.33125ZM232.40625 32.378124L232.40625 32.159374Q232.40625 31.01875 232.73438 30.034374Q233.0625 29.05 233.6875 28.33125Q234.3125 27.596874 235.20312 27.190624Q236.09375 26.784374 237.1875 26.784374Q238.3125 26.784374 239.20312 27.190624Q240.09375 27.596874 240.71875 28.33125Q241.35938 29.05 241.6875 30.034374Q242.01562 31.01875 242.01562 32.159374L242.01562 32.378124Q242.01562 33.51875 241.6875 34.503124Q241.35938 35.471874 240.71875 36.20625Q240.09375 36.940624 239.20312 37.346874Q238.32812 37.753124 237.21875 37.753124Q236.09375 37.753124 235.20312 37.346874Q234.32812 36.940624 233.6875 36.20625Q233.0625 35.471874 232.73438 34.503124Q232.40625 33.51875 232.40625 32.378124ZM234.20312 32.159374L234.20312 32.378124Q234.20312 33.175 234.39062 33.878124Q234.57812 34.565624 234.95312 35.1125Q235.32812 35.64375 235.89062 35.95625Q236.46875 36.253124 237.21875 36.253124Q237.95312 36.253124 238.51562 35.95625Q239.07812 35.64375 239.45312 35.1125Q239.82812 34.565624 240.01562 33.878124Q240.20312 33.175 240.20312 32.378124L240.20312 32.159374Q240.20312 31.378124 240.01562 30.690624Q239.82812 29.9875 239.4375 29.440624Q239.0625 28.89375 238.5 28.58125Q237.95312 28.26875 237.1875 28.26875Q236.45312 28.26875 235.89062 28.58125Q235.32812 28.89375 234.95312 29.440624Q234.57812 29.9875 234.39062 30.690624Q234.20312 31.378124 234.20312 32.159374ZM248.29688 26.9875L248.29688 28.3625L242.59375 28.3625L242.59375 26.9875L248.29688 26.9875ZM244.51562 24.409374L246.32812 24.409374L246.32812 34.925Q246.32812 35.471874 246.48438 35.753124Q246.65625 36.01875 246.92188 36.1125Q247.1875 36.190624 247.48438 36.190624Q247.71875 36.190624 247.96875 36.14375Q248.21875 36.096874 248.34375 36.08125L248.34375 37.55Q248.14062 37.6125 247.78125 37.675Q247.4375 37.753124 246.95312 37.753124Q246.29688 37.753124 245.73438 37.4875Q245.17188 37.221874 244.84375 36.596874Q244.51562 35.971874 244.51562 34.925L244.51562 24.409374ZM257.10938 35.7375L257.10938 30.3Q257.10938 29.675 256.85938 29.221874Q256.60938 28.753124 256.10938 28.503124Q255.60938 28.2375 254.875 28.2375Q254.20312 28.2375 253.6875 28.471874Q253.17188 28.70625 252.875 29.096874Q252.59375 29.471874 252.59375 29.909374L250.79688 29.909374Q250.79688 29.346874 251.07812 28.8Q251.375 28.2375 251.92188 27.784374Q252.48438 27.33125 253.25 27.065624Q254.03125 26.784374 254.98438 26.784374Q256.14062 26.784374 257.01562 27.175Q257.90625 27.565624 258.40625 28.3625Q258.92188 29.14375 258.92188 30.315624L258.92188 35.2375Q258.92188 35.76875 259.0 36.3625Q259.09375 36.95625 259.28125 37.39375L259.28125 37.55L257.40625 37.55Q257.26562 37.2375 257.1875 36.721874Q257.10938 36.190624 257.10938 35.7375ZM257.42188 31.14375L257.4375 32.409374L255.60938 32.409374Q254.84375 32.409374 254.23438 32.534374Q253.625 32.659374 253.21875 32.909374Q252.8125 33.14375 252.59375 33.51875Q252.375 33.878124 252.375 34.3625Q252.375 34.8625 252.59375 35.284374Q252.82812 35.690624 253.28125 35.925Q253.73438 36.159374 254.40625 36.159374Q255.23438 36.159374 255.85938 35.815624Q256.5 35.45625 256.875 34.95625Q257.25 34.440624 257.28125 33.971874L258.0625 34.83125Q257.98438 35.2375 257.67188 35.7375Q257.375 36.2375 256.875 36.690624Q256.375 37.14375 255.6875 37.45625Q255.0 37.753124 254.14062 37.753124Q253.0625 37.753124 252.25 37.33125Q251.45312 36.909374 251.0 36.20625Q250.5625 35.4875 250.5625 34.6125Q250.5625 33.753124 250.89062 33.1125Q251.23438 32.45625 251.85938 32.034374Q252.48438 31.596874 253.35938 31.378124Q254.23438 31.14375 255.32812 31.14375L257.42188 31.14375ZM263.84375 22.55L263.84375 37.55L262.03125 37.55L262.03125 22.55L263.84375 22.55ZM282.65625 30.471874L282.65625 35.675Q282.39062 36.065624 281.8125 36.55Q281.25 37.034374 280.23438 37.39375Q279.21875 37.753124 277.625 37.753124Q276.32812 37.753124 275.23438 37.3Q274.15625 36.83125 273.35938 35.95625Q272.5625 35.08125 272.125 33.83125Q271.6875 32.58125 271.6875 30.9875L271.6875 29.878124Q271.6875 28.284374 272.0625 27.034374Q272.4375 25.784374 273.17188 24.925Q273.90625 24.05 274.96875 23.596874Q276.03125 23.128124 277.42188 23.128124Q279.04688 23.128124 280.14062 23.690624Q281.25 24.253124 281.85938 25.253124Q282.48438 26.2375 282.65625 27.4875L280.78125 27.4875Q280.64062 26.721874 280.26562 26.096874Q279.89062 25.45625 279.20312 25.065624Q278.51562 24.675 277.42188 24.675Q276.42188 24.675 275.70312 25.034374Q274.98438 25.39375 274.51562 26.08125Q274.04688 26.753124 273.8125 27.70625Q273.59375 28.659374 273.59375 29.8625L273.59375 30.9875Q273.59375 32.221874 273.875 33.190624Q274.15625 34.14375 274.6875 34.83125Q275.23438 35.503124 275.98438 35.8625Q276.73438 36.20625 277.64062 36.20625Q278.64062 36.20625 279.26562 36.034374Q279.89062 35.8625 280.23438 35.628124Q280.59375 35.39375 280.78125 35.175L280.78125 31.9875L277.5 31.9875L277.5 30.471874L282.65625 30.471874ZM287.84375 26.9875L287.84375 37.55L286.03125 37.55L286.03125 26.9875L287.84375 26.9875ZM285.89062 24.175Q285.89062 23.7375 286.15625 23.440624Q286.42188 23.128124 286.95312 23.128124Q287.46875 23.128124 287.75 23.440624Q288.03125 23.7375 288.03125 24.175Q288.03125 24.596874 287.75 24.89375Q287.46875 25.190624 286.95312 25.190624Q286.42188 25.190624 286.15625 24.89375Q285.89062 24.596874 285.89062 24.175ZM297.71875 26.9875L299.35938 26.9875L299.35938 37.33125Q299.35938 38.721874 298.79688 39.70625Q298.23438 40.690624 297.21875 41.20625Q296.20312 41.721874 294.89062 41.721874Q294.34375 41.721874 293.60938 41.55Q292.875 41.378124 292.15625 40.971874Q291.45312 40.565624 290.96875 39.878124L291.92188 38.815624Q292.59375 39.6125 293.3125 39.925Q294.04688 40.2375 294.75 40.2375Q295.60938 40.2375 296.23438 39.909374Q296.85938 39.596874 297.20312 38.95625Q297.5625 38.33125 297.5625 37.409374L297.5625 29.3L297.71875 26.9875ZM290.45312 32.378124L290.45312 32.175Q290.45312 30.971874 290.73438 29.9875Q291.03125 28.9875 291.5625 28.284374Q292.10938 27.565624 292.875 27.175Q293.65625 26.784374 294.625 26.784374Q295.60938 26.784374 296.35938 27.14375Q297.10938 27.4875 297.625 28.14375Q298.15625 28.8 298.45312 29.7375Q298.76562 30.659374 298.875 31.83125L298.875 32.721874Q298.76562 33.89375 298.45312 34.815624Q298.15625 35.7375 297.625 36.39375Q297.10938 37.05 296.35938 37.409374Q295.60938 37.753124 294.59375 37.753124Q293.65625 37.753124 292.89062 37.346874Q292.125 36.940624 291.57812 36.221874Q291.03125 35.503124 290.73438 34.51875Q290.45312 33.534374 290.45312 32.378124ZM292.25 32.175L292.25 32.378124Q292.25 33.175 292.40625 33.878124Q292.57812 34.565624 292.90625 35.096874Q293.25 35.6125 293.78125 35.909374Q294.3125 36.20625 295.03125 36.20625Q295.9375 36.20625 296.51562 35.83125Q297.10938 35.45625 297.45312 34.83125Q297.79688 34.20625 298.0 33.471874L298.0 31.1125Q297.89062 30.58125 297.67188 30.08125Q297.45312 29.565624 297.09375 29.175Q296.75 28.784374 296.23438 28.55Q295.73438 28.315624 295.0625 28.315624Q294.3125 28.315624 293.78125 28.628124Q293.25 28.925 292.90625 29.45625Q292.57812 29.9875 292.40625 30.690624Q292.25 31.39375 292.25 32.175ZM308.03125 34.753124Q308.03125 34.3625 307.85938 34.01875Q307.6875 33.675 307.15625 33.409374Q306.64062 33.128124 305.59375 32.925Q304.71875 32.7375 304.0 32.4875Q303.29688 32.221874 302.79688 31.8625Q302.3125 31.503124 302.04688 31.01875Q301.79688 30.534374 301.79688 29.878124Q301.79688 29.253124 302.0625 28.690624Q302.34375 28.128124 302.85938 27.70625Q303.375 27.26875 304.09375 27.034374Q304.8125 26.784374 305.70312 26.784374Q306.96875 26.784374 307.85938 27.2375Q308.76562 27.690624 309.25 28.440624Q309.73438 29.175 309.73438 30.08125L307.92188 30.08125Q307.92188 29.64375 307.65625 29.2375Q307.40625 28.815624 306.90625 28.55Q306.42188 28.26875 305.70312 28.26875Q304.95312 28.26875 304.48438 28.503124Q304.03125 28.7375 303.8125 29.096874Q303.60938 29.440624 303.60938 29.83125Q303.60938 30.1125 303.70312 30.346874Q303.8125 30.58125 304.07812 30.76875Q304.34375 30.95625 304.8125 31.128124Q305.29688 31.284374 306.03125 31.45625Q307.34375 31.753124 308.17188 32.159374Q309.01562 32.565624 309.42188 33.159374Q309.84375 33.753124 309.84375 34.6125Q309.84375 35.3 309.54688 35.878124Q309.26562 36.45625 308.71875 36.878124Q308.17188 37.284374 307.42188 37.51875Q306.6875 37.753124 305.75 37.753124Q304.35938 37.753124 303.39062 37.253124Q302.42188 36.753124 301.92188 35.95625Q301.42188 35.159374 301.42188 34.284374L303.25 34.284374Q303.28125 35.034374 303.67188 35.471874Q304.0625 35.89375 304.625 36.08125Q305.20312 36.253124 305.75 36.253124Q306.5 36.253124 307.0 36.065624Q307.5 35.8625 307.76562 35.534374Q308.03125 35.190624 308.03125 34.753124ZM318.84375 26.9875L318.84375 37.55L317.03125 37.55L317.03125 26.9875L318.84375 26.9875ZM316.89062 24.175Q316.89062 23.7375 317.15625 23.440624Q317.42188 23.128124 317.95312 23.128124Q318.46875 23.128124 318.75 23.440624Q319.03125 23.7375 319.03125 24.175Q319.03125 24.596874 318.75 24.89375Q318.46875 25.190624 317.95312 25.190624Q317.42188 25.190624 317.15625 24.89375Q316.89062 24.596874 316.89062 24.175ZM323.6875 29.2375L323.6875 37.55L321.875 37.55L321.875 26.9875L323.59375 26.9875L323.6875 29.2375ZM323.25 31.8625L322.5 31.83125Q322.51562 30.753124 322.82812 29.83125Q323.14062 28.909374 323.70312 28.221874Q324.26562 27.534374 325.04688 27.159374Q325.84375 26.784374 326.79688 26.784374Q327.57812 26.784374 328.20312 27.003124Q328.82812 27.20625 329.26562 27.675Q329.71875 28.128124 329.95312 28.8625Q330.1875 29.58125 330.1875 30.628124L330.1875 37.55L328.375 37.55L328.375 30.6125Q328.375 29.76875 328.125 29.26875Q327.89062 28.76875 327.42188 28.55Q326.95312 28.315624 326.26562 28.315624Q325.59375 28.315624 325.03125 28.596874Q324.48438 28.878124 324.07812 29.378124Q323.6875 29.878124 323.46875 30.51875Q323.25 31.159374 323.25 31.8625ZM347.0 36.065624L347.0 37.55L337.6875 37.55L337.6875 36.253124L342.34375 31.065624Q343.20312 30.1125 343.67188 29.440624Q344.15625 28.76875 344.34375 28.2375Q344.53125 27.70625 344.53125 27.14375Q344.53125 26.440624 344.25 25.878124Q343.96875 25.3 343.40625 24.95625Q342.84375 24.6125 342.0625 24.6125Q341.10938 24.6125 340.46875 24.9875Q339.84375 25.346874 339.53125 26.003124Q339.21875 26.659374 339.21875 27.503124L337.42188 27.503124Q337.42188 26.315624 337.9375 25.315624Q338.46875 24.315624 339.5 23.721874Q340.54688 23.128124 342.0625 23.128124Q343.40625 23.128124 344.35938 23.6125Q345.3125 24.08125 345.82812 24.940624Q346.34375 25.784374 346.34375 26.940624Q346.34375 27.565624 346.125 28.20625Q345.92188 28.83125 345.54688 29.471874Q345.1875 30.1125 344.70312 30.721874Q344.21875 31.33125 343.67188 31.940624L339.875 36.065624L347.0 36.065624ZM357.60938 29.3L357.60938 31.471874Q357.60938 33.221874 357.29688 34.425Q356.98438 35.628124 356.39062 36.3625Q355.8125 37.096874 354.98438 37.425Q354.15625 37.753124 353.125 37.753124Q352.3125 37.753124 351.60938 37.55Q350.92188 37.33125 350.35938 36.878124Q349.8125 36.425 349.42188 35.690624Q349.03125 34.95625 348.82812 33.925Q348.625 32.878124 348.625 31.471874L348.625 29.3Q348.625 27.565624 348.9375 26.378124Q349.26562 25.190624 349.84375 24.471874Q350.4375 23.753124 351.25 23.440624Q352.07812 23.128124 353.10938 23.128124Q353.9375 23.128124 354.625 23.33125Q355.32812 23.534374 355.875 23.971874Q356.42188 24.409374 356.8125 25.128124Q357.20312 25.846874 357.40625 26.878124Q357.60938 27.909374 357.60938 29.3ZM355.79688 31.76875L355.79688 29.003124Q355.79688 28.05 355.67188 27.33125Q355.5625 26.596874 355.34375 26.08125Q355.14062 25.55 354.8125 25.2375Q354.48438 24.909374 354.0625 24.76875Q353.64062 24.6125 353.10938 24.6125Q352.46875 24.6125 351.96875 24.846874Q351.46875 25.08125 351.125 25.6125Q350.79688 26.128124 350.60938 26.971874Q350.4375 27.8 350.4375 29.003124L350.4375 31.76875Q350.4375 32.721874 350.54688 33.45625Q350.67188 34.190624 350.89062 34.721874Q351.10938 35.253124 351.4375 35.596874Q351.76562 35.940624 352.1875 36.096874Q352.60938 36.253124 353.125 36.253124Q353.79688 36.253124 354.28125 36.003124Q354.78125 35.753124 355.10938 35.221874Q355.45312 34.675 355.625 33.815624Q355.79688 32.95625 355.79688 31.76875ZM369.0 36.065624L369.0 37.55L359.6875 37.55L359.6875 36.253124L364.34375 31.065624Q365.20312 30.1125 365.67188 29.440624Q366.15625 28.76875 366.34375 28.2375Q366.53125 27.70625 366.53125 27.14375Q366.53125 26.440624 366.25 25.878124Q365.96875 25.3 365.40625 24.95625Q364.84375 24.6125 364.0625 24.6125Q363.10938 24.6125 362.46875 24.9875Q361.84375 25.346874 361.53125 26.003124Q361.21875 26.659374 361.21875 27.503124L359.42188 27.503124Q359.42188 26.315624 359.9375 25.315624Q360.46875 24.315624 361.5 23.721874Q362.54688 23.128124 364.0625 23.128124Q365.40625 23.128124 366.35938 23.6125Q367.3125 24.08125 367.82812 24.940624Q368.34375 25.784374 368.34375 26.940624Q368.34375 27.565624 368.125 28.20625Q367.92188 28.83125 367.54688 29.471874Q367.1875 30.1125 366.70312 30.721874Q366.21875 31.33125 365.67188 31.940624L361.875 36.065624L369.0 36.065624ZM380.29688 32.76875L380.29688 34.253124L370.01562 34.253124L370.01562 33.190624L376.39062 23.33125L377.85938 23.33125L376.28125 26.175L372.0625 32.76875L380.29688 32.76875ZM378.3125 23.33125L378.3125 37.55L376.5 37.55L376.5 23.33125L378.3125 23.33125Z" fill-rule="nonzero"/></svg>
